<?xml version="1.0" encoding="UTF-8" standalone="no"?>
<!-- Created with Inkscape (http://www.inkscape.org/) -->

<svg
   xmlns:dc="http://purl.org/dc/elements/1.1/"
   xmlns:cc="http://creativecommons.org/ns#"
   xmlns:rdf="http://www.w3.org/1999/02/22-rdf-syntax-ns#"
   xmlns:svg="http://www.w3.org/2000/svg"
   xmlns="http://www.w3.org/2000/svg"
   xmlns:sodipodi="http://sodipodi.sourceforge.net/DTD/sodipodi-0.dtd"
   xmlns:inkscape="http://www.inkscape.org/namespaces/inkscape"
   width="63.353001mm"
   height="88.352997mm"
   viewBox="0 0 63.353001 88.352997"
   version="1.1"
   id="svg22813"
   inkscape:version="0.92.2 2405546, 2018-03-11"
   sodipodi:docname="1c.svg">
  <defs
     id="defs22807" />
  <sodipodi:namedview
     id="base"
     pagecolor="#ffffff"
     bordercolor="#666666"
     borderopacity="1.0"
     inkscape:pageopacity="0.0"
     inkscape:pageshadow="2"
     inkscape:zoom="1.4"
     inkscape:cx="79.906021"
     inkscape:cy="124.23278"
     inkscape:document-units="mm"
     inkscape:current-layer="layer1"
     showgrid="false"
     inkscape:window-width="1920"
     inkscape:window-height="992"
     inkscape:window-x="0"
     inkscape:window-y="27"
     inkscape:window-maximized="1" />
  <metadata
     id="metadata22810">
    <rdf:RDF>
      <cc:Work
         rdf:about="">
        <dc:format>image/svg+xml</dc:format>
        <dc:type
           rdf:resource="http://purl.org/dc/dcmitype/StillImage" />
        <dc:title></dc:title>
      </cc:Work>
    </rdf:RDF>
  </metadata>
  <g
     inkscape:label="Layer 1"
     inkscape:groupmode="layer"
     id="layer1"
     transform="translate(0,-208.647)">
    <g
       transform="matrix(0.35277777,0,0,-0.35277777,-1.3793611e-4,484.99986)"
       id="g64026">
      <path
         d="m 179.082,547.586 c 0,-7.827 -6.344,-14.173 -14.172,-14.173 H 14.6742 c -7.82811,0 -14.173809,6.346 -14.173809,14.173 v 221.103 c 0,7.828 6.345699,14.174 14.173809,14.174 H 164.91 c 7.828,0 14.172,-6.346 14.172,-14.174 V 547.586"
         style="fill:#f7f7f5;fill-opacity:1;fill-rule:nonzero;stroke:none;stroke-width:0.1"
         id="path43206"
         inkscape:connector-curvature="0" />
      <path
         d="m 179.082,547.586 c 0,-7.827 -6.344,-14.173 -14.172,-14.173 H 14.6742 c -7.82811,0 -14.173809,6.346 -14.173809,14.173 v 221.103 c 0,7.828 6.345699,14.174 14.173809,14.174 H 164.91 c 7.828,0 14.172,-6.346 14.172,-14.174 z"
         style="fill:none;stroke:#231f20;stroke-width:1;stroke-linecap:butt;stroke-linejoin:miter;stroke-miterlimit:4;stroke-dasharray:none;stroke-opacity:1"
         id="path43208"
         inkscape:connector-curvature="0" />
      <path
         d="m 13.2555,740.342 c -1.8625,0 -3.3762,-1.703 -3.3762,-3.802 0,-1.198 0.5012,-2.265 1.2687,-2.966 0.2579,-0.238 0.1465,-0.496 -0.1152,-0.334 -0.4805,0.291 -1.0207,0.477 -1.60663,0.477 -1.79687,0 -3.25586,-1.643 -3.25586,-3.666 0,-2.026 1.45899,-3.668 3.25586,-3.668 1.19723,0 2.24723,0.728 2.81053,1.816 0.0559,0.108 0.0977,0.252 0.1758,0.252 0.1086,0 0.1582,-0.174 0.1582,-0.502 0,-1.314 -0.5039,-2.849 -1.2519,-4.615 0.3242,0.076 1.298,0.271 1.9367,0.271 0.6386,0 1.6152,-0.195 1.9363,-0.271 -0.7441,1.766 -1.25,3.301 -1.25,4.615 0,0.328 0.048,0.502 0.1562,0.502 0.0782,0 0.1243,-0.144 0.1758,-0.252 0.5664,-1.088 1.6133,-1.816 2.8137,-1.816 1.7977,0 3.2559,1.642 3.2559,3.668 0,2.023 -1.4582,3.666 -3.2559,3.666 -0.5852,0 -1.1289,-0.186 -1.6086,-0.477 -0.2625,-0.162 -0.3738,0.096 -0.116,0.334 0.7703,0.701 1.2684,1.768 1.2684,2.966 0,2.099 -1.5106,3.802 -3.3758,3.802"
         style="fill:#050301;fill-opacity:1;fill-rule:nonzero;stroke:none;stroke-width:0.1"
         id="path43210"
         inkscape:connector-curvature="0" />
      <path
         d="m 166.328,575.933 c 1.862,0 3.377,1.704 3.377,3.801 0,1.201 -0.503,2.264 -1.267,2.967 -0.262,0.238 -0.149,0.495 0.116,0.334 0.477,-0.292 1.021,-0.476 1.603,-0.476 1.797,0 3.257,1.642 3.257,3.667 0,2.023 -1.46,3.666 -3.257,3.666 -1.196,0 -2.246,-0.729 -2.811,-1.817 -0.055,-0.106 -0.1,-0.253 -0.176,-0.253 -0.108,0 -0.158,0.176 -0.158,0.504 0,1.314 0.506,2.851 1.255,4.615 -0.323,-0.076 -1.303,-0.271 -1.939,-0.271 -0.637,0 -1.615,0.195 -1.935,0.271 0.744,-1.764 1.251,-3.301 1.251,-4.615 0,-0.328 -0.051,-0.504 -0.159,-0.504 -0.075,0 -0.121,0.147 -0.176,0.253 -0.563,1.088 -1.614,1.817 -2.811,1.817 -1.797,0 -3.257,-1.643 -3.257,-3.666 0,-2.025 1.46,-3.667 3.257,-3.667 0.582,0 1.127,0.184 1.603,0.476 0.266,0.161 0.377,-0.096 0.122,-0.334 -0.77,-0.703 -1.271,-1.766 -1.271,-2.967 0,-2.097 1.513,-3.801 3.376,-3.801"
         style="fill:#050301;fill-opacity:1;fill-rule:nonzero;stroke:none;stroke-width:0.1"
         id="path43212"
         inkscape:connector-curvature="0" />
      <path
         d="m 89.7914,679.396 c -4.659,0 -8.4402,-4.257 -8.4402,-9.501 0,-3 1.2508,-5.661 3.1718,-7.416 0.6473,-0.594 0.3692,-1.239 -0.2921,-0.836 -1.1981,0.728 -2.5516,1.191 -4.0145,1.191 -4.4934,0 -8.1406,-4.105 -8.1406,-9.164 0,-5.061 3.6472,-9.167 8.1406,-9.167 2.9969,0 5.618,1.822 7.0281,4.54 0.1368,0.267 0.2461,0.631 0.4434,0.631 0.2656,0 0.3906,-0.436 0.3906,-1.255 0,-3.288 -1.2617,-7.126 -3.1269,-11.541 0.8047,0.192 3.248,0.679 4.8398,0.679 1.5969,0 4.0371,-0.487 4.8449,-0.679 -1.8672,4.415 -3.1308,8.253 -3.1308,11.541 0,0.819 0.1277,1.255 0.3945,1.255 0.1961,0 0.3055,-0.364 0.4402,-0.631 1.4121,-2.718 4.0305,-4.54 7.0274,-4.54 4.4964,0 8.1404,4.106 8.1404,9.167 0,5.059 -3.644,9.164 -8.1404,9.164 -1.4598,0 -2.8145,-0.463 -4.0176,-1.191 -0.6551,-0.403 -0.9363,0.242 -0.2859,0.836 1.9179,1.755 3.1687,4.416 3.1687,7.416 0,5.244 -3.7812,9.501 -8.4414,9.501"
         style="fill:#050301;fill-opacity:1;fill-rule:nonzero;stroke:none;stroke-width:0.1"
         id="path43214"
         inkscape:connector-curvature="0" />
      <path
         d="m 18.7309,746.896 -4.0664,21.767 -2.1895,0.026 0.0039,-0.015 -0.5449,0.004 -4.05666,-21.782 H 6.17227 l -0.00274,-2.302 h 5.44997 l 0.0032,2.302 h -1.5723 l 0.6238,3.334 5.2617,0.008 0.6243,-3.342 -1.6672,0.002 -0.0039,-2.302 5.4504,-0.002 0.0027,2.302 z m -7.5879,5.834 2.1672,11.561 2.1589,-11.555 z"
         style="fill:#000000;fill-opacity:1;fill-rule:nonzero;stroke:none;stroke-width:0.1"
         id="path43216"
         inkscape:connector-curvature="0" />
      <path
         d="m 160.852,569.379 4.068,-21.766 2.188,-0.027 -0.003,0.016 0.545,-0.004 4.055,21.781 1.706,10e-4 0.003,2.302 h -5.45 l -0.003,-2.303 h 1.572 l -0.624,-3.334 -5.261,-0.008 -0.625,3.342 1.667,-0.002 0.005,2.303 -5.451,0.002 -0.003,-2.303 z m 7.588,-5.834 -2.167,-11.561 -2.158,11.555 z"
         style="fill:#000000;fill-opacity:1;fill-rule:nonzero;stroke:none;stroke-width:0.1"
         id="path43218"
         inkscape:connector-curvature="0" />
    </g>
  </g>
</svg>
