<?xml version="1.0" encoding="UTF-8" standalone="no"?>
<!-- Created with Inkscape (http://www.inkscape.org/) -->

<svg
   xmlns:dc="http://purl.org/dc/elements/1.1/"
   xmlns:cc="http://creativecommons.org/ns#"
   xmlns:rdf="http://www.w3.org/1999/02/22-rdf-syntax-ns#"
   xmlns:svg="http://www.w3.org/2000/svg"
   xmlns="http://www.w3.org/2000/svg"
   xmlns:sodipodi="http://sodipodi.sourceforge.net/DTD/sodipodi-0.dtd"
   xmlns:inkscape="http://www.inkscape.org/namespaces/inkscape"
   width="63.353001mm"
   height="88.352997mm"
   viewBox="0 0 63.353001 88.352997"
   version="1.1"
   id="svg22813"
   inkscape:version="0.92.2 2405546, 2018-03-11"
   sodipodi:docname="1h.svg">
  <defs
     id="defs22807" />
  <sodipodi:namedview
     id="base"
     pagecolor="#ffffff"
     bordercolor="#666666"
     borderopacity="1.0"
     inkscape:pageopacity="0.0"
     inkscape:pageshadow="2"
     inkscape:zoom="1.4"
     inkscape:cx="79.906021"
     inkscape:cy="124.23278"
     inkscape:document-units="mm"
     inkscape:current-layer="layer1"
     showgrid="false"
     inkscape:window-width="1920"
     inkscape:window-height="992"
     inkscape:window-x="0"
     inkscape:window-y="27"
     inkscape:window-maximized="1" />
  <metadata
     id="metadata22810">
    <rdf:RDF>
      <cc:Work
         rdf:about="">
        <dc:format>image/svg+xml</dc:format>
        <dc:type
           rdf:resource="http://purl.org/dc/dcmitype/StillImage" />
        <dc:title></dc:title>
      </cc:Work>
    </rdf:RDF>
  </metadata>
  <g
     inkscape:label="Layer 1"
     inkscape:groupmode="layer"
     id="layer1"
     transform="translate(0,-208.647)">
    <g
       transform="matrix(0.35277777,0,0,-0.35277777,0,485.53467)"
       id="g87521">
      <path
         d="m 179.084,549.102 c 0,-7.827 -6.346,-14.173 -14.174,-14.173 H 14.6734 C 6.8457,534.929 0.5,541.275 0.5,549.102 v 221.103 c 0,7.827 6.3457,14.173 14.1734,14.173 H 164.91 c 7.828,0 14.174,-6.346 14.174,-14.173 V 549.102"
         style="fill:#f7f7f5;fill-opacity:1;fill-rule:nonzero;stroke:none;stroke-width:0.1"
         id="path74761"
         inkscape:connector-curvature="0" />
      <path
         d="m 179.084,549.102 c 0,-7.827 -6.346,-14.173 -14.174,-14.173 H 14.6734 C 6.8457,534.929 0.5,541.275 0.5,549.102 v 221.103 c 0,7.827 6.3457,14.173 14.1734,14.173 H 164.91 c 7.828,0 14.174,-6.346 14.174,-14.173 z"
         style="fill:none;stroke:#231f20;stroke-width:1;stroke-linecap:butt;stroke-linejoin:miter;stroke-miterlimit:4;stroke-dasharray:none;stroke-opacity:1"
         id="path74763"
         inkscape:connector-curvature="0" />
      <path
         d="m 13.2672,741.859 c 1.7859,-3.471 4.1445,-6.309 7.075,-8.513 -2.9305,-2.207 -5.2891,-5.038 -7.075,-8.495 -1.8024,3.457 -4.16798,6.288 -7.09767,8.495 2.92969,2.204 5.29527,5.042 7.09767,8.513 v 0"
         style="fill:#e52c3f;fill-opacity:1;fill-rule:nonzero;stroke:none;stroke-width:0.1"
         id="path74765"
         inkscape:connector-curvature="0" />
      <path
         d="m 166.338,594.457 c 1.787,-3.469 4.146,-6.307 7.076,-8.513 -2.93,-2.206 -5.289,-5.038 -7.076,-8.495 -1.802,3.457 -4.168,6.289 -7.098,8.495 2.93,2.206 5.296,5.044 7.098,8.513 v 0"
         style="fill:#e52c3f;fill-opacity:1;fill-rule:nonzero;stroke:none;stroke-width:0.1"
         id="path74767"
         inkscape:connector-curvature="0" />
      <path
         d="m 89.027,678.589 c 4.4675,-8.395 10.3632,-15.254 17.691,-20.56 -7.3278,-5.331 -13.2235,-12.182 -17.691,-20.541 -4.5032,8.359 -10.4172,15.21 -17.7418,20.541 7.3246,5.306 13.2386,12.165 17.7418,20.56 v 0"
         style="fill:#e52c3f;fill-opacity:1;fill-rule:nonzero;stroke:none;stroke-width:0.1"
         id="path74769"
         inkscape:connector-curvature="0" />
      <path
         d="m 18.7309,748.413 -4.0672,21.767 -2.1887,0.025 0.0031,-0.016 -0.5449,0.005 -4.05664,-21.782 H 6.17188 l -0.00235,-2.301 h 5.44927 l 0.0027,2.301 h -1.5719 l 0.6246,3.334 5.261,0.008 0.6238,-3.34 h -1.6668 l -0.0039,-2.301 5.4508,-0.002 0.0031,2.301 z m -7.5879,5.834 2.166,11.56 2.1594,-11.554 z"
         style="fill:#e52c3f;fill-opacity:1;fill-rule:nonzero;stroke:none;stroke-width:0.1"
         id="path74771"
         inkscape:connector-curvature="0" />
      <path
         d="m 160.851,570.895 4.067,-21.767 2.189,-0.026 -0.003,0.016 0.545,-0.005 4.056,21.783 h 1.705 l 0.004,2.301 h -5.451 l -0.002,-2.301 h 1.572 l -0.625,-3.334 -5.261,-0.008 -0.624,3.34 h 1.667 l 0.004,2.301 -5.45,0.002 -0.004,-2.301 z m 7.588,-5.834 -2.166,-11.56 -2.159,11.554 z"
         style="fill:#e52c3f;fill-opacity:1;fill-rule:nonzero;stroke:none;stroke-width:0.1"
         id="path74773"
         inkscape:connector-curvature="0" />
    </g>
  </g>
</svg>
