<?xml version="1.0" encoding="UTF-8" standalone="no"?>
<!-- Created with Inkscape (http://www.inkscape.org/) -->

<svg
   xmlns:dc="http://purl.org/dc/elements/1.1/"
   xmlns:cc="http://creativecommons.org/ns#"
   xmlns:rdf="http://www.w3.org/1999/02/22-rdf-syntax-ns#"
   xmlns:svg="http://www.w3.org/2000/svg"
   xmlns="http://www.w3.org/2000/svg"
   xmlns:sodipodi="http://sodipodi.sourceforge.net/DTD/sodipodi-0.dtd"
   xmlns:inkscape="http://www.inkscape.org/namespaces/inkscape"
   width="63.353001mm"
   height="88.352997mm"
   viewBox="0 0 63.353001 88.352997"
   version="1.1"
   id="svg22813"
   inkscape:version="0.92.2 2405546, 2018-03-11"
   sodipodi:docname="1h.svg">
  <defs
     id="defs22807" />
  <sodipodi:namedview
     id="base"
     pagecolor="#ffffff"
     bordercolor="#666666"
     borderopacity="1.0"
     inkscape:pageopacity="0.0"
     inkscape:pageshadow="2"
     inkscape:zoom="1.4"
     inkscape:cx="79.906021"
     inkscape:cy="124.23278"
     inkscape:document-units="mm"
     inkscape:current-layer="layer1"
     showgrid="false"
     inkscape:window-width="1920"
     inkscape:window-height="992"
     inkscape:window-x="0"
     inkscape:window-y="27"
     inkscape:window-maximized="1" />
  <metadata
     id="metadata22810">
    <rdf:RDF>
      <cc:Work
         rdf:about="">
        <dc:format>image/svg+xml</dc:format>
        <dc:type
           rdf:resource="http://purl.org/dc/dcmitype/StillImage" />
        <dc:title></dc:title>
      </cc:Work>
    </rdf:RDF>
  </metadata>
  <g
     inkscape:label="Layer 1"
     inkscape:groupmode="layer"
     id="layer1"
     transform="translate(0,-208.647)">
    <g
       transform="matrix(0.35277777,0,0,-0.35277777,0,485.16601)"
       id="g43571">
      <path
         d="m 179.084,548.057 c 0,-7.827 -6.346,-14.173 -14.174,-14.173 H 14.6734 C 6.8457,533.884 0.5,540.23 0.5,548.057 v 221.102 c 0,7.829 6.3457,14.174 14.1734,14.174 H 164.91 c 7.828,0 14.174,-6.345 14.174,-14.174 V 548.057"
         style="fill:#f7f7f5;fill-opacity:1;fill-rule:nonzero;stroke:none;stroke-width:0.1"
         id="path31096"
         inkscape:connector-curvature="0" />
      <path
         d="m 179.084,548.057 c 0,-7.827 -6.346,-14.173 -14.174,-14.173 H 14.6734 C 6.8457,533.884 0.5,540.23 0.5,548.057 v 221.102 c 0,7.829 6.3457,14.174 14.1734,14.174 H 164.91 c 7.828,0 14.174,-6.345 14.174,-14.174 z"
         style="fill:none;stroke:#231f20;stroke-width:1;stroke-linecap:butt;stroke-linejoin:miter;stroke-miterlimit:4;stroke-dasharray:none;stroke-opacity:1"
         id="path31098"
         inkscape:connector-curvature="0" />
      <path
         d="m 17.2301,740.714 c -1.2473,0.387 -3.1856,-0.295 -3.8985,-3.123 -0.0597,-0.154 -0.1222,-0.15 -0.1777,0.006 -1.0285,2.865 -2.7219,3.491 -3.91327,3.117 -1.76407,-0.569 -3.19375,-2.673 -3.0629,-5.357 0.03516,-4.685 4.22777,-7.044 7.05777,-11.523 2.8301,4.479 7.0688,6.832 7.0813,11.536 0.2453,2.713 -1.2738,4.785 -3.0867,5.344"
         style="fill:#e52c3f;fill-opacity:1;fill-rule:nonzero;stroke:none;stroke-width:0.1"
         id="path31100"
         inkscape:connector-curvature="0" />
      <path
         d="m 13.2543,723.805 c -0.0063,0.009 -0.0125,0.019 -0.0188,0.029 -0.0066,-0.01 -0.0128,-0.02 -0.0191,-0.029 h 0.0379"
         style="fill:#e52c3f;fill-opacity:1;fill-rule:nonzero;stroke:none;stroke-width:0.1"
         id="path31102"
         inkscape:connector-curvature="0" />
      <path
         d="m 166.348,593.383 c -2.83,-4.479 -7.069,-6.832 -7.082,-11.537 -0.245,-2.712 1.275,-4.784 3.087,-5.344 1.246,-0.387 3.186,0.296 3.899,3.123 0.06,0.155 0.123,0.15 0.178,-0.006 1.029,-2.865 2.722,-3.49 3.911,-3.117 1.766,0.569 3.196,2.674 3.065,5.357 -0.035,4.685 -4.228,7.045 -7.058,11.524"
         style="fill:#e52c3f;fill-opacity:1;fill-rule:nonzero;stroke:none;stroke-width:0.1"
         id="path31104"
         inkscape:connector-curvature="0" />
      <path
         d="m 166.33,593.411 c 0.006,-0.009 0.012,-0.018 0.018,-0.028 0.006,0.01 0.013,0.019 0.019,0.028 h -0.037"
         style="fill:#e52c3f;fill-opacity:1;fill-rule:nonzero;stroke:none;stroke-width:0.1"
         id="path31106"
         inkscape:connector-curvature="0" />
      <path
         d="m 89.7809,637.348 c -0.0157,0.025 -0.0325,0.048 -0.0481,0.073 -0.0156,-0.025 -0.032,-0.048 -0.0476,-0.073 h 0.0957"
         style="fill:#e52c3f;fill-opacity:1;fill-rule:nonzero;stroke:none;stroke-width:0.1"
         id="path31108"
         inkscape:connector-curvature="0" />
      <path
         d="m 99.7289,679.619 c -3.116,0.969 -7.9746,-0.735 -9.7547,-7.803 -0.1484,-0.386 -0.3047,-0.378 -0.4453,0.014 -2.5695,7.16 -6.8019,8.725 -9.7797,7.789 -4.409,-1.422 -7.9812,-6.68 -7.6539,-13.389 0.0879,-11.714 10.5641,-17.613 17.6375,-28.809 7.086,11.196 17.6812,17.079 17.7102,28.845 0.613,6.779 -3.182,11.957 -7.7141,13.353"
         style="fill:#e52c3f;fill-opacity:1;fill-rule:nonzero;stroke:none;stroke-width:0.1"
         id="path31110"
         inkscape:connector-curvature="0" />
      <path
         d="m 18.7309,747.368 -4.0672,21.767 -2.1887,0.025 0.0031,-0.015 -0.5449,0.005 -4.05664,-21.783 H 6.17188 l -0.00235,-2.301 h 5.44927 l 0.0027,2.301 h -1.5719 l 0.6246,3.334 5.261,0.008 0.6238,-3.341 -1.6668,10e-4 -0.0039,-2.301 5.4508,-0.002 0.0031,2.301 z m -7.5879,5.834 2.166,11.56 2.1594,-11.554 z"
         style="fill:#e52c3f;fill-opacity:1;fill-rule:nonzero;stroke:none;stroke-width:0.1"
         id="path31112"
         inkscape:connector-curvature="0" />
      <path
         d="m 160.851,569.85 4.067,-21.768 2.189,-0.025 -0.003,0.015 0.545,-0.004 4.056,21.782 h 1.705 l 0.004,2.302 h -5.451 l -0.002,-2.302 h 1.572 l -0.625,-3.334 -5.261,-0.008 -0.624,3.341 1.667,-0.001 0.004,2.302 -5.45,0.002 -0.004,-2.302 z m 7.588,-5.834 -2.166,-11.561 -2.159,11.555 z"
         style="fill:#e52c3f;fill-opacity:1;fill-rule:nonzero;stroke:none;stroke-width:0.1"
         id="path31114"
         inkscape:connector-curvature="0" />
    </g>
  </g>
</svg>
