<?xml version="1.0" encoding="UTF-8" standalone="no"?>
<!-- Created with Inkscape (http://www.inkscape.org/) -->

<svg
   xmlns:dc="http://purl.org/dc/elements/1.1/"
   xmlns:cc="http://creativecommons.org/ns#"
   xmlns:rdf="http://www.w3.org/1999/02/22-rdf-syntax-ns#"
   xmlns:svg="http://www.w3.org/2000/svg"
   xmlns="http://www.w3.org/2000/svg"
   xmlns:sodipodi="http://sodipodi.sourceforge.net/DTD/sodipodi-0.dtd"
   xmlns:inkscape="http://www.inkscape.org/namespaces/inkscape"
   width="63.353001mm"
   height="88.352997mm"
   viewBox="0 0 63.353001 88.352997"
   version="1.1"
   id="svg22813"
   inkscape:version="0.92.2 2405546, 2018-03-11"
   sodipodi:docname="1s.svg">
  <defs
     id="defs22807" />
  <sodipodi:namedview
     id="base"
     pagecolor="#ffffff"
     bordercolor="#666666"
     borderopacity="1.0"
     inkscape:pageopacity="0.0"
     inkscape:pageshadow="2"
     inkscape:zoom="0.49497475"
     inkscape:cx="73.258718"
     inkscape:cy="-160.87607"
     inkscape:document-units="mm"
     inkscape:current-layer="layer1"
     showgrid="false"
     inkscape:window-width="1920"
     inkscape:window-height="992"
     inkscape:window-x="0"
     inkscape:window-y="27"
     inkscape:window-maximized="1" />
  <metadata
     id="metadata22810">
    <rdf:RDF>
      <cc:Work
         rdf:about="">
        <dc:format>image/svg+xml</dc:format>
        <dc:type
           rdf:resource="http://purl.org/dc/dcmitype/StillImage" />
        <dc:title></dc:title>
      </cc:Work>
    </rdf:RDF>
  </metadata>
  <g
     inkscape:label="Layer 1"
     inkscape:groupmode="layer"
     id="layer1"
     transform="translate(0,-208.647)">
    <g
       transform="matrix(0.35277777,0,0,-0.35277777,-1.3793611e-4,485.00021)"
       id="g22969">
      <path
         inkscape:connector-curvature="0"
         id="path3725"
         style="fill:#f7f7f5;fill-opacity:1;fill-rule:nonzero;stroke:none;stroke-width:0.1"
         d="m 179.084,547.587 c 0,-7.827 -6.346,-14.173 -14.173,-14.173 H 14.6742 c -7.82811,0 -14.173809,6.346 -14.173809,14.173 v 221.102 c 0,7.828 6.345699,14.174 14.173809,14.174 H 164.911 c 7.827,0 14.173,-6.346 14.173,-14.174 V 547.587" />
      <path
         inkscape:connector-curvature="0"
         id="path3727"
         style="fill:none;stroke:#231f20;stroke-width:1;stroke-linecap:butt;stroke-linejoin:miter;stroke-miterlimit:4;stroke-dasharray:none;stroke-opacity:1"
         d="m 179.084,547.587 c 0,-7.827 -6.346,-14.173 -14.173,-14.173 H 14.6742 c -7.82811,0 -14.173809,6.346 -14.173809,14.173 v 221.102 c 0,7.828 6.345699,14.174 14.173809,14.174 H 164.911 c 7.827,0 14.173,-6.346 14.173,-14.174 z" />
      <path
         inkscape:connector-curvature="0"
         id="path3729"
         style="fill:#231f20;fill-opacity:1;fill-rule:evenodd;stroke:none;stroke-width:0.1"
         d="m 13.2477,740.343 c -0.0411,-0.027 -0.0704,-0.042 -0.1172,-0.072 -3.0387,-1.941 -6.58323,-5.725 -6.94652,-10.442 -0.17265,-2.244 1.2625,-3.798 3.11719,-3.832 1.18473,-0.021 2.13673,0.399 2.65353,1.203 0.4285,0.668 0.5379,1.7 0.6074,1.223 0.25,-1.816 -0.5109,-3.562 -0.9219,-5.088 0.459,0.167 1.0352,0.251 1.6133,0.253 h 0.0098 c 0.5762,-0.002 1.1523,-0.086 1.6101,-0.253 -0.4109,1.526 -1.1699,3.272 -0.9207,5.088 0.0692,0.477 0.1786,-0.555 0.6063,-1.223 0.5156,-0.804 1.4687,-1.224 2.6523,-1.203 1.8555,0.034 3.291,1.588 3.1184,3.832 -0.3645,4.717 -3.9082,8.501 -6.9434,10.442 -0.0332,0.024 -0.0625,0.039 -0.1105,0.072 h -0.0281" />
      <path
         inkscape:connector-curvature="0"
         id="path3731"
         style="fill:none;stroke:#231f20;stroke-width:0.065018;stroke-linecap:butt;stroke-linejoin:round;stroke-miterlimit:4;stroke-dasharray:none;stroke-opacity:1"
         d="m 13.2477,740.343 c -0.0411,-0.027 -0.0704,-0.042 -0.1172,-0.072 -3.0387,-1.941 -6.58323,-5.725 -6.94652,-10.442 -0.17265,-2.244 1.2625,-3.798 3.11719,-3.832 1.18473,-0.021 2.13673,0.399 2.65353,1.203 0.4285,0.668 0.5379,1.7 0.6074,1.223 0.25,-1.816 -0.5109,-3.562 -0.9219,-5.088 0.459,0.167 1.0352,0.251 1.6133,0.253 h 0.0098 c 0.5762,-0.002 1.1523,-0.086 1.6101,-0.253 -0.4109,1.526 -1.1699,3.272 -0.9207,5.088 0.0692,0.477 0.1786,-0.555 0.6063,-1.223 0.5156,-0.804 1.4687,-1.224 2.6523,-1.203 1.8555,0.034 3.291,1.588 3.1184,3.832 -0.3645,4.717 -3.9082,8.501 -6.9434,10.442 -0.0332,0.024 -0.0625,0.039 -0.1105,0.072 z" />
      <path
         inkscape:connector-curvature="0"
         id="path3733"
         style="fill:#231f20;fill-opacity:1;fill-rule:evenodd;stroke:none;stroke-width:0.1"
         d="m 166.318,575.933 c -0.041,0.027 -0.07,0.041 -0.117,0.072 -3.038,1.94 -6.583,5.725 -6.947,10.441 -0.172,2.245 1.263,3.798 3.119,3.833 1.183,0.021 2.136,-0.4 2.652,-1.204 0.429,-0.668 0.538,-1.699 0.607,-1.222 0.25,1.816 -0.511,3.562 -0.921,5.088 0.459,-0.168 1.035,-0.252 1.613,-0.253 h 0.01 c 0.577,10e-4 1.152,0.085 1.61,0.253 -0.411,-1.526 -1.17,-3.272 -0.921,-5.088 0.069,-0.477 0.179,0.554 0.606,1.222 0.516,0.804 1.469,1.225 2.653,1.204 1.855,-0.035 3.291,-1.588 3.118,-3.833 -0.363,-4.716 -3.908,-8.501 -6.943,-10.441 -0.034,-0.025 -0.063,-0.04 -0.111,-0.072 h -0.028" />
      <path
         inkscape:connector-curvature="0"
         id="path3735"
         style="fill:none;stroke:#231f20;stroke-width:0.065018;stroke-linecap:butt;stroke-linejoin:round;stroke-miterlimit:4;stroke-dasharray:none;stroke-opacity:1"
         d="m 166.318,575.933 c -0.041,0.027 -0.07,0.041 -0.117,0.072 -3.038,1.94 -6.583,5.725 -6.947,10.441 -0.172,2.245 1.263,3.798 3.119,3.833 1.183,0.021 2.136,-0.4 2.652,-1.204 0.429,-0.668 0.538,-1.699 0.607,-1.222 0.25,1.816 -0.511,3.562 -0.921,5.088 0.459,-0.168 1.035,-0.252 1.613,-0.253 h 0.01 c 0.577,10e-4 1.152,0.085 1.61,0.253 -0.411,-1.526 -1.17,-3.272 -0.921,-5.088 0.069,-0.477 0.179,0.554 0.606,1.222 0.516,0.804 1.469,1.225 2.653,1.204 1.855,-0.035 3.291,-1.588 3.118,-3.833 -0.363,-4.716 -3.908,-8.501 -6.943,-10.441 -0.034,-0.025 -0.063,-0.04 -0.111,-0.072 z" />
      <path
         inkscape:connector-curvature="0"
         id="path3737"
         style="fill:#000000;fill-opacity:1;fill-rule:nonzero;stroke:none;stroke-width:0.1"
         d="m 173.414,569.38 -0.003,2.302 -5.45,-0.002 0.003,-2.302 1.667,10e-4 -0.624,-3.341 -5.261,0.008 -0.625,3.334 h 1.573 l -0.003,2.302 h -5.449 l 0.002,-2.302 h 1.705 l 4.056,-21.781 0.545,0.004 -0.003,-0.016 2.189,0.026 4.067,21.766 z m -4.873,-5.841 -2.16,-11.553 -2.166,11.559 z" />
      <path
         inkscape:connector-curvature="0"
         id="path3739"
         style="fill:#000000;fill-opacity:1;fill-rule:nonzero;stroke:none;stroke-width:0.1"
         d="m 18.732,746.896 -4.0675,21.767 -2.1883,0.026 0.0027,-0.015 -0.5449,0.004 -4.05666,-21.782 H 6.17227 l -0.00235,-2.301 h 5.44958 l 0.0032,2.301 h -1.5723 l 0.625,3.334 5.2605,0.008 0.6243,-3.34 H 14.893 l -0.0039,-2.301 5.4504,-0.002 0.0039,2.301 z m -7.5882,5.836 2.1664,11.559 2.1589,-11.553 z" />
      <path
         inkscape:connector-curvature="0"
         id="path3741"
         style="fill:none;stroke:#231f20;stroke-width:1.5;stroke-linecap:butt;stroke-linejoin:round;stroke-miterlimit:4;stroke-dasharray:none;stroke-opacity:1"
         d="m 89.6781,713.21 c -0.1894,-0.146 -0.323,-0.222 -0.5437,-0.39 -14.0801,-10.457 -30.5059,-30.861 -32.1906,-56.297 -0.8008,-12.1 5.8496,-20.476 14.4484,-20.659 5.4891,-0.117 9.9023,2.152 12.2937,6.486 1.9875,3.604 2.4954,9.161 2.8176,6.593 1.1582,-9.795 -2.3683,-19.209 -4.2754,-27.431 2.127,0.898 4.7996,1.351 7.4774,1.361 h 0.0441 c 2.6746,-0.01 5.3426,-0.463 7.4668,-1.361 -1.9055,8.222 -5.4258,17.636 -4.2687,27.431 0.3222,2.568 0.8281,-2.989 2.8125,-6.593 2.3898,-4.334 6.8028,-6.603 12.2918,-6.486 8.599,0.183 15.249,8.559 14.448,20.659 -1.684,25.436 -18.111,45.84 -32.1801,56.297 -0.1523,0.133 -0.2785,0.25 -0.509,0.39 z" />
      <path
         inkscape:connector-curvature="0"
         id="path3743"
         style="fill:#231f20;fill-opacity:1;fill-rule:nonzero;stroke:none;stroke-width:0.1"
         d="m 66.4535,650.557 c -0.0137,0.204 -0.0203,0.404 -0.0195,0.601 v 0 c 0,4.756 3.6914,8.753 8.4992,9.068 v 0 c 0.2508,0.017 0.4988,0.024 0.7441,0.024 v 0 c 5.877,0 10.8184,-4.564 11.2071,-10.512 v 0 h 8e-4 c 0.0175,-0.277 -0.1922,-0.514 -0.4668,-0.532 v 0 c -0.2762,-0.017 -0.5137,0.192 -0.5313,0.467 v 0 c -0.3523,5.418 -4.8594,9.578 -10.2098,9.578 v 0 c -0.2257,0 -0.4503,-0.008 -0.6769,-0.023 v 0 c -4.2813,-0.278 -7.5664,-3.84 -7.5664,-8.07 v 0 c 0,-0.176 0.0051,-0.354 0.0176,-0.535 v 0 c 0.2187,-3.372 3.0234,-5.96 6.3535,-5.96 v 0 c 0.1387,0 0.2804,0.005 0.4219,0.014 v 0 c 2.6457,0.171 4.675,2.374 4.675,4.985 v 0 c 0,0.109 -0.004,0.22 -0.011,0.329 v 0 c -0.1336,2.064 -1.8515,3.649 -3.8875,3.649 v 0 c -0.0879,0 -0.1711,-0.002 -0.2578,-0.01 v 0 c -1.5977,-0.105 -2.8242,-1.433 -2.8242,-3.009 v 0 c 0,-0.068 0.0019,-0.132 0.0066,-0.201 v 0 c 0.0793,-1.225 1.0996,-2.165 2.3098,-2.165 v 0 c 0.0488,0 0.1035,0.002 0.1523,0.003 v 0 c 0.9266,0.06 1.6387,0.833 1.6387,1.747 v 0 c 0,0.039 -0.0019,0.081 -0.0039,0.117 v 0 c -0.0441,0.69 -0.6191,1.219 -1.2988,1.219 v 0 c -0.0352,0 -0.0578,-10e-4 -0.084,-0.004 v 0 c -0.5,-0.032 -0.882,-0.447 -0.882,-0.937 v 0 c 0,-0.025 0.0011,-0.041 0.0019,-0.052 v 0 c 0.0246,-0.276 -0.1785,-0.519 -0.4539,-0.543 v 0 c -0.2754,-0.024 -0.5187,0.179 -0.5422,0.453 v 0 c -0.0047,0.056 -0.0058,0.103 -0.0058,0.142 v 0 c 0,1.016 0.789,1.868 1.7988,1.934 v 0 c 0.0683,0.007 0.1242,0.007 0.1672,0.007 v 0 c 1.2058,0 2.2168,-0.936 2.2968,-2.159 v 0 c 0.0028,-0.056 0.0047,-0.114 0.0047,-0.177 v 0 c 0,-1.439 -1.116,-2.648 -2.5859,-2.745 v 0 c -0.0613,-0.002 -0.1297,-0.005 -0.2039,-0.006 v 0 c -1.7344,10e-4 -3.1934,1.346 -3.3066,3.097 v 0 c -0.0059,0.094 -0.009,0.183 -0.009,0.27 v 0 c 0,2.102 1.632,3.867 3.748,4.006 v 0 c 0.1172,0.01 0.2285,0.012 0.3332,0.013 v 0 c 2.5633,-10e-4 4.7149,-1.99 4.8856,-4.585 v 0 c 0.0078,-0.129 0.0129,-0.261 0.0129,-0.393 v 0 c 0,-3.137 -2.4356,-5.775 -5.6125,-5.984 v 0 c -0.161,-0.009 -0.3211,-0.014 -0.4844,-0.015 v 0 c -3.8543,10e-4 -7.0957,2.994 -7.3516,6.894 v 0" />
      <path
         inkscape:connector-curvature="0"
         id="path3745"
         style="fill:#231f20;fill-opacity:1;fill-rule:nonzero;stroke:none;stroke-width:0.1"
         d="m 105.203,643.679 c -3.17,0.209 -5.601,2.846 -5.601,5.981 v 0 c 0,0.131 0.0031,0.265 0.0136,0.397 v 0 c 0.168,2.591 2.3184,4.582 4.8764,4.582 v 0 c 0.104,0 0.215,-0.002 0.322,-0.011 v 0 c 2.125,-0.14 3.753,-1.905 3.753,-4.007 v 0 c 0,-0.09 -0.003,-0.176 -0.009,-0.266 v 0 c -0.113,-1.754 -1.569,-3.1 -3.302,-3.1 v 0 c -0.075,0 -0.143,0.002 -0.217,0.006 v 0 c -1.453,0.096 -2.57,1.305 -2.57,2.745 v 0 c 0,0.057 0.001,0.123 0.007,0.181 v 0 c 0.079,1.217 1.088,2.154 2.292,2.154 v 0 c 0.043,0 0.099,0 0.152,-0.006 v 0 c 1.026,-0.068 1.812,-0.92 1.812,-1.937 v 0 c 0,-0.047 -0.001,-0.084 -0.002,-0.111 v 0 c -0.009,-0.276 -0.24,-0.492 -0.516,-0.484 v 0 c -0.276,0.009 -0.493,0.24 -0.484,0.515 v 0 c 10e-4,0.039 0.002,0.064 0.002,0.08 v 0 c 0,0.493 -0.382,0.907 -0.893,0.94 v 0 c -0.014,0.002 -0.036,0.003 -0.071,0.003 v 0 c -0.677,0 -1.251,-0.529 -1.296,-1.236 v 0 c -0.003,-0.022 -0.004,-0.056 -0.004,-0.099 v 0 c 0,-0.914 0.713,-1.688 1.624,-1.746 v 0 c 0.061,-0.003 0.115,-0.006 0.164,-0.005 v 0 c 1.207,-10e-4 2.226,0.94 2.305,2.16 v 0 c 0.004,0.074 0.006,0.142 0.006,0.206 v 0 c 0,1.576 -1.224,2.906 -2.827,3.009 v 0 c -0.078,0.008 -0.161,0.01 -0.248,0.01 v 0 c -2.029,0 -3.746,-1.585 -3.879,-3.654 v 0 c -0.008,-0.105 -0.012,-0.215 -0.012,-0.326 v 0 c 0,-2.611 2.028,-4.811 4.663,-4.983 v 0 c 0.144,-0.008 0.285,-0.014 0.424,-0.014 v 0 c 3.323,0 6.124,2.588 6.343,5.959 v 0 c 0.01,0.183 0.016,0.362 0.016,0.537 v 0 c 0.001,4.23 -3.279,7.791 -7.553,8.07 v 0 c -0.226,0.014 -0.451,0.022 -0.676,0.021 v 0 c -5.341,10e-4 -9.8489,-4.159 -10.1992,-9.577 v 0 -10e-4 c -0.0188,-0.276 -0.2571,-0.484 -0.5313,-0.467 v 0 c -0.2766,0.019 -0.4855,0.257 -0.4668,0.533 v 0 c 0.3875,5.948 5.3289,10.512 11.1973,10.512 v 0 c 0.244,0 0.492,-0.007 0.742,-0.024 v 0 c 4.805,-0.315 8.488,-4.313 8.488,-9.067 v 0 c 0,-0.198 -0.007,-0.397 -0.019,-0.6 v 0 c -0.255,-3.902 -3.491,-6.895 -7.341,-6.895 v 0 c -0.162,0 -0.323,0.005 -0.485,0.015 v 0" />
      <path
         inkscape:connector-curvature="0"
         id="path3747"
         style="fill:#231f20;fill-opacity:1;fill-rule:nonzero;stroke:none;stroke-width:0.1"
         d="m 89.7535,645.361 c -0.1328,0 -0.259,0.052 -0.3535,0.147 v 0 c -0.0949,0.094 -0.1465,0.22 -0.1465,0.353 v 0 c 8e-4,0.078 0.0047,0.156 0.0098,0.233 v 0 c -0.1035,1.847 -1.6367,3.795 -2.4406,4.636 v 0 c -0.2762,0.295 -0.4481,0.454 -0.4493,0.454 v 0 c -0.1445,0.132 -0.1992,0.335 -0.1394,0.522 v 0 c 8e-4,0.006 0.9461,2.957 1.6543,6.144 v 0 c 0.4863,2.17 0.8633,4.511 1.407,6.47 v 0 c -0.2176,0.76 -0.45,1.451 -0.7051,2.043 v 0 c -0.0117,0.029 -0.0214,0.058 -0.0273,0.087 v 0 c -1.0098,2.532 -3.4109,4.148 -5.9715,4.146 v 0 c -0.6797,0 -1.3723,-0.114 -2.0566,-0.355 v 0 c -2.0364,-0.714 -3.3078,-2.627 -3.3086,-4.668 v 0 c 8e-4,-0.546 0.0906,-1.099 0.2832,-1.643 v 0 c 0.5566,-1.586 2.0488,-2.58 3.6394,-2.58 v 0 c 0.4258,0 0.8575,0.07 1.2813,0.22 v 0 c 1.2285,0.432 1.9972,1.588 1.998,2.818 v 0 c -8e-4,0.33 -0.0547,0.664 -0.1707,0.992 v 0 c -0.3312,0.943 -1.2168,1.531 -2.1601,1.531 v 0 c -0.252,0 -0.5071,-0.041 -0.761,-0.131 v 0 c -0.7129,-0.249 -1.157,-0.919 -1.1582,-1.634 v 0 c 0,-0.19 0.0324,-0.382 0.0996,-0.575 v 0 c 0.1848,-0.527 0.6828,-0.858 1.2121,-0.858 v 0 c 0.1426,0 0.286,0.023 0.4266,0.072 v 0 c 0.382,0.135 0.6211,0.495 0.6211,0.877 v 0 c 0,0.102 -0.0164,0.205 -0.0527,0.308 v 0 c -0.0938,0.266 -0.3418,0.428 -0.6063,0.43 v 0 c -0.0703,0 -0.1406,-0.011 -0.214,-0.037 v 0 c -0.1707,-0.059 -0.2762,-0.219 -0.2774,-0.391 v 0 c 0.0012,-0.044 0.009,-0.09 0.0254,-0.137 v 0 -0.002 c 0.091,-0.26 -0.0457,-0.545 -0.3066,-0.637 v 0 c -0.2606,-0.091 -0.5457,0.046 -0.6368,0.307 v 0 c -0.0546,0.153 -0.082,0.311 -0.0808,0.469 v 0 c -0.0012,0.585 0.364,1.131 0.9441,1.334 v 0 c 0.1789,0.063 0.3645,0.094 0.5461,0.094 v 0 c 0.6778,0 1.3113,-0.422 1.5496,-1.098 v 0 c 0.0742,-0.211 0.1094,-0.428 0.1094,-0.64 v 0 c 0,-0.797 -0.4961,-1.538 -1.2891,-1.82 v 0 c -0.2507,-0.088 -0.5078,-0.129 -0.7586,-0.129 v 0 c -0.9433,0 -1.8242,0.589 -2.1554,1.526 v 0 c -0.1055,0.299 -0.1563,0.606 -0.1563,0.907 v 0 c -8e-4,1.129 0.7043,2.183 1.8274,2.577 v 0 c 0.3593,0.128 0.7285,0.188 1.0918,0.188 v 0 c 1.3562,0 2.6257,-0.845 3.1035,-2.198 v 0 c 0.1543,-0.438 0.2273,-0.885 0.2273,-1.325 v 0 c 0,-1.645 -1.0273,-3.183 -2.666,-3.761 v 0 c -0.5332,-0.188 -1.0769,-0.277 -1.6133,-0.277 v 0 c -2.0047,0 -3.8797,1.251 -4.584,3.248 v 0 c -0.2285,0.652 -0.3386,1.319 -0.3378,1.975 v 0 c -8e-4,2.456 1.5304,4.751 3.9757,5.612 v 0 c 0.7911,0.278 1.5965,0.412 2.3887,0.412 v 0 c 3.0145,-0.002 5.8008,-1.911 6.9363,-4.869 v 0 c 0.0059,-0.018 0.0118,-0.035 0.0168,-0.052 v 0 c 0.0977,-0.235 0.1922,-0.48 0.2832,-0.735 v 0 c 0.118,0.297 0.243,0.579 0.3789,0.839 v 0 c 1.4571,2.788 4.0508,4.794 7.0301,4.8 v 0 c 0.7414,0 1.5031,-0.126 2.2656,-0.395 v 0 c 2.4457,-0.862 3.9757,-3.158 3.9747,-5.612 v 0 c 10e-4,-0.655 -0.109,-1.321 -0.338,-1.975 v 0 c -0.704,-1.998 -2.578,-3.248 -4.5827,-3.247 v 0 c -0.5364,-10e-4 -1.0813,0.088 -1.6133,0.276 v 0 c -1.6399,0.577 -2.666,2.115 -2.6653,3.761 v 0 c -7e-4,0.44 0.0723,0.889 0.2266,1.324 v 0 c 0.4766,1.352 1.7461,2.199 3.1035,2.199 v 0 c 0.3625,0 0.7317,-0.059 1.093,-0.188 v 0 c 1.123,-0.396 1.8252,-1.448 1.8242,-2.577 v 0 c 0,-0.3 -0.051,-0.606 -0.155,-0.907 v 0 c -0.331,-0.939 -1.2122,-1.528 -2.1555,-1.526 v 0 c -0.254,-0.002 -0.5098,0.042 -0.7579,0.129 v 0 c -0.7941,0.279 -1.2902,1.023 -1.289,1.82 v 0 c -0.0012,0.211 0.032,0.43 0.1094,0.64 v 0 c 0.2382,0.676 0.8718,1.098 1.5496,1.098 v 0 c 0.1789,0 0.3652,-0.029 0.5449,-0.094 v 0 c 0.5812,-0.206 0.9453,-0.749 0.9445,-1.334 v 0 c 8e-4,-0.158 -0.0273,-0.315 -0.0762,-0.464 v 0 c -0.089,-0.261 -0.373,-0.401 -0.6347,-0.313 v 0 c -0.2617,0.087 -0.4024,0.371 -0.3137,0.632 v 0 c 0.0188,0.055 0.0246,0.104 0.0254,0.145 v 0 c -8e-4,0.171 -0.1063,0.332 -0.2801,0.391 v 0 c -0.0695,0.026 -0.1379,0.037 -0.2101,0.037 v 0 c -0.2645,0 -0.5137,-0.166 -0.6075,-0.434 v 0 c -0.0351,-0.098 -0.0515,-0.199 -0.0527,-0.304 v 0 c 0.0012,-0.383 0.2395,-0.743 0.6203,-0.876 v 0 c 0.1414,-0.05 0.2871,-0.073 0.4278,-0.073 v 0 c 0.5293,0 1.0273,0.329 1.2117,0.857 v 0 c 0.0676,0.194 0.0988,0.387 0.0988,0.576 v 0 c 0,0.715 -0.4445,1.385 -1.1574,1.634 v 0 c -0.2528,0.09 -0.5078,0.131 -0.7598,0.131 v 0 c -0.9433,0 -1.8289,-0.589 -2.1601,-1.533 v 0 c -0.1161,-0.326 -0.17,-0.66 -0.17,-0.99 v 0 c 0,-1.23 0.7688,-2.386 1.9973,-2.818 v 0 c 0.4246,-0.149 0.8563,-0.219 1.2813,-0.219 v 0 c 1.5907,0 3.0817,0.992 3.6397,2.578 v 0 c 0.19,0.547 0.281,1.1 0.281,1.644 v 0 c 0,2.04 -1.272,3.954 -3.3075,4.669 v 0 c -0.6593,0.233 -1.3039,0.338 -1.9328,0.338 v 0 c -2.5019,0.006 -4.8105,-1.717 -6.1453,-4.264 v 0 c -0.2863,-0.541 -0.5332,-1.222 -0.757,-1.996 v 0 c 0.5461,-1.963 0.9863,-4.256 1.4765,-6.459 v 0 c 0.6719,-3.019 1.5559,-5.831 1.6477,-6.12 v 0 c 0.0801,-0.197 0.0273,-0.425 -0.1379,-0.567 v 0 c 0,-10e-4 -0.1844,-0.159 -0.4766,-0.453 v 0 c -0.2918,-0.296 -0.6836,-0.72 -1.073,-1.228 v 0 c -0.7356,-0.956 -1.4367,-2.21 -1.5109,-3.405 v 0 c 0.0039,-0.075 0.007,-0.151 0.0078,-0.227 v 0 c 0,-0.133 -0.0516,-0.259 -0.1465,-0.353 v 0 c -0.0938,-0.095 -0.2195,-0.147 -0.3535,-0.147 v 0 z m 0.0215,2.748 c 0.7469,1.721 2.0945,3.072 2.6484,3.592 v 0 c -0.2558,0.826 -1.0011,3.299 -1.5879,5.944 v 0 c -0.3437,1.555 -0.6671,3.148 -1.0117,4.618 v 0 c -0.3242,-1.474 -0.6203,-3.09 -0.9601,-4.63 v 0 c -0.5867,-2.642 -1.3289,-5.112 -1.586,-5.94 v 0 c 0.5207,-0.519 1.7903,-1.871 2.4973,-3.584 v 0" />
      <path
         inkscape:connector-curvature="0"
         id="path3749"
         style="fill:#231f20;fill-opacity:1;fill-rule:nonzero;stroke:none;stroke-width:0.1"
         d="m 99.3785,684.74 c -1.7961,0 -3.6008,0.647 -5.0265,1.956 v 0 c -1.3016,1.192 -1.9637,2.827 -1.9629,4.463 v 0 c -8e-4,1.459 0.5265,2.929 1.5929,4.088 v 0 c 0.9727,1.064 2.3075,1.605 3.6426,1.604 v 0 c 1.1902,10e-4 2.3904,-0.431 3.3394,-1.3 v 0 c 0.872,-0.799 1.315,-1.894 1.314,-2.989 v 0 c 10e-4,-0.977 -0.354,-1.961 -1.065,-2.739 v 0 c -0.659,-0.718 -1.563,-1.085 -2.4653,-1.084 v 0 c -0.8067,0 -1.6192,0.291 -2.2579,0.879 v 0 c -0.5968,0.546 -0.9015,1.296 -0.9003,2.046 v 0 c -0.0012,0.668 0.241,1.344 0.7293,1.873 v 0 c 0.4562,0.499 1.0839,0.754 1.7101,0.754 v 0 c 0.5574,0 1.1219,-0.203 1.5664,-0.61 v 0 c 0.4207,-0.385 0.6357,-0.916 0.6347,-1.443 v 0 c 0,-0.471 -0.171,-0.946 -0.5136,-1.322 v 0 c -0.3273,-0.355 -0.7793,-0.538 -1.2277,-0.538 v 0 c -0.4004,0 -0.8055,0.145 -1.1239,0.438 v 0 c -0.2043,0.186 -0.2179,0.502 -0.0304,0.705 v 0 c 0.1867,0.205 0.5019,0.218 0.7062,0.032 v 0 c 0.1278,-0.118 0.286,-0.174 0.4481,-0.175 v 0 c 0.1816,10e-4 0.3586,0.071 0.4894,0.215 v 0 c 0.1699,0.186 0.252,0.414 0.252,0.645 v 0 c -0.0012,0.261 -0.1028,0.516 -0.3098,0.705 v 0 c -0.2566,0.234 -0.5723,0.346 -0.8914,0.347 v 0 c -0.3594,-10e-4 -0.7109,-0.142 -0.9738,-0.429 v 0 c -0.3133,-0.34 -0.4649,-0.765 -0.4656,-1.197 v 0 c 7e-4,-0.482 0.1921,-0.957 0.5761,-1.309 v 0 c 0.4492,-0.412 1.0137,-0.615 1.5821,-0.615 v 0 c 0.6367,0 1.2643,0.255 1.7273,0.758 v 0 c 0.539,0.59 0.802,1.326 0.803,2.064 v 0 c -0.001,0.829 -0.331,1.648 -0.989,2.251 v 0 c -0.7613,0.697 -1.7124,1.038 -2.6644,1.038 v 0 c -1.0676,0 -2.1281,-0.43 -2.9062,-1.28 v 0 c -0.8918,-0.969 -1.3293,-2.191 -1.3293,-3.412 v 0 c 0,-1.369 0.5507,-2.729 1.6386,-3.726 v 0 c 1.2375,-1.134 2.7942,-1.693 4.3508,-1.693 v 0 c 1.7445,0 3.4785,0.703 4.7505,2.087 v 0 c 1.439,1.573 2.148,3.549 2.149,5.525 v 0 c -0.001,2.212 -0.891,4.414 -2.649,6.028 v 0 -10e-4 c -0.204,0.187 -0.218,0.504 -0.032,0.707 v 0 c 0.187,0.204 0.504,0.218 0.707,0.031 v 0 c 1.973,-1.808 2.975,-4.285 2.974,-6.765 v 0 c 10e-4,-2.214 -0.799,-4.439 -2.412,-6.2 v 0 c -1.466,-1.598 -3.474,-2.412 -5.4836,-2.412 v 0 c -0.0011,0 -0.0019,0 -0.0039,0 v 0" />
      <path
         inkscape:connector-curvature="0"
         id="path3751"
         style="fill:#231f20;fill-opacity:1;fill-rule:nonzero;stroke:none;stroke-width:0.1"
         d="m 74.5172,687.152 c -1.6145,1.761 -2.4133,3.986 -2.4121,6.199 v 0 c -0.0012,2.48 1.0019,4.958 2.9734,6.766 v 0 h 0.0012 c 0.2039,0.186 0.5195,0.173 0.7058,-0.031 v 0 c 0.1868,-0.203 0.1739,-0.52 -0.0292,-0.706 v 0 c -1.7606,-1.613 -2.6512,-3.814 -2.6524,-6.029 v 0 c 0.0012,-1.975 0.7102,-3.951 2.1504,-5.523 v 0 c 1.2715,-1.387 3.007,-2.088 4.7531,-2.088 v 0 c 1.5574,0 3.1172,0.559 4.3574,1.693 v 0 c 1.0899,0.998 1.6407,2.357 1.6407,3.726 v 0 c 0,1.221 -0.4387,2.442 -1.3301,3.413 v 0 c -0.7805,0.849 -1.8418,1.278 -2.9133,1.279 v 0 c -0.9551,-10e-4 -1.9082,-0.342 -2.6668,-1.037 v 0 c -0.6582,-0.604 -0.9902,-1.424 -0.9902,-2.252 v 0 c 0,-0.739 0.2637,-1.474 0.8027,-2.063 v 0 c 0.4637,-0.505 1.0926,-0.759 1.7293,-0.76 v 0 c 0.5684,0 1.1348,0.202 1.5871,0.616 v 0 c 0.3836,0.351 0.575,0.828 0.5762,1.309 v 0 c -0.0012,0.43 -0.1535,0.857 -0.4668,1.199 v 0 c -0.2617,0.285 -0.6164,0.427 -0.9758,0.427 v 0 c -0.3223,0 -0.6394,-0.113 -0.8933,-0.347 v 0 c -0.2082,-0.19 -0.3106,-0.445 -0.3118,-0.705 v 0 c 0.0012,-0.232 0.0821,-0.459 0.252,-0.644 v 0 c 0.132,-0.145 0.3086,-0.215 0.4914,-0.216 v 0 c 0.1629,10e-4 0.3223,0.058 0.4519,0.176 v 0 c 0.2043,0.185 0.5208,0.171 0.7071,-0.033 v 0 c 0.1855,-0.205 0.1699,-0.521 -0.0332,-0.707 v 0 c -0.3192,-0.291 -0.7246,-0.437 -1.1258,-0.436 v 0 c -0.4473,-0.001 -0.9004,0.183 -1.2277,0.539 v 0 c -0.3446,0.374 -0.5157,0.851 -0.5157,1.321 v 0 c 0,0.529 0.2149,1.058 0.636,1.443 v 0 c 0.4441,0.407 1.0105,0.61 1.5691,0.61 v 0 c 0.6262,0 1.2551,-0.254 1.7121,-0.752 v 0 c 0.4871,-0.531 0.7313,-1.206 0.7305,-1.875 v 0 c 8e-4,-0.75 -0.3047,-1.5 -0.9016,-2.047 v 0 c -0.6414,-0.586 -1.455,-0.878 -2.2617,-0.878 v 0 c -0.9023,0 -1.8086,0.366 -2.4668,1.083 v 0 c -0.7129,0.779 -1.0672,1.763 -1.0664,2.74 v 0 c -8e-4,1.095 0.4445,2.191 1.3156,2.989 v 0 c 0.9481,0.87 2.1504,1.3 3.3426,1.3 v 0 c 1.3371,0 2.675,-0.54 3.6496,-1.603 v 0 c 1.0664,-1.16 1.5946,-2.629 1.5938,-4.089 v 0 c 8e-4,-1.636 -0.6621,-3.271 -1.966,-4.464 v 0 c -1.4297,-1.307 -3.2364,-1.956 -5.0321,-1.956 v 0 c -2.0129,0 -4.0234,0.813 -5.4902,2.413 v 0" />
      <path
         inkscape:connector-curvature="0"
         id="path3753"
         style="fill:#231f20;fill-opacity:1;fill-rule:nonzero;stroke:none;stroke-width:0.1"
         d="m 71.8023,670.169 c -2.3703,0.782 -3.8722,2.985 -3.8722,5.352 v 0 c 0,0.586 0.091,1.182 0.2851,1.766 v 0 c 0.6407,1.94 2.4414,3.168 4.3762,3.168 v 0 c 0.4793,0 0.9676,-0.075 1.4461,-0.234 v 0 c 1.593,-0.526 2.6027,-2.005 2.6016,-3.596 v 0 c 0,-0.395 -0.0614,-0.794 -0.1914,-1.188 v 0 c -0.4356,-1.316 -1.6571,-2.149 -2.9727,-2.149 v 0 c -0.3262,0 -0.6562,0.051 -0.9812,0.157 v 0 c -1.095,0.363 -1.7891,1.379 -1.7891,2.474 v 0 c 0,0.27 0.043,0.547 0.1328,0.817 v 0 c 0.3035,0.916 1.1551,1.498 2.0723,1.498 v 0 c 0.2273,0 0.459,-0.035 0.6855,-0.111 v 0 c 0.7754,-0.256 1.2684,-0.977 1.2684,-1.754 v 0 c 0,-0.19 -0.0313,-0.385 -0.0926,-0.577 v 0 c -0.0859,-0.262 -0.3691,-0.405 -0.6309,-0.319 v 0 c -0.2629,0.087 -0.4062,0.369 -0.3203,0.631 v 0 c 0.0301,0.089 0.043,0.179 0.043,0.265 v 0 c 0,0.356 -0.2258,0.689 -0.5832,0.806 v 0 c -0.1231,0.041 -0.2461,0.059 -0.3699,0.059 v 0 c -0.4953,0 -0.9602,-0.315 -1.1231,-0.814 v 0 c -0.0558,-0.166 -0.0812,-0.334 -0.0812,-0.501 v 0 c 0,-0.673 0.4269,-1.302 1.1015,-1.523 v 0 c 0.2219,-0.075 0.4473,-0.108 0.668,-0.108 v 0 c 0.8945,0 1.7285,0.567 2.0227,1.461 v 0 c 0.0957,0.293 0.1414,0.587 0.1414,0.876 v 0 c 0,1.17 -0.7422,2.261 -1.9149,2.646 v 0 c -0.3781,0.125 -0.7578,0.183 -1.1328,0.183 v 0 c -1.5137,0 -2.9258,-0.961 -3.4258,-2.48 v 0 c -0.1601,-0.483 -0.2355,-0.971 -0.2355,-1.453 v 0 c 0,-1.946 1.2355,-3.76 3.1847,-4.403 v 0 c 0.6161,-0.203 1.2422,-0.3 1.8575,-0.3 v 0 c 2.4851,0 4.8007,1.578 5.6218,4.067 v 0 c 0.2579,0.785 0.3821,1.579 0.3821,2.36 v 0 c -0.0012,3.159 -2.0059,6.103 -5.1699,7.148 v 0 c -0.9942,0.327 -2,0.482 -2.9903,0.482 v 0 c -4.0012,0 -7.7285,-2.54 -9.0519,-6.548 v 0 h 0.0011 c -0.0871,-0.263 -0.3691,-0.405 -0.632,-0.318 v 0 c -0.2625,0.086 -0.4051,0.368 -0.3184,0.631 v 0 c 1.4629,4.428 5.5782,7.235 10.0012,7.235 v 0 c 1.0938,0 2.207,-0.171 3.3028,-0.534 v 0 c 3.5847,-1.184 5.8574,-4.516 5.8574,-8.096 v 0 c 0,-0.886 -0.1399,-1.787 -0.4328,-2.674 v 0 c -0.961,-2.908 -3.6649,-4.753 -6.5711,-4.753 v 0 c -0.72,0 -1.4512,0.114 -2.17,0.351 v 0" />
      <path
         inkscape:connector-curvature="0"
         id="path3755"
         style="fill:#231f20;fill-opacity:1;fill-rule:nonzero;stroke:none;stroke-width:0.1"
         d="m 99.0113,674.571 c -0.2949,0.888 -0.4336,1.79 -0.4336,2.677 v 0 c 0,3.578 2.2693,6.909 5.8483,8.093 v 0 c 1.093,0.362 2.204,0.534 3.297,0.534 v 0 c 4.416,0 8.525,-2.807 9.986,-7.235 v 0 c 0.086,-0.263 -0.056,-0.545 -0.319,-0.632 v 0 c -0.263,-0.086 -0.546,0.056 -0.632,0.319 v 0 c -1.319,4.009 -5.041,6.548 -9.035,6.549 v 0 c -0.988,-10e-4 -1.993,-0.155 -2.982,-0.484 v 0 c -3.159,-1.043 -5.1633,-3.987 -5.1633,-7.144 v 0 c 0,-0.782 0.1219,-1.577 0.3828,-2.363 v 0 c 0.8195,-2.489 3.1315,-4.065 5.6115,-4.067 v 0 c 0.613,0.002 1.236,0.097 1.852,0.3 v 0 c 1.947,0.643 3.18,2.456 3.18,4.402 v 0 c 0,0.482 -0.076,0.971 -0.235,1.455 v 0 c -0.499,1.518 -1.91,2.479 -3.419,2.479 v 0 c -0.375,0 -0.754,-0.058 -1.13,-0.183 v 0 c -1.17,-0.385 -1.911,-1.477 -1.912,-2.647 v 0 c 0.001,-0.29 0.045,-0.583 0.141,-0.874 v 0 c 0.295,-0.896 1.127,-1.463 2.019,-1.463 v 0 c 0.22,0 0.444,0.034 0.666,0.109 v 0 c 0.672,0.22 1.1,0.849 1.1,1.522 v 0 c 0,0.166 -0.027,0.337 -0.082,0.503 v 0 c -0.163,0.498 -0.627,0.813 -1.121,0.813 v 0 c -0.123,0 -0.247,-0.018 -0.37,-0.059 v 0 c -0.354,-0.117 -0.58,-0.449 -0.581,-0.805 v 0 c 10e-4,-0.09 0.014,-0.175 0.043,-0.261 v 0 c 0.088,-0.262 -0.052,-0.545 -0.313,-0.634 v 0 c -0.262,-0.089 -0.545,0.052 -0.634,0.312 v 0 c -0.067,0.195 -0.096,0.395 -0.096,0.583 v 0 c 0,0.776 0.492,1.497 1.265,1.752 v 0 c 0.227,0.077 0.46,0.112 0.686,0.112 v 0 c 0.916,0.002 1.768,-0.582 2.072,-1.502 v 0 c 0.086,-0.267 0.131,-0.543 0.131,-0.814 v 0 c 0,-1.094 -0.693,-2.109 -1.787,-2.473 v 0 c -0.324,-0.106 -0.654,-0.157 -0.979,-0.157 v 0 c -1.314,-10e-4 -2.534,0.834 -2.968,2.149 v 0 c -0.131,0.393 -0.192,0.795 -0.192,1.187 v 0 c 0,1.592 1.008,3.071 2.597,3.596 v 0 c 0.478,0.159 0.965,0.235 1.445,0.235 v 0 c 1.932,0 3.729,-1.229 4.369,-3.168 v 0 c 0.192,-0.584 0.285,-1.18 0.284,-1.767 v 0 c 0.001,-2.366 -1.498,-4.569 -3.865,-5.352 v 0 c -0.719,-0.235 -1.449,-0.35 -2.166,-0.35 v 0 c -2.902,0 -5.6017,1.845 -6.5607,4.753 v 0" />
      <path
         inkscape:connector-curvature="0"
         id="path3757"
         style="fill:#231f20;fill-opacity:1;fill-rule:nonzero;stroke:none;stroke-width:0.1"
         d="m 96.1109,611.554 c -0.5207,0 -1.05,0.088 -1.5656,0.272 v 0 c -1.5535,0.559 -2.5215,2.022 -2.5215,3.583 v 0 c 0,0.428 0.0703,0.864 0.2246,1.286 v 0 c 0.461,1.285 1.6692,2.086 2.9602,2.085 v 0 c 0.3523,10e-4 0.7129,-0.058 1.0633,-0.185 v 0 c 1.0683,-0.385 1.7324,-1.39 1.7324,-2.463 v 0 c 0,-0.293 -0.0496,-0.591 -0.1531,-0.884 v 0 c -0.3223,-0.895 -1.1653,-1.453 -2.0657,-1.453 v 0 c -0.2468,0 -0.4968,0.043 -0.739,0.129 v 0 c -0.7578,0.272 -1.2305,0.984 -1.2305,1.746 v 0 c 0,0.207 0.034,0.423 0.1102,0.626 v 0 c 0.2324,0.647 0.8398,1.05 1.4902,1.05 v 0 c 0.1758,0 0.3586,-0.03 0.5352,-0.094 v 0 c 0.5597,-0.201 0.9062,-0.725 0.9054,-1.286 v 0 c 0,-0.154 -0.0265,-0.309 -0.08,-0.463 v 0 c -0.0872,-0.24 -0.2422,-0.435 -0.4356,-0.571 v 0 c 0.2547,0.134 0.4637,0.359 0.5672,0.65 v 0 c 0.0656,0.186 0.0957,0.371 0.0957,0.55 v 0 c 0,0.663 -0.4102,1.286 -1.0703,1.522 v 0 c -0.241,0.086 -0.4844,0.126 -0.7254,0.127 v 0 c -0.8789,-10e-4 -1.7063,-0.545 -2.0195,-1.424 v 0 c -0.1133,-0.312 -0.1661,-0.631 -0.1661,-0.948 v 0 c 0,-1.149 0.7137,-2.23 1.8594,-2.641 v 0 c 0.4063,-0.145 0.8203,-0.214 1.2285,-0.214 v 0 c 1.4891,10e-4 2.8887,0.923 3.4219,2.406 v 0 c 0.1863,0.524 0.2742,1.055 0.2742,1.577 v 0 c 0,1.915 -1.1855,3.712 -3.0918,4.393 v 0 h 0.0012 c -0.2609,0.093 -0.3965,0.38 -0.3039,0.64 v 0 c 0.093,0.26 0.3801,0.396 0.6398,0.302 v 0 c 2.3145,-0.83 3.7557,-3.009 3.7547,-5.335 v 0 c 0.001,-0.635 -0.107,-1.282 -0.333,-1.914 v 0 c -0.6806,-1.891 -2.4607,-3.069 -4.3603,-3.069 v 0 c -8e-4,0 -0.002,0 -0.0028,0 z m -1.2453,4.399 c -0.034,-0.09 -0.0496,-0.185 -0.0496,-0.283 v 0 c 0,-0.143 0.036,-0.282 0.1035,-0.406 v 0 c 8e-4,0.052 0.0098,0.104 0.0282,0.156 v 0 c 0.091,0.261 0.3769,0.396 0.6378,0.305 v 0 c 0.0223,-0.007 0.045,-0.011 0.0672,-0.011 v 0 c 0.0793,0 0.1563,0.05 0.1809,0.121 v 0 c 0.0164,0.049 0.0234,0.091 0.0234,0.131 v 0 c -0.0011,0.15 -0.0929,0.293 -0.2453,0.346 v 0 c -0.0664,0.023 -0.1297,0.034 -0.1953,0.034 v 0 c -0.2383,0 -0.4637,-0.148 -0.5508,-0.393 v 0" />
      <path
         inkscape:connector-curvature="0"
         id="path3759"
         style="fill:#231f20;fill-opacity:1;fill-rule:nonzero;stroke:none;stroke-width:0.1"
         d="m 101.949,618.638 c -1.395,-0.001 -2.7963,0.512 -3.89,1.546 v 0 l 0.0012,-10e-4 c -0.2024,0.19 -0.211,0.506 -0.0207,0.707 v 0 c 0.1886,0.2 0.505,0.21 0.707,0.02 v 0 c 0.9023,-0.852 2.0505,-1.271 3.2025,-1.272 v 0 c 1.241,10e-4 2.475,0.489 3.395,1.462 v 0 c 0.664,0.705 0.992,1.599 0.992,2.496 v 0 c 0,0.967 -0.381,1.927 -1.138,2.642 v 0 c -0.545,0.513 -1.235,0.766 -1.928,0.767 v 0 c -0.748,-10e-4 -1.489,-0.294 -2.042,-0.882 v 0 c -0.392,-0.416 -0.585,-0.941 -0.585,-1.471 v 0 c 0,-0.571 0.225,-1.137 0.673,-1.562 v 0 c 0.313,-0.295 0.708,-0.44 1.108,-0.44 v 0 c 0.431,0 0.857,0.17 1.177,0.505 v 0 c 0.214,0.228 0.32,0.511 0.324,0.801 v 0 c -0.034,-0.232 -0.138,-0.46 -0.314,-0.646 v 0 c -0.268,-0.281 -0.63,-0.427 -0.992,-0.426 v 0 c -0.334,-10e-4 -0.674,0.123 -0.937,0.371 v 0 c -0.331,0.311 -0.499,0.734 -0.498,1.152 v 0 c -10e-4,0.39 0.146,0.784 0.432,1.086 v 0 c 0.363,0.388 0.859,0.584 1.35,0.583 v 0 c 0.456,10e-4 0.917,-0.169 1.274,-0.506 v 0 c 0.454,-0.43 0.686,-1.012 0.686,-1.595 v 0 c 0.001,-0.537 -0.197,-1.082 -0.598,-1.507 v 0 c -0.515,-0.541 -1.21,-0.82 -1.904,-0.818 v 0 c -0.642,-0.002 -1.29,0.237 -1.795,0.713 v 0 c -0.6548,0.619 -0.9868,1.457 -0.986,2.289 v 0 c -8e-4,0.774 0.2843,1.552 0.857,2.158 v 0 c 0.748,0.794 1.76,1.196 2.77,1.195 v 0 c 0.937,10e-4 1.88,-0.347 2.614,-1.04 v 0 c 0.964,-0.909 1.452,-2.141 1.452,-3.369 v 0 c 0,-1.141 -0.42,-2.287 -1.265,-3.184 v 0 c -1.114,-1.176 -2.616,-1.774 -4.118,-1.774 v 0 c -0.001,0 -0.002,0 -0.004,0 z m 0.395,6.17 c -0.109,-0.115 -0.159,-0.256 -0.16,-0.401 v 0 c 0.001,-0.156 0.06,-0.307 0.184,-0.425 v 0 c 0.071,-0.066 0.158,-0.097 0.251,-0.098 v 0 c 0.096,10e-4 0.193,0.037 0.267,0.113 v 0 c 0.036,0.039 0.053,0.085 0.053,0.134 v 0 c 0,0.052 -0.021,0.103 -0.062,0.142 v 0 c -0.199,0.19 -0.207,0.506 -0.017,0.707 v 0 c 0.038,0.04 0.082,0.072 0.129,0.096 v 0 c -0.008,10e-4 -0.016,10e-4 -0.023,10e-4 v 0 c -0.23,-10e-4 -0.453,-0.089 -0.622,-0.269 v 0" />
      <path
         inkscape:connector-curvature="0"
         id="path3761"
         style="fill:#231f20;fill-opacity:1;fill-rule:nonzero;stroke:none;stroke-width:0.1"
         d="m 108.553,614.325 c -0.803,-0.001 -1.607,0.325 -2.193,0.962 v 0 c -0.438,0.476 -0.657,1.081 -0.657,1.681 v 0 c -0.001,0.671 0.27,1.343 0.803,1.831 v 0 c 0.4,0.367 0.908,0.552 1.412,0.551 v 0 c 0.562,10e-4 1.127,-0.229 1.539,-0.676 v 0 c 0.311,-0.337 0.466,-0.77 0.465,-1.196 v 0 c 0.001,-0.477 -0.193,-0.955 -0.571,-1.305 v 0 c -0.29,-0.266 -0.662,-0.4 -1.026,-0.4 v 0 c -0.409,0 -0.819,0.168 -1.116,0.489 v 0 c -0.23,0.251 -0.348,0.573 -0.347,0.89 v 0 c -10e-4,0.352 0.142,0.711 0.424,0.965 v 0 c 0.05,0.047 0.105,0.089 0.162,0.125 v 0 c -0.094,-0.046 -0.183,-0.105 -0.265,-0.18 v 0 c -0.32,-0.293 -0.48,-0.69 -0.481,-1.094 v 0 c 0.001,-0.359 0.13,-0.716 0.393,-1.003 v 0 c 0.391,-0.425 0.922,-0.64 1.458,-0.641 v 0 c 0.483,0.001 0.959,0.173 1.341,0.523 v 0 c 0.558,0.516 0.839,1.213 0.841,1.916 v 0 c -0.002,0.63 -0.227,1.258 -0.687,1.76 v 0 c -0.668,0.726 -1.574,1.09 -2.486,1.091 v 0 c -0.817,0 -1.635,-0.294 -2.284,-0.892 v 0 l 10e-4,-10e-4 c -0.204,-0.187 -0.521,-0.174 -0.707,0.029 v 0 c -0.188,0.204 -0.175,0.521 0.029,0.707 v 0 c 0.839,0.773 1.903,1.157 2.961,1.156 v 0 c 1.179,10e-4 2.359,-0.475 3.223,-1.414 v 0 c 0.635,-0.69 0.95,-1.567 0.949,-2.436 v 0 c 0.001,-0.97 -0.393,-1.941 -1.163,-2.652 v 0 c -0.571,-0.525 -1.295,-0.786 -2.013,-0.786 v 0 c -0.002,0 -0.003,0 -0.005,0 z m -0.592,3.054 c -0.065,-0.059 -0.098,-0.14 -0.099,-0.227 v 0 c 0.001,-0.077 0.026,-0.15 0.084,-0.213 v 0 c 0.024,-0.026 0.052,-0.049 0.08,-0.07 v 0 c -0.036,0.166 0.013,0.346 0.144,0.471 v 0 c 0.01,0.009 0.011,0.015 0.011,0.021 v 0 c -10e-4,0.006 -10e-4,0.009 -0.004,0.012 v 0 c -0.034,0.035 -0.07,0.049 -0.111,0.05 v 0 c -0.036,0 -0.07,-0.013 -0.105,-0.044 v 0" />
      <path
         inkscape:connector-curvature="0"
         id="path3763"
         style="fill:#231f20;fill-opacity:1;fill-rule:nonzero;stroke:none;stroke-width:0.1"
         d="m 79.0414,614.639 c -0.2285,0.632 -0.3348,1.278 -0.3348,1.914 v 0 c 0,2.327 1.4422,4.505 3.7559,5.335 v 0 c 0.2586,0.092 0.5457,-0.041 0.6387,-0.301 v 0 c 0.0937,-0.261 -0.0422,-0.547 -0.302,-0.64 v 0 c -1.9051,-0.683 -3.0918,-2.478 -3.0926,-4.394 v 0 c 8e-4,-0.523 0.0879,-1.053 0.2754,-1.576 v 0 c 0.5321,-1.485 1.9325,-2.407 3.4239,-2.407 v 0 c 0.4062,0 0.8203,0.069 1.2265,0.213 v 0 c 1.1453,0.41 1.8594,1.492 1.8594,2.644 v 0 c 0,0.315 -0.0539,0.636 -0.166,0.948 v 0 c -0.3137,0.876 -1.1406,1.422 -2.0195,1.422 v 0 c -0.2422,0 -0.4844,-0.04 -0.7258,-0.129 v 0 c -0.6602,-0.235 -1.0703,-0.858 -1.0711,-1.52 v 0 c 8e-4,-0.181 0.0301,-0.364 0.0957,-0.546 v 0 c 0.1043,-0.292 0.3105,-0.517 0.5652,-0.652 v 0 c -0.1922,0.136 -0.3465,0.33 -0.4324,0.569 v 0 c -0.0547,0.153 -0.0813,0.31 -0.0813,0.463 v 0 c 0,0.561 0.3497,1.086 0.9004,1.285 v 0 c 0.1797,0.067 0.3645,0.096 0.5403,0.096 v 0 c 0.6511,0 1.2586,-0.404 1.491,-1.049 v 0 c 0.0734,-0.205 0.1094,-0.418 0.1094,-0.627 v 0 c 0.0011,-0.761 -0.4715,-1.474 -1.2313,-1.748 v 0 c -0.2414,-0.084 -0.4902,-0.127 -0.7383,-0.126 v 0 c -0.9004,-10e-4 -1.7422,0.556 -2.0636,1.451 v 0 c -0.1055,0.292 -0.1551,0.591 -0.1551,0.884 v 0 c 0,1.074 0.6648,2.079 1.7312,2.461 v 0 c 0.3516,0.129 0.7129,0.188 1.0657,0.188 v 0 c 1.2898,0 2.4988,-0.801 2.9609,-2.085 v 0 c 0.1512,-0.422 0.2234,-0.857 0.2234,-1.285 v 0 c 0,-1.563 -0.9668,-3.027 -2.5222,-3.585 v 0 c -0.5157,-0.184 -1.0442,-0.272 -1.5625,-0.272 v 0 c -1.9016,-0.002 -3.6836,1.177 -4.3645,3.069 z m 5.5274,0.794 c 0.0167,-0.05 0.0253,-0.102 0.0265,-0.152 v 0 c 0.0664,0.123 0.1024,0.263 0.1024,0.406 v 0 c 0,0.096 -0.0157,0.193 -0.0497,0.288 v 0 c -0.0859,0.239 -0.3117,0.388 -0.5507,0.388 v 0 c -0.0664,0 -0.1289,-0.011 -0.1965,-0.036 v 0 c -0.1504,-0.054 -0.243,-0.195 -0.2442,-0.345 v 0 c 0,-0.041 0.0079,-0.082 0.0235,-0.125 v 0 c 0.0254,-0.078 0.1008,-0.127 0.1808,-0.127 v 0 c 0.0215,0 0.0438,0.004 0.0723,0.012 v 0 c 0.0535,0.019 0.1094,0.029 0.1629,0.029 v 0 c 0.2082,0 0.4016,-0.131 0.4727,-0.338 v 0" />
      <path
         inkscape:connector-curvature="0"
         id="path3765"
         style="fill:#231f20;fill-opacity:1;fill-rule:nonzero;stroke:none;stroke-width:0.1"
         d="m 73.4418,620.429 c -0.8426,0.895 -1.2637,2.042 -1.2625,3.182 v 0 c -0.0012,1.229 0.4871,2.46 1.452,3.369 v 0 c 0.7343,0.695 1.6769,1.041 2.6132,1.041 v 0 c 1.0098,0 2.0215,-0.402 2.7696,-1.194 v 0 c 0.5734,-0.606 0.8586,-1.386 0.8586,-2.159 v 0 c 0,-0.834 -0.3332,-1.67 -0.9864,-2.29 v 0 c -0.505,-0.476 -1.1535,-0.713 -1.7961,-0.713 v 0 c -0.6933,0 -1.3894,0.278 -1.9031,0.821 v 0 c -0.3996,0.422 -0.5996,0.967 -0.5988,1.505 v 0 c -8e-4,0.581 0.2305,1.167 0.6875,1.595 v 0 c 0.3566,0.338 0.8176,0.508 1.2726,0.507 v 0 c 0.4911,0.001 0.9852,-0.197 1.3496,-0.582 v 0 c 0.2879,-0.305 0.4325,-0.698 0.4317,-1.087 v 0 c 8e-4,-0.419 -0.1672,-0.84 -0.4973,-1.153 v 0 C 77.5699,623.023 77.2289,622.9 76.8961,622.9 v 0 c -0.3633,0 -0.7266,0.145 -0.9941,0.428 v 0 c -0.175,0.184 -0.2793,0.412 -0.3145,0.647 v 0 c 0.0047,-0.291 0.1113,-0.575 0.327,-0.803 v 0 c 0.3183,-0.337 0.7453,-0.505 1.1757,-0.506 v 0 c 0.4004,10e-4 0.7961,0.146 1.1086,0.439 v 0 c 0.4481,0.425 0.6727,0.993 0.6739,1.563 v 0 c -0.0012,0.53 -0.1934,1.056 -0.586,1.472 v 0 c -0.5539,0.587 -1.2941,0.88 -2.0422,0.881 v 0 c -0.6922,-10e-4 -1.3828,-0.254 -1.9265,-0.768 v 0 c -0.7578,-0.715 -1.1387,-1.675 -1.1399,-2.642 v 0 c 0.0012,-0.897 0.3293,-1.791 0.9922,-2.495 v 0 c 0.918,-0.972 2.1535,-1.462 3.3945,-1.462 v 0 c 1.1524,0 2.302,0.42 3.2043,1.273 v 0 -10e-4 c 0.2012,0.19 0.5164,0.181 0.7071,-0.02 v 0 c 0.1894,-0.2 0.1797,-0.516 -0.0196,-0.706 v 0 c -1.0937,-1.033 -2.4972,-1.546 -3.8918,-1.546 v 0 c -1.5027,0 -3.0085,0.597 -4.123,1.775 z m 3.2168,4.563 c 0.1887,-0.202 0.1769,-0.518 -0.0254,-0.706 v 0 c -0.0379,-0.037 -0.0566,-0.084 -0.0574,-0.138 v 0 c 8e-4,-0.049 0.0164,-0.095 0.0515,-0.132 v 0 c 0.0723,-0.077 0.17,-0.116 0.2688,-0.116 v 0 c 0.0918,0.002 0.1805,0.032 0.2488,0.098 v 0 c 0.125,0.119 0.1848,0.271 0.1856,0.426 v 0 c -8e-4,0.144 -0.0516,0.286 -0.159,0.399 v 0 c -0.1719,0.181 -0.3945,0.27 -0.6231,0.271 v 0 c -0.0078,0 -0.0148,0 -0.0226,-0.001 v 0 c 0.0488,-0.025 0.0937,-0.059 0.1328,-0.101 v 0" />
      <path
         inkscape:connector-curvature="0"
         id="path3767"
         style="fill:#231f20;fill-opacity:1;fill-rule:nonzero;stroke:none;stroke-width:0.1"
         d="m 68.943,615.127 c -0.7715,0.711 -1.1633,1.683 -1.1621,2.652 v 0 c 0,0.869 0.3152,1.746 0.9492,2.436 v 0 c 0.8613,0.939 2.0429,1.416 3.2226,1.415 v 0 c 1.0575,10e-4 2.1219,-0.384 2.961,-1.156 v 0 l 8e-4,-0.001 c 0.2031,-0.187 0.216,-0.503 0.0285,-0.706 v 0 c -0.1875,-0.203 -0.5039,-0.217 -0.7051,-0.029 v 0 c -0.6516,0.598 -1.4668,0.891 -2.2852,0.892 v 0 c -0.914,-10e-4 -1.8195,-0.366 -2.4863,-1.091 v 0 c -0.4601,-0.502 -0.6855,-1.13 -0.6867,-1.76 v 0 c 0.0012,-0.703 0.2824,-1.401 0.841,-1.916 v 0 c 0.3809,-0.349 0.8594,-0.52 1.3398,-0.521 v 0 c 0.536,10e-4 1.0672,0.215 1.459,0.638 v 0 c 0.2637,0.287 0.3907,0.644 0.3914,1.004 v 0 c -7e-4,0.403 -0.1609,0.8 -0.4793,1.094 v 0 c -0.082,0.076 -0.1718,0.136 -0.2668,0.181 v 0 c 0.0567,-0.035 0.1114,-0.077 0.1614,-0.123 v 0 c 0.282,-0.258 0.4258,-0.613 0.4246,-0.966 v 0 c 0.0012,-0.317 -0.1133,-0.639 -0.3465,-0.891 v 0 c -0.298,-0.322 -0.707,-0.491 -1.1145,-0.49 v 0 c -0.3671,0 -0.7363,0.134 -1.0261,0.402 v 0 c -0.3782,0.347 -0.5735,0.827 -0.5723,1.302 v 0 c -0.0012,0.427 0.1551,0.859 0.4668,1.198 v 0 c 0.4109,0.447 0.9766,0.675 1.5379,0.675 v 0 c 0.5031,0 1.0129,-0.183 1.4121,-0.552 v 0 c 0.5313,-0.488 0.8039,-1.16 0.802,-1.83 v 0 c 0.0019,-0.599 -0.2161,-1.205 -0.6555,-1.681 v 0 c -0.5867,-0.636 -1.3906,-0.962 -2.1942,-0.962 v 0 c -0.7187,0 -1.4445,0.261 -2.0175,0.786 z m 2.3953,2.262 c -0.0039,-0.006 -0.0047,-0.008 -0.0047,-0.012 v 0 c 8e-4,-0.007 0,-0.01 0.0086,-0.018 v 0 c 0.134,-0.125 0.1836,-0.306 0.1476,-0.473 v 0 c 0.0282,0.02 0.0547,0.044 0.0801,0.07 v 0 c 0.0547,0.062 0.0809,0.135 0.0821,0.214 v 0 c -0.0012,0.086 -0.0344,0.167 -0.1016,0.228 v 0 c -0.0293,0.028 -0.0645,0.041 -0.1016,0.041 v 0 c -0.0429,-0.002 -0.0793,-0.016 -0.1105,-0.05 v 0" />
      <path
         inkscape:connector-curvature="0"
         id="path3769"
         style="fill:#231f20;fill-opacity:1;fill-rule:nonzero;stroke:none;stroke-width:0.1"
         d="m 86.0473,711.389 c -1.5039,-10e-4 -3.0098,0.597 -4.1231,1.776 v 0 c -0.8437,0.895 -1.2637,2.041 -1.2637,3.182 v 0 c 0,1.228 0.4883,2.46 1.4524,3.37 v 0 c 0.7351,0.693 1.6766,1.04 2.6121,1.04 v 0 c 1.0098,0 2.0227,-0.402 2.7707,-1.194 v 0 c 0.5731,-0.607 0.8594,-1.386 0.8582,-2.159 v 0 c 0.0012,-0.834 -0.332,-1.67 -0.9851,-2.289 v 0 c -0.5051,-0.477 -1.1536,-0.715 -1.7969,-0.713 v 0 c -0.6946,-0.002 -1.3899,0.275 -1.9035,0.819 v 0 c -0.3993,0.423 -0.5985,0.967 -0.5985,1.506 v 0 c 0,0.582 0.2313,1.166 0.6875,1.593 v 0 c 0.3563,0.339 0.8172,0.51 1.2735,0.508 v 0 c 0.4902,0.002 0.9843,-0.196 1.3484,-0.581 v 0 c 0.2883,-0.306 0.4328,-0.699 0.4316,-1.088 v 0 c 0.0012,-0.419 -0.1668,-0.839 -0.4949,-1.152 v 0 c -0.2637,-0.247 -0.6035,-0.372 -0.9387,-0.372 v 0 c -0.3621,0 -0.7265,0.145 -0.9941,0.429 v 0 c -0.1738,0.183 -0.2781,0.411 -0.3133,0.644 v 0 c 0.0059,-0.289 0.1114,-0.573 0.327,-0.801 v 0 c 0.3176,-0.336 0.7441,-0.505 1.175,-0.507 v 0 c 0.4004,0.002 0.7957,0.147 1.1082,0.442 v 0 c 0.4484,0.424 0.673,0.99 0.6738,1.562 v 0 c -8e-4,0.53 -0.1922,1.056 -0.5848,1.472 v 0 c -0.5546,0.586 -1.2949,0.88 -2.0441,0.88 v 0 c -0.6922,0 -1.3816,-0.253 -1.9258,-0.766 v 0 c -0.7578,-0.715 -1.1375,-1.676 -1.1387,-2.643 v 0 c 0.0012,-0.898 0.3282,-1.791 0.9922,-2.495 v 0 c 0.918,-0.973 2.1536,-1.463 3.3946,-1.463 v 0 c 1.1515,0 2.3007,0.421 3.2043,1.273 v 0 -0.001 c 0.2,0.191 0.5164,0.182 0.7058,-0.019 v 0 c 0.1906,-0.201 0.1809,-0.517 -0.0195,-0.706 v 0 c -1.0926,-1.034 -2.493,-1.547 -3.8867,-1.547 v 0 c -8e-4,0 -0.0028,0 -0.0028,0 z m -0.9071,6.34 c 0.1875,-0.202 0.1778,-0.518 -0.0226,-0.708 v 0 c -0.041,-0.037 -0.0606,-0.084 -0.0606,-0.138 v 0 c 0,-0.05 0.0168,-0.095 0.052,-0.133 v 0 c 0.0742,-0.077 0.1699,-0.115 0.2683,-0.115 v 0 c 0.093,10e-4 0.1809,0.033 0.2512,0.097 v 0 c 0.1231,0.119 0.1824,0.272 0.1836,0.427 v 0 c -0.0012,0.147 -0.0527,0.287 -0.1594,0.402 v 0 c -0.1707,0.179 -0.3933,0.266 -0.6218,0.267 v 0 c -0.0071,0 -0.0137,0 -0.0207,0 v 0 c 0.0468,-0.025 0.091,-0.058 0.13,-0.099 v 0" />
      <path
         inkscape:connector-curvature="0"
         id="path3771"
         style="fill:#231f20;fill-opacity:1;fill-rule:nonzero;stroke:none;stroke-width:0.1"
         d="m 79.443,707.077 c -0.72,-10e-4 -1.4465,0.261 -2.0176,0.786 v 0 c -0.7707,0.71 -1.1641,1.682 -1.1633,2.652 v 0 c -8e-4,0.87 0.3156,1.746 0.9492,2.436 v 0 c 0.8625,0.938 2.0442,1.415 3.2227,1.414 v 0 c 1.0578,10e-4 2.123,-0.383 2.9621,-1.155 v 0 c 0.2031,-0.189 0.2156,-0.504 0.0281,-0.707 v 0 c -0.1863,-0.203 -0.5027,-0.216 -0.7058,-0.029 v 0 c -0.6496,0.597 -1.4649,0.89 -2.2844,0.89 v 0 c -0.9129,0 -1.8192,-0.365 -2.4852,-1.089 v 0 c -0.4609,-0.502 -0.6855,-1.129 -0.6867,-1.76 v 0 c 0.0012,-0.704 0.2824,-1.401 0.8399,-1.916 v 0 c 0.382,-0.35 0.8593,-0.522 1.341,-0.523 v 0 c 0.5371,10e-4 1.0664,0.215 1.4578,0.641 v 0 c 0.2637,0.286 0.3918,0.642 0.3926,1.004 v 0 c -8e-4,0.402 -0.161,0.8 -0.4805,1.093 v 0 c -0.082,0.076 -0.1719,0.136 -0.2664,0.181 v 0 c 0.0574,-0.036 0.1121,-0.078 0.164,-0.125 v 0 c 0.2793,-0.257 0.4239,-0.613 0.4227,-0.966 v 0 c 0.0012,-0.315 -0.1141,-0.637 -0.3477,-0.89 v 0 c -0.2968,-0.321 -0.707,-0.489 -1.114,-0.489 v 0 c -0.3652,0 -0.7363,0.133 -1.0266,0.401 v 0 c -0.3777,0.347 -0.5722,0.827 -0.5722,1.303 v 0 c 0,0.426 0.1562,0.859 0.4668,1.197 v 0 c 0.4101,0.447 0.9765,0.677 1.5382,0.676 v 0 c 0.5028,0 1.0137,-0.184 1.4121,-0.552 v 0 c 0.5321,-0.488 0.8036,-1.16 0.8028,-1.829 v 0 c 8e-4,-0.6 -0.218,-1.205 -0.6555,-1.682 v 0 c -0.5848,-0.635 -1.3887,-0.962 -2.1902,-0.962 v 0 c -0.0012,0 -0.0031,0 -0.0039,0 z m 0.3777,3.048 c -0.0059,-0.006 -0.0059,-0.009 -0.0059,-0.014 v 0 c 0.0012,-0.006 0.0012,-0.008 0.0079,-0.015 v 0 c 0.1347,-0.124 0.1855,-0.307 0.1496,-0.475 v 0 c 0.0273,0.021 0.0547,0.044 0.0789,0.07 v 0 c 0.0558,0.062 0.0812,0.135 0.082,0.213 v 0 c 0,0.086 -0.034,0.168 -0.1004,0.23 v 0 c -0.0305,0.027 -0.0644,0.04 -0.1015,0.04 v 0 c -0.043,-10e-4 -0.0801,-0.016 -0.1106,-0.049 v 0" />
      <path
         inkscape:connector-curvature="0"
         id="path3773"
         style="fill:#231f20;fill-opacity:1;fill-rule:nonzero;stroke:none;stroke-width:0.1"
         d="m 89.4828,712.986 c -0.2012,0.19 -0.2098,0.505 -0.0203,0.707 v 0 c 0.1895,0.201 0.5059,0.209 0.7059,0.019 v 0 c 0.9023,-0.851 2.0527,-1.273 3.2043,-1.273 v 0 c 1.2402,0 2.4753,0.49 3.3953,1.463 v 0 c 0.664,0.705 0.9902,1.598 0.9922,2.496 v 0 c -0.002,0.965 -0.3817,1.926 -1.1387,2.641 v 0 c -0.5449,0.515 -1.2352,0.767 -1.9266,0.767 v 0 c -0.7492,0 -1.4902,-0.294 -2.0429,-0.881 v 0 c -0.3938,-0.416 -0.5852,-0.941 -0.586,-1.471 v 0 c 8e-4,-0.571 0.2246,-1.136 0.6738,-1.562 v 0 c 0.3125,-0.296 0.7079,-0.44 1.1094,-0.441 v 0 c 0.4305,10e-4 0.8563,0.17 1.1746,0.506 v 0 c 0.2149,0.229 0.3223,0.516 0.3262,0.808 v 0 c -0.0332,-0.236 -0.1375,-0.466 -0.3133,-0.652 v 0 c -0.2676,-0.282 -0.632,-0.428 -0.9933,-0.427 v 0 c -0.336,-0.001 -0.6758,0.124 -0.9375,0.372 v 0 c -0.3301,0.309 -0.4989,0.733 -0.4981,1.151 v 0 c -8e-4,0.391 0.1445,0.784 0.4328,1.087 v 0 c 0.3633,0.387 0.8582,0.583 1.3485,0.583 v 0 c 0.4562,0 0.9172,-0.169 1.2746,-0.508 v 0 c 0.4539,-0.428 0.6863,-1.012 0.6863,-1.594 v 0 c 0.0012,-0.539 -0.1992,-1.082 -0.5984,-1.506 v 0 c -0.5149,-0.543 -1.2102,-0.821 -1.9024,-0.82 v 0 c -0.6437,-10e-4 -1.2922,0.238 -1.7969,0.713 v 0 c -0.6562,0.619 -0.9882,1.457 -0.9875,2.29 v 0 c -7e-4,0.774 0.2864,1.553 0.8594,2.157 v 0 c 0.7473,0.794 1.761,1.196 2.7707,1.195 v 0 c 0.9356,10e-4 1.8778,-0.345 2.6121,-1.039 v 0 c 0.9649,-0.91 1.4543,-2.141 1.4532,-3.369 v 0 c 0.0011,-1.141 -0.4207,-2.289 -1.2657,-3.183 v 0 c -1.114,-1.179 -2.6191,-1.776 -4.1218,-1.776 v 0 c -1.3946,0 -2.7969,0.513 -3.8899,1.547 z m 4.2844,4.623 c -0.1074,-0.114 -0.1582,-0.254 -0.1594,-0.4 v 0 c 0.0012,-0.155 0.0598,-0.307 0.1836,-0.425 v 0 c 0.0723,-0.066 0.1602,-0.098 0.252,-0.099 v 0 c 0.0976,0.001 0.1933,0.038 0.2656,0.114 v 0 c 0.0363,0.038 0.0539,0.084 0.0539,0.134 v 0 c 0,0.051 -0.0207,0.103 -0.0606,0.142 v 0 c -0.2011,0.191 -0.2082,0.507 -0.0175,0.706 v 0 c 0.0379,0.04 0.0808,0.073 0.1269,0.097 v 0 c -0.0078,0 -0.0148,10e-4 -0.0226,10e-4 v 0 c -0.2293,-10e-4 -0.452,-0.09 -0.6219,-0.27 v 0" />
      <path
         inkscape:connector-curvature="0"
         id="path3775"
         style="fill:#231f20;fill-opacity:1;fill-rule:nonzero;stroke:none;stroke-width:0.1"
         d="m 99.9781,707.127 c -0.8039,-0.002 -1.6093,0.324 -2.1945,0.962 v 0 c -0.4375,0.475 -0.657,1.081 -0.657,1.682 v 0 c -0.0012,0.668 0.2714,1.342 0.8035,1.829 v 0 c 0.3996,0.368 0.9094,0.552 1.4133,0.552 v 0 c 0.5613,0 1.1256,-0.228 1.5366,-0.676 v 0 c 0.313,-0.338 0.467,-0.772 0.467,-1.197 v 0 c 0,-0.476 -0.195,-0.955 -0.572,-1.303 v 0 c -0.29,-0.268 -0.661,-0.401 -1.0266,-0.401 v 0 c -0.4082,0 -0.8183,0.166 -1.114,0.489 v 0 c -0.2324,0.252 -0.3489,0.574 -0.3477,0.89 v 0 c -0.0012,0.352 0.1426,0.71 0.4238,0.966 v 0 c 0.0516,0.047 0.1063,0.089 0.1641,0.125 v 0 C 98.7789,711 98.6891,710.939 98.6059,710.863 v 0 c -0.3192,-0.293 -0.4793,-0.689 -0.4793,-1.092 v 0 c 0,-0.361 0.1289,-0.717 0.3933,-1.005 v 0 c 0.3906,-0.425 0.9199,-0.639 1.4582,-0.639 v 0 c 0.4809,0 0.9579,0.172 1.3389,0.521 v 0 c 0.558,0.515 0.84,1.213 0.841,1.916 v 0 c -0.001,0.631 -0.226,1.259 -0.687,1.76 v 0 c -0.668,0.726 -1.573,1.09 -2.4851,1.091 v 0 c -0.8183,0 -1.6347,-0.294 -2.2843,-0.892 v 0 h 0.0011 c -0.2031,-0.186 -0.5195,-0.173 -0.707,0.03 v 0 c -0.1867,0.203 -0.175,0.519 0.0293,0.707 v 0 c 0.8387,0.772 1.9031,1.156 2.9609,1.156 v 0 c 1.1781,0 2.3591,-0.477 3.2231,-1.415 v 0 c 0.634,-0.691 0.95,-1.566 0.949,-2.437 v 0 c 0.001,-0.97 -0.394,-1.941 -1.163,-2.652 v 0 c -0.571,-0.523 -1.295,-0.785 -2.013,-0.785 v 0 c -0.0019,0 -0.0031,0 -0.0039,0 z m -0.5937,3.054 c -0.0656,-0.06 -0.0977,-0.139 -0.0989,-0.227 v 0 c 0.0012,-0.077 0.0266,-0.15 0.084,-0.213 v 0 c 0.0246,-0.026 0.0508,-0.05 0.0793,-0.07 v 0 c -0.0363,0.166 0.0137,0.347 0.1465,0.472 v 0 c 0.0078,0.007 0.0086,0.014 0.0098,0.018 v 0 c -0.0012,0.008 -0.002,0.01 -0.0051,0.013 v 0 c -0.0332,0.036 -0.0691,0.049 -0.1113,0.05 v 0 c -0.036,-0.001 -0.0703,-0.012 -0.1043,-0.043 v 0" />
      <path
         inkscape:connector-curvature="0"
         id="path3777"
         style="fill:#231f20;fill-opacity:1;fill-rule:evenodd;stroke:none;stroke-width:0.1"
         d="M 89.7582,709.865 C 73.3598,697.293 75.477,693.229 75.477,693.229 c 0,0 13.9464,16.762 28.061,0.182 0,0 2.62,3.882 -13.7798,16.454 v 0" />
      <path
         inkscape:connector-curvature="0"
         id="path3779"
         style="fill:none;stroke:#231f20;stroke-width:0.45500001;stroke-linecap:butt;stroke-linejoin:round;stroke-miterlimit:4;stroke-dasharray:none;stroke-opacity:1"
         d="M 89.7582,709.865 C 73.3598,697.293 75.477,693.229 75.477,693.229 c 0,0 13.9464,16.762 28.061,0.182 0,0 2.62,3.882 -13.7798,16.454 z" />
      <path
         inkscape:connector-curvature="0"
         id="path3781"
         style="fill:#231f20;fill-opacity:1;fill-rule:evenodd;stroke:none;stroke-width:0.1"
         d="m 112.416,681.232 c 0,0 13.316,-23.592 4.875,-37.215 -7.151,-11.538 -22.7504,-2.763 -20.6383,6.338 0,0 1.9504,-9.751 11.5373,-9.101 0,0 10.366,0.841 7.638,13.326 -0.207,0.945 -2.6,8.615 -10.563,9.589 0,0 8.776,0.488 7.151,17.063" />
      <path
         inkscape:connector-curvature="0"
         id="path3783"
         style="fill:none;stroke:#231f20;stroke-width:0.45500001;stroke-linecap:butt;stroke-linejoin:round;stroke-miterlimit:4;stroke-dasharray:none;stroke-opacity:1"
         d="m 112.416,681.232 c 0,0 13.316,-23.592 4.875,-37.215 -7.151,-11.538 -22.7504,-2.763 -20.6383,6.338 0,0 1.9504,-9.751 11.5373,-9.101 0,0 10.366,0.841 7.638,13.326 -0.207,0.945 -2.6,8.615 -10.563,9.589 0,0 8.776,0.488 7.151,17.063 z" />
      <path
         inkscape:connector-curvature="0"
         id="path3785"
         style="fill:#231f20;fill-opacity:1;fill-rule:evenodd;stroke:none;stroke-width:0.1"
         d="m 67.2262,681.232 c 0,0 -13.3164,-23.592 -4.875,-37.215 7.1492,-11.538 23.1629,-3.787 20.6375,6.338 0,0 -1.95,-9.751 -11.5379,-9.101 0,0 -10.3664,0.841 -7.6379,13.326 0.207,0.945 2.6008,8.615 10.5625,9.589 0,0 -8.7742,0.488 -7.1492,17.063" />
      <path
         inkscape:connector-curvature="0"
         id="path3787"
         style="fill:none;stroke:#231f20;stroke-width:0.45500001;stroke-linecap:butt;stroke-linejoin:round;stroke-miterlimit:4;stroke-dasharray:none;stroke-opacity:1"
         d="m 67.2262,681.232 c 0,0 -13.3164,-23.592 -4.875,-37.215 7.1492,-11.538 23.1629,-3.787 20.6375,6.338 0,0 -1.95,-9.751 -11.5379,-9.101 0,0 -10.3664,0.841 -7.6379,13.326 0.207,0.945 2.6008,8.615 10.5625,9.589 0,0 -8.7742,0.488 -7.1492,17.063 z" />
      <path
         inkscape:connector-curvature="0"
         id="path3789"
         style="fill:#231f20;fill-opacity:1;fill-rule:evenodd;stroke:none;stroke-width:0.1"
         d="m 89.8715,692.607 c 0,0 0.9758,-12.463 7.8008,-9.864 0,0 -2.9246,-3.785 -0.8125,-8.336 0,0 -6.6414,-0.294 -6.8035,-4.518 H 89.848 c -0.1621,4.224 -7.1718,4.518 -7.1718,4.518 2.1133,4.551 -0.8125,8.336 -0.8125,8.336 6.8254,-2.599 7.8008,9.864 7.8008,9.864 h 0.207" />
      <path
         inkscape:connector-curvature="0"
         id="path3791"
         style="fill:none;stroke:#231f20;stroke-width:0.45500001;stroke-linecap:butt;stroke-linejoin:round;stroke-miterlimit:4;stroke-dasharray:none;stroke-opacity:1"
         d="m 89.8715,692.607 c 0,0 0.9758,-12.463 7.8008,-9.864 0,0 -2.9246,-3.785 -0.8125,-8.336 0,0 -6.6414,-0.294 -6.8035,-4.518 H 89.848 c -0.1621,4.224 -7.1718,4.518 -7.1718,4.518 2.1133,4.551 -0.8125,8.336 -0.8125,8.336 6.8254,-2.599 7.8008,9.864 7.8008,9.864 z" />
      <path
         inkscape:connector-curvature="0"
         id="path3793"
         style="fill:#231f20;fill-opacity:1;fill-rule:evenodd;stroke:none;stroke-width:0.1"
         d="m 74.5602,676.253 c 0,-0.657 -0.5325,-1.189 -1.1895,-1.189 -0.6574,0 -1.1894,0.532 -1.1894,1.189 0,0.657 0.532,1.19 1.1894,1.19 0.657,0 1.1895,-0.533 1.1895,-1.19" />
      <path
         inkscape:connector-curvature="0"
         id="path3795"
         style="fill:none;stroke:#231f20;stroke-width:0.45500001;stroke-linecap:butt;stroke-linejoin:round;stroke-miterlimit:4;stroke-dasharray:none;stroke-opacity:1"
         d="m 74.5602,676.253 c 0,-0.657 -0.5325,-1.189 -1.1895,-1.189 -0.6574,0 -1.1894,0.532 -1.1894,1.189 0,0.657 0.532,1.19 1.1894,1.19 0.657,0 1.1895,-0.533 1.1895,-1.19 z" />
      <path
         inkscape:connector-curvature="0"
         id="path3797"
         style="fill:#231f20;fill-opacity:1;fill-rule:evenodd;stroke:none;stroke-width:0.1"
         d="m 82.3969,692.066 c 0,-0.656 -0.5321,-1.189 -1.1895,-1.189 -0.657,0 -1.1894,0.533 -1.1894,1.189 0,0.658 0.5324,1.19 1.1894,1.19 0.6574,0 1.1895,-0.532 1.1895,-1.19" />
      <path
         inkscape:connector-curvature="0"
         id="path3799"
         style="fill:none;stroke:#231f20;stroke-width:0.45500001;stroke-linecap:butt;stroke-linejoin:round;stroke-miterlimit:4;stroke-dasharray:none;stroke-opacity:1"
         d="m 82.3969,692.066 c 0,-0.656 -0.5321,-1.189 -1.1895,-1.189 -0.657,0 -1.1894,0.533 -1.1894,1.189 0,0.658 0.5324,1.19 1.1894,1.19 0.6574,0 1.1895,-0.532 1.1895,-1.19 z" />
      <path
         inkscape:connector-curvature="0"
         id="path3801"
         style="fill:#231f20;fill-opacity:1;fill-rule:evenodd;stroke:none;stroke-width:0.1"
         d="m 99.3266,692.019 c 0,-0.656 -0.5332,-1.19 -1.1895,-1.19 -0.657,0 -1.1902,0.534 -1.1902,1.19 0,0.657 0.5332,1.19 1.1902,1.19 0.6563,0 1.1895,-0.533 1.1895,-1.19" />
      <path
         inkscape:connector-curvature="0"
         id="path3803"
         style="fill:none;stroke:#231f20;stroke-width:0.45500001;stroke-linecap:butt;stroke-linejoin:round;stroke-miterlimit:4;stroke-dasharray:none;stroke-opacity:1"
         d="m 99.3266,692.019 c 0,-0.656 -0.5332,-1.19 -1.1895,-1.19 -0.657,0 -1.1902,0.534 -1.1902,1.19 0,0.657 0.5332,1.19 1.1902,1.19 0.6563,0 1.1895,-0.533 1.1895,-1.19 z" />
      <path
         inkscape:connector-curvature="0"
         id="path3805"
         style="fill:#231f20;fill-opacity:1;fill-rule:evenodd;stroke:none;stroke-width:0.1"
         d="m 107.254,676.301 c 0,-0.657 -0.533,-1.19 -1.19,-1.19 -0.657,0 -1.189,0.533 -1.189,1.19 0,0.656 0.532,1.189 1.189,1.189 0.657,0 1.19,-0.533 1.19,-1.189" />
      <path
         inkscape:connector-curvature="0"
         id="path3807"
         style="fill:none;stroke:#231f20;stroke-width:0.45500001;stroke-linecap:butt;stroke-linejoin:round;stroke-miterlimit:4;stroke-dasharray:none;stroke-opacity:1"
         d="m 107.254,676.301 c 0,-0.657 -0.533,-1.19 -1.19,-1.19 -0.657,0 -1.189,0.533 -1.189,1.19 0,0.656 0.532,1.189 1.189,1.189 0.657,0 1.19,-0.533 1.19,-1.189 z" />
      <path
         inkscape:connector-curvature="0"
         id="path3809"
         style="fill:#231f20;fill-opacity:1;fill-rule:evenodd;stroke:none;stroke-width:0.1"
         d="m 75.4371,650.359 c 0,-0.656 -0.5332,-1.19 -1.1906,-1.19 -0.6563,0 -1.1895,0.534 -1.1895,1.19 0,0.658 0.5332,1.19 1.1895,1.19 0.6574,0 1.1906,-0.532 1.1906,-1.19" />
      <path
         inkscape:connector-curvature="0"
         id="path3811"
         style="fill:none;stroke:#231f20;stroke-width:0.45500001;stroke-linecap:butt;stroke-linejoin:round;stroke-miterlimit:4;stroke-dasharray:none;stroke-opacity:1"
         d="m 75.4371,650.359 c 0,-0.656 -0.5332,-1.19 -1.1906,-1.19 -0.6563,0 -1.1895,0.534 -1.1895,1.19 0,0.658 0.5332,1.19 1.1895,1.19 0.6574,0 1.1906,-0.532 1.1906,-1.19 z" />
      <path
         inkscape:connector-curvature="0"
         id="path3813"
         style="fill:#231f20;fill-opacity:1;fill-rule:evenodd;stroke:none;stroke-width:0.1"
         d="m 106.468,650.359 c 0,-0.656 -0.532,-1.19 -1.189,-1.19 -0.658,0 -1.19,0.534 -1.19,1.19 0,0.658 0.532,1.19 1.19,1.19 0.657,0 1.189,-0.532 1.189,-1.19" />
      <path
         inkscape:connector-curvature="0"
         id="path3815"
         style="fill:none;stroke:#231f20;stroke-width:0.45500001;stroke-linecap:butt;stroke-linejoin:round;stroke-miterlimit:4;stroke-dasharray:none;stroke-opacity:1"
         d="m 106.468,650.359 c 0,-0.656 -0.532,-1.19 -1.189,-1.19 -0.658,0 -1.19,0.534 -1.19,1.19 0,0.658 0.532,1.19 1.19,1.19 0.657,0 1.189,-0.532 1.189,-1.19 z" />
      <path
         inkscape:connector-curvature="0"
         id="path3817"
         style="fill:#231f20;fill-opacity:1;fill-rule:evenodd;stroke:none;stroke-width:0.1"
         d="m 82.391,664.933 c 0,-0.501 -0.4051,-0.906 -0.9043,-0.906 -0.5,0 -0.9043,0.405 -0.9043,0.906 0,0.499 0.4043,0.903 0.9043,0.903 0.4992,0 0.9043,-0.404 0.9043,-0.903" />
      <path
         inkscape:connector-curvature="0"
         id="path3819"
         style="fill:none;stroke:#231f20;stroke-width:0.34579998;stroke-linecap:butt;stroke-linejoin:round;stroke-miterlimit:4;stroke-dasharray:none;stroke-opacity:1"
         d="m 82.391,664.933 c 0,-0.501 -0.4051,-0.906 -0.9043,-0.906 -0.5,0 -0.9043,0.405 -0.9043,0.906 0,0.499 0.4043,0.903 0.9043,0.903 0.4992,0 0.9043,-0.404 0.9043,-0.903 z" />
      <path
         inkscape:connector-curvature="0"
         id="path3821"
         style="fill:#231f20;fill-opacity:1;fill-rule:evenodd;stroke:none;stroke-width:0.1"
         d="m 99.0453,664.869 c 0,-0.5 -0.4051,-0.905 -0.9043,-0.905 -0.4988,0 -0.9031,0.405 -0.9031,0.905 0,0.499 0.4043,0.904 0.9031,0.904 0.4992,0 0.9043,-0.405 0.9043,-0.904" />
      <path
         inkscape:connector-curvature="0"
         id="path3823"
         style="fill:none;stroke:#231f20;stroke-width:0.34579998;stroke-linecap:butt;stroke-linejoin:round;stroke-miterlimit:4;stroke-dasharray:none;stroke-opacity:1"
         d="m 99.0453,664.869 c 0,-0.5 -0.4051,-0.905 -0.9043,-0.905 -0.4988,0 -0.9031,0.405 -0.9031,0.905 0,0.499 0.4043,0.904 0.9031,0.904 0.4992,0 0.9043,-0.405 0.9043,-0.904 z" />
      <path
         inkscape:connector-curvature="0"
         id="path3825"
         style="fill:#231f20;fill-opacity:1;fill-rule:evenodd;stroke:none;stroke-width:0.1"
         d="m 82.4652,672.964 c 0,-0.661 -0.5359,-1.197 -1.1972,-1.197 -0.6602,0 -1.1961,0.536 -1.1961,1.197 0,0.661 0.5359,1.196 1.1961,1.196 0.6613,0 1.1972,-0.535 1.1972,-1.196" />
      <path
         inkscape:connector-curvature="0"
         id="path3827"
         style="fill:none;stroke:#231f20;stroke-width:0.34579998;stroke-linecap:butt;stroke-linejoin:round;stroke-miterlimit:4;stroke-dasharray:none;stroke-opacity:1"
         d="m 82.4652,672.964 c 0,-0.661 -0.5359,-1.197 -1.1972,-1.197 -0.6602,0 -1.1961,0.536 -1.1961,1.197 0,0.661 0.5359,1.196 1.1961,1.196 0.6613,0 1.1972,-0.535 1.1972,-1.196 z" />
      <path
         inkscape:connector-curvature="0"
         id="path3829"
         style="fill:#231f20;fill-opacity:1;fill-rule:evenodd;stroke:none;stroke-width:0.1"
         d="m 99.4477,672.964 c 0,-0.661 -0.536,-1.197 -1.1961,-1.197 -0.6614,0 -1.1973,0.536 -1.1973,1.197 0,0.66 0.5359,1.196 1.1973,1.196 0.6601,0 1.1961,-0.536 1.1961,-1.196" />
      <path
         inkscape:connector-curvature="0"
         id="path3831"
         style="fill:none;stroke:#231f20;stroke-width:0.34579998;stroke-linecap:butt;stroke-linejoin:round;stroke-miterlimit:4;stroke-dasharray:none;stroke-opacity:1"
         d="m 99.4477,672.964 c 0,-0.661 -0.536,-1.197 -1.1961,-1.197 -0.6614,0 -1.1973,0.536 -1.1973,1.197 0,0.66 0.5359,1.196 1.1973,1.196 0.6601,0 1.1961,-0.536 1.1961,-1.196 z" />
      <path
         inkscape:connector-curvature="0"
         id="path3833"
         style="fill:#231f20;fill-opacity:1;fill-rule:evenodd;stroke:none;stroke-width:0.1"
         d="m 90.7652,668.17 c 0,-0.502 -0.4074,-0.909 -0.9093,-0.909 -0.5028,0 -0.9102,0.407 -0.9102,0.909 0,0.503 0.4074,0.91 0.9102,0.91 0.5019,0 0.9093,-0.407 0.9093,-0.91" />
      <path
         inkscape:connector-curvature="0"
         id="path3835"
         style="fill:none;stroke:#231f20;stroke-width:0.262808;stroke-linecap:butt;stroke-linejoin:round;stroke-miterlimit:4;stroke-dasharray:none;stroke-opacity:1"
         d="m 90.7652,668.17 c 0,-0.502 -0.4074,-0.909 -0.9093,-0.909 -0.5028,0 -0.9102,0.407 -0.9102,0.909 0,0.503 0.4074,0.91 0.9102,0.91 0.5019,0 0.9093,-0.407 0.9093,-0.91 z" />
      <path
         inkscape:connector-curvature="0"
         id="path3837"
         style="fill:#231f20;fill-opacity:1;fill-rule:evenodd;stroke:none;stroke-width:0.1"
         d="m 81.3559,683.371 c 0,-0.502 -0.4071,-0.909 -0.909,-0.909 -0.502,0 -0.9094,0.407 -0.9094,0.909 0,0.503 0.4074,0.91 0.9094,0.91 0.5019,0 0.909,-0.407 0.909,-0.91" />
      <path
         inkscape:connector-curvature="0"
         id="path3839"
         style="fill:none;stroke:#231f20;stroke-width:0.262808;stroke-linecap:butt;stroke-linejoin:round;stroke-miterlimit:4;stroke-dasharray:none;stroke-opacity:1"
         d="m 81.3559,683.371 c 0,-0.502 -0.4071,-0.909 -0.909,-0.909 -0.502,0 -0.9094,0.407 -0.9094,0.909 0,0.503 0.4074,0.91 0.9094,0.91 0.5019,0 0.909,-0.407 0.909,-0.91 z" />
      <path
         inkscape:connector-curvature="0"
         id="path3841"
         style="fill:#231f20;fill-opacity:1;fill-rule:evenodd;stroke:none;stroke-width:0.1"
         d="m 100.12,683.509 c 0,-0.503 -0.4087,-0.91 -0.9106,-0.91 -0.502,0 -0.909,0.407 -0.909,0.91 0,0.502 0.407,0.909 0.909,0.909 0.5019,0 0.9106,-0.407 0.9106,-0.909" />
      <path
         inkscape:connector-curvature="0"
         id="path3843"
         style="fill:none;stroke:#231f20;stroke-width:0.262808;stroke-linecap:butt;stroke-linejoin:round;stroke-miterlimit:4;stroke-dasharray:none;stroke-opacity:1"
         d="m 100.12,683.509 c 0,-0.503 -0.4087,-0.91 -0.9106,-0.91 -0.502,0 -0.909,0.407 -0.909,0.91 0,0.502 0.407,0.909 0.909,0.909 0.5019,0 0.9106,-0.407 0.9106,-0.909 z" />
      <path
         inkscape:connector-curvature="0"
         id="path3845"
         style="fill:#231f20;fill-opacity:1;fill-rule:evenodd;stroke:none;stroke-width:0.1"
         d="m 91.6762,695.628 c 0,-1.172 -0.95,-2.122 -2.1219,-2.122 -1.173,0 -2.123,0.95 -2.123,2.122 0,1.173 0.95,2.123 2.123,2.123 1.1719,0 2.1219,-0.95 2.1219,-2.123" />
      <path
         inkscape:connector-curvature="0"
         id="path3847"
         style="fill:none;stroke:#231f20;stroke-width:0.262808;stroke-linecap:butt;stroke-linejoin:round;stroke-miterlimit:4;stroke-dasharray:none;stroke-opacity:1"
         d="m 91.6762,695.628 c 0,-1.172 -0.95,-2.122 -2.1219,-2.122 -1.173,0 -2.123,0.95 -2.123,2.122 0,1.173 0.95,2.123 2.123,2.123 1.1719,0 2.1219,-0.95 2.1219,-2.123 z" />
      <path
         inkscape:connector-curvature="0"
         id="path3849"
         style="fill:#231f20;fill-opacity:1;fill-rule:nonzero;stroke:none;stroke-width:0.1"
         d="m 56.4223,677.695 c -1.793,0.735 -2.8789,2.465 -2.8778,4.291 v 0 c 0,0.584 0.1102,1.18 0.3457,1.752 v 0 c 0.6043,1.474 2.0254,2.369 3.5243,2.367 v 0 c 0.4816,0 0.9707,-0.091 1.4425,-0.285 v 0 c 1.2176,-0.498 1.9551,-1.672 1.9539,-2.911 v 0 c 0,-0.398 -0.0761,-0.802 -0.2343,-1.192 v 0 c -0.4149,-1.013 -1.3926,-1.626 -2.4239,-1.625 v 0 c -0.3308,-10e-4 -0.6668,0.062 -0.9902,0.194 v 0 c -0.8484,0.349 -1.3633,1.167 -1.3621,2.032 v 0 c -0.0012,0.275 0.0527,0.559 0.1641,0.828 v 0 c 0.2937,0.718 0.9851,1.155 1.7168,1.154 v 0 c 0.2343,0 0.4726,-0.044 0.7019,-0.139 v 0 c 0.6125,-0.252 0.9844,-0.843 0.9836,-1.466 v 0 c 0,-0.199 -0.0383,-0.403 -0.1184,-0.6 v 0 c -0.2175,-0.529 -0.7273,-0.849 -1.2644,-0.848 v 0 c -0.1738,0 -0.3496,0.033 -0.5176,0.102 v 0 c -0.2355,0.096 -0.4238,0.26 -0.5519,0.46 v 0 c 0.1222,-0.261 0.339,-0.479 0.6261,-0.597 v 0 c 0.2012,-0.082 0.4082,-0.121 0.6121,-0.121 v 0 c 0.6379,10e-4 1.2422,0.379 1.4981,1.004 v 0 c 0.1086,0.268 0.1601,0.543 0.1613,0.814 v 0 c -0.0012,0.846 -0.5031,1.647 -1.334,1.986 v 0 c -0.3496,0.144 -0.7082,0.21 -1.0636,0.21 v 0 c -1.1055,0 -2.1543,-0.658 -2.5997,-1.746 v 0 c -0.1843,-0.45 -0.2714,-0.914 -0.2714,-1.373 v 0 c 0.0011,-1.432 0.8515,-2.791 2.2589,-3.367 v 0 c 0.579,-0.236 1.1778,-0.348 1.7657,-0.348 v 0 c 1.8406,0 3.5847,1.094 4.323,2.9 v 0 c 0.1047,0.257 0.3965,0.379 0.6524,0.274 v 0 c 0.255,-0.105 0.3781,-0.397 0.2734,-0.652 v 0 c -0.8984,-2.194 -3.0145,-3.522 -5.2488,-3.522 v 0 c -0.7149,0 -1.4434,0.137 -2.1457,0.424 z m 1.048,5.482 c 0.2539,-0.107 0.3738,-0.4 0.2664,-0.654 v 0 c -0.0078,-0.021 -0.0125,-0.043 -0.0125,-0.07 v 0 c 0,-0.075 0.0457,-0.148 0.1211,-0.178 v 0 c 0.0449,-0.019 0.0926,-0.029 0.1387,-0.029 v 0 c 0.1433,10e-4 0.2832,0.087 0.3387,0.226 v 0 c 0.0312,0.076 0.0449,0.151 0.0449,0.223 v 0 c -8e-4,0.231 -0.1367,0.449 -0.3633,0.541 v 0 c -0.1074,0.044 -0.2148,0.065 -0.323,0.065 v 0 c -0.129,-0.001 -0.2571,-0.03 -0.3723,-0.086 v 0 c 0.0547,-0.004 0.1086,-0.017 0.1613,-0.038 v 0" />
      <path
         inkscape:connector-curvature="0"
         id="path3851"
         style="fill:#231f20;fill-opacity:1;fill-rule:nonzero;stroke:none;stroke-width:0.1"
         d="m 55.4469,670.857 c -0.3098,0 -0.6242,0.049 -0.9317,0.151 v 0 c -1.5168,0.5 -2.4777,1.906 -2.4765,3.421 v 0 c 0,0.374 0.0586,0.752 0.1804,1.125 v 0 c 0.6067,1.841 2.3176,3.01 4.1563,3.009 v 0 c 0.4543,0 0.916,-0.072 1.3703,-0.221 v 0 c 0.2625,-0.088 0.4043,-0.37 0.3172,-0.632 v 0 c -0.0859,-0.262 -0.3691,-0.404 -0.6309,-0.318 v 0 c -0.3515,0.116 -0.7058,0.171 -1.0566,0.171 v 0 c -1.4168,0 -2.7391,-0.901 -3.2051,-2.323 v 0 c -0.0898,-0.27 -0.1316,-0.544 -0.1328,-0.811 v 0 c 0.0012,-1.093 0.6945,-2.111 1.7902,-2.472 v 0 c 0.2059,-0.067 0.4129,-0.1 0.6192,-0.1 v 0 c 0.8301,0 1.6074,0.53 1.8816,1.364 v 0 c 0.0508,0.153 0.0735,0.309 0.0735,0.464 v 0 c 0,0.623 -0.3957,1.205 -1.0196,1.409 v 0 c -0.1035,0.034 -0.207,0.051 -0.3097,0.054 v 0 c 0.0644,-0.009 0.1289,-0.025 0.1914,-0.045 v 0 c 0.5527,-0.184 0.9035,-0.695 0.9035,-1.248 v 0 c 0,-0.135 -0.0207,-0.274 -0.0676,-0.41 v 0 c -0.2109,-0.637 -0.8008,-1.043 -1.4395,-1.041 v 0 c -0.157,0 -0.3171,0.024 -0.4734,0.076 v 0 c -0.7453,0.245 -1.218,0.936 -1.2168,1.68 v 0 c -0.0012,0.185 0.0281,0.371 0.0879,0.552 v 0 c 0.2898,0.88 1.1055,1.438 1.9832,1.436 v 0 c 0.2168,0.002 0.4375,-0.034 0.6535,-0.104 v 0 c 1.0438,-0.346 1.7078,-1.314 1.7071,-2.359 v 0 c 7e-4,-0.257 -0.0391,-0.52 -0.1243,-0.778 v 0 c -0.414,-1.253 -1.5769,-2.05 -2.8289,-2.05 v 0 c -0.0011,0 -0.0019,0 -0.0019,0 z m 0.3144,3.198 -0.0011,-0.005 c 0.0011,-0.006 0.005,-0.017 0.0156,-0.02 v 0 c 0.175,-0.058 0.2961,-0.203 0.332,-0.371 v 0 c 0.0176,0.03 0.0324,0.064 0.0442,0.098 v 0 c 0.0097,0.033 0.0156,0.066 0.0156,0.098 v 0 c 0,0.131 -0.0852,0.256 -0.216,0.297 v 0 c -0.0176,0.005 -0.0321,0.007 -0.0477,0.008 v 0 c -0.0625,-10e-4 -0.1211,-0.04 -0.1426,-0.105 v 0" />
      <path
         inkscape:connector-curvature="0"
         id="path3853"
         style="fill:#231f20;fill-opacity:1;fill-rule:nonzero;stroke:none;stroke-width:0.1"
         d="m 115.77,680.793 h 0.001 c -0.105,0.255 0.017,0.548 0.272,0.652 v 0 c 0.255,0.104 0.547,-0.017 0.652,-0.273 v 0 c 0.739,-1.808 2.483,-2.901 4.322,-2.901 v 0 c 0.589,0 1.186,0.112 1.768,0.348 v 0 c 1.405,0.576 2.256,1.935 2.256,3.367 v 0 c 0,0.457 -0.086,0.923 -0.27,1.373 v 0 c -0.444,1.088 -1.494,1.746 -2.601,1.746 v 0 c -0.355,0 -0.713,-0.067 -1.062,-0.21 v 0 c -0.831,-0.339 -1.333,-1.14 -1.334,-1.987 v 0 c 0,-0.27 0.051,-0.544 0.161,-0.812 v 0 c 0.256,-0.626 0.86,-1.004 1.498,-1.005 v 0 c 0.202,10e-4 0.409,0.039 0.612,0.12 v 0 c 0.285,0.118 0.501,0.334 0.625,0.594 v 0 c -0.129,-0.198 -0.317,-0.36 -0.552,-0.457 v 0 c -0.167,-0.068 -0.342,-0.102 -0.516,-0.101 v 0 c -0.538,-10e-4 -1.048,0.319 -1.264,0.847 v 0 c -0.083,0.197 -0.12,0.404 -0.12,0.601 v 0 c 0,0.625 0.372,1.215 0.983,1.466 v 0 c 0.229,0.095 0.469,0.139 0.704,0.139 v 0 c 0.731,0.001 1.423,-0.436 1.718,-1.155 v 0 c 0.109,-0.269 0.163,-0.55 0.163,-0.827 v 0 c 0,-0.865 -0.513,-1.682 -1.365,-2.033 v 0 c -0.322,-0.131 -0.658,-0.194 -0.988,-0.194 v 0 c -1.031,-10e-4 -2.008,0.613 -2.422,1.624 v 0 c -0.162,0.39 -0.237,0.796 -0.236,1.193 v 0 c -0.001,1.24 0.737,2.414 1.953,2.912 v 0 c 0.471,0.194 0.962,0.285 1.442,0.285 v 0 c 1.501,0.002 2.922,-0.893 3.527,-2.367 v 0 c 0.232,-0.573 0.344,-1.168 0.344,-1.752 v 0 c 0.002,-1.826 -1.086,-3.556 -2.879,-4.291 v 0 c -0.703,-0.288 -1.43,-0.424 -2.145,-0.424 v 0 c -2.233,-10e-4 -4.349,1.328 -5.247,3.522 z m 5.812,2.443 c -0.227,-0.092 -0.362,-0.311 -0.364,-0.541 v 0 c 0,-0.074 0.014,-0.145 0.044,-0.221 v 0 c 0.059,-0.141 0.197,-0.227 0.34,-0.227 v 0 c 0.045,0 0.092,0.008 0.14,0.026 v 0 c 0.074,0.031 0.119,0.105 0.12,0.181 v 0 c 0,0.025 -0.004,0.049 -0.014,0.073 v 0 c -0.104,0.257 0.019,0.547 0.275,0.652 v 0 c 0.05,0.02 0.102,0.032 0.154,0.036 v 0 c -0.115,0.056 -0.242,0.085 -0.372,0.085 v 0 c -0.109,0 -0.217,-0.021 -0.323,-0.064 v 0" />
      <path
         inkscape:connector-curvature="0"
         id="path3855"
         style="fill:#231f20;fill-opacity:1;fill-rule:nonzero;stroke:none;stroke-width:0.1"
         d="m 121.309,672.906 c -0.086,0.258 -0.126,0.521 -0.126,0.779 v 0 c 0,1.044 0.663,2.014 1.708,2.359 v 0 c 0.216,0.07 0.436,0.104 0.652,0.104 v 0 c 0.878,0 1.694,-0.556 1.985,-1.436 v 0 c 0.06,-0.183 0.089,-0.37 0.089,-0.552 v 0 c 0,-0.745 -0.474,-1.434 -1.218,-1.681 v 0 c -0.157,-0.051 -0.317,-0.077 -0.475,-0.077 v 0 c -0.637,0 -1.229,0.406 -1.437,1.039 v 0 c -0.046,0.136 -0.069,0.277 -0.069,0.414 v 0 c 0,0.552 0.35,1.066 0.902,1.247 v 0 c 0.065,0.021 0.133,0.037 0.199,0.046 v 0 c -0.103,-0.002 -0.209,-0.019 -0.314,-0.054 v 0 c -0.625,-0.204 -1.022,-0.786 -1.022,-1.409 v 0 c 0,-0.155 0.024,-0.31 0.075,-0.465 v 0 c 0.274,-0.834 1.049,-1.363 1.881,-1.363 v 0 c 0.205,0 0.414,0.032 0.619,0.099 v 0 c 1.095,0.362 1.788,1.381 1.789,2.473 v 0 c -10e-4,0.268 -0.042,0.543 -0.131,0.811 v 0 c -0.467,1.422 -1.789,2.323 -3.205,2.323 v 0 c -0.351,0 -0.706,-0.055 -1.057,-0.171 v 0 h 0.001 c -0.263,-0.086 -0.546,0.055 -0.632,0.318 v 0 c -0.087,0.263 0.056,0.544 0.318,0.632 v 0 c 0.454,0.149 0.915,0.221 1.37,0.221 v 0 c 1.838,0 3.547,-1.168 4.156,-3.009 v 0 c 0.123,-0.373 0.18,-0.752 0.179,-1.125 v 0 c 10e-4,-1.514 -0.96,-2.921 -2.474,-3.422 v 0 c -0.309,-0.102 -0.623,-0.148 -0.933,-0.148 v 0 c -1.253,-0.002 -2.418,0.795 -2.83,2.047 z m 2.324,1.246 c -0.131,-0.043 -0.213,-0.164 -0.215,-0.297 v 0 c 0,-0.03 0.004,-0.062 0.018,-0.098 v 0 c 0.011,-0.034 0.025,-0.068 0.043,-0.097 v 0 c 0.035,0.167 0.156,0.312 0.33,0.369 v 0 c 0.009,0.002 0.016,0.016 0.016,0.022 v 0 c 0,0 -0.001,0.006 0,0.004 v 0 c -0.022,0.066 -0.082,0.104 -0.144,0.105 v 0 c -0.015,0 -0.028,-0.002 -0.048,-0.008 v 0" />
      <path
         inkscape:connector-curvature="0"
         id="path3857"
         style="fill:#231f20;fill-opacity:1;fill-rule:nonzero;stroke:none;stroke-width:0.1"
         d="m 92.4957,626.247 -5.6984,0.001 2.8515,12.857 z" />
      <path
         inkscape:connector-curvature="0"
         id="path3859"
         style="fill:none;stroke:#231f20;stroke-width:0.100659;stroke-linecap:round;stroke-linejoin:round;stroke-miterlimit:4;stroke-dasharray:none;stroke-opacity:1"
         d="m 92.4957,626.247 -5.6984,0.001 2.8515,12.857 z" />
      <path
         inkscape:connector-curvature="0"
         id="path3861"
         style="fill:#231f20;fill-opacity:1;fill-rule:nonzero;stroke:none;stroke-width:0.1"
         d="m 91.2172,651.727 -2.8484,10e-4 1.4265,6.429 z" />
      <path
         inkscape:connector-curvature="0"
         id="path3863"
         style="fill:none;stroke:#231f20;stroke-width:0.05033;stroke-linecap:round;stroke-linejoin:round;stroke-miterlimit:4;stroke-dasharray:none;stroke-opacity:1"
         d="m 91.2172,651.727 -2.8484,10e-4 1.4265,6.429 z" />
      <path
         inkscape:connector-curvature="0"
         id="path3865"
         style="fill:#231f20;fill-opacity:1;fill-rule:nonzero;stroke:none;stroke-width:0.1"
         d="m 68.7613,688.123 1.5301,2.402 4.6574,-4.655 z" />
      <path
         inkscape:connector-curvature="0"
         id="path3867"
         style="fill:none;stroke:#231f20;stroke-width:0.05033;stroke-linecap:round;stroke-linejoin:round;stroke-miterlimit:4;stroke-dasharray:none;stroke-opacity:1"
         d="m 68.7613,688.123 1.5301,2.402 4.6574,-4.655 z" />
      <path
         inkscape:connector-curvature="0"
         id="path3869"
         style="fill:#231f20;fill-opacity:1;fill-rule:nonzero;stroke:none;stroke-width:0.1"
         d="m 110.803,688.178 -1.53,2.403 -4.657,-4.655 z" />
      <path
         inkscape:connector-curvature="0"
         id="path3871"
         style="fill:none;stroke:#231f20;stroke-width:0.05033;stroke-linecap:round;stroke-linejoin:round;stroke-miterlimit:4;stroke-dasharray:none;stroke-opacity:1"
         d="m 110.803,688.178 -1.53,2.403 -4.657,-4.655 z" />
      <path
         inkscape:connector-curvature="0"
         id="path3873"
         style="fill:#231f20;fill-opacity:1;fill-rule:nonzero;stroke:none;stroke-width:0.1"
         d="m 72.1703,681.726 1.5305,2.403 4.657,-4.655 z" />
      <path
         inkscape:connector-curvature="0"
         id="path3875"
         style="fill:none;stroke:#231f20;stroke-width:0.05033;stroke-linecap:round;stroke-linejoin:round;stroke-miterlimit:4;stroke-dasharray:none;stroke-opacity:1"
         d="m 72.1703,681.726 1.5305,2.403 4.657,-4.655 z" />
      <path
         inkscape:connector-curvature="0"
         id="path3877"
         style="fill:#231f20;fill-opacity:1;fill-rule:nonzero;stroke:none;stroke-width:0.1"
         d="m 107.485,681.726 -1.53,2.403 -4.658,-4.655 z" />
      <path
         inkscape:connector-curvature="0"
         id="path3879"
         style="fill:none;stroke:#231f20;stroke-width:0.05033;stroke-linecap:round;stroke-linejoin:round;stroke-miterlimit:4;stroke-dasharray:none;stroke-opacity:1"
         d="m 107.485,681.726 -1.53,2.403 -4.658,-4.655 z" />
      <path
         inkscape:connector-curvature="0"
         id="path3881"
         style="fill:#231f20;fill-opacity:1;fill-rule:nonzero;stroke:none;stroke-width:0.1"
         d="m 93.3063,657.592 2.5574,1.252 -4.1063,5.149 z" />
      <path
         inkscape:connector-curvature="0"
         id="path3883"
         style="fill:none;stroke:#231f20;stroke-width:0.05033;stroke-linecap:round;stroke-linejoin:round;stroke-miterlimit:4;stroke-dasharray:none;stroke-opacity:1"
         d="m 93.3063,657.592 2.5574,1.252 -4.1063,5.149 z" />
      <path
         inkscape:connector-curvature="0"
         id="path3885"
         style="fill:#231f20;fill-opacity:1;fill-rule:nonzero;stroke:none;stroke-width:0.1"
         d="m 86.4086,657.572 -2.5574,1.252 4.1054,5.15 z" />
      <path
         inkscape:connector-curvature="0"
         id="path3887"
         style="fill:none;stroke:#231f20;stroke-width:0.05033;stroke-linecap:round;stroke-linejoin:round;stroke-miterlimit:4;stroke-dasharray:none;stroke-opacity:1"
         d="m 86.4086,657.572 -2.5574,1.252 4.1054,5.15 z" />
      <path
         inkscape:connector-curvature="0"
         id="path3889"
         style="fill:#231f20;fill-opacity:1;fill-rule:nonzero;stroke:none;stroke-width:0.1"
         d="M 74.6625,658.74 76.1,656.28 69.8316,654.265 Z" />
      <path
         inkscape:connector-curvature="0"
         id="path3891"
         style="fill:none;stroke:#231f20;stroke-width:0.05033;stroke-linecap:round;stroke-linejoin:round;stroke-miterlimit:4;stroke-dasharray:none;stroke-opacity:1"
         d="M 74.6625,658.74 76.1,656.28 69.8316,654.265 Z" />
      <path
         inkscape:connector-curvature="0"
         id="path3893"
         style="fill:#231f20;fill-opacity:1;fill-rule:nonzero;stroke:none;stroke-width:0.1"
         d="m 105.086,658.613 -1.437,-2.459 6.269,-2.016 z" />
      <path
         inkscape:connector-curvature="0"
         id="path3895"
         style="fill:none;stroke:#231f20;stroke-width:0.05033;stroke-linecap:round;stroke-linejoin:round;stroke-miterlimit:4;stroke-dasharray:none;stroke-opacity:1"
         d="m 105.086,658.613 -1.437,-2.459 6.269,-2.016 z" />
      <path
         inkscape:connector-curvature="0"
         id="path3897"
         style="fill:#231f20;fill-opacity:1;fill-rule:nonzero;stroke:none;stroke-width:0.1"
         d="m 87.9945,640.384 v 3.637 h 3.6379 v -3.637 h -3.6379" />
      <path
         inkscape:connector-curvature="0"
         id="path3899"
         style="fill:none;stroke:#231f20;stroke-width:0.024375;stroke-linecap:round;stroke-linejoin:round;stroke-miterlimit:4;stroke-dasharray:none;stroke-opacity:1"
         d="m 87.9945,640.384 v 3.637 h 3.6379 v -3.637 z" />
      <path
         inkscape:connector-curvature="0"
         id="path3901"
         style="fill:#231f20;fill-opacity:1;fill-rule:evenodd;stroke:none;stroke-width:0.1"
         d="m 90.357,714.058 c 0,-0.377 -0.3058,-0.683 -0.6816,-0.683 -0.377,0 -0.6828,0.306 -0.6828,0.683 0,0.376 0.3058,0.681 0.6828,0.681 0.3758,0 0.6816,-0.305 0.6816,-0.681" />
      <path
         inkscape:connector-curvature="0"
         id="path3903"
         style="fill:none;stroke:#231f20;stroke-width:0.197106;stroke-linecap:butt;stroke-linejoin:round;stroke-miterlimit:4;stroke-dasharray:none;stroke-opacity:1"
         d="m 90.357,714.058 c 0,-0.377 -0.3058,-0.683 -0.6816,-0.683 -0.377,0 -0.6828,0.306 -0.6828,0.683 0,0.376 0.3058,0.681 0.6828,0.681 0.3758,0 0.6816,-0.305 0.6816,-0.681 z" />
      <path
         inkscape:connector-curvature="0"
         id="path3905"
         style="fill:#231f20;fill-opacity:1;fill-rule:evenodd;stroke:none;stroke-width:0.1"
         d="m 74.6012,661.101 -0.3723,1.143 0.9727,0.707 0.9726,-0.707 -0.3711,-1.143 h -1.2019" />
      <path
         inkscape:connector-curvature="0"
         id="path3907"
         style="fill:none;stroke:#231f20;stroke-width:0.024638;stroke-linecap:butt;stroke-linejoin:round;stroke-miterlimit:4;stroke-dasharray:none;stroke-opacity:1"
         d="m 74.6012,661.101 -0.3723,1.143 0.9727,0.707 0.9726,-0.707 -0.3711,-1.143 z" />
      <path
         inkscape:connector-curvature="0"
         id="path3909"
         style="fill:#231f20;fill-opacity:1;fill-rule:evenodd;stroke:none;stroke-width:0.1"
         d="m 71.6781,660.426 -0.3718,1.144 0.9726,0.707 0.9727,-0.707 -0.3711,-1.144 h -1.2024" />
      <path
         inkscape:connector-curvature="0"
         id="path3911"
         style="fill:none;stroke:#231f20;stroke-width:0.024638;stroke-linecap:butt;stroke-linejoin:round;stroke-miterlimit:4;stroke-dasharray:none;stroke-opacity:1"
         d="m 71.6781,660.426 -0.3718,1.144 0.9726,0.707 0.9727,-0.707 -0.3711,-1.144 z" />
      <path
         inkscape:connector-curvature="0"
         id="path3913"
         style="fill:#231f20;fill-opacity:1;fill-rule:evenodd;stroke:none;stroke-width:0.1"
         d="m 68.9137,658.988 -0.3723,1.143 0.9727,0.707 0.9726,-0.707 -0.3711,-1.143 h -1.2019" />
      <path
         inkscape:connector-curvature="0"
         id="path3915"
         style="fill:none;stroke:#231f20;stroke-width:0.024638;stroke-linecap:butt;stroke-linejoin:round;stroke-miterlimit:4;stroke-dasharray:none;stroke-opacity:1"
         d="m 68.9137,658.988 -0.3723,1.143 0.9727,0.707 0.9726,-0.707 -0.3711,-1.143 z" />
      <path
         inkscape:connector-curvature="0"
         id="path3917"
         style="fill:#231f20;fill-opacity:1;fill-rule:evenodd;stroke:none;stroke-width:0.1"
         d="m 104.733,661.263 0.372,1.143 -0.973,0.707 -0.972,-0.707 0.371,-1.143 h 1.202" />
      <path
         inkscape:connector-curvature="0"
         id="path3919"
         style="fill:none;stroke:#231f20;stroke-width:0.024638;stroke-linecap:butt;stroke-linejoin:round;stroke-miterlimit:4;stroke-dasharray:none;stroke-opacity:1"
         d="m 104.733,661.263 0.372,1.143 -0.973,0.707 -0.972,-0.707 0.371,-1.143 z" />
      <path
         inkscape:connector-curvature="0"
         id="path3921"
         style="fill:#231f20;fill-opacity:1;fill-rule:evenodd;stroke:none;stroke-width:0.1"
         d="m 107.656,660.588 0.372,1.144 -0.973,0.707 -0.973,-0.707 0.372,-1.144 h 1.202" />
      <path
         inkscape:connector-curvature="0"
         id="path3923"
         style="fill:none;stroke:#231f20;stroke-width:0.024638;stroke-linecap:butt;stroke-linejoin:round;stroke-miterlimit:4;stroke-dasharray:none;stroke-opacity:1"
         d="m 107.656,660.588 0.372,1.144 -0.973,0.707 -0.973,-0.707 0.372,-1.144 z" />
      <path
         inkscape:connector-curvature="0"
         id="path3925"
         style="fill:#231f20;fill-opacity:1;fill-rule:evenodd;stroke:none;stroke-width:0.1"
         d="m 110.42,659.15 0.373,1.144 -0.973,0.707 -0.973,-0.707 0.371,-1.144 h 1.202" />
      <path
         inkscape:connector-curvature="0"
         id="path3927"
         style="fill:none;stroke:#231f20;stroke-width:0.024638;stroke-linecap:butt;stroke-linejoin:round;stroke-miterlimit:4;stroke-dasharray:none;stroke-opacity:1"
         d="m 110.42,659.15 0.373,1.144 -0.973,0.707 -0.973,-0.707 0.371,-1.144 z" />
      <path
         inkscape:connector-curvature="0"
         id="path3929"
         style="fill:#231f20;fill-opacity:1;fill-rule:evenodd;stroke:none;stroke-width:0.1"
         d="m 86.6734,712.736 c 0,-0.377 -0.3058,-0.682 -0.6828,-0.682 -0.3758,0 -0.6816,0.305 -0.6816,0.682 0,0.377 0.3058,0.682 0.6816,0.682 0.377,0 0.6828,-0.305 0.6828,-0.682" />
      <path
         inkscape:connector-curvature="0"
         id="path3931"
         style="fill:none;stroke:#231f20;stroke-width:0.197106;stroke-linecap:butt;stroke-linejoin:round;stroke-miterlimit:4;stroke-dasharray:none;stroke-opacity:1"
         d="m 86.6734,712.736 c 0,-0.377 -0.3058,-0.682 -0.6828,-0.682 -0.3758,0 -0.6816,0.305 -0.6816,0.682 0,0.377 0.3058,0.682 0.6816,0.682 0.377,0 0.6828,-0.305 0.6828,-0.682 z" />
      <path
         inkscape:connector-curvature="0"
         id="path3933"
         style="fill:#231f20;fill-opacity:1;fill-rule:evenodd;stroke:none;stroke-width:0.1"
         d="m 94.0844,712.758 c 0,-0.377 -0.3055,-0.683 -0.6817,-0.683 -0.3769,0 -0.6824,0.306 -0.6824,0.683 0,0.376 0.3055,0.681 0.6824,0.681 0.3762,0 0.6817,-0.305 0.6817,-0.681" />
      <path
         inkscape:connector-curvature="0"
         id="path3935"
         style="fill:none;stroke:#231f20;stroke-width:0.197106;stroke-linecap:butt;stroke-linejoin:round;stroke-miterlimit:4;stroke-dasharray:none;stroke-opacity:1"
         d="m 94.0844,712.758 c 0,-0.377 -0.3055,-0.683 -0.6817,-0.683 -0.3769,0 -0.6824,0.306 -0.6824,0.683 0,0.376 0.3055,0.681 0.6824,0.681 0.3762,0 0.6817,-0.305 0.6817,-0.681 z" />
      <path
         inkscape:connector-curvature="0"
         id="path3937"
         style="fill:#231f20;fill-opacity:1;fill-rule:evenodd;stroke:none;stroke-width:0.1"
         d="m 59.352,678.47 c 0,-0.377 -0.3055,-0.682 -0.6825,-0.682 -0.3761,0 -0.6828,0.305 -0.6828,0.682 0,0.377 0.3067,0.682 0.6828,0.682 0.377,0 0.6825,-0.305 0.6825,-0.682" />
      <path
         inkscape:connector-curvature="0"
         id="path3939"
         style="fill:none;stroke:#231f20;stroke-width:0.197106;stroke-linecap:butt;stroke-linejoin:round;stroke-miterlimit:4;stroke-dasharray:none;stroke-opacity:1"
         d="m 59.352,678.47 c 0,-0.377 -0.3055,-0.682 -0.6825,-0.682 -0.3761,0 -0.6828,0.305 -0.6828,0.682 0,0.377 0.3067,0.682 0.6828,0.682 0.377,0 0.6825,-0.305 0.6825,-0.682 z" />
      <path
         inkscape:connector-curvature="0"
         id="path3941"
         style="fill:#231f20;fill-opacity:1;fill-rule:evenodd;stroke:none;stroke-width:0.1"
         d="m 121.873,678.563 c 0,-0.377 -0.307,-0.683 -0.683,-0.683 -0.377,0 -0.683,0.306 -0.683,0.683 0,0.376 0.306,0.681 0.683,0.681 0.376,0 0.683,-0.305 0.683,-0.681" />
      <path
         inkscape:connector-curvature="0"
         id="path3943"
         style="fill:none;stroke:#231f20;stroke-width:0.197106;stroke-linecap:butt;stroke-linejoin:round;stroke-miterlimit:4;stroke-dasharray:none;stroke-opacity:1"
         d="m 121.873,678.563 c 0,-0.377 -0.307,-0.683 -0.683,-0.683 -0.377,0 -0.683,0.306 -0.683,0.683 0,0.376 0.306,0.681 0.683,0.681 0.376,0 0.683,-0.305 0.683,-0.681 z" />
      <path
         inkscape:connector-curvature="0"
         id="path3945"
         style="fill:#231f20;fill-opacity:1;fill-rule:evenodd;stroke:none;stroke-width:0.1"
         d="m 77.8344,620.161 c 0,-0.377 -0.3067,-0.682 -0.6824,-0.682 -0.377,0 -0.6829,0.305 -0.6829,0.682 0,0.376 0.3059,0.682 0.6829,0.682 0.3757,0 0.6824,-0.306 0.6824,-0.682" />
      <path
         inkscape:connector-curvature="0"
         id="path3947"
         style="fill:none;stroke:#231f20;stroke-width:0.197106;stroke-linecap:butt;stroke-linejoin:round;stroke-miterlimit:4;stroke-dasharray:none;stroke-opacity:1"
         d="m 77.8344,620.161 c 0,-0.377 -0.3067,-0.682 -0.6824,-0.682 -0.377,0 -0.6829,0.305 -0.6829,0.682 0,0.376 0.3059,0.682 0.6829,0.682 0.3757,0 0.6824,-0.306 0.6824,-0.682 z" />
      <path
         inkscape:connector-curvature="0"
         id="path3949"
         style="fill:#231f20;fill-opacity:1;fill-rule:evenodd;stroke:none;stroke-width:0.1"
         d="m 103.347,620.15 c 0,-0.377 -0.306,-0.682 -0.683,-0.682 -0.375,0 -0.681,0.305 -0.681,0.682 0,0.377 0.306,0.683 0.681,0.683 0.377,0 0.683,-0.306 0.683,-0.683" />
      <path
         inkscape:connector-curvature="0"
         id="path3951"
         style="fill:none;stroke:#231f20;stroke-width:0.197106;stroke-linecap:butt;stroke-linejoin:round;stroke-miterlimit:4;stroke-dasharray:none;stroke-opacity:1"
         d="m 103.347,620.15 c 0,-0.377 -0.306,-0.682 -0.683,-0.682 -0.375,0 -0.681,0.305 -0.681,0.682 0,0.377 0.306,0.683 0.681,0.683 0.377,0 0.683,-0.306 0.683,-0.683 z" />
      <path
         inkscape:connector-curvature="0"
         id="path3953"
         style="fill:#231f20;fill-opacity:1;fill-rule:evenodd;stroke:none;stroke-width:0.1"
         d="m 84.184,623.872 1.418,2.455 1.4171,-2.455 z" />
      <path
         inkscape:connector-curvature="0"
         id="path3955"
         style="fill:none;stroke:#231f20;stroke-width:0.039421;stroke-linecap:butt;stroke-linejoin:round;stroke-miterlimit:4;stroke-dasharray:none;stroke-opacity:1"
         d="m 84.184,623.872 1.418,2.455 1.4171,-2.455 z" />
      <path
         inkscape:connector-curvature="0"
         id="path3957"
         style="fill:#231f20;fill-opacity:1;fill-rule:evenodd;stroke:none;stroke-width:0.1"
         d="m 92.5355,623.894 1.4172,2.455 1.418,-2.455 z" />
      <path
         inkscape:connector-curvature="0"
         id="path3959"
         style="fill:none;stroke:#231f20;stroke-width:0.039421;stroke-linecap:butt;stroke-linejoin:round;stroke-miterlimit:4;stroke-dasharray:none;stroke-opacity:1"
         d="m 92.5355,623.894 1.4172,2.455 1.418,-2.455 z" />
      <path
         inkscape:connector-curvature="0"
         id="path3961"
         style="fill:#231f20;fill-opacity:1;fill-rule:evenodd;stroke:none;stroke-width:0.1"
         d="m 84.3262,698.178 1.4176,-2.455 1.4175,2.455 z" />
      <path
         inkscape:connector-curvature="0"
         id="path3963"
         style="fill:none;stroke:#231f20;stroke-width:0.039421;stroke-linecap:butt;stroke-linejoin:round;stroke-miterlimit:4;stroke-dasharray:none;stroke-opacity:1"
         d="m 84.3262,698.178 1.4176,-2.455 1.4175,2.455 z" />
      <path
         inkscape:connector-curvature="0"
         id="path3965"
         style="fill:#231f20;fill-opacity:1;fill-rule:evenodd;stroke:none;stroke-width:0.1"
         d="m 92.0551,698.058 1.4191,-2.455 1.4168,2.455 z" />
      <path
         inkscape:connector-curvature="0"
         id="path3967"
         style="fill:none;stroke:#231f20;stroke-width:0.039421;stroke-linecap:butt;stroke-linejoin:round;stroke-miterlimit:4;stroke-dasharray:none;stroke-opacity:1"
         d="m 92.0551,698.058 1.4191,-2.455 1.4168,2.455 z" />
      <path
         inkscape:connector-curvature="0"
         id="path3969"
         style="fill:#231f20;fill-opacity:1;fill-rule:nonzero;stroke:none;stroke-width:0.1"
         d="m 101.92,678.154 -1.781,-0.506 2.033,-3.767 z" />
      <path
         inkscape:connector-curvature="0"
         id="path3971"
         style="fill:none;stroke:#231f20;stroke-width:0.032715;stroke-linecap:round;stroke-linejoin:round;stroke-miterlimit:4;stroke-dasharray:none;stroke-opacity:1"
         d="m 101.92,678.154 -1.781,-0.506 2.033,-3.767 z" />
      <path
         inkscape:connector-curvature="0"
         id="path3973"
         style="fill:#231f20;fill-opacity:1;fill-rule:nonzero;stroke:none;stroke-width:0.1"
         d="m 103.882,673.107 0.27,-1.832 4,1.525 z" />
      <path
         inkscape:connector-curvature="0"
         id="path3975"
         style="fill:none;stroke:#231f20;stroke-width:0.032715;stroke-linecap:round;stroke-linejoin:round;stroke-miterlimit:4;stroke-dasharray:none;stroke-opacity:1"
         d="m 103.882,673.107 0.27,-1.832 4,1.525 z" />
      <path
         inkscape:connector-curvature="0"
         id="path3977"
         style="fill:#231f20;fill-opacity:1;fill-rule:nonzero;stroke:none;stroke-width:0.1"
         d="m 77.4781,678.154 1.7813,-0.506 -2.0332,-3.767 z" />
      <path
         inkscape:connector-curvature="0"
         id="path3979"
         style="fill:none;stroke:#231f20;stroke-width:0.032715;stroke-linecap:round;stroke-linejoin:round;stroke-miterlimit:4;stroke-dasharray:none;stroke-opacity:1"
         d="m 77.4781,678.154 1.7813,-0.506 -2.0332,-3.767 z" />
      <path
         inkscape:connector-curvature="0"
         id="path3981"
         style="fill:#231f20;fill-opacity:1;fill-rule:nonzero;stroke:none;stroke-width:0.1"
         d="M 75.3258,673.107 75.0563,671.275 71.057,672.8 Z" />
      <path
         inkscape:connector-curvature="0"
         id="path3983"
         style="fill:none;stroke:#231f20;stroke-width:0.032715;stroke-linecap:round;stroke-linejoin:round;stroke-miterlimit:4;stroke-dasharray:none;stroke-opacity:1"
         d="M 75.3258,673.107 75.0563,671.275 71.057,672.8 Z" />
      <path
         inkscape:connector-curvature="0"
         id="path3985"
         style="fill:#231f20;fill-opacity:1;fill-rule:nonzero;stroke:none;stroke-width:0.1"
         d="m 78.6938,688.22 0.2695,-1.832 4,1.524 z" />
      <path
         inkscape:connector-curvature="0"
         id="path3987"
         style="fill:none;stroke:#231f20;stroke-width:0.032715;stroke-linecap:round;stroke-linejoin:round;stroke-miterlimit:4;stroke-dasharray:none;stroke-opacity:1"
         d="m 78.6938,688.22 0.2695,-1.832 4,1.524 z" />
      <path
         inkscape:connector-curvature="0"
         id="path3989"
         style="fill:#231f20;fill-opacity:1;fill-rule:nonzero;stroke:none;stroke-width:0.1"
         d="m 72.1938,647.266 0.2695,-1.831 4,1.524 z" />
      <path
         inkscape:connector-curvature="0"
         id="path3991"
         style="fill:none;stroke:#231f20;stroke-width:0.032715;stroke-linecap:round;stroke-linejoin:round;stroke-miterlimit:4;stroke-dasharray:none;stroke-opacity:1"
         d="m 72.1938,647.266 0.2695,-1.831 4,1.524 z" />
      <path
         inkscape:connector-curvature="0"
         id="path3993"
         style="fill:#231f20;fill-opacity:1;fill-rule:nonzero;stroke:none;stroke-width:0.1"
         d="m 70.0688,652.15 -1.7801,-0.505 2.0332,-3.768 z" />
      <path
         inkscape:connector-curvature="0"
         id="path3995"
         style="fill:none;stroke:#231f20;stroke-width:0.032715;stroke-linecap:round;stroke-linejoin:round;stroke-miterlimit:4;stroke-dasharray:none;stroke-opacity:1"
         d="m 70.0688,652.15 -1.7801,-0.505 2.0332,-3.768 z" />
      <path
         inkscape:connector-curvature="0"
         id="path3997"
         style="fill:#231f20;fill-opacity:1;fill-rule:nonzero;stroke:none;stroke-width:0.1"
         d="m 109.492,652.801 1.78,-0.506 -2.033,-3.768 z" />
      <path
         inkscape:connector-curvature="0"
         id="path3999"
         style="fill:none;stroke:#231f20;stroke-width:0.032715;stroke-linecap:round;stroke-linejoin:round;stroke-miterlimit:4;stroke-dasharray:none;stroke-opacity:1"
         d="m 109.492,652.801 1.78,-0.506 -2.033,-3.768 z" />
      <path
         inkscape:connector-curvature="0"
         id="path4001"
         style="fill:#231f20;fill-opacity:1;fill-rule:nonzero;stroke:none;stroke-width:0.1"
         d="m 107.989,647.104 -0.269,-1.833 -4,1.525 z" />
      <path
         inkscape:connector-curvature="0"
         id="path4003"
         style="fill:none;stroke:#231f20;stroke-width:0.032715;stroke-linecap:round;stroke-linejoin:round;stroke-miterlimit:4;stroke-dasharray:none;stroke-opacity:1"
         d="m 107.989,647.104 -0.269,-1.833 -4,1.525 z" />
      <path
         inkscape:connector-curvature="0"
         id="path4005"
         style="fill:#231f20;fill-opacity:1;fill-rule:nonzero;stroke:none;stroke-width:0.1"
         d="m 100.514,688.22 -0.269,-1.832 -3.9993,1.524 z" />
      <path
         inkscape:connector-curvature="0"
         id="path4007"
         style="fill:none;stroke:#231f20;stroke-width:0.032715;stroke-linecap:round;stroke-linejoin:round;stroke-miterlimit:4;stroke-dasharray:none;stroke-opacity:1"
         d="m 100.514,688.22 -0.269,-1.832 -3.9993,1.524 z" />
      <path
         inkscape:connector-curvature="0"
         id="path4009"
         style="fill:#231f20;fill-opacity:1;fill-rule:nonzero;stroke:none;stroke-width:0.1"
         d="m 86.0941,665.248 1.5676,0.988 -3.0117,3.041 z" />
      <path
         inkscape:connector-curvature="0"
         id="path4011"
         style="fill:none;stroke:#231f20;stroke-width:0.032715;stroke-linecap:round;stroke-linejoin:round;stroke-miterlimit:4;stroke-dasharray:none;stroke-opacity:1"
         d="m 86.0941,665.248 1.5676,0.988 -3.0117,3.041 z" />
      <path
         inkscape:connector-curvature="0"
         id="path4013"
         style="fill:#231f20;fill-opacity:1;fill-rule:nonzero;stroke:none;stroke-width:0.1"
         d="m 93.693,665.107 -1.5676,0.988 3.0117,3.042 z" />
      <path
         inkscape:connector-curvature="0"
         id="path4015"
         style="fill:none;stroke:#231f20;stroke-width:0.032715;stroke-linecap:round;stroke-linejoin:round;stroke-miterlimit:4;stroke-dasharray:none;stroke-opacity:1"
         d="m 93.693,665.107 -1.5676,0.988 3.0117,3.042 z" />
      <path
         inkscape:connector-curvature="0"
         id="path4017"
         style="fill:#231f20;fill-opacity:1;fill-rule:evenodd;stroke:none;stroke-width:0.1"
         d="m 83.5063,654.23 c 0,-1.171 -0.95,-2.121 -2.1219,-2.121 -1.1731,0 -2.1231,0.95 -2.1231,2.121 0,1.174 0.95,2.125 2.1231,2.125 1.1719,0 2.1219,-0.951 2.1219,-2.125" />
      <path
         inkscape:connector-curvature="0"
         id="path4019"
         style="fill:none;stroke:#231f20;stroke-width:0.262808;stroke-linecap:butt;stroke-linejoin:round;stroke-miterlimit:4;stroke-dasharray:none;stroke-opacity:1"
         d="m 83.5063,654.23 c 0,-1.171 -0.95,-2.121 -2.1219,-2.121 -1.1731,0 -2.1231,0.95 -2.1231,2.121 0,1.174 0.95,2.125 2.1231,2.125 1.1719,0 2.1219,-0.951 2.1219,-2.125 z" />
      <path
         inkscape:connector-curvature="0"
         id="path4021"
         style="fill:#231f20;fill-opacity:1;fill-rule:evenodd;stroke:none;stroke-width:0.1"
         d="m 99.8969,654.085 c 0,-1.172 -0.95,-2.122 -2.1219,-2.122 -1.173,0 -2.123,0.95 -2.123,2.122 0,1.174 0.95,2.124 2.123,2.124 1.1719,0 2.1219,-0.95 2.1219,-2.124" />
      <path
         inkscape:connector-curvature="0"
         id="path4023"
         style="fill:none;stroke:#231f20;stroke-width:0.262808;stroke-linecap:butt;stroke-linejoin:round;stroke-miterlimit:4;stroke-dasharray:none;stroke-opacity:1"
         d="m 99.8969,654.085 c 0,-1.172 -0.95,-2.122 -2.1219,-2.122 -1.173,0 -2.123,0.95 -2.123,2.122 0,1.174 0.95,2.124 2.123,2.124 1.1719,0 2.1219,-0.95 2.1219,-2.124 z" />
      <path
         inkscape:connector-curvature="0"
         id="path4025"
         style="fill:#231f20;fill-opacity:1;fill-rule:evenodd;stroke:none;stroke-width:0.1"
         d="m 74.8199,667.742 c 0,-0.66 -0.5363,-1.196 -1.1972,-1.196 -0.6602,0 -1.1965,0.536 -1.1965,1.196 0,0.662 0.5363,1.197 1.1965,1.197 0.6609,0 1.1972,-0.535 1.1972,-1.197" />
      <path
         inkscape:connector-curvature="0"
         id="path4027"
         style="fill:none;stroke:#231f20;stroke-width:0.34579998;stroke-linecap:butt;stroke-linejoin:round;stroke-miterlimit:4;stroke-dasharray:none;stroke-opacity:1"
         d="m 74.8199,667.742 c 0,-0.66 -0.5363,-1.196 -1.1972,-1.196 -0.6602,0 -1.1965,0.536 -1.1965,1.196 0,0.662 0.5363,1.197 1.1965,1.197 0.6609,0 1.1972,-0.535 1.1972,-1.197 z" />
      <path
         inkscape:connector-curvature="0"
         id="path4029"
         style="fill:#231f20;fill-opacity:1;fill-rule:evenodd;stroke:none;stroke-width:0.1"
         d="m 107.732,667.742 c 0,-0.66 -0.536,-1.196 -1.197,-1.196 -0.66,0 -1.197,0.536 -1.197,1.196 0,0.662 0.537,1.197 1.197,1.197 0.661,0 1.197,-0.535 1.197,-1.197" />
      <path
         inkscape:connector-curvature="0"
         id="path4031"
         style="fill:none;stroke:#231f20;stroke-width:0.34579998;stroke-linecap:butt;stroke-linejoin:round;stroke-miterlimit:4;stroke-dasharray:none;stroke-opacity:1"
         d="m 107.732,667.742 c 0,-0.66 -0.536,-1.196 -1.197,-1.196 -0.66,0 -1.197,0.536 -1.197,1.196 0,0.662 0.537,1.197 1.197,1.197 0.661,0 1.197,-0.535 1.197,-1.197 z" />
    </g>
  </g>
</svg>
