<?xml version="1.0" encoding="UTF-8" standalone="no"?>
<!-- Created with Inkscape (http://www.inkscape.org/) -->

<svg
   xmlns:dc="http://purl.org/dc/elements/1.1/"
   xmlns:cc="http://creativecommons.org/ns#"
   xmlns:rdf="http://www.w3.org/1999/02/22-rdf-syntax-ns#"
   xmlns:svg="http://www.w3.org/2000/svg"
   xmlns="http://www.w3.org/2000/svg"
   xmlns:sodipodi="http://sodipodi.sourceforge.net/DTD/sodipodi-0.dtd"
   xmlns:inkscape="http://www.inkscape.org/namespaces/inkscape"
   width="63.353001mm"
   height="88.352997mm"
   viewBox="0 0 63.353001 88.352997"
   version="1.1"
   id="svg22813"
   inkscape:version="0.92.2 2405546, 2018-03-11"
   sodipodi:docname="2c.svg">
  <defs
     id="defs22807" />
  <sodipodi:namedview
     id="base"
     pagecolor="#ffffff"
     bordercolor="#666666"
     borderopacity="1.0"
     inkscape:pageopacity="0.0"
     inkscape:pageshadow="2"
     inkscape:zoom="1.4"
     inkscape:cx="79.906021"
     inkscape:cy="124.23278"
     inkscape:document-units="mm"
     inkscape:current-layer="layer1"
     showgrid="false"
     inkscape:window-width="1920"
     inkscape:window-height="992"
     inkscape:window-x="0"
     inkscape:window-y="27"
     inkscape:window-maximized="1" />
  <metadata
     id="metadata22810">
    <rdf:RDF>
      <cc:Work
         rdf:about="">
        <dc:format>image/svg+xml</dc:format>
        <dc:type
           rdf:resource="http://purl.org/dc/dcmitype/StillImage" />
        <dc:title></dc:title>
      </cc:Work>
    </rdf:RDF>
  </metadata>
  <g
     inkscape:label="Layer 1"
     inkscape:groupmode="layer"
     id="layer1"
     transform="translate(0,-208.647)">
    <g
       transform="matrix(0.35277777,0,0,-0.35277777,-71.750412,484.99986)"
       id="g64036">
      <path
         d="m 382.469,547.587 c 0,-7.828 -6.346,-14.174 -14.174,-14.174 H 218.061 c -7.829,0 -14.174,6.346 -14.174,14.174 v 221.102 c 0,7.828 6.345,14.174 14.174,14.174 h 150.234 c 7.828,0 14.174,-6.346 14.174,-14.174 V 547.587"
         style="fill:#f7f7f5;fill-opacity:1;fill-rule:nonzero;stroke:none;stroke-width:0.1"
         id="path43220"
         inkscape:connector-curvature="0" />
      <path
         d="m 382.469,547.587 c 0,-7.828 -6.346,-14.174 -14.174,-14.174 H 218.061 c -7.829,0 -14.174,6.346 -14.174,14.174 v 221.102 c 0,7.828 6.345,14.174 14.174,14.174 h 150.234 c 7.828,0 14.174,-6.346 14.174,-14.174 z"
         style="fill:none;stroke:#231f20;stroke-width:1;stroke-linecap:butt;stroke-linejoin:miter;stroke-miterlimit:4;stroke-dasharray:none;stroke-opacity:1"
         id="path43222"
         inkscape:connector-curvature="0" />
      <path
         d="m 216.643,740.343 c -1.862,0 -3.375,-1.703 -3.375,-3.802 0,-1.2 0.5,-2.264 1.267,-2.967 0.258,-0.237 0.147,-0.495 -0.115,-0.334 -0.481,0.291 -1.024,0.477 -1.607,0.477 -1.797,0 -3.256,-1.643 -3.256,-3.666 0,-2.024 1.459,-3.667 3.256,-3.667 1.199,0 2.248,0.729 2.81,1.816 0.055,0.107 0.1,0.253 0.178,0.253 0.107,0 0.156,-0.176 0.156,-0.503 0,-1.315 -0.504,-2.851 -1.25,-4.615 0.322,0.076 1.297,0.27 1.936,0.27 0.638,0 1.615,-0.194 1.935,-0.27 -0.746,1.764 -1.25,3.3 -1.25,4.615 0,0.327 0.051,0.503 0.158,0.503 0.078,0 0.121,-0.146 0.176,-0.253 0.565,-1.087 1.613,-1.816 2.811,-1.816 1.797,0 3.256,1.643 3.256,3.667 0,2.023 -1.459,3.666 -3.256,3.666 -0.584,0 -1.127,-0.186 -1.606,-0.477 -0.263,-0.161 -0.375,0.097 -0.115,0.334 0.766,0.703 1.268,1.767 1.268,2.967 0,2.099 -1.512,3.802 -3.377,3.802"
         style="fill:#050301;fill-opacity:1;fill-rule:nonzero;stroke:none;stroke-width:0.1"
         id="path43224"
         inkscape:connector-curvature="0" />
      <path
         d="m 369.711,575.933 c 1.865,0 3.377,1.704 3.377,3.801 0,1.201 -0.502,2.265 -1.268,2.967 -0.257,0.238 -0.146,0.495 0.114,0.335 0.48,-0.291 1.023,-0.477 1.609,-0.477 1.795,0 3.258,1.643 3.258,3.667 0,2.023 -1.463,3.667 -3.258,3.667 -1.199,0 -2.246,-0.73 -2.811,-1.817 -0.054,-0.106 -0.099,-0.253 -0.179,-0.253 -0.108,0 -0.157,0.175 -0.157,0.503 0,1.314 0.508,2.851 1.25,4.615 -0.322,-0.076 -1.294,-0.27 -1.935,-0.27 -0.635,0 -1.611,0.194 -1.936,0.27 0.745,-1.764 1.252,-3.301 1.252,-4.615 0,-0.328 -0.05,-0.503 -0.156,-0.503 -0.082,0 -0.123,0.147 -0.178,0.253 -0.566,1.087 -1.615,1.817 -2.81,1.817 -1.799,0 -3.256,-1.644 -3.256,-3.667 0,-2.024 1.457,-3.667 3.256,-3.667 0.582,0 1.125,0.186 1.605,0.477 0.266,0.16 0.377,-0.097 0.117,-0.335 -0.769,-0.702 -1.269,-1.766 -1.269,-2.967 0,-2.097 1.512,-3.801 3.375,-3.801"
         style="fill:#050301;fill-opacity:1;fill-rule:nonzero;stroke:none;stroke-width:0.1"
         id="path43226"
         inkscape:connector-curvature="0" />
      <path
         d="m 293.18,757.351 c -4.66,0 -8.442,-4.258 -8.442,-9.504 0,-2.999 1.252,-5.66 3.172,-7.417 0.649,-0.593 0.369,-1.237 -0.289,-0.836 -1.201,0.729 -2.555,1.192 -4.016,1.192 -4.494,0 -8.144,-4.105 -8.144,-9.166 0,-5.06 3.65,-9.168 8.144,-9.168 2.995,0 5.62,1.823 7.026,4.542 0.139,0.266 0.25,0.631 0.443,0.631 0.268,0 0.393,-0.437 0.393,-1.256 0,-3.287 -1.264,-7.127 -3.129,-11.538 0.807,0.192 3.25,0.678 4.842,0.678 1.591,0 4.033,-0.486 4.84,-0.678 -1.866,4.411 -3.131,8.251 -3.131,11.538 0,0.819 0.129,1.256 0.394,1.256 0.196,0 0.305,-0.365 0.442,-0.631 1.41,-2.719 4.031,-4.542 7.027,-4.542 4.496,0 8.143,4.108 8.143,9.168 0,5.061 -3.647,9.166 -8.143,9.166 -1.459,0 -2.814,-0.463 -4.012,-1.192 -0.662,-0.401 -0.941,0.243 -0.291,0.836 1.916,1.757 3.168,4.418 3.168,7.417 0,5.246 -3.781,9.504 -8.437,9.504"
         style="fill:#050301;fill-opacity:1;fill-rule:nonzero;stroke:none;stroke-width:0.1"
         id="path43228"
         inkscape:connector-curvature="0" />
      <path
         d="m 293.18,558.925 c 4.656,0 8.437,4.258 8.437,9.506 0,2.998 -1.252,5.658 -3.168,7.414 -0.65,0.594 -0.371,1.239 0.291,0.837 1.198,-0.73 2.553,-1.194 4.012,-1.194 4.496,0 8.143,4.107 8.143,9.167 0,5.061 -3.647,9.168 -8.143,9.168 -2.996,0 -5.615,-1.822 -7.027,-4.541 -0.137,-0.265 -0.246,-0.63 -0.442,-0.63 -0.265,0 -0.394,0.436 -0.394,1.255 0,3.286 1.265,7.125 3.131,11.538 -0.807,-0.192 -3.249,-0.678 -4.84,-0.678 -1.594,0 -4.035,0.486 -4.842,0.678 1.867,-4.413 3.129,-8.252 3.129,-11.538 0,-0.819 -0.125,-1.255 -0.393,-1.255 -0.193,0 -0.304,0.365 -0.441,0.63 -1.408,2.719 -4.033,4.541 -7.028,4.541 -4.494,0 -8.144,-4.107 -8.144,-9.168 0,-5.06 3.65,-9.167 8.144,-9.167 1.461,0 2.815,0.464 4.016,1.194 0.658,0.402 0.938,-0.243 0.289,-0.837 -1.92,-1.756 -3.172,-4.416 -3.172,-7.414 0,-5.248 3.782,-9.506 8.442,-9.506"
         style="fill:#050301;fill-opacity:1;fill-rule:nonzero;stroke:none;stroke-width:0.1"
         id="path43230"
         inkscape:connector-curvature="0" />
      <path
         d="m 223.707,748.366 -2.275,0.01 -0.008,-1.448 -9.561,10e-4 c 0.049,0.332 0.194,0.754 0.463,1.237 0.488,0.892 1.35,1.937 2.387,2.974 1.035,1.038 2.24,2.076 3.416,3.021 l 0.004,0.004 0.01,0.008 c 1.42,1.182 2.63,2.057 3.617,3.098 0.488,0.521 0.92,1.093 1.242,1.759 0.322,0.665 0.529,1.411 0.605,2.235 0.018,0.174 0.026,0.359 0.026,0.561 0,0.562 -0.067,1.24 -0.254,1.972 -0.279,1.092 -0.846,2.322 -1.928,3.291 -1.08,0.973 -2.652,1.607 -4.676,1.6 -1.625,0.004 -2.961,-0.418 -3.978,-1.107 -0.764,-0.512 -1.342,-1.161 -1.77,-1.829 -0.638,-1.006 -0.951,-2.055 -1.115,-2.894 -0.162,-0.842 -0.176,-1.485 -0.176,-1.696 0,-0.038 0,-0.062 0,-0.072 l 1.975,0.053 0.303,0.004 c 0,0.002 0,0.007 0,0.015 -0.006,0.178 0.041,1.621 0.666,2.86 0.308,0.621 0.74,1.187 1.367,1.609 0.627,0.418 1.473,0.721 2.728,0.725 1.059,-0.002 1.832,-0.207 2.418,-0.506 0.873,-0.449 1.387,-1.121 1.721,-1.881 0.332,-0.752 0.443,-1.588 0.441,-2.144 0,-0.131 -0.005,-0.247 -0.013,-0.337 -0.057,-0.576 -0.186,-1.015 -0.379,-1.419 -0.291,-0.602 -0.766,-1.156 -1.486,-1.803 -0.715,-0.643 -1.655,-1.36 -2.762,-2.276 -1.619,-1.304 -3.32,-2.793 -4.666,-4.326 -0.676,-0.769 -1.262,-1.549 -1.705,-2.351 -0.416,-0.758 -0.707,-1.546 -0.766,-2.385 h -0.008 l -0.007,-0.145 v -0.002 0 l -0.002,-0.005 -0.006,-2.182 h 14.156 v 1 l -0.004,2.771"
         style="fill:#000000;fill-opacity:1;fill-rule:nonzero;stroke:none;stroke-width:0.1"
         id="path43232"
         inkscape:connector-curvature="0" />
      <path
         d="m 362.629,567.911 2.275,-0.009 0.01,1.447 h 9.561 c -0.051,-0.334 -0.196,-0.756 -0.463,-1.238 -0.489,-0.891 -1.352,-1.938 -2.387,-2.973 -1.035,-1.039 -2.242,-2.078 -3.416,-3.024 l -0.006,-10e-4 -0.008,-0.008 c -1.42,-1.184 -2.632,-2.057 -3.617,-3.1 -0.49,-0.521 -0.92,-1.094 -1.242,-1.758 -0.324,-0.664 -0.531,-1.41 -0.607,-2.236 -0.016,-0.172 -0.026,-0.359 -0.026,-0.561 0.002,-0.56 0.067,-1.24 0.254,-1.971 0.281,-1.091 0.848,-2.323 1.93,-3.292 1.078,-0.973 2.652,-1.608 4.676,-1.6 1.625,-0.003 2.958,0.42 3.978,1.108 0.764,0.512 1.342,1.16 1.768,1.83 0.64,1.005 0.951,2.052 1.117,2.894 0.162,0.842 0.176,1.483 0.176,1.694 0,0.039 0,0.064 -0.002,0.072 l -1.973,-0.053 -0.303,-0.004 c 0,-0.002 0,-0.007 0,-0.015 0.006,-0.178 -0.043,-1.621 -0.666,-2.858 -0.308,-0.623 -0.74,-1.189 -1.367,-1.609 -0.629,-0.42 -1.473,-0.723 -2.728,-0.727 -1.059,0.002 -1.833,0.209 -2.418,0.508 -0.874,0.449 -1.387,1.119 -1.723,1.879 -0.332,0.754 -0.443,1.588 -0.442,2.144 0,0.132 0.008,0.246 0.016,0.338 0.055,0.575 0.184,1.016 0.379,1.42 0.291,0.602 0.766,1.155 1.486,1.801 0.713,0.643 1.655,1.359 2.76,2.275 1.621,1.307 3.32,2.795 4.668,4.327 0.674,0.769 1.262,1.548 1.705,2.352 0.416,0.757 0.707,1.546 0.766,2.386 h 0.008 l 0.007,0.143 c 0,0.001 0,0.001 0,0.002 v 0 0.007 l 0.006,2.181 h -14.154 v -1.001 l 0.002,-2.77"
         style="fill:#000000;fill-opacity:1;fill-rule:nonzero;stroke:none;stroke-width:0.1"
         id="path43234"
         inkscape:connector-curvature="0" />
    </g>
  </g>
</svg>
