<?xml version="1.0" encoding="UTF-8" standalone="no"?>
<!-- Created with Inkscape (http://www.inkscape.org/) -->

<svg
   xmlns:dc="http://purl.org/dc/elements/1.1/"
   xmlns:cc="http://creativecommons.org/ns#"
   xmlns:rdf="http://www.w3.org/1999/02/22-rdf-syntax-ns#"
   xmlns:svg="http://www.w3.org/2000/svg"
   xmlns="http://www.w3.org/2000/svg"
   xmlns:sodipodi="http://sodipodi.sourceforge.net/DTD/sodipodi-0.dtd"
   xmlns:inkscape="http://www.inkscape.org/namespaces/inkscape"
   width="63.353001mm"
   height="88.352997mm"
   viewBox="0 0 63.353001 88.352997"
   version="1.1"
   id="svg22813"
   inkscape:version="0.92.2 2405546, 2018-03-11"
   sodipodi:docname="2h.svg">
  <defs
     id="defs22807" />
  <sodipodi:namedview
     id="base"
     pagecolor="#ffffff"
     bordercolor="#666666"
     borderopacity="1.0"
     inkscape:pageopacity="0.0"
     inkscape:pageshadow="2"
     inkscape:zoom="1.4"
     inkscape:cx="79.906021"
     inkscape:cy="124.23278"
     inkscape:document-units="mm"
     inkscape:current-layer="layer1"
     showgrid="false"
     inkscape:window-width="960"
     inkscape:window-height="992"
     inkscape:window-x="960"
     inkscape:window-y="27"
     inkscape:window-maximized="0" />
  <metadata
     id="metadata22810">
    <rdf:RDF>
      <cc:Work
         rdf:about="">
        <dc:format>image/svg+xml</dc:format>
        <dc:type
           rdf:resource="http://purl.org/dc/dcmitype/StillImage" />
        <dc:title></dc:title>
      </cc:Work>
    </rdf:RDF>
  </metadata>
  <g
     inkscape:label="Layer 1"
     inkscape:groupmode="layer"
     id="layer1"
     transform="translate(0,-208.647)">
    <g
       transform="matrix(0.35277777,0,0,-0.35277777,-71.75006,485.53467)"
       id="g87531">
      <path
         d="m 382.47,549.102 c 0,-7.827 -6.346,-14.173 -14.174,-14.173 H 218.06 c -7.828,0 -14.174,6.346 -14.174,14.173 v 221.102 c 0,7.828 6.346,14.174 14.174,14.174 h 150.236 c 7.828,0 14.174,-6.346 14.174,-14.174 V 549.102"
         style="fill:#f7f7f5;fill-opacity:1;fill-rule:nonzero;stroke:none;stroke-width:0.1"
         id="path74775"
         inkscape:connector-curvature="0" />
      <path
         d="m 382.47,549.102 c 0,-7.827 -6.346,-14.173 -14.174,-14.173 H 218.06 c -7.828,0 -14.174,6.346 -14.174,14.173 v 221.102 c 0,7.828 6.346,14.174 14.174,14.174 h 150.236 c 7.828,0 14.174,-6.346 14.174,-14.174 z"
         style="fill:none;stroke:#231f20;stroke-width:1;stroke-linecap:butt;stroke-linejoin:miter;stroke-miterlimit:4;stroke-dasharray:none;stroke-opacity:1"
         id="path74777"
         inkscape:connector-curvature="0" />
      <path
         d="m 216.654,741.859 c 1.786,-3.471 4.144,-6.309 7.075,-8.512 -2.931,-2.208 -5.289,-5.039 -7.075,-8.496 -1.802,3.457 -4.168,6.288 -7.098,8.496 2.93,2.203 5.296,5.041 7.098,8.512 v 0"
         style="fill:#e52c3f;fill-opacity:1;fill-rule:nonzero;stroke:none;stroke-width:0.1"
         id="path74779"
         inkscape:connector-curvature="0" />
      <path
         d="m 369.724,594.457 c 1.787,-3.469 4.146,-6.307 7.076,-8.513 -2.93,-2.206 -5.289,-5.038 -7.076,-8.495 -1.803,3.457 -4.168,6.289 -7.098,8.495 2.93,2.206 5.295,5.044 7.098,8.513 v 0"
         style="fill:#e52c3f;fill-opacity:1;fill-rule:nonzero;stroke:none;stroke-width:0.1"
         id="path74781"
         inkscape:connector-curvature="0" />
      <path
         d="m 293.202,758.866 c 4.469,-8.675 10.366,-15.769 17.692,-21.283 -7.326,-5.517 -13.223,-12.595 -17.692,-21.237 -4.502,8.642 -10.416,15.72 -17.741,21.237 7.325,5.514 13.239,12.608 17.741,21.283 v 0"
         style="fill:#e52c3f;fill-opacity:1;fill-rule:nonzero;stroke:none;stroke-width:0.1"
         id="path74783"
         inkscape:connector-curvature="0" />
      <path
         d="m 293.202,602.961 c 4.469,-8.675 10.364,-15.77 17.692,-21.282 -7.328,-5.517 -13.223,-12.596 -17.692,-21.238 -4.502,8.642 -10.416,15.721 -17.741,21.238 7.325,5.512 13.239,12.607 17.741,21.282 v 0"
         style="fill:#e52c3f;fill-opacity:1;fill-rule:nonzero;stroke:none;stroke-width:0.1"
         id="path74785"
         inkscape:connector-curvature="0" />
      <path
         d="m 223.708,749.882 -2.276,0.01 -0.009,-1.449 h -9.56 c 0.05,0.334 0.195,0.756 0.462,1.239 0.489,0.89 1.352,1.937 2.387,2.972 1.036,1.039 2.242,2.078 3.416,3.024 l 0.005,0.003 0.009,0.008 c 1.42,1.182 2.632,2.055 3.617,3.098 0.489,0.522 0.92,1.094 1.242,1.758 0.324,0.664 0.531,1.411 0.608,2.236 0.016,0.173 0.024,0.358 0.024,0.561 -0.001,0.56 -0.066,1.239 -0.253,1.972 -0.281,1.091 -0.848,2.322 -1.929,3.291 -1.079,0.972 -2.652,1.607 -4.676,1.6 -1.625,0.003 -2.959,-0.42 -3.978,-1.107 -0.764,-0.513 -1.343,-1.161 -1.769,-1.829 -0.639,-1.007 -0.951,-2.055 -1.116,-2.896 -0.162,-0.842 -0.176,-1.484 -0.176,-1.694 0,-0.038 0,-0.063 0.001,-0.073 l 1.974,0.053 0.303,0.004 c 0,0.003 0,0.008 0,0.016 -0.006,0.177 0.041,1.621 0.665,2.858 0.309,0.622 0.741,1.189 1.367,1.609 0.628,0.42 1.473,0.722 2.729,0.726 1.058,-10e-4 1.832,-0.208 2.418,-0.506 0.873,-0.45 1.386,-1.12 1.722,-1.88 0.331,-0.754 0.443,-1.588 0.44,-2.144 0,-0.132 -0.005,-0.247 -0.014,-0.337 -0.055,-0.576 -0.184,-1.017 -0.379,-1.42 -0.291,-0.603 -0.766,-1.155 -1.485,-1.802 -0.715,-0.642 -1.656,-1.359 -2.761,-2.276 -1.621,-1.306 -3.321,-2.793 -4.668,-4.326 -0.674,-0.769 -1.262,-1.549 -1.705,-2.352 -0.415,-0.758 -0.707,-1.546 -0.765,-2.385 h -0.008 l -0.008,-0.144 c 0,-10e-4 0,-10e-4 0,-0.002 v 0 -0.007 l -0.006,-2.18 h 14.155 v 1 l -0.003,2.771"
         style="fill:#e52c3f;fill-opacity:1;fill-rule:nonzero;stroke:none;stroke-width:0.1"
         id="path74787"
         inkscape:connector-curvature="0" />
      <path
         d="m 362.63,569.427 2.275,-0.01 0.01,1.447 h 9.56 c -0.05,-0.333 -0.195,-0.755 -0.463,-1.238 -0.489,-0.89 -1.351,-1.937 -2.386,-2.972 -1.037,-1.04 -2.242,-2.079 -3.417,-3.024 l -0.005,-0.002 -0.009,-0.008 c -1.42,-1.183 -2.631,-2.056 -3.616,-3.099 -0.49,-0.522 -0.92,-1.094 -1.243,-1.758 -0.323,-0.665 -0.53,-1.411 -0.606,-2.236 -0.017,-0.172 -0.026,-0.359 -0.026,-0.561 10e-4,-0.561 0.067,-1.239 0.254,-1.972 0.281,-1.09 0.847,-2.322 1.929,-3.291 1.079,-0.973 2.651,-1.607 4.676,-1.601 1.625,-0.002 2.96,0.421 3.977,1.108 0.765,0.513 1.343,1.161 1.77,1.83 0.638,1.006 0.951,2.054 1.115,2.895 0.163,0.842 0.176,1.483 0.177,1.694 0,0.038 -10e-4,0.064 -10e-4,0.072 l -1.974,-0.053 -0.304,-0.003 c 0,-0.003 0,-0.008 0,-0.016 0.006,-0.178 -0.041,-1.621 -0.664,-2.858 -0.31,-0.623 -0.742,-1.189 -1.368,-1.61 -0.628,-0.42 -1.473,-0.722 -2.728,-0.725 -1.059,10e-4 -1.831,0.208 -2.419,0.507 -0.873,0.449 -1.385,1.119 -1.721,1.879 -0.332,0.753 -0.443,1.588 -0.441,2.144 0,0.132 0.006,0.247 0.014,0.338 0.056,0.575 0.185,1.015 0.38,1.419 0.291,0.602 0.765,1.155 1.485,1.802 0.714,0.642 1.655,1.359 2.761,2.276 1.621,1.305 3.321,2.794 4.667,4.326 0.675,0.769 1.263,1.549 1.706,2.352 0.414,0.757 0.707,1.546 0.765,2.385 h 0.008 l 0.007,0.144 c 0,10e-4 0.002,10e-4 0.002,0.002 v 0 0.007 l 0.005,2.18 h -14.156 v -1.001 l 0.004,-2.769"
         style="fill:#e52c3f;fill-opacity:1;fill-rule:nonzero;stroke:none;stroke-width:0.1"
         id="path74789"
         inkscape:connector-curvature="0" />
    </g>
  </g>
</svg>
