<?xml version="1.0" encoding="UTF-8" standalone="no"?>
<!-- Created with Inkscape (http://www.inkscape.org/) -->

<svg
   xmlns:dc="http://purl.org/dc/elements/1.1/"
   xmlns:cc="http://creativecommons.org/ns#"
   xmlns:rdf="http://www.w3.org/1999/02/22-rdf-syntax-ns#"
   xmlns:svg="http://www.w3.org/2000/svg"
   xmlns="http://www.w3.org/2000/svg"
   xmlns:sodipodi="http://sodipodi.sourceforge.net/DTD/sodipodi-0.dtd"
   xmlns:inkscape="http://www.inkscape.org/namespaces/inkscape"
   width="63.353001mm"
   height="88.352997mm"
   viewBox="0 0 63.353001 88.352997"
   version="1.1"
   id="svg22813"
   inkscape:version="0.92.2 2405546, 2018-03-11"
   sodipodi:docname="2h.svg">
  <defs
     id="defs22807" />
  <sodipodi:namedview
     id="base"
     pagecolor="#ffffff"
     bordercolor="#666666"
     borderopacity="1.0"
     inkscape:pageopacity="0.0"
     inkscape:pageshadow="2"
     inkscape:zoom="1.4"
     inkscape:cx="79.906021"
     inkscape:cy="124.23278"
     inkscape:document-units="mm"
     inkscape:current-layer="layer1"
     showgrid="false"
     inkscape:window-width="1920"
     inkscape:window-height="992"
     inkscape:window-x="0"
     inkscape:window-y="27"
     inkscape:window-maximized="1" />
  <metadata
     id="metadata22810">
    <rdf:RDF>
      <cc:Work
         rdf:about="">
        <dc:format>image/svg+xml</dc:format>
        <dc:type
           rdf:resource="http://purl.org/dc/dcmitype/StillImage" />
        <dc:title></dc:title>
      </cc:Work>
    </rdf:RDF>
  </metadata>
  <g
     inkscape:label="Layer 1"
     inkscape:groupmode="layer"
     id="layer1"
     transform="translate(0,-208.647)">
    <g
       transform="matrix(0.35277777,0,0,-0.35277777,-71.75006,485.16601)"
       id="g43585">
      <path
         d="m 382.47,548.058 c 0,-7.828 -6.346,-14.174 -14.174,-14.174 H 218.06 c -7.828,0 -14.174,6.346 -14.174,14.174 V 769.16 c 0,7.828 6.346,14.173 14.174,14.173 h 150.236 c 7.828,0 14.174,-6.345 14.174,-14.173 V 548.058"
         style="fill:#f7f7f5;fill-opacity:1;fill-rule:nonzero;stroke:none;stroke-width:0.1"
         id="path31116"
         inkscape:connector-curvature="0" />
      <path
         d="m 382.47,548.058 c 0,-7.828 -6.346,-14.174 -14.174,-14.174 H 218.06 c -7.828,0 -14.174,6.346 -14.174,14.174 V 769.16 c 0,7.828 6.346,14.173 14.174,14.173 h 150.236 c 7.828,0 14.174,-6.345 14.174,-14.173 z"
         style="fill:none;stroke:#231f20;stroke-width:1;stroke-linecap:butt;stroke-linejoin:miter;stroke-miterlimit:4;stroke-dasharray:none;stroke-opacity:1"
         id="path31118"
         inkscape:connector-curvature="0" />
      <path
         d="m 220.616,740.714 c -1.247,0.388 -3.186,-0.294 -3.898,-3.122 -0.06,-0.154 -0.122,-0.151 -0.178,0.006 -1.028,2.865 -2.722,3.491 -3.913,3.116 -1.764,-0.568 -3.194,-2.672 -3.063,-5.357 0.035,-4.684 4.227,-7.043 7.057,-11.523 2.831,4.48 7.07,6.832 7.082,11.537 0.245,2.712 -1.274,4.784 -3.087,5.343"
         style="fill:#e52c3f;fill-opacity:1;fill-rule:nonzero;stroke:none;stroke-width:0.1"
         id="path31120"
         inkscape:connector-curvature="0" />
      <path
         d="m 216.641,723.806 c -0.007,0.01 -0.013,0.019 -0.02,0.028 -0.006,-0.009 -0.012,-0.018 -0.018,-0.028 h 0.038"
         style="fill:#e52c3f;fill-opacity:1;fill-rule:nonzero;stroke:none;stroke-width:0.1"
         id="path31122"
         inkscape:connector-curvature="0" />
      <path
         d="m 369.734,593.384 c -2.83,-4.479 -7.069,-6.832 -7.082,-11.537 -0.245,-2.712 1.275,-4.785 3.087,-5.344 1.247,-0.387 3.186,0.295 3.899,3.123 0.059,0.154 0.123,0.151 0.178,-0.006 1.028,-2.864 2.721,-3.49 3.912,-3.117 1.765,0.569 3.195,2.674 3.063,5.358 -0.034,4.683 -4.227,7.044 -7.057,11.523"
         style="fill:#e52c3f;fill-opacity:1;fill-rule:nonzero;stroke:none;stroke-width:0.1"
         id="path31124"
         inkscape:connector-curvature="0" />
      <path
         d="m 369.716,593.412 c 0.006,-0.01 0.013,-0.018 0.018,-0.028 0.006,0.01 0.013,0.018 0.019,0.028 h -0.037"
         style="fill:#e52c3f;fill-opacity:1;fill-rule:nonzero;stroke:none;stroke-width:0.1"
         id="path31126"
         inkscape:connector-curvature="0" />
      <path
         d="m 293.179,601.916 c 0.016,-0.025 0.032,-0.049 0.048,-0.074 0.015,0.025 0.032,0.049 0.048,0.074 h -0.096"
         style="fill:#e52c3f;fill-opacity:1;fill-rule:nonzero;stroke:none;stroke-width:0.1"
         id="path31128"
         inkscape:connector-curvature="0" />
      <path
         d="m 310.873,573.036 c -0.087,11.71 -10.565,17.608 -17.646,28.806 -7.075,-11.198 -17.671,-17.078 -17.7,-28.839 -0.613,-6.781 3.182,-11.963 7.714,-13.358 3.118,-0.968 7.963,0.736 9.745,7.805 0.148,0.387 0.304,0.379 0.445,-0.013 2.571,-7.162 6.809,-8.728 9.788,-7.792 4.409,1.423 7.981,6.681 7.654,13.391"
         style="fill:#e52c3f;fill-opacity:1;fill-rule:nonzero;stroke:none;stroke-width:0.1"
         id="path31130"
         inkscape:connector-curvature="0" />
      <path
         d="m 293.169,715.302 c -0.015,0.025 -0.032,0.049 -0.048,0.073 -0.016,-0.024 -0.032,-0.048 -0.048,-0.073 h 0.096"
         style="fill:#e52c3f;fill-opacity:1;fill-rule:nonzero;stroke:none;stroke-width:0.1"
         id="path31132"
         inkscape:connector-curvature="0" />
      <path
         d="m 303.114,757.572 c -3.117,0.969 -7.97,-0.735 -9.751,-7.804 -0.149,-0.387 -0.305,-0.378 -0.446,0.014 -2.568,7.163 -6.803,8.727 -9.78,7.79 -4.409,-1.422 -7.983,-6.68 -7.655,-13.39 0.088,-11.711 10.565,-17.608 17.639,-28.807 7.083,11.199 17.679,17.079 17.708,28.841 0.614,6.779 -3.181,11.961 -7.715,13.356"
         style="fill:#e52c3f;fill-opacity:1;fill-rule:nonzero;stroke:none;stroke-width:0.1"
         id="path31134"
         inkscape:connector-curvature="0" />
      <path
         d="m 223.708,748.837 -2.276,0.01 -0.009,-1.449 h -9.56 c 0.05,0.334 0.195,0.756 0.462,1.239 0.489,0.89 1.352,1.937 2.387,2.972 1.036,1.039 2.242,2.079 3.416,3.024 l 0.005,0.003 0.009,0.008 c 1.42,1.182 2.632,2.055 3.617,3.098 0.489,0.522 0.92,1.094 1.242,1.758 0.324,0.664 0.531,1.411 0.608,2.236 0.016,0.173 0.024,0.359 0.024,0.561 -0.001,0.56 -0.066,1.239 -0.253,1.972 -0.281,1.092 -0.848,2.322 -1.929,3.291 -1.079,0.972 -2.652,1.607 -4.676,1.6 -1.625,0.003 -2.959,-0.42 -3.978,-1.107 -0.764,-0.513 -1.343,-1.161 -1.769,-1.829 -0.639,-1.007 -0.951,-2.055 -1.116,-2.896 -0.162,-0.842 -0.176,-1.483 -0.176,-1.694 0,-0.038 0,-0.063 0.001,-0.072 l 1.974,0.052 0.303,0.004 c 0,0.003 0,0.008 0,0.016 -0.006,0.178 0.041,1.621 0.665,2.858 0.309,0.622 0.741,1.189 1.367,1.61 0.628,0.419 1.473,0.721 2.729,0.725 1.058,-10e-4 1.832,-0.208 2.418,-0.506 0.873,-0.45 1.386,-1.12 1.722,-1.88 0.331,-0.753 0.443,-1.588 0.44,-2.144 0,-0.132 -0.005,-0.247 -0.014,-0.337 -0.055,-0.576 -0.184,-1.017 -0.379,-1.42 -0.291,-0.602 -0.766,-1.155 -1.485,-1.802 -0.715,-0.642 -1.656,-1.359 -2.761,-2.276 -1.621,-1.306 -3.321,-2.793 -4.668,-4.326 -0.674,-0.769 -1.262,-1.549 -1.705,-2.352 -0.415,-0.757 -0.707,-1.546 -0.765,-2.384 h -0.008 l -0.008,-0.145 c 0,-10e-4 0,-10e-4 0,-0.002 v 0 -0.007 l -0.006,-2.18 h 14.155 v 1 l -0.003,2.771"
         style="fill:#e52c3f;fill-opacity:1;fill-rule:nonzero;stroke:none;stroke-width:0.1"
         id="path31136"
         inkscape:connector-curvature="0" />
      <path
         d="m 362.648,568.382 2.275,-0.01 0.01,1.448 h 9.559 c -0.049,-0.334 -0.194,-0.756 -0.462,-1.239 -0.489,-0.89 -1.351,-1.937 -2.386,-2.972 -1.037,-1.039 -2.242,-2.079 -3.416,-3.024 l -0.006,-0.002 -0.009,-0.008 c -1.419,-1.183 -2.632,-2.056 -3.616,-3.099 -0.49,-0.522 -0.92,-1.094 -1.242,-1.758 -0.325,-0.664 -0.532,-1.41 -0.608,-2.236 -0.017,-0.172 -0.025,-0.359 -0.025,-0.561 0.001,-0.56 0.066,-1.239 0.254,-1.972 0.281,-1.09 0.847,-2.322 1.928,-3.291 1.08,-0.972 2.653,-1.607 4.676,-1.6 1.626,-0.003 2.96,0.42 3.978,1.107 0.764,0.513 1.344,1.161 1.769,1.83 0.639,1.006 0.952,2.054 1.116,2.895 0.162,0.842 0.176,1.483 0.176,1.694 0,0.038 -0.001,0.064 -0.001,0.072 l -1.973,-0.052 -0.304,-0.004 c 0,-0.003 10e-4,-0.008 10e-4,-0.016 0.006,-0.178 -0.042,-1.621 -0.665,-2.858 -0.311,-0.622 -0.742,-1.189 -1.367,-1.61 -0.629,-0.42 -1.473,-0.721 -2.73,-0.725 -1.057,0.001 -1.831,0.208 -2.419,0.507 -0.873,0.449 -1.384,1.119 -1.72,1.879 -0.332,0.753 -0.444,1.588 -0.442,2.144 0,0.132 0.007,0.247 0.015,0.338 0.056,0.575 0.184,1.016 0.38,1.42 0.291,0.601 0.765,1.154 1.484,1.801 0.715,0.642 1.656,1.359 2.762,2.276 1.621,1.306 3.32,2.794 4.668,4.326 0.674,0.769 1.262,1.549 1.705,2.352 0.415,0.757 0.707,1.546 0.764,2.386 h 0.009 l 0.008,0.143 c 0,0.001 0,0.001 0,0.002 v 0 0.007 l 0.006,2.18 h -14.156 v -1 l 0.004,-2.77"
         style="fill:#e52c3f;fill-opacity:1;fill-rule:nonzero;stroke:none;stroke-width:0.1"
         id="path31138"
         inkscape:connector-curvature="0" />
    </g>
  </g>
</svg>
