<?xml version="1.0" encoding="UTF-8" standalone="no"?>
<!-- Created with Inkscape (http://www.inkscape.org/) -->

<svg
   xmlns:dc="http://purl.org/dc/elements/1.1/"
   xmlns:cc="http://creativecommons.org/ns#"
   xmlns:rdf="http://www.w3.org/1999/02/22-rdf-syntax-ns#"
   xmlns:svg="http://www.w3.org/2000/svg"
   xmlns="http://www.w3.org/2000/svg"
   xmlns:sodipodi="http://sodipodi.sourceforge.net/DTD/sodipodi-0.dtd"
   xmlns:inkscape="http://www.inkscape.org/namespaces/inkscape"
   width="63.353001mm"
   height="88.352997mm"
   viewBox="0 0 63.353001 88.352997"
   version="1.1"
   id="svg22813"
   inkscape:version="0.92.2 2405546, 2018-03-11"
   sodipodi:docname="2s.svg">
  <defs
     id="defs22807" />
  <sodipodi:namedview
     id="base"
     pagecolor="#ffffff"
     bordercolor="#666666"
     borderopacity="1.0"
     inkscape:pageopacity="0.0"
     inkscape:pageshadow="2"
     inkscape:zoom="0.49497475"
     inkscape:cx="73.258718"
     inkscape:cy="-160.87607"
     inkscape:document-units="mm"
     inkscape:current-layer="layer1"
     showgrid="false"
     inkscape:window-width="1920"
     inkscape:window-height="992"
     inkscape:window-x="0"
     inkscape:window-y="27"
     inkscape:window-maximized="1" />
  <metadata
     id="metadata22810">
    <rdf:RDF>
      <cc:Work
         rdf:about="">
        <dc:format>image/svg+xml</dc:format>
        <dc:type
           rdf:resource="http://purl.org/dc/dcmitype/StillImage" />
        <dc:title></dc:title>
      </cc:Work>
    </rdf:RDF>
  </metadata>
  <g
     inkscape:label="Layer 1"
     inkscape:groupmode="layer"
     id="layer1"
     transform="translate(0,-208.647)">
    <g
       transform="matrix(0.35277777,0,0,-0.35277777,-71.750412,484.99986)"
       id="g22983">
      <path
         inkscape:connector-curvature="0"
         id="path4033"
         style="fill:#f7f7f5;fill-opacity:1;fill-rule:nonzero;stroke:none;stroke-width:0.1"
         d="m 382.469,547.587 c 0,-7.828 -6.345,-14.174 -14.173,-14.174 H 218.06 c -7.828,0 -14.173,6.346 -14.173,14.174 v 221.102 c 0,7.828 6.345,14.174 14.173,14.174 h 150.236 c 7.828,0 14.173,-6.346 14.173,-14.174 V 547.587" />
      <path
         inkscape:connector-curvature="0"
         id="path4035"
         style="fill:none;stroke:#231f20;stroke-width:1;stroke-linecap:butt;stroke-linejoin:miter;stroke-miterlimit:4;stroke-dasharray:none;stroke-opacity:1"
         d="m 382.469,547.587 c 0,-7.828 -6.345,-14.174 -14.173,-14.174 H 218.06 c -7.828,0 -14.173,6.346 -14.173,14.174 v 221.102 c 0,7.828 6.345,14.174 14.173,14.174 h 150.236 c 7.828,0 14.173,-6.346 14.173,-14.174 z" />
      <path
         inkscape:connector-curvature="0"
         id="path4037"
         style="fill:#231f20;fill-opacity:1;fill-rule:evenodd;stroke:none;stroke-width:0.1"
         d="m 293.154,757.351 c -0.102,-0.068 -0.174,-0.104 -0.293,-0.181 -7.595,-4.85 -16.456,-14.311 -17.364,-26.104 -0.433,-5.611 3.155,-9.495 7.793,-9.58 2.961,-0.053 5.342,0.998 6.632,3.007 1.072,1.672 1.346,4.248 1.519,3.058 0.625,-4.541 -1.276,-8.906 -2.305,-12.72 1.147,0.417 2.589,0.627 4.033,0.632 h 0.024 c 1.443,-0.005 2.881,-0.215 4.028,-0.632 -1.028,3.814 -2.927,8.179 -2.303,12.72 0.173,1.19 0.446,-1.386 1.517,-3.058 1.289,-2.009 3.67,-3.06 6.631,-3.007 4.638,0.085 8.225,3.969 7.793,9.58 -0.909,11.793 -9.769,21.254 -17.358,26.104 -0.083,0.062 -0.155,0.099 -0.274,0.181 h -0.073" />
      <path
         inkscape:connector-curvature="0"
         id="path4039"
         style="fill:none;stroke:#231f20;stroke-width:0.16254601;stroke-linecap:butt;stroke-linejoin:round;stroke-miterlimit:4;stroke-dasharray:none;stroke-opacity:1"
         d="m 293.154,757.351 c -0.102,-0.068 -0.174,-0.104 -0.293,-0.181 -7.595,-4.85 -16.456,-14.311 -17.364,-26.104 -0.433,-5.611 3.155,-9.495 7.793,-9.58 2.961,-0.053 5.342,0.998 6.632,3.007 1.072,1.672 1.346,4.248 1.519,3.058 0.625,-4.541 -1.276,-8.906 -2.305,-12.72 1.147,0.417 2.589,0.627 4.033,0.632 h 0.024 c 1.443,-0.005 2.881,-0.215 4.028,-0.632 -1.028,3.814 -2.927,8.179 -2.303,12.72 0.173,1.19 0.446,-1.386 1.517,-3.058 1.289,-2.009 3.67,-3.06 6.631,-3.007 4.638,0.085 8.225,3.969 7.793,9.58 -0.909,11.793 -9.769,21.254 -17.358,26.104 -0.083,0.062 -0.155,0.099 -0.274,0.181 z" />
      <path
         inkscape:connector-curvature="0"
         id="path4041"
         style="fill:#231f20;fill-opacity:1;fill-rule:evenodd;stroke:none;stroke-width:0.1"
         d="m 293.154,558.925 c -0.102,0.067 -0.174,0.104 -0.293,0.18 -7.595,4.85 -16.456,14.311 -17.364,26.104 -0.433,5.611 3.155,9.495 7.793,9.58 2.961,0.054 5.342,-0.998 6.632,-3.008 1.072,-1.67 1.346,-4.248 1.519,-3.057 0.625,4.542 -1.276,8.907 -2.305,12.721 1.147,-0.418 2.589,-0.627 4.033,-0.632 h 0.024 c 1.443,0.005 2.881,0.214 4.028,0.632 -1.028,-3.814 -2.927,-8.179 -2.303,-12.721 0.173,-1.191 0.446,1.387 1.517,3.057 1.289,2.01 3.67,3.062 6.631,3.008 4.638,-0.085 8.225,-3.969 7.793,-9.58 -0.909,-11.793 -9.769,-21.254 -17.358,-26.104 -0.083,-0.062 -0.155,-0.099 -0.274,-0.18 h -0.073" />
      <path
         inkscape:connector-curvature="0"
         id="path4043"
         style="fill:none;stroke:#231f20;stroke-width:0.16254601;stroke-linecap:butt;stroke-linejoin:round;stroke-miterlimit:4;stroke-dasharray:none;stroke-opacity:1"
         d="m 293.154,558.925 c -0.102,0.067 -0.174,0.104 -0.293,0.18 -7.595,4.85 -16.456,14.311 -17.364,26.104 -0.433,5.611 3.155,9.495 7.793,9.58 2.961,0.054 5.342,-0.998 6.632,-3.008 1.072,-1.67 1.346,-4.248 1.519,-3.057 0.625,4.542 -1.276,8.907 -2.305,12.721 1.147,-0.418 2.589,-0.627 4.033,-0.632 h 0.024 c 1.443,0.005 2.881,0.214 4.028,0.632 -1.028,-3.814 -2.927,-8.179 -2.303,-12.721 0.173,-1.191 0.446,1.387 1.517,3.057 1.289,2.01 3.67,3.062 6.631,3.008 4.638,-0.085 8.225,-3.969 7.793,-9.58 -0.909,-11.793 -9.769,-21.254 -17.358,-26.104 -0.083,-0.062 -0.155,-0.099 -0.274,-0.18 z" />
      <path
         inkscape:connector-curvature="0"
         id="path4045"
         style="fill:#231f20;fill-opacity:1;fill-rule:evenodd;stroke:none;stroke-width:0.1"
         d="m 216.634,740.343 c -0.041,-0.027 -0.07,-0.042 -0.117,-0.072 -3.038,-1.941 -6.583,-5.725 -6.947,-10.442 -0.172,-2.244 1.263,-3.798 3.118,-3.832 1.184,-0.021 2.136,0.399 2.653,1.203 0.429,0.668 0.538,1.7 0.607,1.223 0.25,-1.816 -0.51,-3.562 -0.921,-5.088 0.459,0.167 1.035,0.251 1.613,0.253 h 0.01 c 0.576,-0.002 1.152,-0.086 1.61,-0.253 -0.411,1.526 -1.17,3.272 -0.921,5.088 0.069,0.477 0.179,-0.555 0.606,-1.223 0.516,-0.804 1.469,-1.224 2.653,-1.203 1.855,0.034 3.291,1.588 3.118,3.832 -0.364,4.717 -3.908,8.501 -6.943,10.442 -0.034,0.024 -0.063,0.039 -0.111,0.072 h -0.028" />
      <path
         inkscape:connector-curvature="0"
         id="path4047"
         style="fill:none;stroke:#231f20;stroke-width:0.065018;stroke-linecap:butt;stroke-linejoin:round;stroke-miterlimit:4;stroke-dasharray:none;stroke-opacity:1"
         d="m 216.634,740.343 c -0.041,-0.027 -0.07,-0.042 -0.117,-0.072 -3.038,-1.941 -6.583,-5.725 -6.947,-10.442 -0.172,-2.244 1.263,-3.798 3.118,-3.832 1.184,-0.021 2.136,0.399 2.653,1.203 0.429,0.668 0.538,1.7 0.607,1.223 0.25,-1.816 -0.51,-3.562 -0.921,-5.088 0.459,0.167 1.035,0.251 1.613,0.253 h 0.01 c 0.576,-0.002 1.152,-0.086 1.61,-0.253 -0.411,1.526 -1.17,3.272 -0.921,5.088 0.069,0.477 0.179,-0.555 0.606,-1.223 0.516,-0.804 1.469,-1.224 2.653,-1.203 1.855,0.034 3.291,1.588 3.118,3.832 -0.364,4.717 -3.908,8.501 -6.943,10.442 -0.034,0.024 -0.063,0.039 -0.111,0.072 z" />
      <path
         inkscape:connector-curvature="0"
         id="path4049"
         style="fill:#231f20;fill-opacity:1;fill-rule:evenodd;stroke:none;stroke-width:0.1"
         d="m 369.704,575.933 c -0.041,0.026 -0.07,0.041 -0.117,0.072 -3.038,1.94 -6.583,5.724 -6.946,10.441 -0.173,2.245 1.263,3.798 3.117,3.833 1.185,0.021 2.137,-0.4 2.653,-1.204 0.429,-0.669 0.538,-1.699 0.608,-1.222 0.25,1.816 -0.511,3.562 -0.922,5.088 0.459,-0.168 1.035,-0.252 1.613,-0.253 h 0.01 c 0.576,10e-4 1.152,0.085 1.61,0.253 -0.411,-1.526 -1.17,-3.272 -0.921,-5.088 0.07,-0.477 0.179,0.553 0.607,1.222 0.515,0.804 1.468,1.225 2.652,1.204 1.855,-0.035 3.291,-1.588 3.118,-3.833 -0.364,-4.717 -3.908,-8.501 -6.943,-10.441 -0.033,-0.025 -0.063,-0.04 -0.111,-0.072 h -0.028" />
      <path
         inkscape:connector-curvature="0"
         id="path4051"
         style="fill:none;stroke:#231f20;stroke-width:0.065018;stroke-linecap:butt;stroke-linejoin:round;stroke-miterlimit:4;stroke-dasharray:none;stroke-opacity:1"
         d="m 369.704,575.933 c -0.041,0.026 -0.07,0.041 -0.117,0.072 -3.038,1.94 -6.583,5.724 -6.946,10.441 -0.173,2.245 1.263,3.798 3.117,3.833 1.185,0.021 2.137,-0.4 2.653,-1.204 0.429,-0.669 0.538,-1.699 0.608,-1.222 0.25,1.816 -0.511,3.562 -0.922,5.088 0.459,-0.168 1.035,-0.252 1.613,-0.253 h 0.01 c 0.576,10e-4 1.152,0.085 1.61,0.253 -0.411,-1.526 -1.17,-3.272 -0.921,-5.088 0.07,-0.477 0.179,0.553 0.607,1.222 0.515,0.804 1.468,1.225 2.652,1.204 1.855,-0.035 3.291,-1.588 3.118,-3.833 -0.364,-4.717 -3.908,-8.501 -6.943,-10.441 -0.033,-0.025 -0.063,-0.04 -0.111,-0.072 z" />
      <path
         inkscape:connector-curvature="0"
         id="path4053"
         style="fill:#000000;fill-opacity:1;fill-rule:nonzero;stroke:none;stroke-width:0.1"
         d="m 223.726,748.365 -2.279,0.01 -0.008,-1.448 -9.573,10e-4 c 0.05,0.333 0.195,0.755 0.463,1.237 0.489,0.892 1.353,1.938 2.39,2.974 1.037,1.038 2.244,2.077 3.421,3.022 l 0.005,0.003 0.009,0.008 c 1.421,1.183 2.634,2.057 3.621,3.099 0.49,0.521 0.921,1.093 1.244,1.758 0.324,0.664 0.531,1.41 0.607,2.236 0.017,0.173 0.026,0.358 0.026,0.56 -0.002,0.562 -0.067,1.241 -0.254,1.972 -0.282,1.092 -0.849,2.322 -1.932,3.292 -1.08,0.973 -2.655,1.607 -4.682,1.6 -1.627,0.002 -2.963,-0.419 -3.982,-1.108 -0.766,-0.513 -1.345,-1.16 -1.772,-1.829 -0.639,-1.006 -0.952,-2.054 -1.117,-2.895 -0.163,-0.841 -0.177,-1.483 -0.177,-1.694 0,-0.039 0.002,-0.063 0.002,-0.072 l 1.975,0.053 0.305,0.004 c 0,0.002 -0.001,0.006 -0.001,0.015 -0.006,0.178 0.042,1.62 0.667,2.858 0.309,0.623 0.742,1.188 1.368,1.61 0.629,0.419 1.475,0.722 2.732,0.726 1.06,-0.002 1.834,-0.209 2.422,-0.507 0.874,-0.45 1.388,-1.12 1.724,-1.88 0.332,-0.753 0.443,-1.588 0.441,-2.145 0,-0.132 -0.007,-0.246 -0.014,-0.337 -0.056,-0.576 -0.185,-1.015 -0.38,-1.42 -0.291,-0.601 -0.767,-1.155 -1.488,-1.801 -0.716,-0.643 -1.657,-1.36 -2.764,-2.276 -1.622,-1.305 -3.325,-2.794 -4.673,-4.326 -0.675,-0.769 -1.264,-1.549 -1.707,-2.352 -0.416,-0.757 -0.708,-1.546 -0.767,-2.385 h -0.008 l -0.007,-0.145 c 0,0 0,-10e-4 0,-0.002 v 0 l -10e-4,-0.006 -0.006,-2.181 h 14.174 v 1.001 l -0.004,2.77" />
      <path
         inkscape:connector-curvature="0"
         id="path4055"
         style="fill:#000000;fill-opacity:1;fill-rule:nonzero;stroke:none;stroke-width:0.1"
         d="m 362.63,567.91 2.279,-0.01 0.009,1.448 h 9.572 c -0.051,-0.332 -0.195,-0.755 -0.463,-1.239 -0.489,-0.89 -1.353,-1.936 -2.39,-2.972 -1.037,-1.039 -2.244,-2.077 -3.42,-3.023 l -0.005,-0.003 -0.009,-0.007 c -1.422,-1.183 -2.635,-2.057 -3.622,-3.099 -0.489,-0.521 -0.921,-1.094 -1.243,-1.759 -0.324,-0.664 -0.531,-1.41 -0.608,-2.235 -0.016,-0.173 -0.025,-0.359 -0.025,-0.562 0.001,-0.56 0.066,-1.238 0.254,-1.97 0.28,-1.092 0.848,-2.323 1.932,-3.291 1.079,-0.973 2.654,-1.608 4.681,-1.602 1.627,-0.002 2.963,0.42 3.983,1.107 0.765,0.514 1.343,1.162 1.771,1.83 0.64,1.006 0.953,2.055 1.117,2.895 0.164,0.842 0.176,1.484 0.177,1.695 0,0.037 -10e-4,0.063 -10e-4,0.073 l -1.976,-0.053 -0.304,-0.004 c 0,-0.003 0,-0.008 0,-0.016 0.006,-0.177 -0.041,-1.621 -0.666,-2.859 -0.31,-0.621 -0.742,-1.188 -1.369,-1.609 -0.629,-0.419 -1.475,-0.721 -2.732,-0.725 -1.06,0.001 -1.834,0.207 -2.422,0.506 -0.875,0.449 -1.387,1.12 -1.723,1.881 -0.332,0.752 -0.443,1.588 -0.441,2.142 0,0.133 0.005,0.248 0.014,0.338 0.055,0.576 0.184,1.016 0.379,1.42 0.292,0.602 0.767,1.154 1.487,1.802 0.716,0.643 1.657,1.359 2.765,2.276 1.623,1.305 3.325,2.793 4.674,4.326 0.675,0.768 1.263,1.549 1.707,2.352 0.416,0.758 0.708,1.545 0.767,2.385 h 0.007 l 0.008,0.144 c 0,0 0,0.001 0,0.002 v 0 0.006 l 0.006,2.182 h -14.173 v -1.001 l 0.003,-2.771" />
    </g>
  </g>
</svg>
