<?xml version="1.0" encoding="UTF-8" standalone="no"?>
<!-- Created with Inkscape (http://www.inkscape.org/) -->

<svg
   xmlns:dc="http://purl.org/dc/elements/1.1/"
   xmlns:cc="http://creativecommons.org/ns#"
   xmlns:rdf="http://www.w3.org/1999/02/22-rdf-syntax-ns#"
   xmlns:svg="http://www.w3.org/2000/svg"
   xmlns="http://www.w3.org/2000/svg"
   xmlns:sodipodi="http://sodipodi.sourceforge.net/DTD/sodipodi-0.dtd"
   xmlns:inkscape="http://www.inkscape.org/namespaces/inkscape"
   width="63.353001mm"
   height="88.352997mm"
   viewBox="0 0 63.353001 88.352997"
   version="1.1"
   id="svg22813"
   inkscape:version="0.92.2 2405546, 2018-03-11"
   sodipodi:docname="3c.svg">
  <defs
     id="defs22807" />
  <sodipodi:namedview
     id="base"
     pagecolor="#ffffff"
     bordercolor="#666666"
     borderopacity="1.0"
     inkscape:pageopacity="0.0"
     inkscape:pageshadow="2"
     inkscape:zoom="1.4"
     inkscape:cx="79.906021"
     inkscape:cy="124.23278"
     inkscape:document-units="mm"
     inkscape:current-layer="layer1"
     showgrid="false"
     inkscape:window-width="1920"
     inkscape:window-height="992"
     inkscape:window-x="0"
     inkscape:window-y="27"
     inkscape:window-maximized="1" />
  <metadata
     id="metadata22810">
    <rdf:RDF>
      <cc:Work
         rdf:about="">
        <dc:format>image/svg+xml</dc:format>
        <dc:type
           rdf:resource="http://purl.org/dc/dcmitype/StillImage" />
        <dc:title></dc:title>
      </cc:Work>
    </rdf:RDF>
  </metadata>
  <g
     inkscape:label="Layer 1"
     inkscape:groupmode="layer"
     id="layer1"
     transform="translate(0,-208.647)">
    <g
       transform="matrix(0.35277777,0,0,-0.35277777,-143.50012,484.99986)"
       id="g64049">
      <path
         d="m 585.855,547.587 c 0,-7.828 -6.345,-14.174 -14.173,-14.174 H 421.446 c -7.828,0 -14.174,6.346 -14.174,14.174 v 221.102 c 0,7.828 6.346,14.174 14.174,14.174 h 150.236 c 7.828,0 14.173,-6.346 14.173,-14.174 V 547.587"
         style="fill:#f7f7f5;fill-opacity:1;fill-rule:nonzero;stroke:none;stroke-width:0.1"
         id="path43236"
         inkscape:connector-curvature="0" />
      <path
         d="m 585.855,547.587 c 0,-7.828 -6.345,-14.174 -14.173,-14.174 H 421.446 c -7.828,0 -14.174,6.346 -14.174,14.174 v 221.102 c 0,7.828 6.346,14.174 14.174,14.174 h 150.236 c 7.828,0 14.173,-6.346 14.173,-14.174 z"
         style="fill:none;stroke:#231f20;stroke-width:1;stroke-linecap:butt;stroke-linejoin:miter;stroke-miterlimit:4;stroke-dasharray:none;stroke-opacity:1"
         id="path43238"
         inkscape:connector-curvature="0" />
      <path
         d="m 420.028,740.343 c -1.862,0 -3.375,-1.703 -3.375,-3.802 0,-1.2 0.5,-2.264 1.268,-2.966 0.258,-0.238 0.147,-0.496 -0.115,-0.335 -0.481,0.291 -1.024,0.478 -1.608,0.478 -1.797,0 -3.256,-1.643 -3.256,-3.668 0,-2.023 1.459,-3.666 3.256,-3.666 1.2,0 2.249,0.729 2.81,1.816 0.056,0.107 0.101,0.252 0.179,0.252 0.108,0 0.155,-0.175 0.155,-0.502 0,-1.314 -0.504,-2.85 -1.25,-4.615 0.324,0.076 1.299,0.27 1.936,0.27 0.638,0 1.615,-0.194 1.936,-0.27 -0.746,1.765 -1.251,3.301 -1.251,4.615 0,0.327 0.051,0.502 0.158,0.502 0.079,0 0.122,-0.145 0.177,-0.252 0.565,-1.087 1.614,-1.816 2.81,-1.816 1.798,0 3.257,1.643 3.257,3.666 0,2.025 -1.459,3.668 -3.257,3.668 -0.583,0 -1.126,-0.187 -1.605,-0.478 -0.264,-0.161 -0.375,0.097 -0.116,0.335 0.766,0.702 1.269,1.766 1.269,2.966 0,2.099 -1.513,3.802 -3.378,3.802"
         style="fill:#050301;fill-opacity:1;fill-rule:nonzero;stroke:none;stroke-width:0.1"
         id="path43240"
         inkscape:connector-curvature="0" />
      <path
         d="m 573.096,575.933 c 1.864,0 3.375,1.704 3.375,3.803 0,1.198 -0.499,2.263 -1.267,2.965 -0.257,0.238 -0.145,0.494 0.114,0.335 0.481,-0.293 1.024,-0.477 1.611,-0.477 1.794,0 3.257,1.642 3.257,3.666 0,2.024 -1.463,3.667 -3.257,3.667 -1.2,0 -2.248,-0.729 -2.811,-1.817 -0.054,-0.106 -0.1,-0.252 -0.18,-0.252 -0.109,0 -0.154,0.175 -0.154,0.502 0,1.315 0.505,2.85 1.247,4.616 -0.323,-0.077 -1.295,-0.272 -1.935,-0.272 -0.634,0 -1.612,0.195 -1.936,0.272 0.744,-1.766 1.253,-3.301 1.253,-4.616 0,-0.327 -0.05,-0.502 -0.158,-0.502 -0.08,0 -0.121,0.146 -0.176,0.252 -0.567,1.088 -1.616,1.817 -2.81,1.817 -1.8,0 -3.256,-1.643 -3.256,-3.667 0,-2.024 1.456,-3.666 3.256,-3.666 0.582,0 1.124,0.184 1.606,0.477 0.264,0.159 0.375,-0.097 0.115,-0.335 -0.769,-0.702 -1.269,-1.767 -1.269,-2.965 0,-2.099 1.511,-3.803 3.375,-3.803"
         style="fill:#050301;fill-opacity:1;fill-rule:nonzero;stroke:none;stroke-width:0.1"
         id="path43242"
         inkscape:connector-curvature="0" />
      <path
         d="m 496.563,757.351 c -4.659,0 -8.44,-4.258 -8.44,-9.504 0,-2.999 1.252,-5.66 3.172,-7.416 0.647,-0.594 0.369,-1.238 -0.291,-0.837 -1.2,0.729 -2.553,1.193 -4.016,1.193 -4.492,0 -8.141,-4.106 -8.141,-9.167 0,-5.06 3.649,-9.168 8.141,-9.168 2.997,0 5.617,1.823 7.027,4.542 0.138,0.266 0.247,0.631 0.444,0.631 0.266,0 0.391,-0.437 0.391,-1.256 0,-3.287 -1.262,-7.127 -3.127,-11.538 0.805,0.192 3.248,0.678 4.84,0.678 1.592,0 4.038,-0.486 4.841,-0.678 -1.867,4.411 -3.125,8.251 -3.125,11.538 0,0.819 0.121,1.256 0.388,1.256 0.196,0 0.306,-0.365 0.446,-0.631 1.406,-2.719 4.03,-4.542 7.028,-4.542 4.489,0 8.139,4.108 8.139,9.168 0,5.061 -3.65,9.167 -8.139,9.167 -1.466,0 -2.82,-0.464 -4.019,-1.193 -0.66,-0.401 -0.936,0.243 -0.29,0.837 1.918,1.756 3.173,4.417 3.173,7.416 0,5.246 -3.781,9.504 -8.442,9.504"
         style="fill:#050301;fill-opacity:1;fill-rule:nonzero;stroke:none;stroke-width:0.1"
         id="path43244"
         inkscape:connector-curvature="0" />
      <path
         d="m 496.563,679.398 c -4.659,0 -8.44,-4.254 -8.44,-9.496 0,-2.998 1.252,-5.663 3.172,-7.42 0.647,-0.594 0.369,-1.239 -0.291,-0.838 -1.2,0.73 -2.553,1.195 -4.016,1.195 -4.492,0 -8.141,-4.11 -8.141,-9.168 0,-5.057 3.649,-9.16 8.141,-9.16 2.997,0 5.617,1.82 7.027,4.537 0.138,0.266 0.247,0.63 0.444,0.63 0.266,0 0.391,-0.437 0.391,-1.254 0,-3.285 -1.262,-7.126 -3.127,-11.546 0.805,0.192 3.248,0.68 4.84,0.68 1.592,0 4.038,-0.488 4.841,-0.68 -1.867,4.42 -3.125,8.261 -3.125,11.546 0,0.817 0.121,1.254 0.388,1.254 0.196,0 0.306,-0.364 0.446,-0.63 1.406,-2.717 4.03,-4.537 7.028,-4.537 4.489,0 8.139,4.103 8.139,9.16 0,5.058 -3.65,9.168 -8.139,9.168 -1.466,0 -2.82,-0.465 -4.019,-1.195 -0.66,-0.401 -0.936,0.244 -0.29,0.838 1.918,1.757 3.173,4.422 3.173,7.42 0,5.242 -3.781,9.496 -8.442,9.496"
         style="fill:#050301;fill-opacity:1;fill-rule:nonzero;stroke:none;stroke-width:0.1"
         id="path43246"
         inkscape:connector-curvature="0" />
      <path
         d="m 496.563,558.925 c 4.662,0 8.443,4.258 8.443,9.504 0,2.998 -1.256,5.66 -3.174,7.416 -0.646,0.594 -0.37,1.238 0.29,0.836 1.2,-0.729 2.553,-1.193 4.019,-1.193 4.489,0 8.139,4.107 8.139,9.167 0,5.06 -3.65,9.167 -8.139,9.167 -2.997,0 -5.621,-1.822 -7.028,-4.541 -0.14,-0.265 -0.25,-0.631 -0.446,-0.631 -0.267,0 -0.388,0.437 -0.388,1.257 0,3.286 1.259,7.125 3.123,11.538 -0.801,-0.192 -3.247,-0.679 -4.839,-0.679 -1.593,0 -4.035,0.487 -4.841,0.679 1.866,-4.413 3.128,-8.252 3.128,-11.538 0,-0.82 -0.125,-1.257 -0.391,-1.257 -0.197,0 -0.306,0.366 -0.443,0.631 -1.41,2.719 -4.031,4.541 -7.027,4.541 -4.493,0 -8.142,-4.107 -8.142,-9.167 0,-5.06 3.649,-9.167 8.142,-9.167 1.462,0 2.815,0.464 4.015,1.193 0.66,0.402 0.938,-0.242 0.291,-0.836 -1.92,-1.756 -3.171,-4.418 -3.171,-7.416 0,-5.246 3.781,-9.504 8.439,-9.504"
         style="fill:#050301;fill-opacity:1;fill-rule:nonzero;stroke:none;stroke-width:0.1"
         id="path43248"
         inkscape:connector-curvature="0" />
      <path
         d="m 421.084,760.902 5.878,5.248 h 0.019 v 0.017 l 0.006,0.006 -0.006,0.006 v 2.51 h -13.529 l 0.007,-1.813 v -2.256 h 2.078 v 1.541 l 7.913,-0.007 -7.769,-7.196 1.12,-1.658 c 0.847,0.779 1.911,1.244 3.078,1.244 1.371,0 2.744,-0.64 3.643,-1.68 0.897,-1.041 1.448,-2.466 1.449,-4.052 -10e-4,-1.588 -0.552,-3.012 -1.449,-4.054 -0.899,-1.04 -2.272,-1.679 -3.643,-1.679 -1.37,0 -2.6,0.639 -3.5,1.679 -0.648,0.753 -1.117,1.708 -1.326,2.778 l -2.112,-0.435 c 0.68,-3.717 3.529,-6.504 6.938,-6.506 3.917,0.002 7.235,3.678 7.236,8.217 -0.001,4.062 -2.662,7.427 -6.031,8.09"
         style="fill:#000000;fill-opacity:1;fill-rule:nonzero;stroke:none;stroke-width:0.1"
         id="path43250"
         inkscape:connector-curvature="0" />
      <path
         d="m 416.801,757.3 v 0 H 416.8 Z"
         style="fill:#000000;fill-opacity:1;fill-rule:nonzero;stroke:none;stroke-width:0.1"
         id="path43252"
         inkscape:connector-curvature="0" />
      <path
         d="m 572.042,555.376 -5.877,-5.248 h -0.019 v -0.017 l -0.006,-0.006 0.006,-0.008 v -2.51 h 13.53 l -0.007,1.813 v 2.257 h -2.079 v -1.543 l -7.913,0.01 7.768,7.196 -1.119,1.658 c -0.847,-0.782 -1.911,-1.244 -3.079,-1.244 -1.369,0 -2.743,0.638 -3.642,1.677 -0.897,1.041 -1.449,2.467 -1.449,4.055 0,1.586 0.552,3.012 1.449,4.053 0.899,1.039 2.273,1.678 3.642,1.679 1.37,-10e-4 2.601,-0.64 3.5,-1.679 0.649,-0.754 1.117,-1.707 1.326,-2.78 l 2.113,0.437 c -0.68,3.717 -3.528,6.505 -6.939,6.506 -3.917,-10e-4 -7.234,-3.679 -7.234,-8.216 0,-4.064 2.661,-7.428 6.029,-8.09"
         style="fill:#000000;fill-opacity:1;fill-rule:nonzero;stroke:none;stroke-width:0.1"
         id="path43254"
         inkscape:connector-curvature="0" />
      <path
         d="M 576.326,558.978 Z"
         style="fill:#000000;fill-opacity:1;fill-rule:nonzero;stroke:none;stroke-width:0.1"
         id="path43256"
         inkscape:connector-curvature="0" />
    </g>
  </g>
</svg>
