<?xml version="1.0" encoding="UTF-8" standalone="no"?>
<!-- Created with Inkscape (http://www.inkscape.org/) -->

<svg
   xmlns:dc="http://purl.org/dc/elements/1.1/"
   xmlns:cc="http://creativecommons.org/ns#"
   xmlns:rdf="http://www.w3.org/1999/02/22-rdf-syntax-ns#"
   xmlns:svg="http://www.w3.org/2000/svg"
   xmlns="http://www.w3.org/2000/svg"
   xmlns:sodipodi="http://sodipodi.sourceforge.net/DTD/sodipodi-0.dtd"
   xmlns:inkscape="http://www.inkscape.org/namespaces/inkscape"
   width="63.353001mm"
   height="88.352997mm"
   viewBox="0 0 63.353001 88.352997"
   version="1.1"
   id="svg22813"
   inkscape:version="0.92.2 2405546, 2018-03-11"
   sodipodi:docname="3h.svg">
  <defs
     id="defs22807" />
  <sodipodi:namedview
     id="base"
     pagecolor="#ffffff"
     bordercolor="#666666"
     borderopacity="1.0"
     inkscape:pageopacity="0.0"
     inkscape:pageshadow="2"
     inkscape:zoom="1.4"
     inkscape:cx="79.906021"
     inkscape:cy="124.23278"
     inkscape:document-units="mm"
     inkscape:current-layer="layer1"
     showgrid="false"
     inkscape:window-width="960"
     inkscape:window-height="992"
     inkscape:window-x="960"
     inkscape:window-y="27"
     inkscape:window-maximized="0" />
  <metadata
     id="metadata22810">
    <rdf:RDF>
      <cc:Work
         rdf:about="">
        <dc:format>image/svg+xml</dc:format>
        <dc:type
           rdf:resource="http://purl.org/dc/dcmitype/StillImage" />
        <dc:title></dc:title>
      </cc:Work>
    </rdf:RDF>
  </metadata>
  <g
     inkscape:label="Layer 1"
     inkscape:groupmode="layer"
     id="layer1"
     transform="translate(0,-208.647)">
    <g
       transform="matrix(0.35277777,0,0,-0.35277777,-143.50047,485.53467)"
       id="g87544">
      <path
         d="m 585.854,549.102 c 0,-7.827 -6.346,-14.173 -14.174,-14.173 H 421.446 c -7.827,0 -14.173,6.346 -14.173,14.173 v 221.103 c 0,7.827 6.346,14.173 14.173,14.173 H 571.68 c 7.828,0 14.174,-6.346 14.174,-14.173 V 549.102"
         style="fill:#f7f7f5;fill-opacity:1;fill-rule:nonzero;stroke:none;stroke-width:0.1"
         id="path74791"
         inkscape:connector-curvature="0" />
      <path
         d="m 585.854,549.102 c 0,-7.827 -6.346,-14.173 -14.174,-14.173 H 421.446 c -7.827,0 -14.173,6.346 -14.173,14.173 v 221.103 c 0,7.827 6.346,14.173 14.173,14.173 H 571.68 c 7.828,0 14.174,-6.346 14.174,-14.173 z"
         style="fill:none;stroke:#231f20;stroke-width:1;stroke-linecap:butt;stroke-linejoin:miter;stroke-miterlimit:4;stroke-dasharray:none;stroke-opacity:1"
         id="path74793"
         inkscape:connector-curvature="0" />
      <path
         d="m 420.041,741.859 c 1.786,-3.471 4.145,-6.309 7.075,-8.513 -2.93,-2.207 -5.289,-5.038 -7.075,-8.495 -1.803,3.457 -4.168,6.288 -7.098,8.495 2.93,2.204 5.295,5.042 7.098,8.513 v 0"
         style="fill:#e52c3f;fill-opacity:1;fill-rule:nonzero;stroke:none;stroke-width:0.1"
         id="path74795"
         inkscape:connector-curvature="0" />
      <path
         d="m 573.109,594.457 c 1.786,-3.469 4.145,-6.307 7.075,-8.513 -2.93,-2.206 -5.289,-5.038 -7.075,-8.495 -1.802,3.457 -4.169,6.289 -7.098,8.495 2.929,2.206 5.296,5.044 7.098,8.513 v 0"
         style="fill:#e52c3f;fill-opacity:1;fill-rule:nonzero;stroke:none;stroke-width:0.1"
         id="path74797"
         inkscape:connector-curvature="0" />
      <path
         d="m 496.588,758.866 c 4.467,-8.675 10.364,-15.769 17.69,-21.283 -7.326,-5.517 -13.223,-12.595 -17.69,-21.236 -4.501,8.641 -10.415,15.719 -17.74,21.236 7.325,5.514 13.239,12.608 17.74,21.283 v 0"
         style="fill:#e52c3f;fill-opacity:1;fill-rule:nonzero;stroke:none;stroke-width:0.1"
         id="path74799"
         inkscape:connector-curvature="0" />
      <path
         d="m 496.588,680.914 c 4.467,-8.68 10.364,-15.777 17.69,-21.275 -7.326,-5.514 -13.223,-12.6 -17.69,-21.244 -4.501,8.644 -10.416,15.73 -17.74,21.244 7.324,5.498 13.239,12.595 17.74,21.275 v 0"
         style="fill:#e52c3f;fill-opacity:1;fill-rule:nonzero;stroke:none;stroke-width:0.1"
         id="path74801"
         inkscape:connector-curvature="0" />
      <path
         d="m 496.588,602.961 c 4.467,-8.675 10.364,-15.77 17.69,-21.282 -7.326,-5.517 -13.223,-12.596 -17.69,-21.238 -4.501,8.642 -10.415,15.721 -17.74,21.238 7.325,5.512 13.239,12.607 17.74,21.282 v 0"
         style="fill:#e52c3f;fill-opacity:1;fill-rule:nonzero;stroke:none;stroke-width:0.1"
         id="path74803"
         inkscape:connector-curvature="0" />
      <path
         d="m 421.086,762.416 5.877,5.249 h 0.019 v 0.018 l 0.006,0.005 -0.006,0.007 v 2.51 l -13.53,-0.001 0.007,-1.812 v -2.256 h 2.079 v 1.542 l 7.913,-0.009 -7.768,-7.196 1.119,-1.659 c 0.847,0.782 1.911,1.245 3.079,1.246 1.369,-10e-4 2.743,-0.64 3.642,-1.679 0.897,-1.042 1.448,-2.467 1.449,-4.055 -10e-4,-1.587 -0.552,-3.012 -1.449,-4.053 -0.899,-1.039 -2.273,-1.678 -3.642,-1.679 -1.371,10e-4 -2.601,0.64 -3.5,1.679 -0.649,0.754 -1.117,1.708 -1.327,2.779 l -2.111,-0.436 c 0.678,-3.716 3.527,-6.505 6.938,-6.505 3.917,0 7.234,3.678 7.234,8.215 0,4.063 -2.661,7.428 -6.029,8.09"
         style="fill:#e52c3f;fill-opacity:1;fill-rule:nonzero;stroke:none;stroke-width:0.1"
         id="path74805"
         inkscape:connector-curvature="0" />
      <path
         d="m 416.802,758.814 v 0 h -0.001 z"
         style="fill:#e52c3f;fill-opacity:1;fill-rule:nonzero;stroke:none;stroke-width:0.1"
         id="path74807"
         inkscape:connector-curvature="0" />
      <path
         d="m 572.041,556.892 -5.877,-5.248 h -0.02 v -0.018 l -0.007,-0.006 0.007,-0.007 -10e-4,-2.511 13.532,0.002 -0.009,1.812 v 2.257 h -2.078 v -1.543 l -7.913,0.009 7.769,7.196 -1.119,1.658 c -0.848,-0.781 -1.911,-1.244 -3.079,-1.244 -1.371,0 -2.744,0.639 -3.642,1.678 -0.897,1.042 -1.449,2.467 -1.449,4.054 0,1.587 0.552,3.012 1.449,4.053 0.898,1.04 2.271,1.679 3.642,1.68 1.37,-0.001 2.6,-0.64 3.499,-1.68 0.649,-0.753 1.117,-1.707 1.327,-2.778 l 2.112,0.435 c -0.68,3.717 -3.527,6.505 -6.938,6.506 -3.917,-10e-4 -7.236,-3.678 -7.236,-8.216 0,-4.063 2.662,-7.427 6.031,-8.089"
         style="fill:#e52c3f;fill-opacity:1;fill-rule:nonzero;stroke:none;stroke-width:0.1"
         id="path74809"
         inkscape:connector-curvature="0" />
      <path
         d="M 576.325,560.493 Z"
         style="fill:#e52c3f;fill-opacity:1;fill-rule:nonzero;stroke:none;stroke-width:0.1"
         id="path74811"
         inkscape:connector-curvature="0" />
    </g>
  </g>
</svg>
