<?xml version="1.0" encoding="UTF-8" standalone="no"?>
<!-- Created with Inkscape (http://www.inkscape.org/) -->

<svg
   xmlns:dc="http://purl.org/dc/elements/1.1/"
   xmlns:cc="http://creativecommons.org/ns#"
   xmlns:rdf="http://www.w3.org/1999/02/22-rdf-syntax-ns#"
   xmlns:svg="http://www.w3.org/2000/svg"
   xmlns="http://www.w3.org/2000/svg"
   xmlns:sodipodi="http://sodipodi.sourceforge.net/DTD/sodipodi-0.dtd"
   xmlns:inkscape="http://www.inkscape.org/namespaces/inkscape"
   width="63.353001mm"
   height="88.352997mm"
   viewBox="0 0 63.353001 88.352997"
   version="1.1"
   id="svg22813"
   inkscape:version="0.92.2 2405546, 2018-03-11"
   sodipodi:docname="3h.svg">
  <defs
     id="defs22807" />
  <sodipodi:namedview
     id="base"
     pagecolor="#ffffff"
     bordercolor="#666666"
     borderopacity="1.0"
     inkscape:pageopacity="0.0"
     inkscape:pageshadow="2"
     inkscape:zoom="1.4"
     inkscape:cx="79.906021"
     inkscape:cy="124.23278"
     inkscape:document-units="mm"
     inkscape:current-layer="layer1"
     showgrid="false"
     inkscape:window-width="1920"
     inkscape:window-height="992"
     inkscape:window-x="0"
     inkscape:window-y="27"
     inkscape:window-maximized="1" />
  <metadata
     id="metadata22810">
    <rdf:RDF>
      <cc:Work
         rdf:about="">
        <dc:format>image/svg+xml</dc:format>
        <dc:type
           rdf:resource="http://purl.org/dc/dcmitype/StillImage" />
        <dc:title></dc:title>
      </cc:Work>
    </rdf:RDF>
  </metadata>
  <g
     inkscape:label="Layer 1"
     inkscape:groupmode="layer"
     id="layer1"
     transform="translate(0,-208.647)">
    <g
       transform="matrix(0.35277777,0,0,-0.35277777,-143.50012,485.16601)"
       id="g43603">
      <path
         d="m 585.855,548.057 c 0,-7.827 -6.346,-14.173 -14.174,-14.173 H 421.445 c -7.827,0 -14.173,6.346 -14.173,14.173 v 221.102 c 0,7.829 6.346,14.174 14.173,14.174 h 150.236 c 7.828,0 14.174,-6.345 14.174,-14.174 V 548.057"
         style="fill:#f7f7f5;fill-opacity:1;fill-rule:nonzero;stroke:none;stroke-width:0.1"
         id="path31140"
         inkscape:connector-curvature="0" />
      <path
         d="m 585.855,548.057 c 0,-7.827 -6.346,-14.173 -14.174,-14.173 H 421.445 c -7.827,0 -14.173,6.346 -14.173,14.173 v 221.102 c 0,7.829 6.346,14.174 14.173,14.174 h 150.236 c 7.828,0 14.174,-6.345 14.174,-14.174 z"
         style="fill:none;stroke:#231f20;stroke-width:1;stroke-linecap:butt;stroke-linejoin:miter;stroke-miterlimit:4;stroke-dasharray:none;stroke-opacity:1"
         id="path31142"
         inkscape:connector-curvature="0" />
      <path
         d="m 424.001,740.714 c -1.247,0.387 -3.185,-0.295 -3.898,-3.122 -0.059,-0.155 -0.122,-0.151 -0.178,0.005 -1.029,2.865 -2.721,3.491 -3.913,3.117 -1.764,-0.569 -3.194,-2.673 -3.063,-5.357 0.035,-4.684 4.228,-7.043 7.058,-11.523 2.83,4.48 7.069,6.832 7.081,11.537 0.246,2.712 -1.274,4.784 -3.087,5.343"
         style="fill:#e52c3f;fill-opacity:1;fill-rule:nonzero;stroke:none;stroke-width:0.1"
         id="path31144"
         inkscape:connector-curvature="0" />
      <path
         d="m 420.025,723.806 c -0.005,0.01 -0.012,0.018 -0.018,0.028 -0.006,-0.01 -0.013,-0.018 -0.019,-0.028 h 0.037"
         style="fill:#e52c3f;fill-opacity:1;fill-rule:nonzero;stroke:none;stroke-width:0.1"
         id="path31146"
         inkscape:connector-curvature="0" />
      <path
         d="m 573.101,593.411 c 0.006,-0.009 0.013,-0.018 0.019,-0.028 0.005,0.01 0.012,0.019 0.018,0.028 h -0.037"
         style="fill:#e52c3f;fill-opacity:1;fill-rule:nonzero;stroke:none;stroke-width:0.1"
         id="path31148"
         inkscape:connector-curvature="0" />
      <path
         d="m 573.12,593.383 c -2.831,-4.48 -7.07,-6.833 -7.082,-11.537 -0.245,-2.712 1.274,-4.785 3.087,-5.344 1.246,-0.387 3.185,0.295 3.898,3.123 0.06,0.154 0.123,0.15 0.178,-0.006 1.028,-2.865 2.721,-3.49 3.912,-3.117 1.766,0.569 3.194,2.673 3.063,5.357 -0.034,4.684 -4.227,7.044 -7.056,11.524"
         style="fill:#e52c3f;fill-opacity:1;fill-rule:nonzero;stroke:none;stroke-width:0.1"
         id="path31150"
         inkscape:connector-curvature="0" />
      <path
         d="m 514.26,573.035 c -0.088,11.711 -10.568,17.608 -17.647,28.806 -7.076,-11.198 -17.672,-17.078 -17.702,-28.839 -0.613,-6.781 3.182,-11.963 7.716,-13.358 3.117,-0.968 7.963,0.736 9.744,7.805 0.149,0.387 0.305,0.379 0.445,-0.013 2.572,-7.163 6.809,-8.728 9.787,-7.792 4.41,1.422 7.985,6.681 7.657,13.391"
         style="fill:#e52c3f;fill-opacity:1;fill-rule:nonzero;stroke:none;stroke-width:0.1"
         id="path31152"
         inkscape:connector-curvature="0" />
      <path
         d="m 496.564,601.915 c 0.016,-0.025 0.033,-0.049 0.049,-0.074 0.015,0.025 0.032,0.049 0.047,0.074 h -0.096"
         style="fill:#e52c3f;fill-opacity:1;fill-rule:nonzero;stroke:none;stroke-width:0.1"
         id="path31154"
         inkscape:connector-curvature="0" />
      <path
         d="m 496.557,715.302 c -0.016,0.025 -0.032,0.049 -0.048,0.073 -0.016,-0.024 -0.032,-0.048 -0.048,-0.073 h 0.096"
         style="fill:#e52c3f;fill-opacity:1;fill-rule:nonzero;stroke:none;stroke-width:0.1"
         id="path31156"
         inkscape:connector-curvature="0" />
      <path
         d="m 506.5,757.572 c -3.118,0.969 -7.969,-0.735 -9.75,-7.804 -0.148,-0.387 -0.305,-0.378 -0.445,0.013 -2.571,7.164 -6.804,8.727 -9.782,7.791 -4.41,-1.422 -7.984,-6.68 -7.656,-13.39 0.088,-11.711 10.566,-17.608 17.642,-28.807 7.079,11.199 17.677,17.079 17.707,28.841 0.613,6.779 -3.183,11.961 -7.716,13.356"
         style="fill:#e52c3f;fill-opacity:1;fill-rule:nonzero;stroke:none;stroke-width:0.1"
         id="path31158"
         inkscape:connector-curvature="0" />
      <path
         d="m 496.557,637.349 c -0.016,0.025 -0.032,0.049 -0.048,0.073 -0.016,-0.024 -0.032,-0.048 -0.048,-0.073 h 0.096"
         style="fill:#e52c3f;fill-opacity:1;fill-rule:nonzero;stroke:none;stroke-width:0.1"
         id="path31160"
         inkscape:connector-curvature="0" />
      <path
         d="m 506.5,679.619 c -3.118,0.969 -7.969,-0.735 -9.75,-7.803 -0.148,-0.387 -0.305,-0.378 -0.445,0.013 -2.571,7.162 -6.804,8.727 -9.782,7.79 -4.41,-1.422 -7.984,-6.68 -7.656,-13.389 0.088,-11.713 10.566,-17.611 17.642,-28.808 7.079,11.197 17.677,17.079 17.707,28.842 0.613,6.78 -3.183,11.96 -7.716,13.355"
         style="fill:#e52c3f;fill-opacity:1;fill-rule:nonzero;stroke:none;stroke-width:0.1"
         id="path31162"
         inkscape:connector-curvature="0" />
      <path
         d="m 421.085,761.371 5.877,5.248 h 0.02 v 0.018 l 0.006,0.006 -0.006,0.007 v 2.51 l -13.531,-10e-4 0.007,-1.812 v -2.257 h 2.079 v 1.542 l 7.913,-0.009 -7.768,-7.195 1.119,-1.658 c 0.847,0.78 1.911,1.244 3.079,1.244 1.369,0 2.743,-0.64 3.641,-1.679 0.897,-1.041 1.449,-2.467 1.45,-4.054 -10e-4,-1.586 -0.553,-3.011 -1.45,-4.052 -0.898,-1.04 -2.272,-1.679 -3.641,-1.68 -1.371,10e-4 -2.601,0.64 -3.5,1.68 -0.648,0.753 -1.117,1.707 -1.326,2.778 l -2.113,-0.436 c 0.68,-3.716 3.528,-6.505 6.939,-6.505 3.917,0 7.234,3.677 7.234,8.215 0,4.064 -2.661,7.428 -6.029,8.09"
         style="fill:#e52c3f;fill-opacity:1;fill-rule:nonzero;stroke:none;stroke-width:0.1"
         id="path31164"
         inkscape:connector-curvature="0" />
      <path
         d="m 416.801,757.77 v 0 H 416.8 Z"
         style="fill:#e52c3f;fill-opacity:1;fill-rule:nonzero;stroke:none;stroke-width:0.1"
         id="path31166"
         inkscape:connector-curvature="0" />
      <path
         d="m 572.041,555.846 -5.877,-5.248 h -0.019 v -0.018 l -0.007,-0.006 0.007,-0.006 -10e-4,-2.511 13.531,0.002 -0.007,1.812 v 2.256 h -2.079 v -1.542 l -7.913,0.009 7.769,7.195 -1.119,1.658 c -0.848,-0.78 -1.912,-1.244 -3.08,-1.244 -1.369,0 -2.742,0.64 -3.641,1.679 -0.897,1.042 -1.449,2.467 -1.449,4.054 0,1.587 0.552,3.011 1.449,4.052 0.899,1.041 2.272,1.68 3.641,1.68 1.371,0 2.601,-0.639 3.5,-1.68 0.649,-0.752 1.117,-1.707 1.327,-2.777 l 2.112,0.435 c -0.68,3.717 -3.527,6.504 -6.939,6.506 -3.916,-0.002 -7.235,-3.678 -7.235,-8.216 0,-4.063 2.662,-7.428 6.03,-8.09"
         style="fill:#e52c3f;fill-opacity:1;fill-rule:nonzero;stroke:none;stroke-width:0.1"
         id="path31168"
         inkscape:connector-curvature="0" />
      <path
         d="M 576.326,559.447 Z"
         style="fill:#e52c3f;fill-opacity:1;fill-rule:nonzero;stroke:none;stroke-width:0.1"
         id="path31170"
         inkscape:connector-curvature="0" />
    </g>
  </g>
</svg>
