<?xml version="1.0" encoding="UTF-8" standalone="no"?>
<!-- Created with Inkscape (http://www.inkscape.org/) -->

<svg
   xmlns:dc="http://purl.org/dc/elements/1.1/"
   xmlns:cc="http://creativecommons.org/ns#"
   xmlns:rdf="http://www.w3.org/1999/02/22-rdf-syntax-ns#"
   xmlns:svg="http://www.w3.org/2000/svg"
   xmlns="http://www.w3.org/2000/svg"
   xmlns:sodipodi="http://sodipodi.sourceforge.net/DTD/sodipodi-0.dtd"
   xmlns:inkscape="http://www.inkscape.org/namespaces/inkscape"
   width="63.353001mm"
   height="88.352997mm"
   viewBox="0 0 63.353001 88.352997"
   version="1.1"
   id="svg22813"
   inkscape:version="0.92.2 2405546, 2018-03-11"
   sodipodi:docname="3s.svg">
  <defs
     id="defs22807" />
  <sodipodi:namedview
     id="base"
     pagecolor="#ffffff"
     bordercolor="#666666"
     borderopacity="1.0"
     inkscape:pageopacity="0.0"
     inkscape:pageshadow="2"
     inkscape:zoom="0.49497475"
     inkscape:cx="73.258718"
     inkscape:cy="-160.87607"
     inkscape:document-units="mm"
     inkscape:current-layer="layer1"
     showgrid="false"
     inkscape:window-width="1920"
     inkscape:window-height="992"
     inkscape:window-x="0"
     inkscape:window-y="27"
     inkscape:window-maximized="1" />
  <metadata
     id="metadata22810">
    <rdf:RDF>
      <cc:Work
         rdf:about="">
        <dc:format>image/svg+xml</dc:format>
        <dc:type
           rdf:resource="http://purl.org/dc/dcmitype/StillImage" />
        <dc:title></dc:title>
      </cc:Work>
    </rdf:RDF>
  </metadata>
  <g
     inkscape:label="Layer 1"
     inkscape:groupmode="layer"
     id="layer1"
     transform="translate(0,-208.647)">
    <g
       transform="matrix(0.35277777,0,0,-0.35277777,-143.49977,484.99986)"
       id="g23001">
      <path
         inkscape:connector-curvature="0"
         id="path4057"
         style="fill:#f7f7f5;fill-opacity:1;fill-rule:nonzero;stroke:none;stroke-width:0.1"
         d="m 585.856,547.586 c 0,-7.827 -6.346,-14.173 -14.174,-14.173 H 421.445 c -7.828,0 -14.174,6.346 -14.174,14.173 v 221.103 c 0,7.828 6.346,14.174 14.174,14.174 h 150.237 c 7.828,0 14.174,-6.346 14.174,-14.174 V 547.586" />
      <path
         inkscape:connector-curvature="0"
         id="path4059"
         style="fill:none;stroke:#231f20;stroke-width:1;stroke-linecap:butt;stroke-linejoin:miter;stroke-miterlimit:4;stroke-dasharray:none;stroke-opacity:1"
         d="m 585.856,547.586 c 0,-7.827 -6.346,-14.173 -14.174,-14.173 H 421.445 c -7.828,0 -14.174,6.346 -14.174,14.173 v 221.103 c 0,7.828 6.346,14.174 14.174,14.174 h 150.237 c 7.828,0 14.174,-6.346 14.174,-14.174 z" />
      <path
         inkscape:connector-curvature="0"
         id="path4061"
         style="fill:#000000;fill-opacity:1;fill-rule:nonzero;stroke:none;stroke-width:0.1"
         d="m 421.084,760.9 5.878,5.248 h 0.019 v 0.018 l 0.006,0.006 -0.006,0.007 v 2.51 h -13.53 l 0.007,-1.813 v -2.257 h 2.079 v 1.542 l 7.913,-0.009 -7.769,-7.195 1.119,-1.658 c 0.848,0.78 1.912,1.244 3.079,1.244 1.37,0 2.744,-0.639 3.642,-1.679 0.897,-1.041 1.449,-2.466 1.449,-4.053 0,-1.587 -0.552,-3.012 -1.449,-4.054 -0.898,-1.039 -2.272,-1.679 -3.642,-1.679 -1.37,0 -2.6,0.64 -3.5,1.679 -0.648,0.754 -1.117,1.708 -1.327,2.779 l -2.111,-0.436 c 0.68,-3.717 3.527,-6.504 6.938,-6.506 3.917,0.002 7.235,3.679 7.235,8.217 0,4.062 -2.661,7.427 -6.03,8.089" />
      <path
         inkscape:connector-curvature="0"
         id="path4063"
         style="fill:#000000;fill-opacity:1;fill-rule:nonzero;stroke:none;stroke-width:0.1"
         d="M 416.8,757.299 Z" />
      <path
         inkscape:connector-curvature="0"
         id="path4065"
         style="fill:#000000;fill-opacity:1;fill-rule:nonzero;stroke:none;stroke-width:0.1"
         d="m 572.041,555.374 -5.877,-5.248 h -0.019 v -0.017 l -0.006,-0.005 0.006,-0.008 v -2.51 h 13.531 l -0.008,1.812 v 2.257 h -2.077 v -1.542 l -7.915,0.009 7.77,7.196 -1.119,1.658 c -0.848,-0.781 -1.913,-1.244 -3.081,-1.244 -1.369,0 -2.742,0.639 -3.64,1.678 -0.898,1.041 -1.449,2.467 -1.449,4.054 0,1.587 0.551,3.013 1.449,4.054 0.898,1.039 2.271,1.678 3.64,1.678 1.372,0 2.602,-0.639 3.5,-1.678 0.649,-0.754 1.118,-1.708 1.327,-2.78 l 2.113,0.437 c -0.68,3.717 -3.527,6.505 -6.94,6.506 -3.916,-0.001 -7.234,-3.679 -7.234,-8.217 0,-4.062 2.663,-7.427 6.029,-8.09" />
      <path
         inkscape:connector-curvature="0"
         id="path4067"
         style="fill:#000000;fill-opacity:1;fill-rule:nonzero;stroke:none;stroke-width:0.1"
         d="m 576.327,558.977 v -10e-4 10e-4" />
      <path
         inkscape:connector-curvature="0"
         id="path4069"
         style="fill:#231f20;fill-opacity:1;fill-rule:evenodd;stroke:none;stroke-width:0.1"
         d="m 573.091,575.933 c -0.041,0.026 -0.071,0.041 -0.118,0.072 -3.039,1.94 -6.584,5.724 -6.947,10.441 -0.172,2.245 1.263,3.798 3.119,3.833 1.184,0.021 2.137,-0.4 2.652,-1.204 0.428,-0.669 0.537,-1.699 0.608,-1.222 0.25,1.816 -0.512,3.562 -0.922,5.088 0.459,-0.168 1.035,-0.252 1.613,-0.253 h 0.01 c 0.576,10e-4 1.152,0.085 1.61,0.253 -0.411,-1.526 -1.171,-3.272 -0.921,-5.088 0.069,-0.477 0.178,0.553 0.606,1.222 0.515,0.804 1.469,1.225 2.653,1.204 1.855,-0.035 3.29,-1.588 3.118,-3.833 -0.363,-4.717 -3.908,-8.501 -6.943,-10.441 -0.033,-0.025 -0.063,-0.04 -0.111,-0.072 h -0.027" />
      <path
         inkscape:connector-curvature="0"
         id="path4071"
         style="fill:none;stroke:#231f20;stroke-width:0.065018;stroke-linecap:butt;stroke-linejoin:round;stroke-miterlimit:4;stroke-dasharray:none;stroke-opacity:1"
         d="m 573.091,575.933 c -0.041,0.026 -0.071,0.041 -0.118,0.072 -3.039,1.94 -6.584,5.724 -6.947,10.441 -0.172,2.245 1.263,3.798 3.119,3.833 1.184,0.021 2.137,-0.4 2.652,-1.204 0.428,-0.669 0.537,-1.699 0.608,-1.222 0.25,1.816 -0.512,3.562 -0.922,5.088 0.459,-0.168 1.035,-0.252 1.613,-0.253 h 0.01 c 0.576,10e-4 1.152,0.085 1.61,0.253 -0.411,-1.526 -1.171,-3.272 -0.921,-5.088 0.069,-0.477 0.178,0.553 0.606,1.222 0.515,0.804 1.469,1.225 2.653,1.204 1.855,-0.035 3.29,-1.588 3.118,-3.833 -0.363,-4.717 -3.908,-8.501 -6.943,-10.441 -0.033,-0.025 -0.063,-0.04 -0.111,-0.072 z" />
      <path
         inkscape:connector-curvature="0"
         id="path4073"
         style="fill:#231f20;fill-opacity:1;fill-rule:evenodd;stroke:none;stroke-width:0.1"
         d="m 420.018,740.343 c -0.041,-0.027 -0.07,-0.042 -0.117,-0.072 -3.038,-1.941 -6.583,-5.725 -6.946,-10.442 -0.173,-2.244 1.262,-3.798 3.117,-3.832 1.185,-0.021 2.137,0.399 2.653,1.203 0.429,0.668 0.538,1.7 0.608,1.223 0.25,-1.816 -0.511,-3.562 -0.922,-5.088 0.459,0.167 1.035,0.251 1.613,0.253 h 0.01 c 0.577,-0.002 1.152,-0.086 1.61,-0.253 -0.411,1.526 -1.17,3.272 -0.921,5.088 0.07,0.477 0.179,-0.555 0.607,-1.223 0.515,-0.804 1.468,-1.224 2.652,-1.203 1.856,0.034 3.291,1.588 3.118,3.832 -0.364,4.717 -3.908,8.501 -6.943,10.442 -0.033,0.024 -0.062,0.039 -0.111,0.072 h -0.028" />
      <path
         inkscape:connector-curvature="0"
         id="path4075"
         style="fill:none;stroke:#231f20;stroke-width:0.065018;stroke-linecap:butt;stroke-linejoin:round;stroke-miterlimit:4;stroke-dasharray:none;stroke-opacity:1"
         d="m 420.018,740.343 c -0.041,-0.027 -0.07,-0.042 -0.117,-0.072 -3.038,-1.941 -6.583,-5.725 -6.946,-10.442 -0.173,-2.244 1.262,-3.798 3.117,-3.832 1.185,-0.021 2.137,0.399 2.653,1.203 0.429,0.668 0.538,1.7 0.608,1.223 0.25,-1.816 -0.511,-3.562 -0.922,-5.088 0.459,0.167 1.035,0.251 1.613,0.253 h 0.01 c 0.577,-0.002 1.152,-0.086 1.61,-0.253 -0.411,1.526 -1.17,3.272 -0.921,5.088 0.07,0.477 0.179,-0.555 0.607,-1.223 0.515,-0.804 1.468,-1.224 2.652,-1.203 1.856,0.034 3.291,1.588 3.118,3.832 -0.364,4.717 -3.908,8.501 -6.943,10.442 -0.033,0.024 -0.062,0.039 -0.111,0.072 z" />
      <path
         inkscape:connector-curvature="0"
         id="path4077"
         style="fill:#231f20;fill-opacity:1;fill-rule:evenodd;stroke:none;stroke-width:0.1"
         d="m 496.538,757.351 c -0.101,-0.068 -0.174,-0.104 -0.293,-0.181 -7.593,-4.85 -16.455,-14.311 -17.363,-26.104 -0.432,-5.611 3.154,-9.495 7.793,-9.58 2.961,-0.053 5.342,0.998 6.631,3.007 1.072,1.672 1.346,4.248 1.519,3.058 0.625,-4.541 -1.275,-8.906 -2.304,-12.72 1.146,0.417 2.588,0.627 4.033,0.632 h 0.023 c 1.444,-0.005 2.882,-0.215 4.029,-0.632 -1.028,3.814 -2.927,8.179 -2.304,12.72 0.174,1.19 0.448,-1.386 1.518,-3.058 1.29,-2.009 3.671,-3.06 6.632,-3.007 4.639,0.085 8.224,3.969 7.793,9.58 -0.908,11.793 -9.77,21.254 -17.359,26.104 -0.084,0.062 -0.156,0.099 -0.275,0.181 h -0.073" />
      <path
         inkscape:connector-curvature="0"
         id="path4079"
         style="fill:none;stroke:#231f20;stroke-width:0.16254601;stroke-linecap:butt;stroke-linejoin:round;stroke-miterlimit:4;stroke-dasharray:none;stroke-opacity:1"
         d="m 496.538,757.351 c -0.101,-0.068 -0.174,-0.104 -0.293,-0.181 -7.593,-4.85 -16.455,-14.311 -17.363,-26.104 -0.432,-5.611 3.154,-9.495 7.793,-9.58 2.961,-0.053 5.342,0.998 6.631,3.007 1.072,1.672 1.346,4.248 1.519,3.058 0.625,-4.541 -1.275,-8.906 -2.304,-12.72 1.146,0.417 2.588,0.627 4.033,0.632 h 0.023 c 1.444,-0.005 2.882,-0.215 4.029,-0.632 -1.028,3.814 -2.927,8.179 -2.304,12.72 0.174,1.19 0.448,-1.386 1.518,-3.058 1.29,-2.009 3.671,-3.06 6.632,-3.007 4.639,0.085 8.224,3.969 7.793,9.58 -0.908,11.793 -9.77,21.254 -17.359,26.104 -0.084,0.062 -0.156,0.099 -0.275,0.181 z" />
      <path
         inkscape:connector-curvature="0"
         id="path4081"
         style="fill:#231f20;fill-opacity:1;fill-rule:evenodd;stroke:none;stroke-width:0.1"
         d="m 496.538,679.398 c -0.101,-0.068 -0.174,-0.104 -0.293,-0.181 -7.593,-4.85 -16.455,-14.311 -17.363,-26.104 -0.432,-5.611 3.154,-9.495 7.793,-9.58 2.961,-0.053 5.342,0.998 6.631,3.008 1.072,1.671 1.346,4.248 1.519,3.057 0.625,-4.541 -1.275,-8.907 -2.304,-12.72 1.146,0.417 2.588,0.627 4.033,0.632 h 0.023 c 1.444,-0.005 2.882,-0.215 4.029,-0.632 -1.028,3.813 -2.927,8.179 -2.304,12.72 0.174,1.191 0.448,-1.386 1.518,-3.057 1.29,-2.01 3.671,-3.061 6.632,-3.008 4.639,0.085 8.224,3.969 7.793,9.58 -0.908,11.793 -9.77,21.254 -17.359,26.104 -0.084,0.062 -0.156,0.099 -0.275,0.181 h -0.073" />
      <path
         inkscape:connector-curvature="0"
         id="path4083"
         style="fill:none;stroke:#231f20;stroke-width:0.16254601;stroke-linecap:butt;stroke-linejoin:round;stroke-miterlimit:4;stroke-dasharray:none;stroke-opacity:1"
         d="m 496.538,679.398 c -0.101,-0.068 -0.174,-0.104 -0.293,-0.181 -7.593,-4.85 -16.455,-14.311 -17.363,-26.104 -0.432,-5.611 3.154,-9.495 7.793,-9.58 2.961,-0.053 5.342,0.998 6.631,3.008 1.072,1.671 1.346,4.248 1.519,3.057 0.625,-4.541 -1.275,-8.907 -2.304,-12.72 1.146,0.417 2.588,0.627 4.033,0.632 h 0.023 c 1.444,-0.005 2.882,-0.215 4.029,-0.632 -1.028,3.813 -2.927,8.179 -2.304,12.72 0.174,1.191 0.448,-1.386 1.518,-3.057 1.29,-2.01 3.671,-3.061 6.632,-3.008 4.639,0.085 8.224,3.969 7.793,9.58 -0.908,11.793 -9.77,21.254 -17.359,26.104 -0.084,0.062 -0.156,0.099 -0.275,0.181 z" />
      <path
         inkscape:connector-curvature="0"
         id="path4085"
         style="fill:#231f20;fill-opacity:1;fill-rule:evenodd;stroke:none;stroke-width:0.1"
         d="m 496.538,558.926 c -0.101,0.066 -0.174,0.103 -0.293,0.179 -7.593,4.85 -16.455,14.311 -17.363,26.104 -0.432,5.611 3.154,9.496 7.793,9.58 2.961,0.055 5.342,-0.998 6.631,-3.008 1.072,-1.67 1.346,-4.248 1.519,-3.056 0.625,4.541 -1.275,8.906 -2.304,12.72 1.146,-0.418 2.588,-0.627 4.033,-0.632 h 0.023 c 1.444,0.005 2.882,0.214 4.029,0.632 -1.028,-3.814 -2.927,-8.179 -2.304,-12.72 0.174,-1.192 0.448,1.386 1.518,3.056 1.29,2.01 3.671,3.063 6.632,3.008 4.639,-0.084 8.224,-3.969 7.793,-9.58 -0.908,-11.793 -9.77,-21.254 -17.359,-26.104 -0.084,-0.062 -0.156,-0.099 -0.275,-0.179 h -0.073" />
      <path
         inkscape:connector-curvature="0"
         id="path4087"
         style="fill:none;stroke:#231f20;stroke-width:0.16254601;stroke-linecap:butt;stroke-linejoin:round;stroke-miterlimit:4;stroke-dasharray:none;stroke-opacity:1"
         d="m 496.538,558.926 c -0.101,0.066 -0.174,0.103 -0.293,0.179 -7.593,4.85 -16.455,14.311 -17.363,26.104 -0.432,5.611 3.154,9.496 7.793,9.58 2.961,0.055 5.342,-0.998 6.631,-3.008 1.072,-1.67 1.346,-4.248 1.519,-3.056 0.625,4.541 -1.275,8.906 -2.304,12.72 1.146,-0.418 2.588,-0.627 4.033,-0.632 h 0.023 c 1.444,0.005 2.882,0.214 4.029,0.632 -1.028,-3.814 -2.927,-8.179 -2.304,-12.72 0.174,-1.192 0.448,1.386 1.518,3.056 1.29,2.01 3.671,3.063 6.632,3.008 4.639,-0.084 8.224,-3.969 7.793,-9.58 -0.908,-11.793 -9.77,-21.254 -17.359,-26.104 -0.084,-0.062 -0.156,-0.099 -0.275,-0.179 z" />
    </g>
  </g>
</svg>
