<?xml version="1.0" encoding="UTF-8" standalone="no"?>
<!-- Created with Inkscape (http://www.inkscape.org/) -->

<svg
   xmlns:dc="http://purl.org/dc/elements/1.1/"
   xmlns:cc="http://creativecommons.org/ns#"
   xmlns:rdf="http://www.w3.org/1999/02/22-rdf-syntax-ns#"
   xmlns:svg="http://www.w3.org/2000/svg"
   xmlns="http://www.w3.org/2000/svg"
   xmlns:sodipodi="http://sodipodi.sourceforge.net/DTD/sodipodi-0.dtd"
   xmlns:inkscape="http://www.inkscape.org/namespaces/inkscape"
   width="63.353001mm"
   height="88.352997mm"
   viewBox="0 0 63.353001 88.352997"
   version="1.1"
   id="svg22813"
   inkscape:version="0.92.2 2405546, 2018-03-11"
   sodipodi:docname="4c.svg">
  <defs
     id="defs22807" />
  <sodipodi:namedview
     id="base"
     pagecolor="#ffffff"
     bordercolor="#666666"
     borderopacity="1.0"
     inkscape:pageopacity="0.0"
     inkscape:pageshadow="2"
     inkscape:zoom="1.4"
     inkscape:cx="79.906021"
     inkscape:cy="124.23278"
     inkscape:document-units="mm"
     inkscape:current-layer="layer1"
     showgrid="false"
     inkscape:window-width="1920"
     inkscape:window-height="992"
     inkscape:window-x="0"
     inkscape:window-y="27"
     inkscape:window-maximized="1" />
  <metadata
     id="metadata22810">
    <rdf:RDF>
      <cc:Work
         rdf:about="">
        <dc:format>image/svg+xml</dc:format>
        <dc:type
           rdf:resource="http://purl.org/dc/dcmitype/StillImage" />
        <dc:title></dc:title>
      </cc:Work>
    </rdf:RDF>
  </metadata>
  <g
     inkscape:label="Layer 1"
     inkscape:groupmode="layer"
     id="layer1"
     transform="translate(0,-208.647)">
    <g
       transform="matrix(0.35277777,0,0,-0.35277777,-215.25018,484.99986)"
       id="g64071">
      <path
         d="m 789.24,547.587 c 0,-7.828 -6.344,-14.174 -14.172,-14.174 H 624.832 c -7.828,0 -14.174,6.346 -14.174,14.174 v 221.102 c 0,7.828 6.346,14.174 14.174,14.174 h 150.236 c 7.828,0 14.172,-6.346 14.172,-14.174 V 547.587"
         style="fill:#f7f7f5;fill-opacity:1;fill-rule:nonzero;stroke:none;stroke-width:0.1"
         id="path43258"
         inkscape:connector-curvature="0" />
      <path
         d="m 789.24,547.587 c 0,-7.828 -6.344,-14.174 -14.172,-14.174 H 624.832 c -7.828,0 -14.174,6.346 -14.174,14.174 v 221.102 c 0,7.828 6.346,14.174 14.174,14.174 h 150.236 c 7.828,0 14.172,-6.346 14.172,-14.174 z"
         style="fill:none;stroke:#231f20;stroke-width:1;stroke-linecap:butt;stroke-linejoin:miter;stroke-miterlimit:4;stroke-dasharray:none;stroke-opacity:1"
         id="path43260"
         inkscape:connector-curvature="0" />
      <path
         d="m 623.414,740.343 c -1.863,0 -3.377,-1.703 -3.377,-3.802 0,-1.2 0.501,-2.264 1.27,-2.967 0.259,-0.237 0.147,-0.495 -0.116,-0.334 -0.48,0.291 -1.022,0.477 -1.607,0.477 -1.797,0 -3.256,-1.643 -3.256,-3.666 0,-2.024 1.459,-3.667 3.256,-3.667 1.198,0 2.248,0.729 2.811,1.816 0.055,0.106 0.099,0.252 0.177,0.252 0.108,0 0.157,-0.175 0.157,-0.502 0,-1.314 -0.504,-2.851 -1.251,-4.615 0.323,0.076 1.299,0.27 1.936,0.27 0.639,0 1.615,-0.194 1.937,-0.27 -0.746,1.764 -1.251,3.301 -1.251,4.615 0,0.327 0.05,0.502 0.157,0.502 0.077,0 0.122,-0.146 0.177,-0.252 0.563,-1.087 1.612,-1.816 2.81,-1.816 1.798,0 3.257,1.643 3.257,3.667 0,2.023 -1.459,3.666 -3.257,3.666 -0.584,0 -1.126,-0.186 -1.606,-0.477 -0.263,-0.161 -0.374,0.097 -0.115,0.334 0.767,0.703 1.268,1.767 1.268,2.967 0,2.099 -1.514,3.802 -3.377,3.802"
         style="fill:#050301;fill-opacity:1;fill-rule:nonzero;stroke:none;stroke-width:0.1"
         id="path43262"
         inkscape:connector-curvature="0" />
      <path
         d="m 776.486,575.933 c 1.863,0 3.375,1.704 3.375,3.803 0,1.199 -0.5,2.263 -1.267,2.965 -0.26,0.238 -0.148,0.495 0.115,0.335 0.48,-0.292 1.021,-0.476 1.607,-0.476 1.797,0 3.256,1.642 3.256,3.666 0,2.023 -1.459,3.666 -3.256,3.666 -1.199,0 -2.248,-0.729 -2.811,-1.817 -0.056,-0.105 -0.1,-0.252 -0.177,-0.252 -0.107,0 -0.157,0.175 -0.157,0.502 0,1.315 0.505,2.852 1.25,4.616 -0.321,-0.076 -1.298,-0.271 -1.935,-0.271 -0.639,0 -1.614,0.195 -1.937,0.271 0.745,-1.764 1.252,-3.301 1.252,-4.616 0,-0.327 -0.052,-0.502 -0.158,-0.502 -0.079,0 -0.123,0.147 -0.177,0.252 -0.562,1.088 -1.612,1.817 -2.811,1.817 -1.798,0 -3.257,-1.643 -3.257,-3.666 0,-2.024 1.459,-3.666 3.257,-3.666 0.585,0 1.126,0.184 1.607,0.476 0.263,0.16 0.374,-0.097 0.116,-0.335 -0.769,-0.702 -1.269,-1.766 -1.269,-2.965 0,-2.099 1.513,-3.803 3.377,-3.803"
         style="fill:#050301;fill-opacity:1;fill-rule:nonzero;stroke:none;stroke-width:0.1"
         id="path43264"
         inkscape:connector-curvature="0" />
      <path
         d="m 656.723,757.351 c -4.66,0 -8.442,-4.258 -8.442,-9.504 0,-2.999 1.252,-5.66 3.17,-7.417 0.648,-0.593 0.371,-1.237 -0.289,-0.836 -1.2,0.729 -2.553,1.193 -4.016,1.193 -4.494,0 -8.141,-4.106 -8.141,-9.167 0,-5.06 3.647,-9.168 8.141,-9.168 2.997,0 5.619,1.823 7.026,4.542 0.139,0.266 0.25,0.631 0.445,0.631 0.266,0 0.391,-0.437 0.391,-1.256 0,-3.287 -1.262,-7.126 -3.127,-11.538 0.806,0.192 3.247,0.678 4.842,0.678 1.593,0 4.035,-0.486 4.841,-0.678 -1.867,4.412 -3.128,8.251 -3.128,11.538 0,0.819 0.125,1.256 0.392,1.256 0.195,0 0.306,-0.365 0.443,-0.631 1.408,-2.719 4.031,-4.542 7.026,-4.542 4.494,0 8.142,4.108 8.142,9.168 0,5.061 -3.648,9.167 -8.142,9.167 -1.462,0 -2.817,-0.464 -4.015,-1.193 -0.66,-0.401 -0.938,0.243 -0.29,0.836 1.92,1.757 3.17,4.418 3.17,7.417 0,5.246 -3.781,9.504 -8.439,9.504"
         style="fill:#050301;fill-opacity:1;fill-rule:nonzero;stroke:none;stroke-width:0.1"
         id="path43266"
         inkscape:connector-curvature="0" />
      <path
         d="m 656.722,559.073 c 4.659,0 8.441,4.258 8.441,9.502 0,3.001 -1.251,5.663 -3.171,7.418 -0.647,0.592 -0.37,1.237 0.29,0.837 1.2,-0.73 2.553,-1.194 4.015,-1.194 4.494,0 8.142,4.107 8.142,9.167 0,5.06 -3.648,9.167 -8.142,9.167 -2.995,0 -5.617,-1.822 -7.026,-4.541 -0.137,-0.266 -0.248,-0.629 -0.443,-0.629 -0.267,0 -0.392,0.436 -0.392,1.254 0,3.287 1.261,7.127 3.128,11.539 -0.806,-0.193 -3.248,-0.68 -4.842,-0.68 -1.595,0 -4.035,0.487 -4.841,0.68 1.866,-4.412 3.127,-8.252 3.127,-11.539 0,-0.818 -0.124,-1.254 -0.391,-1.254 -0.195,0 -0.306,0.363 -0.444,0.629 -1.408,2.719 -4.03,4.541 -7.027,4.541 -4.494,0 -8.141,-4.107 -8.141,-9.167 0,-5.06 3.647,-9.167 8.141,-9.167 1.463,0 2.817,0.464 4.016,1.194 0.66,0.4 0.938,-0.245 0.289,-0.837 -1.918,-1.755 -3.17,-4.417 -3.17,-7.418 0,-5.244 3.782,-9.502 8.441,-9.502"
         style="fill:#050301;fill-opacity:1;fill-rule:nonzero;stroke:none;stroke-width:0.1"
         id="path43268"
         inkscape:connector-curvature="0" />
      <path
         d="m 743.178,757.202 c -4.659,0 -8.44,-4.257 -8.44,-9.504 0,-2.998 1.25,-5.66 3.169,-7.416 0.649,-0.593 0.372,-1.237 -0.289,-0.836 -1.199,0.73 -2.554,1.193 -4.014,1.193 -4.495,0 -8.142,-4.107 -8.142,-9.167 0,-5.06 3.647,-9.167 8.142,-9.167 2.994,0 5.617,1.822 7.024,4.542 0.14,0.266 0.25,0.631 0.445,0.631 0.267,0 0.392,-0.438 0.392,-1.257 0,-3.286 -1.262,-7.126 -3.127,-11.538 0.805,0.191 3.246,0.678 4.84,0.678 1.595,0 4.037,-0.487 4.842,-0.678 -1.866,4.412 -3.128,8.252 -3.128,11.538 0,0.819 0.125,1.257 0.392,1.257 0.196,0 0.306,-0.365 0.444,-0.631 1.408,-2.72 4.03,-4.542 7.025,-4.542 4.494,0 8.142,4.107 8.142,9.167 0,5.06 -3.648,9.167 -8.142,9.167 -1.461,0 -2.814,-0.463 -4.015,-1.193 -0.659,-0.401 -0.937,0.243 -0.289,0.836 1.917,1.756 3.17,4.418 3.17,7.416 0,5.247 -3.782,9.504 -8.441,9.504"
         style="fill:#050301;fill-opacity:1;fill-rule:nonzero;stroke:none;stroke-width:0.1"
         id="path43270"
         inkscape:connector-curvature="0" />
      <path
         d="m 743.178,558.925 c 4.66,0 8.441,4.258 8.441,9.504 0,2.998 -1.253,5.66 -3.17,7.416 -0.647,0.594 -0.37,1.238 0.289,0.836 1.201,-0.729 2.554,-1.193 4.016,-1.193 4.493,0 8.141,4.107 8.141,9.167 0,5.06 -3.648,9.167 -8.141,9.167 -2.996,0 -5.618,-1.822 -7.026,-4.54 -0.138,-0.265 -0.248,-0.632 -0.444,-0.632 -0.266,0 -0.392,0.437 -0.392,1.257 0,3.286 1.262,7.125 3.128,11.538 -0.805,-0.192 -3.247,-0.678 -4.842,-0.678 -1.594,0 -4.035,0.486 -4.841,0.678 1.866,-4.413 3.128,-8.252 3.128,-11.538 0,-0.82 -0.124,-1.257 -0.392,-1.257 -0.195,0 -0.305,0.367 -0.443,0.632 -1.408,2.718 -4.032,4.54 -7.025,4.54 -4.496,0 -8.143,-4.107 -8.143,-9.167 0,-5.06 3.647,-9.167 8.143,-9.167 1.459,0 2.814,0.464 4.013,1.193 0.661,0.402 0.938,-0.242 0.289,-0.836 -1.919,-1.756 -3.169,-4.418 -3.169,-7.416 0,-5.246 3.782,-9.504 8.44,-9.504"
         style="fill:#050301;fill-opacity:1;fill-rule:nonzero;stroke:none;stroke-width:0.1"
         id="path43272"
         inkscape:connector-curvature="0" />
      <path
         d="m 630.5,750.73 v 2.392 h -2.977 l -0.007,15.567 h -2.235 v -10e-4 l -0.077,10e-4 -8.877,-15.567 v -2.392 h 8.961 l 0.002,-3.739 -1.497,-0.005 0.008,-2.391 5.236,0.018 -0.008,2.392 -1.504,-0.006 -0.002,3.731 z m -11.554,2.392 6.337,11.135 0.004,-11.135 z"
         style="fill:#000000;fill-opacity:1;fill-rule:nonzero;stroke:none;stroke-width:0.1"
         id="path43274"
         inkscape:connector-curvature="0" />
      <path
         d="m 769.398,565.546 v -2.392 h 2.978 l 0.007,-15.567 2.235,10e-4 v 0.001 l 0.077,-0.001 8.876,15.566 v 2.392 h -8.96 l -0.002,3.738 1.496,0.006 -0.007,2.391 -5.237,-0.018 0.008,-2.392 1.505,0.006 10e-4,-3.731 z m 11.554,-2.392 -6.336,-11.135 -0.005,11.135 z"
         style="fill:#000000;fill-opacity:1;fill-rule:nonzero;stroke:none;stroke-width:0.1"
         id="path43276"
         inkscape:connector-curvature="0" />
    </g>
  </g>
</svg>
