<?xml version="1.0" encoding="UTF-8" standalone="no"?>
<!-- Created with Inkscape (http://www.inkscape.org/) -->

<svg
   xmlns:dc="http://purl.org/dc/elements/1.1/"
   xmlns:cc="http://creativecommons.org/ns#"
   xmlns:rdf="http://www.w3.org/1999/02/22-rdf-syntax-ns#"
   xmlns:svg="http://www.w3.org/2000/svg"
   xmlns="http://www.w3.org/2000/svg"
   xmlns:sodipodi="http://sodipodi.sourceforge.net/DTD/sodipodi-0.dtd"
   xmlns:inkscape="http://www.inkscape.org/namespaces/inkscape"
   width="63.353001mm"
   height="88.352997mm"
   viewBox="0 0 63.353001 88.352997"
   version="1.1"
   id="svg22813"
   inkscape:version="0.92.2 2405546, 2018-03-11"
   sodipodi:docname="4d.svg">
  <defs
     id="defs22807" />
  <sodipodi:namedview
     id="base"
     pagecolor="#ffffff"
     bordercolor="#666666"
     borderopacity="1.0"
     inkscape:pageopacity="0.0"
     inkscape:pageshadow="2"
     inkscape:zoom="1.4"
     inkscape:cx="81.334592"
     inkscape:cy="124.23278"
     inkscape:document-units="mm"
     inkscape:current-layer="layer1"
     showgrid="false"
     inkscape:window-width="960"
     inkscape:window-height="992"
     inkscape:window-x="960"
     inkscape:window-y="27"
     inkscape:window-maximized="0" />
  <metadata
     id="metadata22810">
    <rdf:RDF>
      <cc:Work
         rdf:about="">
        <dc:format>image/svg+xml</dc:format>
        <dc:type
           rdf:resource="http://purl.org/dc/dcmitype/StillImage" />
        <dc:title></dc:title>
      </cc:Work>
    </rdf:RDF>
  </metadata>
  <g
     inkscape:label="Layer 1"
     inkscape:groupmode="layer"
     id="layer1"
     transform="translate(0,-208.647)">
    <g
       transform="matrix(0.35277777,0,0,-0.35277777,-215.25018,485.53467)"
       id="g87556">
      <path
         d="m 789.241,549.102 c 0,-7.827 -6.346,-14.173 -14.174,-14.173 H 624.83 c -7.826,0 -14.172,6.346 -14.172,14.173 v 221.103 c 0,7.827 6.346,14.173 14.172,14.173 h 150.237 c 7.828,0 14.174,-6.346 14.174,-14.173 V 549.102"
         style="fill:#f7f7f5;fill-opacity:1;fill-rule:nonzero;stroke:none;stroke-width:0.1"
         id="path74813"
         inkscape:connector-curvature="0" />
      <path
         d="m 789.241,549.102 c 0,-7.827 -6.346,-14.173 -14.174,-14.173 H 624.83 c -7.826,0 -14.172,6.346 -14.172,14.173 v 221.103 c 0,7.827 6.346,14.173 14.172,14.173 h 150.237 c 7.828,0 14.174,-6.346 14.174,-14.173 z"
         style="fill:none;stroke:#231f20;stroke-width:1;stroke-linecap:butt;stroke-linejoin:miter;stroke-miterlimit:4;stroke-dasharray:none;stroke-opacity:1"
         id="path74815"
         inkscape:connector-curvature="0" />
      <path
         d="m 623.425,741.859 c 1.787,-3.471 4.146,-6.309 7.075,-8.513 -2.929,-2.207 -5.288,-5.038 -7.075,-8.495 -1.802,3.457 -4.167,6.288 -7.097,8.495 2.93,2.204 5.295,5.042 7.097,8.513 v 0"
         style="fill:#e52c3f;fill-opacity:1;fill-rule:nonzero;stroke:none;stroke-width:0.1"
         id="path74817"
         inkscape:connector-curvature="0" />
      <path
         d="m 776.495,594.457 c 1.787,-3.469 4.146,-6.307 7.076,-8.513 -2.93,-2.206 -5.289,-5.038 -7.076,-8.495 -1.803,3.457 -4.168,6.289 -7.098,8.495 2.93,2.206 5.295,5.044 7.098,8.513 v 0"
         style="fill:#e52c3f;fill-opacity:1;fill-rule:nonzero;stroke:none;stroke-width:0.1"
         id="path74819"
         inkscape:connector-curvature="0" />
      <path
         d="m 656.746,758.866 c 4.47,-8.675 10.366,-15.769 17.692,-21.283 -7.326,-5.517 -13.222,-12.595 -17.692,-21.236 -4.503,8.641 -10.417,15.719 -17.742,21.236 7.325,5.514 13.239,12.608 17.742,21.283 v 0"
         style="fill:#e52c3f;fill-opacity:1;fill-rule:nonzero;stroke:none;stroke-width:0.1"
         id="path74821"
         inkscape:connector-curvature="0" />
      <path
         d="m 656.746,602.961 c 4.47,-8.675 10.365,-15.768 17.692,-21.282 -7.327,-5.518 -13.222,-12.596 -17.692,-21.238 -4.503,8.642 -10.417,15.72 -17.742,21.238 7.325,5.514 13.239,12.607 17.742,21.282 v 0"
         style="fill:#e52c3f;fill-opacity:1;fill-rule:nonzero;stroke:none;stroke-width:0.1"
         id="path74823"
         inkscape:connector-curvature="0" />
      <path
         d="m 743.202,758.868 c 4.468,-8.675 10.365,-15.77 17.691,-21.284 -7.326,-5.516 -13.223,-12.596 -17.691,-21.237 -4.502,8.641 -10.416,15.721 -17.74,21.237 7.324,5.514 13.238,12.609 17.74,21.284 v 0"
         style="fill:#e52c3f;fill-opacity:1;fill-rule:nonzero;stroke:none;stroke-width:0.1"
         id="path74825"
         inkscape:connector-curvature="0" />
      <path
         d="m 743.202,602.961 c 4.468,-8.675 10.363,-15.77 17.691,-21.282 -7.328,-5.517 -13.223,-12.596 -17.691,-21.238 -4.502,8.642 -10.416,15.721 -17.743,21.238 7.327,5.512 13.241,12.607 17.743,21.282 v 0"
         style="fill:#e52c3f;fill-opacity:1;fill-rule:nonzero;stroke:none;stroke-width:0.1"
         id="path74827"
         inkscape:connector-curvature="0" />
      <path
         d="m 630.5,752.247 v 2.392 h -2.978 l -0.006,15.566 -2.236,-0.001 v 0 h -0.076 l -8.877,-15.565 v -2.392 h 8.961 l 10e-4,-3.74 -1.496,-0.005 0.007,-2.391 5.237,0.018 -0.008,2.392 -1.505,-0.005 -10e-4,3.731 z m -11.554,2.392 6.336,11.134 0.005,-11.134 z"
         style="fill:#e52c3f;fill-opacity:1;fill-rule:nonzero;stroke:none;stroke-width:0.1"
         id="path74829"
         inkscape:connector-curvature="0" />
      <path
         d="m 769.397,567.062 v -2.393 h 2.978 l 0.006,-15.567 2.237,0.002 v 10e-4 l 0.076,-10e-4 8.877,15.565 v 2.393 h -8.961 l -0.002,3.739 1.496,0.005 -0.006,2.391 -5.236,-0.018 0.008,-2.392 1.503,0.005 0.002,-3.73 z m 11.555,-2.393 -6.336,-11.134 -0.004,11.134 z"
         style="fill:#e52c3f;fill-opacity:1;fill-rule:nonzero;stroke:none;stroke-width:0.1"
         id="path74831"
         inkscape:connector-curvature="0" />
    </g>
  </g>
</svg>
