<?xml version="1.0" encoding="UTF-8" standalone="no"?>
<!-- Created with Inkscape (http://www.inkscape.org/) -->

<svg
   xmlns:dc="http://purl.org/dc/elements/1.1/"
   xmlns:cc="http://creativecommons.org/ns#"
   xmlns:rdf="http://www.w3.org/1999/02/22-rdf-syntax-ns#"
   xmlns:svg="http://www.w3.org/2000/svg"
   xmlns="http://www.w3.org/2000/svg"
   xmlns:sodipodi="http://sodipodi.sourceforge.net/DTD/sodipodi-0.dtd"
   xmlns:inkscape="http://www.inkscape.org/namespaces/inkscape"
   width="63.353001mm"
   height="88.352997mm"
   viewBox="0 0 63.353001 88.352997"
   version="1.1"
   id="svg22813"
   inkscape:version="0.92.2 2405546, 2018-03-11"
   sodipodi:docname="4h.svg">
  <defs
     id="defs22807" />
  <sodipodi:namedview
     id="base"
     pagecolor="#ffffff"
     bordercolor="#666666"
     borderopacity="1.0"
     inkscape:pageopacity="0.0"
     inkscape:pageshadow="2"
     inkscape:zoom="1.4"
     inkscape:cx="79.906021"
     inkscape:cy="124.23278"
     inkscape:document-units="mm"
     inkscape:current-layer="layer1"
     showgrid="false"
     inkscape:window-width="1920"
     inkscape:window-height="992"
     inkscape:window-x="0"
     inkscape:window-y="27"
     inkscape:window-maximized="1" />
  <metadata
     id="metadata22810">
    <rdf:RDF>
      <cc:Work
         rdf:about="">
        <dc:format>image/svg+xml</dc:format>
        <dc:type
           rdf:resource="http://purl.org/dc/dcmitype/StillImage" />
        <dc:title></dc:title>
      </cc:Work>
    </rdf:RDF>
  </metadata>
  <g
     inkscape:label="Layer 1"
     inkscape:groupmode="layer"
     id="layer1"
     transform="translate(0,-208.647)">
    <g
       transform="matrix(0.35277777,0,0,-0.35277777,-215.25018,485.16601)"
       id="g43621">
      <path
         d="m 789.241,548.058 c 0,-7.828 -6.346,-14.174 -14.174,-14.174 H 624.83 c -7.826,0 -14.172,6.346 -14.172,14.174 V 769.16 c 0,7.828 6.346,14.173 14.172,14.173 h 150.237 c 7.828,0 14.174,-6.345 14.174,-14.173 V 548.058"
         style="fill:#f7f7f5;fill-opacity:1;fill-rule:nonzero;stroke:none;stroke-width:0.1"
         id="path31172"
         inkscape:connector-curvature="0" />
      <path
         d="m 789.241,548.058 c 0,-7.828 -6.346,-14.174 -14.174,-14.174 H 624.83 c -7.826,0 -14.172,6.346 -14.172,14.174 V 769.16 c 0,7.828 6.346,14.173 14.172,14.173 h 150.237 c 7.828,0 14.174,-6.345 14.174,-14.173 z"
         style="fill:none;stroke:#231f20;stroke-width:1;stroke-linecap:butt;stroke-linejoin:miter;stroke-miterlimit:4;stroke-dasharray:none;stroke-opacity:1"
         id="path31174"
         inkscape:connector-curvature="0" />
      <path
         d="m 627.387,740.714 c -1.246,0.388 -3.185,-0.294 -3.898,-3.122 -0.059,-0.154 -0.121,-0.151 -0.178,0.006 -1.027,2.865 -2.72,3.49 -3.912,3.116 -1.766,-0.568 -3.194,-2.672 -3.065,-5.357 0.037,-4.683 4.229,-7.043 7.059,-11.522 2.83,4.479 7.069,6.832 7.082,11.536 0.244,2.712 -1.274,4.784 -3.088,5.343"
         style="fill:#e52c3f;fill-opacity:1;fill-rule:nonzero;stroke:none;stroke-width:0.1"
         id="path31176"
         inkscape:connector-curvature="0" />
      <path
         d="m 623.413,723.806 c -0.006,0.01 -0.014,0.019 -0.02,0.029 -0.006,-0.01 -0.014,-0.019 -0.02,-0.029 h 0.04"
         style="fill:#e52c3f;fill-opacity:1;fill-rule:nonzero;stroke:none;stroke-width:0.1"
         id="path31178"
         inkscape:connector-curvature="0" />
      <path
         d="m 776.506,593.382 c -2.831,-4.478 -7.07,-6.833 -7.081,-11.536 -0.246,-2.712 1.273,-4.784 3.085,-5.343 1.248,-0.387 3.188,0.295 3.901,3.123 0.058,0.154 0.121,0.151 0.176,-0.006 1.029,-2.865 2.722,-3.491 3.913,-3.117 1.764,0.568 3.194,2.673 3.063,5.356 -0.035,4.684 -4.226,7.045 -7.057,11.523"
         style="fill:#e52c3f;fill-opacity:1;fill-rule:nonzero;stroke:none;stroke-width:0.1"
         id="path31180"
         inkscape:connector-curvature="0" />
      <path
         d="m 776.487,593.411 c 0.006,-0.01 0.013,-0.019 0.019,-0.029 0.006,0.01 0.014,0.019 0.02,0.029 h -0.039"
         style="fill:#e52c3f;fill-opacity:1;fill-rule:nonzero;stroke:none;stroke-width:0.1"
         id="path31182"
         inkscape:connector-curvature="0" />
      <path
         d="m 666.655,757.572 c -3.117,0.969 -7.964,-0.735 -9.745,-7.804 -0.148,-0.387 -0.304,-0.379 -0.446,0.013 -2.569,7.162 -6.803,8.727 -9.782,7.791 -4.41,-1.422 -7.984,-6.681 -7.656,-13.39 0.088,-11.711 10.568,-17.609 17.642,-28.808 7.077,11.199 17.674,17.079 17.703,28.842 0.614,6.779 -3.181,11.961 -7.716,13.356"
         style="fill:#e52c3f;fill-opacity:1;fill-rule:nonzero;stroke:none;stroke-width:0.1"
         id="path31184"
         inkscape:connector-curvature="0" />
      <path
         d="m 656.716,715.302 c -0.016,0.024 -0.032,0.048 -0.048,0.072 -0.015,-0.024 -0.031,-0.048 -0.047,-0.072 h 0.095"
         style="fill:#e52c3f;fill-opacity:1;fill-rule:nonzero;stroke:none;stroke-width:0.1"
         id="path31186"
         inkscape:connector-curvature="0" />
      <path
         d="m 674.416,573.035 c -0.087,11.711 -10.568,17.609 -17.643,28.807 -7.076,-11.198 -17.675,-17.078 -17.704,-28.84 -0.614,-6.78 3.183,-11.962 7.717,-13.357 3.117,-0.968 7.964,0.735 9.746,7.805 0.148,0.387 0.305,0.379 0.445,-0.013 2.57,-7.164 6.804,-8.728 9.782,-7.792 4.411,1.423 7.984,6.68 7.657,13.39"
         style="fill:#e52c3f;fill-opacity:1;fill-rule:nonzero;stroke:none;stroke-width:0.1"
         id="path31188"
         inkscape:connector-curvature="0" />
      <path
         d="m 656.725,601.916 c 0.016,-0.025 0.032,-0.049 0.048,-0.074 0.016,0.025 0.032,0.049 0.048,0.074 h -0.096"
         style="fill:#e52c3f;fill-opacity:1;fill-rule:nonzero;stroke:none;stroke-width:0.1"
         id="path31190"
         inkscape:connector-curvature="0" />
      <path
         d="m 743.172,718.137 c -0.015,0.025 -0.032,0.049 -0.047,0.074 -0.016,-0.025 -0.033,-0.049 -0.048,-0.074 h 0.095"
         style="fill:#e52c3f;fill-opacity:1;fill-rule:nonzero;stroke:none;stroke-width:0.1"
         id="path31192"
         inkscape:connector-curvature="0" />
      <path
         d="m 753.112,760.407 c -3.117,0.968 -7.965,-0.735 -9.746,-7.804 -0.149,-0.388 -0.305,-0.379 -0.446,0.013 -2.57,7.163 -6.804,8.727 -9.783,7.791 -4.41,-1.423 -7.984,-6.681 -7.656,-13.39 0.088,-11.712 10.569,-17.609 17.644,-28.806 7.076,11.197 17.675,17.078 17.704,28.84 0.613,6.779 -3.184,11.961 -7.717,13.356"
         style="fill:#e52c3f;fill-opacity:1;fill-rule:nonzero;stroke:none;stroke-width:0.1"
         id="path31194"
         inkscape:connector-curvature="0" />
      <path
         d="m 760.873,573.034 c -0.087,11.712 -10.568,17.61 -17.643,28.808 -7.076,-11.198 -17.675,-17.078 -17.704,-28.84 -0.613,-6.78 3.183,-11.962 7.717,-13.357 3.117,-0.968 7.965,0.735 9.746,7.805 0.148,0.387 0.304,0.379 0.445,-0.013 2.57,-7.164 6.805,-8.729 9.783,-7.792 4.41,1.423 7.983,6.68 7.656,13.389"
         style="fill:#e52c3f;fill-opacity:1;fill-rule:nonzero;stroke:none;stroke-width:0.1"
         id="path31196"
         inkscape:connector-curvature="0" />
      <path
         d="m 743.182,601.916 c 0.016,-0.025 0.032,-0.049 0.048,-0.074 0.016,0.025 0.032,0.049 0.048,0.074 h -0.096"
         style="fill:#e52c3f;fill-opacity:1;fill-rule:nonzero;stroke:none;stroke-width:0.1"
         id="path31198"
         inkscape:connector-curvature="0" />
      <path
         d="m 630.5,751.202 v 2.392 h -2.978 l -0.006,15.566 -2.236,-10e-4 v 0 h -0.076 l -8.877,-15.565 v -2.392 h 8.961 l 10e-4,-3.74 -1.496,-0.005 0.007,-2.391 5.237,0.018 -0.008,2.392 -1.505,-0.005 -10e-4,3.731 z m -11.554,2.392 6.336,11.134 0.005,-11.134 z"
         style="fill:#e52c3f;fill-opacity:1;fill-rule:nonzero;stroke:none;stroke-width:0.1"
         id="path31200"
         inkscape:connector-curvature="0" />
      <path
         d="m 769.397,566.017 v -2.393 h 2.978 l 0.006,-15.566 2.237,10e-4 v 10e-4 l 0.076,-10e-4 8.877,15.565 v 2.393 h -8.961 l -0.002,3.739 1.496,0.005 -0.006,2.391 -5.236,-0.018 0.008,-2.392 1.503,0.005 0.002,-3.73 z m 11.555,-2.393 -6.336,-11.134 -0.004,11.134 z"
         style="fill:#e52c3f;fill-opacity:1;fill-rule:nonzero;stroke:none;stroke-width:0.1"
         id="path31202"
         inkscape:connector-curvature="0" />
    </g>
  </g>
</svg>
