<?xml version="1.0" encoding="UTF-8" standalone="no"?>
<!-- Created with Inkscape (http://www.inkscape.org/) -->

<svg
   xmlns:dc="http://purl.org/dc/elements/1.1/"
   xmlns:cc="http://creativecommons.org/ns#"
   xmlns:rdf="http://www.w3.org/1999/02/22-rdf-syntax-ns#"
   xmlns:svg="http://www.w3.org/2000/svg"
   xmlns="http://www.w3.org/2000/svg"
   xmlns:sodipodi="http://sodipodi.sourceforge.net/DTD/sodipodi-0.dtd"
   xmlns:inkscape="http://www.inkscape.org/namespaces/inkscape"
   width="63.353001mm"
   height="88.352997mm"
   viewBox="0 0 63.353001 88.352997"
   version="1.1"
   id="svg22813"
   inkscape:version="0.92.2 2405546, 2018-03-11"
   sodipodi:docname="4s.svg">
  <defs
     id="defs22807" />
  <sodipodi:namedview
     id="base"
     pagecolor="#ffffff"
     bordercolor="#666666"
     borderopacity="1.0"
     inkscape:pageopacity="0.0"
     inkscape:pageshadow="2"
     inkscape:zoom="1.4"
     inkscape:cx="113.47745"
     inkscape:cy="67.089921"
     inkscape:document-units="mm"
     inkscape:current-layer="layer1"
     showgrid="false"
     inkscape:window-width="1920"
     inkscape:window-height="992"
     inkscape:window-x="0"
     inkscape:window-y="27"
     inkscape:window-maximized="1" />
  <metadata
     id="metadata22810">
    <rdf:RDF>
      <cc:Work
         rdf:about="">
        <dc:format>image/svg+xml</dc:format>
        <dc:type
           rdf:resource="http://purl.org/dc/dcmitype/StillImage" />
        <dc:title></dc:title>
      </cc:Work>
    </rdf:RDF>
  </metadata>
  <g
     inkscape:label="Layer 1"
     inkscape:groupmode="layer"
     id="layer1"
     transform="translate(0,-208.647)">
    <g
       transform="matrix(0.35277777,0,0,-0.35277777,-215.25018,484.99986)"
       id="g23023">
      <path
         inkscape:connector-curvature="0"
         id="path4089"
         style="fill:#f7f7f5;fill-opacity:1;fill-rule:nonzero;stroke:none;stroke-width:0.1"
         d="m 789.242,547.586 c 0,-7.827 -6.346,-14.173 -14.174,-14.173 H 624.832 c -7.828,0 -14.174,6.346 -14.174,14.173 v 221.103 c 0,7.828 6.346,14.174 14.174,14.174 h 150.236 c 7.828,0 14.174,-6.346 14.174,-14.174 V 547.586" />
      <path
         inkscape:connector-curvature="0"
         id="path4091"
         style="fill:none;stroke:#231f20;stroke-width:1;stroke-linecap:butt;stroke-linejoin:miter;stroke-miterlimit:4;stroke-dasharray:none;stroke-opacity:1"
         d="m 789.242,547.586 c 0,-7.827 -6.346,-14.173 -14.174,-14.173 H 624.832 c -7.828,0 -14.174,6.346 -14.174,14.173 v 221.103 c 0,7.828 6.346,14.174 14.174,14.174 h 150.236 c 7.828,0 14.174,-6.346 14.174,-14.174 z" />
      <path
         inkscape:connector-curvature="0"
         id="path4093"
         style="fill:#000000;fill-opacity:1;fill-rule:evenodd;stroke:none;stroke-width:0.1"
         d="m 624.731,727.2 c -0.427,0.669 -0.536,1.7 -0.606,1.224 -0.248,-1.817 0.509,-3.563 0.918,-5.09 -0.922,0.337 -2.325,0.337 -3.248,0 0.448,1.552 1.157,3.172 0.988,5.09 -0.076,0.433 -0.187,-0.524 -0.635,-1.206 -0.573,-0.871 -1.602,-1.25 -2.619,-1.223 -1.478,0.04 -2.964,0.954 -3.173,2.563 -0.049,0.371 -0.026,0.835 0,1.205 0.331,4.685 3.995,8.8 7.064,10.579 0.056,-0.012 0.07,-0.067 0.141,-0.067 3.027,-1.94 6.56,-5.726 6.922,-10.445 0.173,-2.245 -0.945,-3.871 -3.108,-3.884 -1.181,-0.007 -2.13,0.45 -2.644,1.254" />
      <path
         inkscape:connector-curvature="0"
         id="path4095"
         style="fill:#000000;fill-opacity:1;fill-rule:evenodd;stroke:none;stroke-width:0.1"
         d="m 775.17,589.074 c 0.425,-0.668 0.535,-1.699 0.603,-1.22 0.248,1.816 -0.508,3.562 -0.918,5.087 0.924,-0.337 2.326,-0.337 3.248,0 -0.449,-1.551 -1.156,-3.171 -0.988,-5.087 0.076,-0.436 0.187,0.521 0.635,1.203 0.574,0.872 1.603,1.252 2.621,1.223 1.476,-0.04 2.963,-0.954 3.172,-2.561 0.048,-0.372 0.025,-0.836 0,-1.206 -0.332,-4.687 -3.995,-8.8 -7.065,-10.579 -0.057,0.013 -0.07,0.067 -0.14,0.066 -3.026,1.941 -6.561,5.727 -6.922,10.445 -0.172,2.244 0.945,3.871 3.109,3.883 1.18,0.01 2.129,-0.449 2.645,-1.254" />
      <path
         inkscape:connector-curvature="0"
         id="path4097"
         style="fill:#000000;fill-opacity:1;fill-rule:nonzero;stroke:none;stroke-width:0.1"
         d="m 783.558,563.765 0.014,-0.611 -8.877,-15.566 -0.234,0.002 -1.467,1.576 8.951,15.734 1.613,-1.135" />
      <path
         inkscape:connector-curvature="0"
         id="path4099"
         style="fill:#000000;fill-opacity:1;fill-rule:nonzero;stroke:none;stroke-width:0.1"
         d="m 774.619,547.588 -2.235,-0.002 -0.011,24.041 2.236,0.002 0.01,-24.041 v 0" />
      <path
         inkscape:connector-curvature="0"
         id="path4101"
         style="fill:#000000;fill-opacity:1;fill-rule:nonzero;stroke:none;stroke-width:0.1"
         d="m 776.107,569.29 -5.238,-0.019 -0.006,2.392 5.234,0.019 0.01,-2.392 v 0" />
      <path
         inkscape:connector-curvature="0"
         id="path4103"
         style="fill:#000000;fill-opacity:1;fill-rule:nonzero;stroke:none;stroke-width:0.1"
         d="m 783.572,565.545 v -2.391 h -14.174 v 2.391 h 14.174 v 0" />
      <path
         inkscape:connector-curvature="0"
         id="path4105"
         style="fill:#231f20;fill-opacity:1;fill-rule:evenodd;stroke:none;stroke-width:0.1"
         d="m 656.698,757.35 c -0.103,-0.068 -0.175,-0.104 -0.293,-0.181 -7.596,-4.849 -16.456,-14.31 -17.364,-26.105 -0.433,-5.609 3.155,-9.494 7.793,-9.578 2.961,-0.054 5.341,0.998 6.632,3.007 1.072,1.671 1.345,4.247 1.519,3.058 0.625,-4.542 -1.276,-8.907 -2.306,-12.721 1.148,0.417 2.589,0.627 4.034,0.632 h 0.024 c 1.442,-0.005 2.881,-0.215 4.026,-0.632 -1.027,3.814 -2.925,8.179 -2.301,12.721 0.172,1.189 0.446,-1.387 1.516,-3.058 1.288,-2.009 3.67,-3.061 6.63,-3.007 4.638,0.084 8.226,3.969 7.794,9.578 -0.908,11.795 -9.77,21.256 -17.357,26.105 -0.083,0.063 -0.156,0.1 -0.275,0.181 h -0.072" />
      <path
         inkscape:connector-curvature="0"
         id="path4107"
         style="fill:none;stroke:#231f20;stroke-width:0.16254601;stroke-linecap:butt;stroke-linejoin:round;stroke-miterlimit:4;stroke-dasharray:none;stroke-opacity:1"
         d="m 656.698,757.35 c -0.103,-0.068 -0.175,-0.104 -0.293,-0.181 -7.596,-4.849 -16.456,-14.31 -17.364,-26.105 -0.433,-5.609 3.155,-9.494 7.793,-9.578 2.961,-0.054 5.341,0.998 6.632,3.007 1.072,1.671 1.345,4.247 1.519,3.058 0.625,-4.542 -1.276,-8.907 -2.306,-12.721 1.148,0.417 2.589,0.627 4.034,0.632 h 0.024 c 1.442,-0.005 2.881,-0.215 4.026,-0.632 -1.027,3.814 -2.925,8.179 -2.301,12.721 0.172,1.189 0.446,-1.387 1.516,-3.058 1.288,-2.009 3.67,-3.061 6.63,-3.007 4.638,0.084 8.226,3.969 7.794,9.578 -0.908,11.795 -9.77,21.256 -17.357,26.105 -0.083,0.063 -0.156,0.1 -0.275,0.181 z" />
      <path
         inkscape:connector-curvature="0"
         id="path4109"
         style="fill:#231f20;fill-opacity:1;fill-rule:evenodd;stroke:none;stroke-width:0.1"
         d="m 743.154,757.35 c -0.102,-0.068 -0.174,-0.104 -0.293,-0.181 -7.596,-4.849 -16.455,-14.31 -17.363,-26.105 -0.434,-5.609 3.154,-9.494 7.793,-9.578 2.961,-0.054 5.341,0.998 6.63,3.007 1.073,1.671 1.346,4.247 1.52,3.058 0.625,-4.542 -1.275,-8.907 -2.305,-12.721 1.147,0.417 2.588,0.627 4.034,0.632 h 0.023 c 1.443,-0.005 2.881,-0.215 4.027,-0.632 -1.027,3.814 -2.925,8.179 -2.302,12.721 0.173,1.189 0.447,-1.387 1.517,-3.058 1.287,-2.009 3.67,-3.061 6.629,-3.007 4.639,0.084 8.227,3.969 7.795,9.578 -0.908,11.795 -9.77,21.256 -17.357,26.105 -0.084,0.063 -0.157,0.1 -0.276,0.181 h -0.072" />
      <path
         inkscape:connector-curvature="0"
         id="path4111"
         style="fill:none;stroke:#231f20;stroke-width:0.16254601;stroke-linecap:butt;stroke-linejoin:round;stroke-miterlimit:4;stroke-dasharray:none;stroke-opacity:1"
         d="m 743.154,757.35 c -0.102,-0.068 -0.174,-0.104 -0.293,-0.181 -7.596,-4.849 -16.455,-14.31 -17.363,-26.105 -0.434,-5.609 3.154,-9.494 7.793,-9.578 2.961,-0.054 5.341,0.998 6.63,3.007 1.073,1.671 1.346,4.247 1.52,3.058 0.625,-4.542 -1.275,-8.907 -2.305,-12.721 1.147,0.417 2.588,0.627 4.034,0.632 h 0.023 c 1.443,-0.005 2.881,-0.215 4.027,-0.632 -1.027,3.814 -2.925,8.179 -2.302,12.721 0.173,1.189 0.447,-1.387 1.517,-3.058 1.287,-2.009 3.67,-3.061 6.629,-3.007 4.639,0.084 8.227,3.969 7.795,9.578 -0.908,11.795 -9.77,21.256 -17.357,26.105 -0.084,0.063 -0.157,0.1 -0.276,0.181 z" />
      <path
         inkscape:connector-curvature="0"
         id="path4113"
         style="fill:#231f20;fill-opacity:1;fill-rule:evenodd;stroke:none;stroke-width:0.1"
         d="m 656.697,558.925 c -0.102,0.067 -0.174,0.104 -0.293,0.18 -7.595,4.85 -16.456,14.311 -17.365,26.105 -0.431,5.61 3.156,9.494 7.795,9.579 2.961,0.054 5.341,-0.998 6.632,-3.008 1.072,-1.67 1.345,-4.247 1.519,-3.056 0.625,4.541 -1.277,8.906 -2.306,12.72 1.147,-0.418 2.589,-0.627 4.034,-0.632 h 0.023 c 1.443,0.005 2.882,0.214 4.027,0.632 -1.027,-3.814 -2.925,-8.179 -2.302,-12.72 0.173,-1.191 0.446,1.386 1.516,3.056 1.289,2.01 3.671,3.062 6.631,3.008 4.638,-0.085 8.226,-3.969 7.794,-9.579 -0.908,-11.794 -9.77,-21.255 -17.359,-26.105 -0.081,-0.061 -0.155,-0.099 -0.274,-0.18 h -0.072" />
      <path
         inkscape:connector-curvature="0"
         id="path4115"
         style="fill:none;stroke:#231f20;stroke-width:0.16254601;stroke-linecap:butt;stroke-linejoin:round;stroke-miterlimit:4;stroke-dasharray:none;stroke-opacity:1"
         d="m 656.697,558.925 c -0.102,0.067 -0.174,0.104 -0.293,0.18 -7.595,4.85 -16.456,14.311 -17.365,26.105 -0.431,5.61 3.156,9.494 7.795,9.579 2.961,0.054 5.341,-0.998 6.632,-3.008 1.072,-1.67 1.345,-4.247 1.519,-3.056 0.625,4.541 -1.277,8.906 -2.306,12.72 1.147,-0.418 2.589,-0.627 4.034,-0.632 h 0.023 c 1.443,0.005 2.882,0.214 4.027,0.632 -1.027,-3.814 -2.925,-8.179 -2.302,-12.72 0.173,-1.191 0.446,1.386 1.516,3.056 1.289,2.01 3.671,3.062 6.631,3.008 4.638,-0.085 8.226,-3.969 7.794,-9.579 -0.908,-11.794 -9.77,-21.255 -17.359,-26.105 -0.081,-0.061 -0.155,-0.099 -0.274,-0.18 z" />
      <path
         inkscape:connector-curvature="0"
         id="path4117"
         style="fill:#231f20;fill-opacity:1;fill-rule:evenodd;stroke:none;stroke-width:0.1"
         d="m 743.154,558.925 c -0.102,0.067 -0.174,0.104 -0.293,0.18 -7.596,4.85 -16.455,14.311 -17.363,26.105 -0.434,5.61 3.154,9.494 7.793,9.579 2.961,0.054 5.341,-0.998 6.63,-3.008 1.073,-1.67 1.346,-4.247 1.52,-3.056 0.625,4.541 -1.275,8.906 -2.305,12.72 1.147,-0.418 2.588,-0.627 4.034,-0.632 h 0.023 c 1.443,0.005 2.881,0.214 4.027,0.632 -1.027,-3.814 -2.925,-8.179 -2.302,-12.72 0.173,-1.191 0.447,1.386 1.517,3.056 1.287,2.01 3.67,3.062 6.629,3.008 4.639,-0.085 8.227,-3.969 7.795,-9.579 -0.908,-11.794 -9.77,-21.255 -17.357,-26.105 -0.084,-0.061 -0.157,-0.099 -0.276,-0.18 h -0.072" />
      <path
         inkscape:connector-curvature="0"
         id="path4119"
         style="fill:none;stroke:#231f20;stroke-width:0.16254601;stroke-linecap:butt;stroke-linejoin:round;stroke-miterlimit:4;stroke-dasharray:none;stroke-opacity:1"
         d="m 743.154,558.925 c -0.102,0.067 -0.174,0.104 -0.293,0.18 -7.596,4.85 -16.455,14.311 -17.363,26.105 -0.434,5.61 3.154,9.494 7.793,9.579 2.961,0.054 5.341,-0.998 6.63,-3.008 1.073,-1.67 1.346,-4.247 1.52,-3.056 0.625,4.541 -1.275,8.906 -2.305,12.72 1.147,-0.418 2.588,-0.627 4.034,-0.632 h 0.023 c 1.443,0.005 2.881,0.214 4.027,0.632 -1.027,-3.814 -2.925,-8.179 -2.302,-12.72 0.173,-1.191 0.447,1.386 1.517,3.056 1.287,2.01 3.67,3.062 6.629,3.008 4.639,-0.085 8.227,-3.969 7.795,-9.579 -0.908,-11.794 -9.77,-21.255 -17.357,-26.105 -0.084,-0.061 -0.157,-0.099 -0.276,-0.18 z" />
      <path
         inkscape:connector-curvature="0"
         id="path4121"
         style="fill:#000000;fill-opacity:1;fill-rule:nonzero;stroke:none;stroke-width:0.1"
         d="m 616.341,752.511 -0.013,0.61 8.876,15.567 0.234,-0.002 1.468,-1.577 -8.952,-15.733 -1.613,1.135" />
      <path
         inkscape:connector-curvature="0"
         id="path4123"
         style="fill:#000000;fill-opacity:1;fill-rule:nonzero;stroke:none;stroke-width:0.1"
         d="m 625.281,768.688 2.234,10e-4 0.011,-24.041 -2.235,-0.002 -0.01,24.042 v 0" />
      <path
         inkscape:connector-curvature="0"
         id="path4125"
         style="fill:#000000;fill-opacity:1;fill-rule:nonzero;stroke:none;stroke-width:0.1"
         d="m 623.793,746.986 5.237,0.018 0.007,-2.391 -5.236,-0.019 -0.008,2.392 v 0" />
      <path
         inkscape:connector-curvature="0"
         id="path4127"
         style="fill:#000000;fill-opacity:1;fill-rule:nonzero;stroke:none;stroke-width:0.1"
         d="m 616.328,750.73 v 2.391 H 630.5 v -2.391 h -14.172 v 0" />
    </g>
  </g>
</svg>
