<?xml version="1.0" encoding="UTF-8" standalone="no"?>
<!-- Created with Inkscape (http://www.inkscape.org/) -->

<svg
   xmlns:dc="http://purl.org/dc/elements/1.1/"
   xmlns:cc="http://creativecommons.org/ns#"
   xmlns:rdf="http://www.w3.org/1999/02/22-rdf-syntax-ns#"
   xmlns:svg="http://www.w3.org/2000/svg"
   xmlns="http://www.w3.org/2000/svg"
   xmlns:sodipodi="http://sodipodi.sourceforge.net/DTD/sodipodi-0.dtd"
   xmlns:inkscape="http://www.inkscape.org/namespaces/inkscape"
   width="63.353001mm"
   height="88.352997mm"
   viewBox="0 0 63.353001 88.352997"
   version="1.1"
   id="svg22813"
   inkscape:version="0.92.2 2405546, 2018-03-11"
   sodipodi:docname="5c.svg">
  <defs
     id="defs22807" />
  <sodipodi:namedview
     id="base"
     pagecolor="#ffffff"
     bordercolor="#666666"
     borderopacity="1.0"
     inkscape:pageopacity="0.0"
     inkscape:pageshadow="2"
     inkscape:zoom="1.4"
     inkscape:cx="79.906021"
     inkscape:cy="124.23278"
     inkscape:document-units="mm"
     inkscape:current-layer="layer1"
     showgrid="false"
     inkscape:window-width="1920"
     inkscape:window-height="992"
     inkscape:window-x="0"
     inkscape:window-y="27"
     inkscape:window-maximized="1" />
  <metadata
     id="metadata22810">
    <rdf:RDF>
      <cc:Work
         rdf:about="">
        <dc:format>image/svg+xml</dc:format>
        <dc:type
           rdf:resource="http://purl.org/dc/dcmitype/StillImage" />
        <dc:title></dc:title>
      </cc:Work>
    </rdf:RDF>
  </metadata>
  <g
     inkscape:label="Layer 1"
     inkscape:groupmode="layer"
     id="layer1"
     transform="translate(0,-208.647)">
    <g
       transform="matrix(0.35277777,0,0,-0.35277777,-287.00024,484.99986)"
       id="g64084">
      <path
         d="m 992.626,547.587 c 0,-7.828 -6.345,-14.174 -14.173,-14.174 H 828.218 c -7.828,0 -14.174,6.346 -14.174,14.174 v 221.102 c 0,7.828 6.346,14.174 14.174,14.174 h 150.235 c 7.828,0 14.173,-6.346 14.173,-14.174 V 547.587"
         style="fill:#f7f7f5;fill-opacity:1;fill-rule:nonzero;stroke:none;stroke-width:0.1"
         id="path43308"
         inkscape:connector-curvature="0" />
      <path
         d="m 992.626,547.587 c 0,-7.828 -6.345,-14.174 -14.173,-14.174 H 828.218 c -7.828,0 -14.174,6.346 -14.174,14.174 v 221.102 c 0,7.828 6.346,14.174 14.174,14.174 h 150.235 c 7.828,0 14.173,-6.346 14.173,-14.174 z"
         style="fill:none;stroke:#231f20;stroke-width:1;stroke-linecap:butt;stroke-linejoin:miter;stroke-miterlimit:4;stroke-dasharray:none;stroke-opacity:1"
         id="path43310"
         inkscape:connector-curvature="0" />
      <path
         d="m 826.8,740.343 c -1.864,0 -3.377,-1.703 -3.377,-3.802 0,-1.2 0.501,-2.264 1.27,-2.966 0.258,-0.238 0.147,-0.496 -0.117,-0.335 -0.479,0.291 -1.021,0.478 -1.606,0.478 -1.797,0 -3.256,-1.643 -3.256,-3.668 0,-2.023 1.459,-3.666 3.256,-3.666 1.198,0 2.248,0.729 2.81,1.816 0.056,0.107 0.1,0.252 0.178,0.252 0.108,0 0.156,-0.175 0.156,-0.502 0,-1.314 -0.503,-2.85 -1.251,-4.615 0.323,0.076 1.299,0.27 1.937,0.27 0.639,0 1.614,-0.194 1.936,-0.27 -0.745,1.765 -1.25,3.301 -1.25,4.615 0,0.327 0.049,0.502 0.157,0.502 0.077,0 0.122,-0.145 0.177,-0.252 0.563,-1.087 1.612,-1.816 2.81,-1.816 1.798,0 3.257,1.643 3.257,3.666 0,2.025 -1.459,3.668 -3.257,3.668 -0.584,0 -1.126,-0.187 -1.607,-0.478 -0.262,-0.161 -0.374,0.097 -0.115,0.335 0.768,0.702 1.269,1.766 1.269,2.966 0,2.099 -1.514,3.802 -3.377,3.802"
         style="fill:#050301;fill-opacity:1;fill-rule:nonzero;stroke:none;stroke-width:0.1"
         id="path43312"
         inkscape:connector-curvature="0" />
      <path
         d="m 979.871,575.933 c 1.863,0 3.376,1.704 3.376,3.801 0,1.201 -0.501,2.265 -1.267,2.968 -0.26,0.237 -0.148,0.494 0.115,0.334 0.479,-0.293 1.021,-0.477 1.605,-0.477 1.798,0 3.258,1.643 3.258,3.667 0,2.023 -1.46,3.666 -3.258,3.666 -1.198,0 -2.246,-0.729 -2.809,-1.817 -0.056,-0.106 -0.1,-0.252 -0.178,-0.252 -0.106,0 -0.156,0.175 -0.156,0.502 0,1.315 0.504,2.851 1.25,4.616 -0.321,-0.077 -1.298,-0.272 -1.936,-0.272 -0.637,0 -1.613,0.195 -1.937,0.272 0.746,-1.765 1.252,-3.301 1.252,-4.616 0,-0.327 -0.051,-0.502 -0.158,-0.502 -0.078,0 -0.123,0.146 -0.176,0.252 -0.564,1.088 -1.613,1.817 -2.811,1.817 -1.797,0 -3.257,-1.643 -3.257,-3.666 0,-2.024 1.46,-3.667 3.257,-3.667 0.584,0 1.126,0.184 1.605,0.477 0.265,0.16 0.375,-0.097 0.118,-0.334 -0.769,-0.703 -1.269,-1.767 -1.269,-2.968 0,-2.097 1.513,-3.801 3.376,-3.801"
         style="fill:#050301;fill-opacity:1;fill-rule:nonzero;stroke:none;stroke-width:0.1"
         id="path43314"
         inkscape:connector-curvature="0" />
      <path
         d="m 860.109,757.351 c -4.661,0 -8.442,-4.258 -8.442,-9.504 0,-2.999 1.252,-5.66 3.17,-7.416 0.647,-0.594 0.371,-1.238 -0.289,-0.836 -1.2,0.728 -2.554,1.192 -4.016,1.192 -4.494,0 -8.141,-4.106 -8.141,-9.167 0,-5.06 3.647,-9.168 8.141,-9.168 2.996,0 5.617,1.823 7.025,4.542 0.139,0.266 0.25,0.631 0.446,0.631 0.266,0 0.391,-0.437 0.391,-1.256 0,-3.287 -1.262,-7.126 -3.127,-11.538 0.805,0.192 3.247,0.678 4.842,0.678 1.593,0 4.035,-0.486 4.84,-0.678 -1.866,4.412 -3.128,8.251 -3.128,11.538 0,0.819 0.125,1.256 0.393,1.256 0.194,0 0.305,-0.365 0.442,-0.631 1.408,-2.719 4.032,-4.542 7.026,-4.542 4.495,0 8.142,4.108 8.142,9.168 0,5.061 -3.647,9.167 -8.142,9.167 -1.461,0 -2.816,-0.464 -4.014,-1.192 -0.66,-0.402 -0.938,0.242 -0.29,0.836 1.919,1.756 3.17,4.417 3.17,7.416 0,5.246 -3.781,9.504 -8.439,9.504"
         style="fill:#050301;fill-opacity:1;fill-rule:nonzero;stroke:none;stroke-width:0.1"
         id="path43316"
         inkscape:connector-curvature="0" />
      <path
         d="m 860.107,558.926 c 4.66,0 8.442,4.258 8.442,9.503 0,3 -1.252,5.661 -3.171,7.417 -0.648,0.593 -0.37,1.238 0.29,0.837 1.199,-0.731 2.553,-1.194 4.014,-1.194 4.495,0 8.142,4.107 8.142,9.166 0,5.061 -3.647,9.168 -8.142,9.168 -2.994,0 -5.616,-1.822 -7.025,-4.541 -0.137,-0.265 -0.249,-0.63 -0.443,-0.63 -0.268,0 -0.393,0.437 -0.393,1.255 0,3.288 1.262,7.126 3.127,11.538 -0.804,-0.191 -3.246,-0.678 -4.841,-0.678 -1.594,0 -4.035,0.487 -4.84,0.678 1.865,-4.412 3.127,-8.25 3.127,-11.538 0,-0.818 -0.124,-1.255 -0.391,-1.255 -0.196,0 -0.307,0.365 -0.444,0.63 -1.409,2.719 -4.031,4.541 -7.027,4.541 -4.494,0 -8.141,-4.107 -8.141,-9.168 0,-5.059 3.647,-9.166 8.141,-9.166 1.462,0 2.817,0.463 4.016,1.194 0.66,0.401 0.938,-0.244 0.289,-0.837 -1.918,-1.756 -3.17,-4.417 -3.17,-7.417 0,-5.245 3.781,-9.503 8.44,-9.503"
         style="fill:#050301;fill-opacity:1;fill-rule:nonzero;stroke:none;stroke-width:0.1"
         id="path43318"
         inkscape:connector-curvature="0" />
      <path
         d="m 946.564,757.351 c -4.66,0 -8.44,-4.258 -8.44,-9.504 0,-2.999 1.25,-5.66 3.169,-7.416 0.648,-0.594 0.371,-1.238 -0.289,-0.836 -1.199,0.728 -2.554,1.192 -4.015,1.192 -4.494,0 -8.141,-4.106 -8.141,-9.167 0,-5.06 3.647,-9.168 8.141,-9.168 2.995,0 5.618,1.823 7.025,4.542 0.138,0.267 0.25,0.631 0.445,0.631 0.266,0 0.392,-0.437 0.392,-1.256 0,-3.287 -1.263,-7.126 -3.128,-11.538 0.805,0.192 3.247,0.678 4.841,0.678 1.595,0 4.036,-0.486 4.841,-0.678 -1.866,4.412 -3.128,8.251 -3.128,11.538 0,0.819 0.125,1.256 0.392,1.256 0.196,0 0.306,-0.364 0.444,-0.631 1.408,-2.719 4.031,-4.542 7.026,-4.542 4.494,0 8.141,4.108 8.141,9.168 0,5.061 -3.647,9.167 -8.141,9.167 -1.461,0 -2.815,-0.464 -4.015,-1.192 -0.66,-0.402 -0.938,0.242 -0.289,0.836 1.917,1.756 3.169,4.417 3.169,7.416 0,5.246 -3.781,9.504 -8.44,9.504"
         style="fill:#050301;fill-opacity:1;fill-rule:nonzero;stroke:none;stroke-width:0.1"
         id="path43320"
         inkscape:connector-curvature="0" />
      <path
         d="m 946.564,558.925 c 4.66,0 8.44,4.258 8.44,9.504 0,3 -1.252,5.66 -3.169,7.416 -0.647,0.594 -0.371,1.238 0.289,0.837 1.2,-0.731 2.554,-1.194 4.015,-1.194 4.494,0 8.141,4.107 8.141,9.167 0,5.061 -3.647,9.168 -8.141,9.168 -2.995,0 -5.618,-1.823 -7.026,-4.542 -0.138,-0.265 -0.248,-0.629 -0.444,-0.629 -0.266,0 -0.392,0.436 -0.392,1.255 0,3.286 1.263,7.125 3.128,11.538 -0.805,-0.192 -3.246,-0.678 -4.841,-0.678 -1.594,0 -4.036,0.486 -4.841,0.678 1.866,-4.413 3.128,-8.252 3.128,-11.538 0,-0.819 -0.125,-1.255 -0.392,-1.255 -0.195,0 -0.306,0.364 -0.444,0.629 -1.408,2.719 -4.031,4.542 -7.025,4.542 -4.495,0 -8.142,-4.107 -8.142,-9.168 0,-5.06 3.647,-9.167 8.142,-9.167 1.46,0 2.815,0.463 4.014,1.194 0.66,0.401 0.937,-0.243 0.289,-0.837 -1.919,-1.756 -3.169,-4.416 -3.169,-7.416 0,-5.246 3.781,-9.504 8.44,-9.504"
         style="fill:#050301;fill-opacity:1;fill-rule:nonzero;stroke:none;stroke-width:0.1"
         id="path43322"
         inkscape:connector-curvature="0" />
      <path
         d="m 903.339,679.398 c -4.66,0 -8.444,-4.259 -8.444,-9.506 0,-3 1.253,-5.662 3.171,-7.42 0.649,-0.595 0.37,-1.24 -0.289,-0.838 -1.2,0.73 -2.553,1.195 -4.015,1.195 -4.494,0 -8.143,-4.115 -8.143,-9.183 0,-5.053 3.649,-9.155 8.143,-9.155 2.995,0 5.618,1.821 7.026,4.536 0.139,0.265 0.249,0.63 0.444,0.63 0.267,0 0.392,-0.437 0.392,-1.255 0,-3.282 -1.261,-7.115 -3.127,-11.524 0.805,0.192 3.247,0.678 4.842,0.678 1.592,0 4.03,-0.486 4.836,-0.678 -1.866,4.409 -3.127,8.242 -3.127,11.524 0,0.818 0.125,1.255 0.391,1.255 0.195,0 0.305,-0.365 0.444,-0.63 1.407,-2.715 4.03,-4.536 7.025,-4.536 4.495,0 8.144,4.102 8.144,9.155 0,5.068 -3.649,9.183 -8.144,9.183 -1.461,0 -2.815,-0.465 -4.014,-1.195 -0.66,-0.402 -0.938,0.243 -0.289,0.838 1.918,1.758 3.169,4.42 3.169,7.42 0,5.247 -3.782,9.506 -8.435,9.506"
         style="fill:#050301;fill-opacity:1;fill-rule:nonzero;stroke:none;stroke-width:0.1"
         id="path43324"
         inkscape:connector-curvature="0" />
      <path
         d="m 831.778,759.73 c -1.312,1.621 -3.193,2.675 -5.287,2.674 -1.309,10e-4 -2.536,-0.416 -3.592,-1.122 l -0.004,5.032 h 9.367 v 2.375 h -11.606 v -0.83 h -0.011 l 0.007,-9.733 h 2.25 c 0.756,1.09 2.402,1.901 3.589,1.903 1.368,-0.002 2.622,-0.674 3.579,-1.846 0.95,-1.17 1.567,-2.828 1.566,-4.684 10e-4,-1.855 -0.616,-3.513 -1.566,-4.683 -0.957,-1.17 -2.211,-1.844 -3.579,-1.844 -1.012,0 -1.951,0.365 -2.766,1.027 -0.814,0.66 -1.491,1.623 -1.909,2.78 l -2.103,-0.851 c 0.56,-1.536 1.469,-2.86 2.637,-3.812 1.165,-0.949 2.6,-1.522 4.141,-1.521 10e-4,0 0.003,0 0.004,0 2.094,0 3.973,1.055 5.283,2.675 1.318,1.624 2.108,3.823 2.109,6.229 -10e-4,2.406 -0.791,4.606 -2.109,6.231"
         style="fill:#000000;fill-opacity:1;fill-rule:nonzero;stroke:none;stroke-width:0.1"
         id="path43326"
         inkscape:connector-curvature="0" />
      <path
         d="m 974.893,556.548 c 1.311,-1.621 3.192,-2.676 5.286,-2.676 1.309,0 2.536,0.417 3.591,1.123 l 0.004,-5.031 h -9.365 v -2.377 h 11.605 v 0.831 h 0.013 l -0.007,9.734 -2.251,-0.002 c -0.757,-1.088 -2.403,-1.901 -3.59,-1.901 -1.368,0 -2.622,0.674 -3.578,1.846 -0.952,1.168 -1.567,2.828 -1.566,4.682 -10e-4,1.855 0.614,3.513 1.566,4.683 0.956,1.172 2.21,1.844 3.578,1.846 1.012,-0.002 1.951,-0.367 2.766,-1.027 0.814,-0.663 1.491,-1.625 1.91,-2.782 l 2.102,0.852 c -0.559,1.537 -1.469,2.859 -2.637,3.81 -1.165,0.95 -2.6,1.524 -4.141,1.523 -10e-4,0 -0.003,0 -0.004,0 -2.093,0 -3.972,-1.056 -5.282,-2.675 -1.319,-1.623 -2.108,-3.822 -2.109,-6.23 10e-4,-2.407 0.79,-4.606 2.109,-6.229"
         style="fill:#000000;fill-opacity:1;fill-rule:nonzero;stroke:none;stroke-width:0.1"
         id="path43328"
         inkscape:connector-curvature="0" />
    </g>
  </g>
</svg>
