<?xml version="1.0" encoding="UTF-8" standalone="no"?>
<!-- Created with Inkscape (http://www.inkscape.org/) -->

<svg
   xmlns:dc="http://purl.org/dc/elements/1.1/"
   xmlns:cc="http://creativecommons.org/ns#"
   xmlns:rdf="http://www.w3.org/1999/02/22-rdf-syntax-ns#"
   xmlns:svg="http://www.w3.org/2000/svg"
   xmlns="http://www.w3.org/2000/svg"
   xmlns:sodipodi="http://sodipodi.sourceforge.net/DTD/sodipodi-0.dtd"
   xmlns:inkscape="http://www.inkscape.org/namespaces/inkscape"
   width="63.353001mm"
   height="88.352997mm"
   viewBox="0 0 63.353001 88.352997"
   version="1.1"
   id="svg22813"
   inkscape:version="0.92.2 2405546, 2018-03-11"
   sodipodi:docname="5d.svg">
  <defs
     id="defs22807" />
  <sodipodi:namedview
     id="base"
     pagecolor="#ffffff"
     bordercolor="#666666"
     borderopacity="1.0"
     inkscape:pageopacity="0.0"
     inkscape:pageshadow="2"
     inkscape:zoom="1.4"
     inkscape:cx="81.334592"
     inkscape:cy="124.23278"
     inkscape:document-units="mm"
     inkscape:current-layer="layer1"
     showgrid="false"
     inkscape:window-width="960"
     inkscape:window-height="992"
     inkscape:window-x="960"
     inkscape:window-y="27"
     inkscape:window-maximized="0" />
  <metadata
     id="metadata22810">
    <rdf:RDF>
      <cc:Work
         rdf:about="">
        <dc:format>image/svg+xml</dc:format>
        <dc:type
           rdf:resource="http://purl.org/dc/dcmitype/StillImage" />
        <dc:title></dc:title>
      </cc:Work>
    </rdf:RDF>
  </metadata>
  <g
     inkscape:label="Layer 1"
     inkscape:groupmode="layer"
     id="layer1"
     transform="translate(0,-208.647)">
    <g
       transform="matrix(0.35277777,0,0,-0.35277777,-286.99989,485.53467)"
       id="g87569">
      <path
         d="m 992.627,549.102 c 0,-7.827 -6.345,-14.173 -14.173,-14.173 H 828.217 c -7.828,0 -14.174,6.346 -14.174,14.173 v 221.103 c 0,7.827 6.346,14.173 14.174,14.173 h 150.237 c 7.828,0 14.173,-6.346 14.173,-14.173 V 549.102"
         style="fill:#f7f7f5;fill-opacity:1;fill-rule:nonzero;stroke:none;stroke-width:0.1"
         id="path74833"
         inkscape:connector-curvature="0" />
      <path
         d="m 992.627,549.102 c 0,-7.827 -6.345,-14.173 -14.173,-14.173 H 828.217 c -7.828,0 -14.174,6.346 -14.174,14.173 v 221.103 c 0,7.827 6.346,14.173 14.174,14.173 h 150.237 c 7.828,0 14.173,-6.346 14.173,-14.173 z"
         style="fill:none;stroke:#231f20;stroke-width:1;stroke-linecap:butt;stroke-linejoin:miter;stroke-miterlimit:4;stroke-dasharray:none;stroke-opacity:1"
         id="path74835"
         inkscape:connector-curvature="0" />
      <path
         d="m 826.811,741.859 c 1.785,-3.471 4.144,-6.309 7.075,-8.512 -2.931,-2.208 -5.29,-5.039 -7.075,-8.496 -1.803,3.457 -4.167,6.288 -7.098,8.496 2.931,2.203 5.295,5.041 7.098,8.512 v 0"
         style="fill:#e52c3f;fill-opacity:1;fill-rule:nonzero;stroke:none;stroke-width:0.1"
         id="path74837"
         inkscape:connector-curvature="0" />
      <path
         d="m 979.881,594.457 c 1.791,-3.469 4.147,-6.307 7.077,-8.513 -2.93,-2.206 -5.286,-5.038 -7.077,-8.495 -1.798,3.457 -4.165,6.289 -7.096,8.495 2.931,2.206 5.298,5.044 7.096,8.513 v 0"
         style="fill:#e52c3f;fill-opacity:1;fill-rule:nonzero;stroke:none;stroke-width:0.1"
         id="path74839"
         inkscape:connector-curvature="0" />
      <path
         d="m 860.131,758.866 c 4.47,-8.675 10.365,-15.769 17.693,-21.283 -7.328,-5.517 -13.223,-12.595 -17.693,-21.237 -4.501,8.642 -10.415,15.72 -17.741,21.237 7.326,5.514 13.24,12.608 17.741,21.283 v 0"
         style="fill:#e52c3f;fill-opacity:1;fill-rule:nonzero;stroke:none;stroke-width:0.1"
         id="path74841"
         inkscape:connector-curvature="0" />
      <path
         d="m 903.358,680.914 c 4.469,-8.685 10.369,-15.778 17.693,-21.268 -7.324,-5.514 -13.224,-12.604 -17.693,-21.252 -4.501,8.648 -10.414,15.738 -17.739,21.252 7.325,5.49 13.238,12.583 17.739,21.268 v 0"
         style="fill:#e52c3f;fill-opacity:1;fill-rule:nonzero;stroke:none;stroke-width:0.1"
         id="path74843"
         inkscape:connector-curvature="0" />
      <path
         d="m 860.13,602.961 c 4.47,-8.675 10.366,-15.77 17.693,-21.283 -7.327,-5.517 -13.223,-12.596 -17.693,-21.237 -4.5,8.641 -10.414,15.72 -17.74,21.237 7.326,5.513 13.24,12.608 17.74,21.283 v 0"
         style="fill:#e52c3f;fill-opacity:1;fill-rule:nonzero;stroke:none;stroke-width:0.1"
         id="path74845"
         inkscape:connector-curvature="0" />
      <path
         d="m 946.592,758.866 c 4.464,-8.675 10.365,-15.77 17.689,-21.284 -7.324,-5.516 -13.225,-12.594 -17.689,-21.236 -4.505,8.642 -10.417,15.72 -17.744,21.236 7.327,5.514 13.239,12.609 17.744,21.284 v 0"
         style="fill:#e52c3f;fill-opacity:1;fill-rule:nonzero;stroke:none;stroke-width:0.1"
         id="path74847"
         inkscape:connector-curvature="0" />
      <path
         d="m 946.592,602.961 c 4.463,-8.676 10.363,-15.77 17.688,-21.283 -7.325,-5.517 -13.225,-12.596 -17.688,-21.237 -4.505,8.641 -10.417,15.72 -17.745,21.237 7.328,5.513 13.24,12.607 17.745,21.283 v 0"
         style="fill:#e52c3f;fill-opacity:1;fill-rule:nonzero;stroke:none;stroke-width:0.1"
         id="path74849"
         inkscape:connector-curvature="0" />
      <path
         d="m 831.778,761.244 c -1.312,1.622 -3.192,2.676 -5.287,2.675 -1.309,10e-4 -2.536,-0.416 -3.592,-1.122 l -0.003,5.032 h 9.365 v 2.376 h -11.605 v -0.831 h -0.012 l 0.007,-9.733 2.251,0.002 c 0.757,1.087 2.402,1.899 3.589,1.901 1.368,-0.002 2.622,-0.675 3.579,-1.846 0.951,-1.169 1.566,-2.828 1.565,-4.684 10e-4,-1.854 -0.614,-3.512 -1.565,-4.682 -0.957,-1.172 -2.211,-1.844 -3.579,-1.846 -1.012,0.002 -1.95,0.368 -2.767,1.028 -0.813,0.661 -1.49,1.624 -1.909,2.78 l -2.102,-0.851 c 0.559,-1.537 1.469,-2.859 2.636,-3.81 1.166,-0.95 2.601,-1.524 4.142,-1.522 10e-4,0 0.003,0 0.005,0 2.092,0 3.971,1.054 5.282,2.674 1.318,1.624 2.107,3.822 2.108,6.229 -10e-4,2.408 -0.79,4.607 -2.108,6.23"
         style="fill:#e52c3f;fill-opacity:1;fill-rule:nonzero;stroke:none;stroke-width:0.1"
         id="path74851"
         inkscape:connector-curvature="0" />
      <path
         d="m 974.893,558.064 c 1.311,-1.621 3.193,-2.676 5.286,-2.675 1.31,-10e-4 2.537,0.416 3.592,1.122 l 0.003,-5.031 h -9.365 v -2.378 h 11.605 v 0.832 h 0.012 l -0.006,9.733 -2.251,-0.002 c -0.757,-1.088 -2.402,-1.899 -3.59,-1.901 -1.368,0.002 -2.622,0.675 -3.578,1.847 -0.952,1.168 -1.567,2.828 -1.565,4.682 -0.002,1.855 0.613,3.513 1.565,4.683 0.956,1.172 2.21,1.843 3.578,1.845 1.013,-10e-4 1.95,-0.367 2.767,-1.027 0.813,-0.661 1.49,-1.624 1.91,-2.78 l 2.102,0.85 c -0.559,1.538 -1.469,2.859 -2.637,3.811 -1.165,0.95 -2.601,1.523 -4.142,1.522 0,0 -0.003,0 -0.004,0 -2.092,0 -3.971,-1.054 -5.282,-2.674 -1.318,-1.623 -2.107,-3.823 -2.109,-6.23 0.002,-2.407 0.791,-4.606 2.109,-6.229"
         style="fill:#e52c3f;fill-opacity:1;fill-rule:nonzero;stroke:none;stroke-width:0.1"
         id="path74853"
         inkscape:connector-curvature="0" />
    </g>
  </g>
</svg>
