<?xml version="1.0" encoding="UTF-8" standalone="no"?>
<!-- Created with Inkscape (http://www.inkscape.org/) -->

<svg
   xmlns:dc="http://purl.org/dc/elements/1.1/"
   xmlns:cc="http://creativecommons.org/ns#"
   xmlns:rdf="http://www.w3.org/1999/02/22-rdf-syntax-ns#"
   xmlns:svg="http://www.w3.org/2000/svg"
   xmlns="http://www.w3.org/2000/svg"
   xmlns:sodipodi="http://sodipodi.sourceforge.net/DTD/sodipodi-0.dtd"
   xmlns:inkscape="http://www.inkscape.org/namespaces/inkscape"
   width="63.353001mm"
   height="88.352997mm"
   viewBox="0 0 63.353001 88.352997"
   version="1.1"
   id="svg22813"
   inkscape:version="0.92.2 2405546, 2018-03-11"
   sodipodi:docname="5h.svg">
  <defs
     id="defs22807" />
  <sodipodi:namedview
     id="base"
     pagecolor="#ffffff"
     bordercolor="#666666"
     borderopacity="1.0"
     inkscape:pageopacity="0.0"
     inkscape:pageshadow="2"
     inkscape:zoom="1.4"
     inkscape:cx="79.906021"
     inkscape:cy="124.23278"
     inkscape:document-units="mm"
     inkscape:current-layer="layer1"
     showgrid="false"
     inkscape:window-width="1920"
     inkscape:window-height="992"
     inkscape:window-x="0"
     inkscape:window-y="27"
     inkscape:window-maximized="1" />
  <metadata
     id="metadata22810">
    <rdf:RDF>
      <cc:Work
         rdf:about="">
        <dc:format>image/svg+xml</dc:format>
        <dc:type
           rdf:resource="http://purl.org/dc/dcmitype/StillImage" />
        <dc:title></dc:title>
      </cc:Work>
    </rdf:RDF>
  </metadata>
  <g
     inkscape:label="Layer 1"
     inkscape:groupmode="layer"
     id="layer1"
     transform="translate(0,-208.647)">
    <g
       transform="matrix(0.35277777,0,0,-0.35277777,-286.99989,485.16601)"
       id="g43641">
      <path
         d="m 992.627,548.058 c 0,-7.828 -6.345,-14.174 -14.173,-14.174 H 828.217 c -7.828,0 -14.174,6.346 -14.174,14.174 V 769.16 c 0,7.828 6.346,14.173 14.174,14.173 h 150.237 c 7.828,0 14.173,-6.345 14.173,-14.173 V 548.058"
         style="fill:#f7f7f5;fill-opacity:1;fill-rule:nonzero;stroke:none;stroke-width:0.1"
         id="path31204"
         inkscape:connector-curvature="0" />
      <path
         d="m 992.627,548.058 c 0,-7.828 -6.345,-14.174 -14.173,-14.174 H 828.217 c -7.828,0 -14.174,6.346 -14.174,14.174 V 769.16 c 0,7.828 6.346,14.173 14.174,14.173 h 150.237 c 7.828,0 14.173,-6.345 14.173,-14.173 z"
         style="fill:none;stroke:#231f20;stroke-width:1;stroke-linecap:butt;stroke-linejoin:miter;stroke-miterlimit:4;stroke-dasharray:none;stroke-opacity:1"
         id="path31206"
         inkscape:connector-curvature="0" />
      <path
         d="m 826.797,723.806 c -0.006,0.01 -0.012,0.018 -0.018,0.028 -0.006,-0.01 -0.013,-0.018 -0.019,-0.028 h 0.037"
         style="fill:#e52c3f;fill-opacity:1;fill-rule:nonzero;stroke:none;stroke-width:0.1"
         id="path31208"
         inkscape:connector-curvature="0" />
      <path
         d="m 830.774,740.714 c -1.247,0.387 -3.186,-0.294 -3.899,-3.122 -0.059,-0.154 -0.121,-0.151 -0.177,0.006 -1.028,2.865 -2.722,3.491 -3.913,3.116 -1.765,-0.569 -3.194,-2.673 -3.064,-5.357 0.035,-4.684 4.228,-7.043 7.058,-11.523 2.83,4.48 7.069,6.832 7.081,11.537 0.246,2.712 -1.273,4.784 -3.086,5.343"
         style="fill:#e52c3f;fill-opacity:1;fill-rule:nonzero;stroke:none;stroke-width:0.1"
         id="path31210"
         inkscape:connector-curvature="0" />
      <path
         d="m 979.893,593.384 c -2.832,-4.48 -7.07,-6.834 -7.082,-11.537 -0.246,-2.712 1.273,-4.785 3.086,-5.344 1.246,-0.387 3.186,0.295 3.898,3.123 0.061,0.154 0.123,0.151 0.178,-0.006 1.029,-2.865 2.723,-3.49 3.913,-3.117 1.765,0.569 3.194,2.673 3.064,5.358 -0.036,4.682 -4.228,7.043 -7.057,11.523"
         style="fill:#e52c3f;fill-opacity:1;fill-rule:nonzero;stroke:none;stroke-width:0.1"
         id="path31212"
         inkscape:connector-curvature="0" />
      <path
         d="m 979.873,593.412 c 0.006,-0.01 0.013,-0.018 0.02,-0.028 0.006,0.01 0.013,0.018 0.019,0.028 h -0.039"
         style="fill:#e52c3f;fill-opacity:1;fill-rule:nonzero;stroke:none;stroke-width:0.1"
         id="path31214"
         inkscape:connector-curvature="0" />
      <path
         d="m 870.041,760.407 c -3.116,0.969 -7.964,-0.735 -9.746,-7.804 -0.147,-0.388 -0.304,-0.379 -0.445,0.013 -2.569,7.163 -6.804,8.727 -9.782,7.791 -4.41,-1.423 -7.984,-6.681 -7.656,-13.391 0.086,-11.711 10.568,-17.607 17.643,-28.806 7.075,11.199 17.674,17.079 17.703,28.84 0.613,6.78 -3.182,11.961 -7.717,13.357"
         style="fill:#e52c3f;fill-opacity:1;fill-rule:nonzero;stroke:none;stroke-width:0.1"
         id="path31216"
         inkscape:connector-curvature="0" />
      <path
         d="m 860.102,718.137 c -0.015,0.025 -0.032,0.048 -0.047,0.073 -0.016,-0.025 -0.032,-0.048 -0.048,-0.073 h 0.095"
         style="fill:#e52c3f;fill-opacity:1;fill-rule:nonzero;stroke:none;stroke-width:0.1"
         id="path31218"
         inkscape:connector-curvature="0" />
      <path
         d="m 860.112,601.917 c 0.015,-0.025 0.032,-0.048 0.047,-0.073 0.016,0.025 0.032,0.048 0.048,0.073 h -0.095"
         style="fill:#e52c3f;fill-opacity:1;fill-rule:nonzero;stroke:none;stroke-width:0.1"
         id="path31220"
         inkscape:connector-curvature="0" />
      <path
         d="m 877.802,573.036 c -0.088,11.71 -10.568,17.608 -17.643,28.808 -7.075,-11.2 -17.674,-17.08 -17.704,-28.841 -0.613,-6.781 3.183,-11.963 7.717,-13.357 3.117,-0.969 7.965,0.734 9.746,7.804 0.148,0.387 0.305,0.379 0.446,-0.013 2.569,-7.162 6.804,-8.728 9.782,-7.791 4.41,1.422 7.983,6.68 7.656,13.39"
         style="fill:#e52c3f;fill-opacity:1;fill-rule:nonzero;stroke:none;stroke-width:0.1"
         id="path31222"
         inkscape:connector-curvature="0" />
      <path
         d="m 956.498,760.407 c -3.118,0.969 -7.964,-0.736 -9.746,-7.804 -0.148,-0.388 -0.304,-0.379 -0.445,0.013 -2.57,7.163 -6.805,8.727 -9.782,7.791 -4.411,-1.423 -7.986,-6.681 -7.657,-13.391 0.087,-11.711 10.568,-17.607 17.643,-28.805 7.077,11.198 17.674,17.078 17.705,28.839 0.612,6.78 -3.184,11.961 -7.718,13.357"
         style="fill:#e52c3f;fill-opacity:1;fill-rule:nonzero;stroke:none;stroke-width:0.1"
         id="path31224"
         inkscape:connector-curvature="0" />
      <path
         d="m 946.559,718.137 c -0.016,0.025 -0.032,0.049 -0.048,0.074 -0.015,-0.025 -0.032,-0.049 -0.048,-0.074 h 0.096"
         style="fill:#e52c3f;fill-opacity:1;fill-rule:nonzero;stroke:none;stroke-width:0.1"
         id="path31226"
         inkscape:connector-curvature="0" />
      <path
         d="m 964.259,575.87 c -0.088,11.711 -10.569,17.61 -17.643,28.809 -7.077,-11.199 -17.674,-17.081 -17.703,-28.842 -0.613,-6.78 3.182,-11.961 7.716,-13.357 3.117,-0.967 7.964,0.736 9.746,7.804 0.148,0.388 0.304,0.38 0.445,-0.013 2.569,-7.162 6.803,-8.727 9.783,-7.791 4.409,1.424 7.984,6.681 7.656,13.39"
         style="fill:#e52c3f;fill-opacity:1;fill-rule:nonzero;stroke:none;stroke-width:0.1"
         id="path31228"
         inkscape:connector-curvature="0" />
      <path
         d="m 946.569,604.751 c 0.015,-0.024 0.031,-0.048 0.047,-0.072 0.015,0.024 0.031,0.048 0.047,0.072 h -0.094"
         style="fill:#e52c3f;fill-opacity:1;fill-rule:nonzero;stroke:none;stroke-width:0.1"
         id="path31230"
         inkscape:connector-curvature="0" />
      <path
         d="m 913.272,679.62 c -3.117,0.968 -7.971,-0.736 -9.752,-7.804 -0.149,-0.387 -0.304,-0.378 -0.445,0.014 -2.569,7.161 -6.803,8.725 -9.78,7.79 -4.41,-1.423 -7.983,-6.681 -7.656,-13.39 0.088,-11.715 10.566,-17.611 17.641,-28.808 7.082,11.197 17.678,17.076 17.707,28.843 0.613,6.779 -3.182,11.959 -7.715,13.355"
         style="fill:#e52c3f;fill-opacity:1;fill-rule:nonzero;stroke:none;stroke-width:0.1"
         id="path31232"
         inkscape:connector-curvature="0" />
      <path
         d="m 903.327,637.349 c -0.016,0.025 -0.032,0.048 -0.047,0.073 -0.016,-0.025 -0.032,-0.048 -0.048,-0.073 h 0.095"
         style="fill:#e52c3f;fill-opacity:1;fill-rule:nonzero;stroke:none;stroke-width:0.1"
         id="path31234"
         inkscape:connector-curvature="0" />
      <path
         d="m 831.778,760.199 c -1.312,1.622 -3.192,2.676 -5.287,2.675 -1.309,10e-4 -2.536,-0.416 -3.592,-1.122 l -0.003,5.032 h 9.365 v 2.376 h -11.605 v -0.831 h -0.012 l 0.007,-9.733 2.251,0.002 c 0.757,1.088 2.402,1.899 3.589,1.901 1.368,-0.002 2.622,-0.675 3.579,-1.845 0.951,-1.17 1.566,-2.829 1.565,-4.684 10e-4,-1.855 -0.614,-3.513 -1.565,-4.683 -0.957,-1.172 -2.211,-1.844 -3.579,-1.846 -1.012,0.002 -1.95,0.368 -2.767,1.028 -0.813,0.661 -1.49,1.624 -1.909,2.78 l -2.102,-0.851 c 0.559,-1.537 1.469,-2.859 2.636,-3.81 1.166,-0.95 2.601,-1.524 4.142,-1.522 10e-4,0 0.003,0 0.005,0 2.092,0 3.971,1.054 5.282,2.674 1.318,1.624 2.107,3.823 2.108,6.23 -10e-4,2.407 -0.79,4.606 -2.108,6.229"
         style="fill:#e52c3f;fill-opacity:1;fill-rule:nonzero;stroke:none;stroke-width:0.1"
         id="path31236"
         inkscape:connector-curvature="0" />
      <path
         d="m 974.893,557.019 c 1.311,-1.621 3.193,-2.676 5.286,-2.675 1.31,-0.001 2.537,0.416 3.592,1.122 l 0.003,-5.031 h -9.365 v -2.377 h 11.605 v 0.831 h 0.012 l -0.006,9.733 -2.251,-0.002 c -0.757,-1.088 -2.402,-1.899 -3.59,-1.9 -1.368,10e-4 -2.622,0.674 -3.578,1.846 -0.952,1.168 -1.567,2.828 -1.565,4.682 -0.002,1.855 0.613,3.513 1.565,4.683 0.956,1.172 2.21,1.844 3.578,1.846 1.013,-0.002 1.95,-0.368 2.767,-1.028 0.813,-0.661 1.49,-1.624 1.91,-2.78 l 2.102,0.851 c -0.559,1.537 -1.469,2.859 -2.637,3.81 -1.165,0.95 -2.601,1.524 -4.142,1.522 0,0 -0.003,0 -0.004,0 -2.092,0 -3.971,-1.054 -5.282,-2.674 -1.318,-1.623 -2.107,-3.823 -2.109,-6.23 0.002,-2.407 0.791,-4.606 2.109,-6.229"
         style="fill:#e52c3f;fill-opacity:1;fill-rule:nonzero;stroke:none;stroke-width:0.1"
         id="path31238"
         inkscape:connector-curvature="0" />
    </g>
  </g>
</svg>
