<?xml version="1.0" encoding="UTF-8" standalone="no"?>
<!-- Created with Inkscape (http://www.inkscape.org/) -->

<svg
   xmlns:dc="http://purl.org/dc/elements/1.1/"
   xmlns:cc="http://creativecommons.org/ns#"
   xmlns:rdf="http://www.w3.org/1999/02/22-rdf-syntax-ns#"
   xmlns:svg="http://www.w3.org/2000/svg"
   xmlns="http://www.w3.org/2000/svg"
   xmlns:sodipodi="http://sodipodi.sourceforge.net/DTD/sodipodi-0.dtd"
   xmlns:inkscape="http://www.inkscape.org/namespaces/inkscape"
   width="63.353001mm"
   height="88.352997mm"
   viewBox="0 0 63.353001 88.352997"
   version="1.1"
   id="svg22813"
   inkscape:version="0.92.2 2405546, 2018-03-11"
   sodipodi:docname="5s.svg">
  <defs
     id="defs22807" />
  <sodipodi:namedview
     id="base"
     pagecolor="#ffffff"
     bordercolor="#666666"
     borderopacity="1.0"
     inkscape:pageopacity="0.0"
     inkscape:pageshadow="2"
     inkscape:zoom="1.4"
     inkscape:cx="113.47745"
     inkscape:cy="67.089921"
     inkscape:document-units="mm"
     inkscape:current-layer="layer1"
     showgrid="false"
     inkscape:window-width="1920"
     inkscape:window-height="992"
     inkscape:window-x="0"
     inkscape:window-y="27"
     inkscape:window-maximized="1" />
  <metadata
     id="metadata22810">
    <rdf:RDF>
      <cc:Work
         rdf:about="">
        <dc:format>image/svg+xml</dc:format>
        <dc:type
           rdf:resource="http://purl.org/dc/dcmitype/StillImage" />
        <dc:title></dc:title>
      </cc:Work>
    </rdf:RDF>
  </metadata>
  <g
     inkscape:label="Layer 1"
     inkscape:groupmode="layer"
     id="layer1"
     transform="translate(0,-208.647)">
    <g
       transform="matrix(0.35277777,0,0,-0.35277777,-286.99989,484.99986)"
       id="g23045">
      <path
         inkscape:connector-curvature="0"
         id="path4129"
         style="fill:#f7f7f5;fill-opacity:1;fill-rule:nonzero;stroke:none;stroke-width:0.1"
         d="m 992.627,547.587 c 0,-7.828 -6.346,-14.174 -14.174,-14.174 H 828.216 c -7.827,0 -14.173,6.346 -14.173,14.174 v 221.102 c 0,7.828 6.346,14.174 14.173,14.174 h 150.237 c 7.828,0 14.174,-6.346 14.174,-14.174 V 547.587" />
      <path
         inkscape:connector-curvature="0"
         id="path4131"
         style="fill:none;stroke:#231f20;stroke-width:1;stroke-linecap:butt;stroke-linejoin:miter;stroke-miterlimit:4;stroke-dasharray:none;stroke-opacity:1"
         d="m 992.627,547.587 c 0,-7.828 -6.346,-14.174 -14.174,-14.174 H 828.216 c -7.827,0 -14.173,6.346 -14.173,14.174 v 221.102 c 0,7.828 6.346,14.174 14.173,14.174 h 150.237 c 7.828,0 14.174,-6.346 14.174,-14.174 z" />
      <path
         inkscape:connector-curvature="0"
         id="path4133"
         style="fill:#000000;fill-opacity:1;fill-rule:nonzero;stroke:none;stroke-width:0.1"
         d="m 831.777,759.73 c -1.311,1.621 -3.193,2.675 -5.286,2.674 -1.31,10e-4 -2.536,-0.416 -3.592,-1.122 l -0.004,5.032 h 9.365 v 2.375 h -11.605 v -0.83 h -0.012 l 0.007,-9.733 2.251,10e-4 c 0.757,1.089 2.403,1.9 3.59,1.902 1.367,-0.002 2.621,-0.674 3.578,-1.846 0.951,-1.169 1.566,-2.828 1.565,-4.683 10e-4,-1.855 -0.614,-3.514 -1.565,-4.684 -0.957,-1.17 -2.211,-1.843 -3.578,-1.844 -1.013,10e-4 -1.952,0.366 -2.768,1.027 -0.812,0.661 -1.49,1.624 -1.909,2.78 l -2.101,-0.851 c 0.558,-1.536 1.468,-2.86 2.635,-3.811 1.166,-0.949 2.602,-1.523 4.143,-1.522 0,0 0.002,0 0.004,0 2.093,0 3.971,1.055 5.282,2.675 1.318,1.624 2.107,3.823 2.108,6.23 -10e-4,2.406 -0.79,4.605 -2.108,6.23" />
      <path
         inkscape:connector-curvature="0"
         id="path4135"
         style="fill:none;stroke:#231f20;stroke-width:1;stroke-linecap:butt;stroke-linejoin:miter;stroke-miterlimit:4;stroke-dasharray:none;stroke-opacity:1"
         d="m 831.777,759.73 c -1.311,1.621 -3.193,2.675 -5.286,2.674 -1.31,10e-4 -2.536,-0.416 -3.592,-1.122 l -0.004,5.032 h 9.365 v 2.375 h -11.605 v -0.83 h -0.012 l 0.007,-9.733 2.251,10e-4 c 0.757,1.089 2.403,1.9 3.59,1.902 1.367,-0.002 2.621,-0.674 3.578,-1.846 0.951,-1.169 1.566,-2.828 1.565,-4.683 10e-4,-1.855 -0.614,-3.514 -1.565,-4.684 -0.957,-1.17 -2.211,-1.843 -3.578,-1.844 -1.013,10e-4 -1.952,0.366 -2.768,1.027 -0.812,0.661 -1.49,1.624 -1.909,2.78 l -2.101,-0.851 c 0.558,-1.536 1.468,-2.86 2.635,-3.811 1.166,-0.949 2.602,-1.523 4.143,-1.522 0,0 0.002,0 0.004,0 2.093,0 3.971,1.055 5.282,2.675 1.318,1.624 2.107,3.823 2.108,6.23 -10e-4,2.406 -0.79,4.605 -2.108,6.23 z" />
      <path
         inkscape:connector-curvature="0"
         id="path4137"
         style="fill:#000000;fill-opacity:1;fill-rule:nonzero;stroke:none;stroke-width:0.1"
         d="m 974.892,556.548 c 1.311,-1.621 3.192,-2.676 5.285,-2.676 1.311,0 2.537,0.417 3.594,1.123 l 0.002,-5.031 h -9.365 v -2.377 h 11.605 v 0.831 h 0.012 l -0.006,9.734 -2.252,-0.002 c -0.756,-1.088 -2.402,-1.901 -3.59,-1.901 -1.367,0 -2.621,0.674 -3.578,1.846 -0.951,1.168 -1.566,2.828 -1.564,4.682 -0.002,1.855 0.613,3.513 1.564,4.683 0.957,1.172 2.211,1.844 3.578,1.846 1.014,-0.002 1.952,-0.367 2.768,-1.027 0.814,-0.663 1.49,-1.625 1.91,-2.782 l 2.102,0.852 c -0.559,1.537 -1.469,2.859 -2.637,3.81 -1.166,0.95 -2.602,1.524 -4.143,1.523 0,0 -0.002,0 -0.004,0 -2.091,0 -3.97,-1.056 -5.281,-2.675 -1.318,-1.623 -2.107,-3.822 -2.109,-6.23 0.002,-2.407 0.791,-4.606 2.109,-6.229" />
      <path
         inkscape:connector-curvature="0"
         id="path4139"
         style="fill:none;stroke:#231f20;stroke-width:1;stroke-linecap:butt;stroke-linejoin:miter;stroke-miterlimit:4;stroke-dasharray:none;stroke-opacity:1"
         d="m 974.892,556.548 c 1.311,-1.621 3.192,-2.676 5.285,-2.676 1.311,0 2.537,0.417 3.594,1.123 l 0.002,-5.031 h -9.365 v -2.377 h 11.605 v 0.831 h 0.012 l -0.006,9.734 -2.252,-0.002 c -0.756,-1.088 -2.402,-1.901 -3.59,-1.901 -1.367,0 -2.621,0.674 -3.578,1.846 -0.951,1.168 -1.566,2.828 -1.564,4.682 -0.002,1.855 0.613,3.513 1.564,4.683 0.957,1.172 2.211,1.844 3.578,1.846 1.014,-0.002 1.952,-0.367 2.768,-1.027 0.814,-0.663 1.49,-1.625 1.91,-2.782 l 2.102,0.852 c -0.559,1.537 -1.469,2.859 -2.637,3.81 -1.166,0.95 -2.602,1.524 -4.143,1.523 0,0 -0.002,0 -0.004,0 -2.091,0 -3.97,-1.056 -5.281,-2.675 -1.318,-1.623 -2.107,-3.822 -2.109,-6.23 0.002,-2.407 0.791,-4.606 2.109,-6.229 z" />
      <path
         inkscape:connector-curvature="0"
         id="path4141"
         style="fill:#231f20;fill-opacity:1;fill-rule:evenodd;stroke:none;stroke-width:0.1"
         d="m 826.789,740.343 c -0.041,-0.027 -0.07,-0.041 -0.117,-0.072 -3.038,-1.94 -6.583,-5.724 -6.946,-10.442 -0.172,-2.244 1.263,-3.798 3.118,-3.832 1.184,-0.021 2.137,0.399 2.652,1.203 0.429,0.669 0.539,1.7 0.608,1.223 0.25,-1.816 -0.511,-3.562 -0.922,-5.088 0.459,0.167 1.035,0.251 1.613,0.253 h 0.01 c 0.576,-0.002 1.153,-0.086 1.611,-0.253 -0.412,1.526 -1.17,3.272 -0.921,5.088 0.069,0.477 0.178,-0.554 0.606,-1.223 0.516,-0.804 1.469,-1.224 2.653,-1.203 1.855,0.034 3.291,1.588 3.117,3.832 -0.363,4.718 -3.908,8.502 -6.942,10.442 -0.034,0.025 -0.063,0.04 -0.111,0.072 h -0.029" />
      <path
         inkscape:connector-curvature="0"
         id="path4143"
         style="fill:none;stroke:#231f20;stroke-width:0.065018;stroke-linecap:butt;stroke-linejoin:round;stroke-miterlimit:4;stroke-dasharray:none;stroke-opacity:1"
         d="m 826.789,740.343 c -0.041,-0.027 -0.07,-0.041 -0.117,-0.072 -3.038,-1.94 -6.583,-5.724 -6.946,-10.442 -0.172,-2.244 1.263,-3.798 3.118,-3.832 1.184,-0.021 2.137,0.399 2.652,1.203 0.429,0.669 0.539,1.7 0.608,1.223 0.25,-1.816 -0.511,-3.562 -0.922,-5.088 0.459,0.167 1.035,0.251 1.613,0.253 h 0.01 c 0.576,-0.002 1.153,-0.086 1.611,-0.253 -0.412,1.526 -1.17,3.272 -0.921,5.088 0.069,0.477 0.178,-0.554 0.606,-1.223 0.516,-0.804 1.469,-1.224 2.653,-1.203 1.855,0.034 3.291,1.588 3.117,3.832 -0.363,4.718 -3.908,8.502 -6.942,10.442 -0.034,0.025 -0.063,0.04 -0.111,0.072 z" />
      <path
         inkscape:connector-curvature="0"
         id="path4145"
         style="fill:#231f20;fill-opacity:1;fill-rule:evenodd;stroke:none;stroke-width:0.1"
         d="m 979.861,575.933 c -0.041,0.027 -0.07,0.041 -0.117,0.072 -3.037,1.94 -6.582,5.725 -6.946,10.441 -0.173,2.245 1.262,3.799 3.118,3.833 1.183,0.021 2.136,-0.399 2.652,-1.204 0.43,-0.668 0.539,-1.699 0.607,-1.222 0.25,1.816 -0.509,3.562 -0.921,5.088 0.459,-0.166 1.035,-0.25 1.613,-0.252 h 0.01 c 0.576,0.002 1.152,0.086 1.611,0.252 -0.412,-1.526 -1.17,-3.272 -0.922,-5.088 0.07,-0.477 0.18,0.554 0.607,1.222 0.516,0.805 1.469,1.225 2.651,1.204 1.855,-0.034 3.291,-1.588 3.119,-3.833 -0.363,-4.716 -3.908,-8.501 -6.943,-10.441 -0.034,-0.025 -0.063,-0.039 -0.11,-0.072 h -0.029" />
      <path
         inkscape:connector-curvature="0"
         id="path4147"
         style="fill:none;stroke:#231f20;stroke-width:0.065018;stroke-linecap:butt;stroke-linejoin:round;stroke-miterlimit:4;stroke-dasharray:none;stroke-opacity:1"
         d="m 979.861,575.933 c -0.041,0.027 -0.07,0.041 -0.117,0.072 -3.037,1.94 -6.582,5.725 -6.946,10.441 -0.173,2.245 1.262,3.799 3.118,3.833 1.183,0.021 2.136,-0.399 2.652,-1.204 0.43,-0.668 0.539,-1.699 0.607,-1.222 0.25,1.816 -0.509,3.562 -0.921,5.088 0.459,-0.166 1.035,-0.25 1.613,-0.252 h 0.01 c 0.576,0.002 1.152,0.086 1.611,0.252 -0.412,-1.526 -1.17,-3.272 -0.922,-5.088 0.07,-0.477 0.18,0.554 0.607,1.222 0.516,0.805 1.469,1.225 2.651,1.204 1.855,-0.034 3.291,-1.588 3.119,-3.833 -0.363,-4.716 -3.908,-8.501 -6.943,-10.441 -0.034,-0.025 -0.063,-0.039 -0.11,-0.072 z" />
      <path
         inkscape:connector-curvature="0"
         id="path4149"
         style="fill:#231f20;fill-opacity:1;fill-rule:evenodd;stroke:none;stroke-width:0.1"
         d="m 860.082,757.351 c -0.102,-0.068 -0.174,-0.104 -0.293,-0.181 -7.595,-4.85 -16.456,-14.311 -17.364,-26.104 -0.432,-5.611 3.155,-9.495 7.793,-9.58 2.961,-0.053 5.342,0.998 6.632,3.007 1.072,1.672 1.346,4.248 1.52,3.058 0.625,-4.541 -1.278,-8.906 -2.307,-12.72 1.148,0.417 2.59,0.627 4.034,0.632 h 0.024 c 1.442,-0.005 2.881,-0.215 4.027,-0.632 -1.027,3.814 -2.926,8.179 -2.303,12.72 0.174,1.19 0.446,-1.386 1.517,-3.058 1.289,-2.009 3.671,-3.06 6.631,-3.007 4.638,0.085 8.226,3.969 7.794,9.58 -0.908,11.793 -9.77,21.254 -17.358,26.104 -0.083,0.062 -0.156,0.1 -0.275,0.181 h -0.072" />
      <path
         inkscape:connector-curvature="0"
         id="path4151"
         style="fill:none;stroke:#231f20;stroke-width:0.16254601;stroke-linecap:butt;stroke-linejoin:round;stroke-miterlimit:4;stroke-dasharray:none;stroke-opacity:1"
         d="m 860.082,757.351 c -0.102,-0.068 -0.174,-0.104 -0.293,-0.181 -7.595,-4.85 -16.456,-14.311 -17.364,-26.104 -0.432,-5.611 3.155,-9.495 7.793,-9.58 2.961,-0.053 5.342,0.998 6.632,3.007 1.072,1.672 1.346,4.248 1.52,3.058 0.625,-4.541 -1.278,-8.906 -2.307,-12.72 1.148,0.417 2.59,0.627 4.034,0.632 h 0.024 c 1.442,-0.005 2.881,-0.215 4.027,-0.632 -1.027,3.814 -2.926,8.179 -2.303,12.72 0.174,1.19 0.446,-1.386 1.517,-3.058 1.289,-2.009 3.671,-3.06 6.631,-3.007 4.638,0.085 8.226,3.969 7.794,9.58 -0.908,11.793 -9.77,21.254 -17.358,26.104 -0.083,0.062 -0.156,0.1 -0.275,0.181 z" />
      <path
         inkscape:connector-curvature="0"
         id="path4153"
         style="fill:#231f20;fill-opacity:1;fill-rule:evenodd;stroke:none;stroke-width:0.1"
         d="m 946.539,757.351 c -0.102,-0.068 -0.174,-0.104 -0.293,-0.181 -7.596,-4.85 -16.455,-14.311 -17.364,-26.104 -0.433,-5.611 3.155,-9.495 7.793,-9.58 2.961,-0.053 5.342,0.998 6.631,3.007 1.073,1.672 1.346,4.248 1.52,3.058 0.625,-4.541 -1.276,-8.906 -2.305,-12.72 1.147,0.417 2.588,0.627 4.033,0.632 h 0.024 c 1.443,-0.005 2.881,-0.215 4.027,-0.632 -1.027,3.814 -2.926,8.179 -2.303,12.72 0.174,1.19 0.448,-1.386 1.518,-3.058 1.289,-2.009 3.67,-3.06 6.631,-3.007 4.638,0.085 8.226,3.969 7.793,9.58 -0.908,11.793 -9.77,21.254 -17.358,26.104 -0.084,0.062 -0.156,0.1 -0.275,0.181 h -0.072" />
      <path
         inkscape:connector-curvature="0"
         id="path4155"
         style="fill:none;stroke:#231f20;stroke-width:0.16254601;stroke-linecap:butt;stroke-linejoin:round;stroke-miterlimit:4;stroke-dasharray:none;stroke-opacity:1"
         d="m 946.539,757.351 c -0.102,-0.068 -0.174,-0.104 -0.293,-0.181 -7.596,-4.85 -16.455,-14.311 -17.364,-26.104 -0.433,-5.611 3.155,-9.495 7.793,-9.58 2.961,-0.053 5.342,0.998 6.631,3.007 1.073,1.672 1.346,4.248 1.52,3.058 0.625,-4.541 -1.276,-8.906 -2.305,-12.72 1.147,0.417 2.588,0.627 4.033,0.632 h 0.024 c 1.443,-0.005 2.881,-0.215 4.027,-0.632 -1.027,3.814 -2.926,8.179 -2.303,12.72 0.174,1.19 0.448,-1.386 1.518,-3.058 1.289,-2.009 3.67,-3.06 6.631,-3.007 4.638,0.085 8.226,3.969 7.793,9.58 -0.908,11.793 -9.77,21.254 -17.358,26.104 -0.084,0.062 -0.156,0.1 -0.275,0.181 z" />
      <path
         inkscape:connector-curvature="0"
         id="path4157"
         style="fill:#231f20;fill-opacity:1;fill-rule:evenodd;stroke:none;stroke-width:0.1"
         d="m 903.31,679.398 c -0.101,-0.068 -0.174,-0.103 -0.293,-0.181 -7.595,-4.849 -16.456,-14.31 -17.364,-26.104 -0.432,-5.61 3.155,-9.495 7.794,-9.579 2.961,-0.054 5.342,0.997 6.631,3.006 1.072,1.672 1.345,4.248 1.519,3.059 0.625,-4.542 -1.275,-8.908 -2.304,-12.721 1.146,0.417 2.587,0.627 4.033,0.632 h 0.023 c 1.444,-0.005 2.881,-0.215 4.028,-0.632 -1.028,3.813 -2.926,8.179 -2.303,12.721 0.174,1.189 0.447,-1.387 1.517,-3.059 1.289,-2.009 3.67,-3.06 6.631,-3.006 4.639,0.084 8.227,3.969 7.793,9.579 -0.908,11.794 -9.769,21.255 -17.357,26.104 -0.084,0.062 -0.156,0.099 -0.276,0.181 h -0.072" />
      <path
         inkscape:connector-curvature="0"
         id="path4159"
         style="fill:none;stroke:#231f20;stroke-width:0.16254601;stroke-linecap:butt;stroke-linejoin:round;stroke-miterlimit:4;stroke-dasharray:none;stroke-opacity:1"
         d="m 903.31,679.398 c -0.101,-0.068 -0.174,-0.103 -0.293,-0.181 -7.595,-4.849 -16.456,-14.31 -17.364,-26.104 -0.432,-5.61 3.155,-9.495 7.794,-9.579 2.961,-0.054 5.342,0.997 6.631,3.006 1.072,1.672 1.345,4.248 1.519,3.059 0.625,-4.542 -1.275,-8.908 -2.304,-12.721 1.146,0.417 2.587,0.627 4.033,0.632 h 0.023 c 1.444,-0.005 2.881,-0.215 4.028,-0.632 -1.028,3.813 -2.926,8.179 -2.303,12.721 0.174,1.189 0.447,-1.387 1.517,-3.059 1.289,-2.009 3.67,-3.06 6.631,-3.006 4.639,0.084 8.227,3.969 7.793,9.579 -0.908,11.794 -9.769,21.255 -17.357,26.104 -0.084,0.062 -0.156,0.099 -0.276,0.181 z" />
      <path
         inkscape:connector-curvature="0"
         id="path4161"
         style="fill:#231f20;fill-opacity:1;fill-rule:evenodd;stroke:none;stroke-width:0.1"
         d="m 860.082,558.925 c -0.102,0.068 -0.174,0.104 -0.293,0.182 -7.595,4.848 -16.456,14.309 -17.364,26.103 -0.432,5.61 3.155,9.494 7.793,9.579 2.961,0.054 5.342,-0.997 6.632,-3.007 1.072,-1.671 1.346,-4.248 1.52,-3.057 0.625,4.542 -1.278,8.907 -2.307,12.72 1.148,-0.416 2.59,-0.627 4.034,-0.631 h 0.024 c 1.442,0.004 2.881,0.215 4.027,0.631 -1.027,-3.813 -2.926,-8.178 -2.303,-12.72 0.174,-1.191 0.446,1.386 1.517,3.057 1.289,2.01 3.671,3.061 6.631,3.007 4.638,-0.085 8.226,-3.969 7.794,-9.579 -0.908,-11.794 -9.77,-21.255 -17.358,-26.103 -0.083,-0.063 -0.156,-0.1 -0.275,-0.182 h -0.072" />
      <path
         inkscape:connector-curvature="0"
         id="path4163"
         style="fill:none;stroke:#231f20;stroke-width:0.16254601;stroke-linecap:butt;stroke-linejoin:round;stroke-miterlimit:4;stroke-dasharray:none;stroke-opacity:1"
         d="m 860.082,558.925 c -0.102,0.068 -0.174,0.104 -0.293,0.182 -7.595,4.848 -16.456,14.309 -17.364,26.103 -0.432,5.61 3.155,9.494 7.793,9.579 2.961,0.054 5.342,-0.997 6.632,-3.007 1.072,-1.671 1.346,-4.248 1.52,-3.057 0.625,4.542 -1.278,8.907 -2.307,12.72 1.148,-0.416 2.59,-0.627 4.034,-0.631 h 0.024 c 1.442,0.004 2.881,0.215 4.027,0.631 -1.027,-3.813 -2.926,-8.178 -2.303,-12.72 0.174,-1.191 0.446,1.386 1.517,3.057 1.289,2.01 3.671,3.061 6.631,3.007 4.638,-0.085 8.226,-3.969 7.794,-9.579 -0.908,-11.794 -9.77,-21.255 -17.358,-26.103 -0.083,-0.063 -0.156,-0.1 -0.275,-0.182 z" />
      <path
         inkscape:connector-curvature="0"
         id="path4165"
         style="fill:#231f20;fill-opacity:1;fill-rule:evenodd;stroke:none;stroke-width:0.1"
         d="m 946.539,558.925 c -0.102,0.067 -0.174,0.104 -0.293,0.182 -7.594,4.848 -16.455,14.309 -17.364,26.103 -0.431,5.61 3.155,9.494 7.793,9.579 2.961,0.054 5.342,-0.997 6.633,-3.007 1.072,-1.671 1.346,-4.248 1.52,-3.057 0.625,4.542 -1.278,8.907 -2.307,12.72 1.147,-0.416 2.59,-0.627 4.033,-0.631 h 0.024 c 1.443,0.004 2.883,0.215 4.027,0.631 -1.027,-3.813 -2.926,-8.178 -2.303,-12.72 0.174,-1.191 0.448,1.386 1.518,3.057 1.289,2.01 3.67,3.061 6.631,3.007 4.638,-0.085 8.226,-3.969 7.793,-9.579 -0.908,-11.794 -9.77,-21.255 -17.358,-26.103 -0.082,-0.063 -0.156,-0.1 -0.275,-0.182 h -0.072" />
      <path
         inkscape:connector-curvature="0"
         id="path4167"
         style="fill:none;stroke:#231f20;stroke-width:0.16254601;stroke-linecap:butt;stroke-linejoin:round;stroke-miterlimit:4;stroke-dasharray:none;stroke-opacity:1"
         d="m 946.539,558.925 c -0.102,0.067 -0.174,0.104 -0.293,0.182 -7.594,4.848 -16.455,14.309 -17.364,26.103 -0.431,5.61 3.155,9.494 7.793,9.579 2.961,0.054 5.342,-0.997 6.633,-3.007 1.072,-1.671 1.346,-4.248 1.52,-3.057 0.625,4.542 -1.278,8.907 -2.307,12.72 1.147,-0.416 2.59,-0.627 4.033,-0.631 h 0.024 c 1.443,0.004 2.883,0.215 4.027,0.631 -1.027,-3.813 -2.926,-8.178 -2.303,-12.72 0.174,-1.191 0.448,1.386 1.518,3.057 1.289,2.01 3.67,3.061 6.631,3.007 4.638,-0.085 8.226,-3.969 7.793,-9.579 -0.908,-11.794 -9.77,-21.255 -17.358,-26.103 -0.082,-0.063 -0.156,-0.1 -0.275,-0.182 z" />
    </g>
  </g>
</svg>
