<?xml version="1.0" encoding="UTF-8" standalone="no"?>
<!-- Created with Inkscape (http://www.inkscape.org/) -->

<svg
   xmlns:dc="http://purl.org/dc/elements/1.1/"
   xmlns:cc="http://creativecommons.org/ns#"
   xmlns:rdf="http://www.w3.org/1999/02/22-rdf-syntax-ns#"
   xmlns:svg="http://www.w3.org/2000/svg"
   xmlns="http://www.w3.org/2000/svg"
   xmlns:sodipodi="http://sodipodi.sourceforge.net/DTD/sodipodi-0.dtd"
   xmlns:inkscape="http://www.inkscape.org/namespaces/inkscape"
   width="63.353001mm"
   height="88.352997mm"
   viewBox="0 0 63.353001 88.352997"
   version="1.1"
   id="svg22813"
   inkscape:version="0.92.2 2405546, 2018-03-11"
   sodipodi:docname="6c.svg">
  <defs
     id="defs22807" />
  <sodipodi:namedview
     id="base"
     pagecolor="#ffffff"
     bordercolor="#666666"
     borderopacity="1.0"
     inkscape:pageopacity="0.0"
     inkscape:pageshadow="2"
     inkscape:zoom="1.4"
     inkscape:cx="79.906021"
     inkscape:cy="124.23278"
     inkscape:document-units="mm"
     inkscape:current-layer="layer1"
     showgrid="false"
     inkscape:window-width="1920"
     inkscape:window-height="992"
     inkscape:window-x="0"
     inkscape:window-y="27"
     inkscape:window-maximized="1" />
  <metadata
     id="metadata22810">
    <rdf:RDF>
      <cc:Work
         rdf:about="">
        <dc:format>image/svg+xml</dc:format>
        <dc:type
           rdf:resource="http://purl.org/dc/dcmitype/StillImage" />
        <dc:title></dc:title>
      </cc:Work>
    </rdf:RDF>
  </metadata>
  <g
     inkscape:label="Layer 1"
     inkscape:groupmode="layer"
     id="layer1"
     transform="translate(0,-208.647)">
    <g
       transform="matrix(0.35277777,0,0,-0.35277777,-1.3793611e-4,391.0001)"
       id="g64098">
      <path
         d="m 179.082,281.13 c 0,-7.827 -6.344,-14.173 -14.172,-14.173 H 14.6738 c -7.82771,0 -14.173409,6.346 -14.173409,14.173 v 221.102 c 0,7.828 6.345699,14.173 14.173409,14.173 H 164.91 c 7.828,0 14.172,-6.345 14.172,-14.173 V 281.13"
         style="fill:#f7f7f5;fill-opacity:1;fill-rule:nonzero;stroke:none;stroke-width:0.1"
         id="path43330"
         inkscape:connector-curvature="0" />
      <path
         d="m 179.082,281.13 c 0,-7.827 -6.344,-14.173 -14.172,-14.173 H 14.6738 c -7.82771,0 -14.173409,6.346 -14.173409,14.173 v 221.102 c 0,7.828 6.345699,14.173 14.173409,14.173 H 164.91 c 7.828,0 14.172,-6.345 14.172,-14.173 z"
         style="fill:none;stroke:#231f20;stroke-width:1;stroke-linecap:butt;stroke-linejoin:miter;stroke-miterlimit:4;stroke-dasharray:none;stroke-opacity:1"
         id="path43332"
         inkscape:connector-curvature="0" />
      <path
         d="m 13.257,473.885 c -1.864,0 -3.37692,-1.703 -3.37692,-3.801 0,-1.2 0.50042,-2.264 1.26832,-2.967 0.2594,-0.237 0.1481,-0.495 -0.1156,-0.334 -0.4801,0.291 -1.0215,0.476 -1.60663,0.476 -1.79687,0 -3.25625,-1.642 -3.25625,-3.666 0,-2.024 1.45938,-3.667 3.25625,-3.667 1.19843,0 2.24803,0.728 2.81053,1.816 0.0559,0.107 0.0996,0.253 0.1778,0.253 0.107,0 0.157,-0.175 0.157,-0.503 0,-1.314 -0.5047,-2.85 -1.2516,-4.615 0.3227,0.076 1.2989,0.271 1.9371,0.271 0.6375,0 1.6137,-0.195 1.936,-0.271 -0.7457,1.765 -1.2512,3.301 -1.2512,4.615 0,0.328 0.05,0.503 0.1574,0.503 0.077,0 0.1219,-0.146 0.1774,-0.253 0.5629,-1.088 1.6117,-1.816 2.8097,-1.816 1.7981,0 3.2571,1.643 3.2571,3.667 0,2.024 -1.459,3.666 -3.2571,3.666 -0.5843,0 -1.1258,-0.185 -1.6062,-0.476 -0.2633,-0.161 -0.3742,0.097 -0.1153,0.334 0.7676,0.703 1.2684,1.767 1.2684,2.967 0,2.098 -1.5137,3.801 -3.3762,3.801"
         style="fill:#050301;fill-opacity:1;fill-rule:nonzero;stroke:none;stroke-width:0.1"
         id="path43334"
         inkscape:connector-curvature="0" />
      <path
         d="m 166.328,309.477 c 1.863,0 3.376,1.704 3.376,3.802 0,1.198 -0.5,2.263 -1.268,2.966 -0.26,0.237 -0.147,0.494 0.115,0.334 0.48,-0.293 1.022,-0.476 1.607,-0.476 1.797,0 3.256,1.642 3.256,3.666 0,2.023 -1.459,3.666 -3.256,3.666 -1.199,0 -2.247,-0.729 -2.811,-1.817 -0.056,-0.105 -0.099,-0.252 -0.177,-0.252 -0.107,0 -0.157,0.175 -0.157,0.503 0,1.314 0.505,2.851 1.25,4.617 -0.321,-0.078 -1.298,-0.273 -1.935,-0.273 -0.639,0 -1.614,0.195 -1.937,0.273 0.745,-1.766 1.252,-3.303 1.252,-4.617 0,-0.328 -0.052,-0.503 -0.158,-0.503 -0.078,0 -0.123,0.147 -0.177,0.252 -0.562,1.088 -1.612,1.817 -2.81,1.817 -1.798,0 -3.257,-1.643 -3.257,-3.666 0,-2.024 1.459,-3.666 3.257,-3.666 0.584,0 1.125,0.183 1.606,0.476 0.264,0.16 0.374,-0.097 0.116,-0.334 -0.768,-0.703 -1.268,-1.768 -1.268,-2.966 0,-2.098 1.512,-3.802 3.376,-3.802"
         style="fill:#050301;fill-opacity:1;fill-rule:nonzero;stroke:none;stroke-width:0.1"
         id="path43336"
         inkscape:connector-curvature="0" />
      <path
         d="m 46.5648,490.789 c -4.6601,0 -8.4414,-4.258 -8.4414,-9.504 0,-2.999 1.2516,-5.66 3.17,-7.417 0.6476,-0.593 0.3711,-1.237 -0.2891,-0.836 -1.2,0.73 -2.5535,1.194 -4.0156,1.194 -4.493,0 -8.1414,-4.107 -8.1414,-9.167 0,-5.061 3.6484,-9.168 8.1414,-9.168 2.9961,0 5.6183,1.823 7.0261,4.542 0.1379,0.265 0.2493,0.631 0.4438,0.631 0.2672,0 0.3914,-0.438 0.3914,-1.256 0,-3.287 -1.2617,-7.126 -3.127,-11.539 0.8059,0.192 3.2473,0.678 4.8418,0.678 1.5938,0 4.0352,-0.486 4.8411,-0.678 -1.8668,4.413 -3.1282,8.252 -3.1282,11.539 0,0.818 0.125,1.256 0.3926,1.256 0.1945,0 0.3059,-0.366 0.443,-0.631 1.4078,-2.719 4.0305,-4.542 7.0258,-4.542 4.4941,0 8.1418,4.107 8.1418,9.168 0,5.06 -3.6477,9.167 -8.1418,9.167 -1.4618,0 -2.8164,-0.464 -4.0145,-1.194 -0.6601,-0.401 -0.9383,0.243 -0.2891,0.836 1.9184,1.757 3.1688,4.418 3.1688,7.417 0,5.246 -3.7813,9.504 -8.4395,9.504"
         style="fill:#050301;fill-opacity:1;fill-rule:nonzero;stroke:none;stroke-width:0.1"
         id="path43338"
         inkscape:connector-curvature="0" />
      <path
         d="m 46.5648,412.888 c -4.6601,0 -8.4414,-4.253 -8.4414,-9.492 0,-3 1.2516,-5.667 3.17,-7.427 0.6476,-0.594 0.3711,-1.24 -0.2891,-0.838 -1.2,0.731 -2.5535,1.195 -4.0156,1.195 -4.493,0 -8.1414,-4.115 -8.1414,-9.172 0,-5.053 3.6484,-9.157 8.1414,-9.157 2.9961,0 5.6183,1.821 7.0261,4.537 0.1379,0.266 0.2493,0.63 0.4438,0.63 0.2672,0 0.3914,-0.436 0.3914,-1.255 0,-3.283 -1.2617,-7.123 -3.127,-11.54 0.8059,0.192 3.2473,0.679 4.8418,0.679 1.5938,0 4.0352,-0.487 4.8411,-0.679 -1.8668,4.417 -3.1282,8.257 -3.1282,11.54 0,0.819 0.125,1.255 0.3926,1.255 0.1945,0 0.3059,-0.364 0.443,-0.63 1.4078,-2.716 4.0305,-4.537 7.0258,-4.537 4.4941,0 8.1418,4.104 8.1418,9.157 0,5.057 -3.6477,9.172 -8.1418,9.172 -1.4618,0 -2.8164,-0.464 -4.0145,-1.195 -0.6601,-0.402 -0.9383,0.244 -0.2891,0.838 1.9184,1.76 3.1688,4.427 3.1688,7.427 0,5.239 -3.7813,9.492 -8.4395,9.492"
         style="fill:#050301;fill-opacity:1;fill-rule:nonzero;stroke:none;stroke-width:0.1"
         id="path43340"
         inkscape:connector-curvature="0" />
      <path
         d="m 46.5641,292.469 c 4.6597,0 8.4414,4.258 8.4414,9.505 0,2.998 -1.2516,5.658 -3.17,7.415 -0.6484,0.593 -0.371,1.237 0.2891,0.837 1.1992,-0.731 2.5527,-1.194 4.0145,-1.194 4.4941,0 8.1418,4.106 8.1418,9.166 0,5.061 -3.6477,9.168 -8.1418,9.168 -2.995,0 -5.6176,-1.822 -7.0258,-4.541 -0.1371,-0.265 -0.2485,-0.632 -0.443,-0.632 -0.2676,0 -0.3926,0.439 -0.3926,1.257 0,3.286 1.2618,7.125 3.1282,11.538 -0.8059,-0.192 -3.2473,-0.678 -4.8418,-0.678 -1.595,0 -4.0352,0.486 -4.8411,0.678 1.8665,-4.413 3.127,-8.252 3.127,-11.538 0,-0.818 -0.1238,-1.257 -0.3914,-1.257 -0.1945,0 -0.3055,0.367 -0.4434,0.632 -1.4082,2.719 -4.0304,4.541 -7.0254,4.541 -4.4941,0 -8.1425,-4.107 -8.1425,-9.168 0,-5.06 3.6484,-9.166 8.1425,-9.166 1.461,0 2.8153,0.463 4.0145,1.194 0.6602,0.4 0.9375,-0.244 0.2891,-0.837 -1.9184,-1.757 -3.1696,-4.417 -3.1696,-7.415 0,-5.247 3.7817,-9.505 8.4403,-9.505"
         style="fill:#050301;fill-opacity:1;fill-rule:nonzero;stroke:none;stroke-width:0.1"
         id="path43342"
         inkscape:connector-curvature="0" />
      <path
         d="m 133.02,490.893 c -4.66,0 -8.44,-4.258 -8.44,-9.504 0,-2.999 1.25,-5.66 3.168,-7.416 0.648,-0.594 0.372,-1.237 -0.287,-0.836 -1.201,0.729 -2.554,1.192 -4.016,1.192 -4.494,0 -8.142,-4.106 -8.142,-9.166 0,-5.06 3.648,-9.168 8.142,-9.168 2.995,0 5.618,1.823 7.025,4.541 0.139,0.267 0.249,0.632 0.444,0.632 0.267,0 0.393,-0.438 0.393,-1.257 0,-3.287 -1.264,-7.126 -3.129,-11.538 0.806,0.191 3.247,0.678 4.842,0.678 1.595,0 4.035,-0.487 4.842,-0.678 -1.866,4.412 -3.128,8.251 -3.128,11.538 0,0.819 0.125,1.257 0.391,1.257 0.195,0 0.307,-0.365 0.444,-0.632 1.407,-2.718 4.029,-4.541 7.026,-4.541 4.494,0 8.141,4.108 8.141,9.168 0,5.06 -3.647,9.166 -8.141,9.166 -1.461,0 -2.815,-0.463 -4.015,-1.192 -0.66,-0.401 -0.937,0.242 -0.289,0.836 1.918,1.756 3.17,4.417 3.17,7.416 0,5.246 -3.782,9.504 -8.441,9.504"
         style="fill:#050301;fill-opacity:1;fill-rule:nonzero;stroke:none;stroke-width:0.1"
         id="path43344"
         inkscape:connector-curvature="0" />
      <path
         d="m 133.02,412.941 c -4.66,0 -8.44,-4.253 -8.44,-9.493 0,-2.999 1.25,-5.666 3.168,-7.425 0.648,-0.595 0.372,-1.24 -0.287,-0.839 -1.201,0.732 -2.554,1.196 -4.016,1.196 -4.494,0 -8.142,-4.116 -8.142,-9.173 0,-5.054 3.648,-9.156 8.142,-9.156 2.995,0 5.618,1.819 7.025,4.535 0.139,0.267 0.249,0.63 0.444,0.63 0.267,0 0.393,-0.437 0.393,-1.254 0,-3.283 -1.264,-7.123 -3.129,-11.541 0.806,0.193 3.247,0.68 4.842,0.68 1.595,0 4.035,-0.487 4.842,-0.68 -1.866,4.418 -3.128,8.258 -3.128,11.541 0,0.817 0.125,1.254 0.391,1.254 0.195,0 0.307,-0.363 0.444,-0.63 1.407,-2.716 4.029,-4.535 7.026,-4.535 4.494,0 8.141,4.102 8.141,9.156 0,5.057 -3.647,9.173 -8.141,9.173 -1.461,0 -2.815,-0.464 -4.015,-1.196 -0.66,-0.401 -0.937,0.244 -0.289,0.839 1.918,1.759 3.17,4.426 3.17,7.425 0,5.24 -3.782,9.493 -8.441,9.493"
         style="fill:#050301;fill-opacity:1;fill-rule:nonzero;stroke:none;stroke-width:0.1"
         id="path43346"
         inkscape:connector-curvature="0" />
      <path
         d="m 133.019,292.469 c 4.66,0 8.442,4.257 8.442,9.505 0,2.998 -1.252,5.658 -3.17,7.414 -0.648,0.594 -0.371,1.239 0.289,0.838 1.201,-0.731 2.554,-1.195 4.015,-1.195 4.494,0 8.141,4.107 8.141,9.167 0,5.061 -3.647,9.168 -8.141,9.168 -2.997,0 -5.618,-1.822 -7.026,-4.541 -0.137,-0.265 -0.249,-0.63 -0.444,-0.63 -0.266,0 -0.391,0.437 -0.391,1.255 0,3.286 1.262,7.126 3.127,11.538 -0.806,-0.192 -3.246,-0.678 -4.842,-0.678 -1.594,0 -4.035,0.486 -4.841,0.678 1.867,-4.412 3.129,-8.252 3.129,-11.538 0,-0.818 -0.126,-1.255 -0.393,-1.255 -0.195,0 -0.305,0.365 -0.443,0.63 -1.408,2.719 -4.031,4.541 -7.025,4.541 -4.495,0 -8.143,-4.107 -8.143,-9.168 0,-5.06 3.648,-9.167 8.143,-9.167 1.461,0 2.814,0.464 4.015,1.195 0.659,0.401 0.937,-0.244 0.287,-0.838 -1.918,-1.756 -3.168,-4.416 -3.168,-7.414 0,-5.248 3.781,-9.505 8.439,-9.505"
         style="fill:#050301;fill-opacity:1;fill-rule:nonzero;stroke:none;stroke-width:0.1"
         id="path43348"
         inkscape:connector-curvature="0" />
      <path
         d="m 18.5199,492.913 c -0.6043,0.792 -1.3594,1.446 -2.2351,1.893 -0.8762,0.448 -1.8711,0.689 -2.9414,0.688 -0.0286,0 -0.0539,-0.001 -0.0754,-0.001 -1.0742,-0.011 -2.0742,-0.283 -2.9492,-0.767 -0.58091,-0.322 -1.10044,-0.737 -1.56138,-1.219 0.04141,0.249 0.08399,0.488 0.12696,0.708 0.13164,0.678 0.2625,1.215 0.35898,1.577 0.04922,0.181 0.08828,0.319 0.11523,0.409 0.01289,0.044 0.02266,0.078 0.02852,0.097 0.00469,0.011 0.00703,0.018 0.00781,0.022 0,0 0.00117,0.001 0.00117,0.001 v 0.002 l 0.01016,0.03 0.00625,0.026 0.00195,0.005 v 10e-4 c 0.02305,0.083 0.2961,0.935 0.91215,1.735 0.3203,0.416 0.7269,0.819 1.2375,1.128 0.5117,0.309 1.1297,0.531 1.9246,0.576 0.1113,0.006 0.2179,0.008 0.3222,0.008 1.4121,-0.004 2.3399,-0.502 2.9524,-0.986 0.3047,-0.243 0.5234,-0.485 0.6601,-0.655 0.0672,-0.086 0.1153,-0.155 0.1434,-0.196 0.0137,-0.02 0.0215,-0.033 0.0246,-0.039 0.0027,-0.003 0.0027,-0.003 0.0027,-0.003 l 0.543,0.388 1.3039,0.895 c -0.0527,0.089 -0.4765,0.818 -1.3906,1.549 -0.9094,0.733 -2.332,1.451 -4.2395,1.447 -0.1394,0 -0.2839,-0.003 -0.4316,-0.012 -1.1551,-0.061 -2.1465,-0.415 -2.9453,-0.916 -1.20314,-0.753 -1.97072,-1.803 -2.44025,-2.65 -0.42773,-0.774 -0.61875,-1.392 -0.66406,-1.549 -0.11328,-0.361 -1.15781,-3.748 -1.16016,-8.376 0,-0.851 0.04375,-1.749 0.12774,-2.672 0.0957,-2.108 0.75859,-4.012 1.89961,-5.436 1.22695,-1.539 3.02582,-2.484 5.05942,-2.484 0.007,0 0.0148,0 0.0214,0 1.0715,0 2.0723,0.255 2.9524,0.722 1.323,0.7 2.3621,1.865 3.0554,3.268 0.6954,1.405 1.0567,3.052 1.0579,4.785 -0.0012,2.286 -0.6153,4.41 -1.8235,6.001 z m -1.7265,-10.574 c -0.4258,-0.565 -0.9317,-1.009 -1.5137,-1.319 -0.582,-0.307 -1.243,-0.482 -2.002,-0.483 -1.4422,0.006 -2.5898,0.621 -3.4402,1.67 -0.74609,0.929 -1.24453,2.226 -1.35117,3.763 l 0.01133,0.002 c -0.00977,0.092 -0.01289,0.182 -0.02149,0.273 -0.0039,0.116 -0.01289,0.228 -0.01289,0.345 -0.00195,1.828 0.50313,3.485 1.34336,4.639 0.42036,0.579 0.92106,1.036 1.49606,1.354 0.5758,0.317 1.2301,0.502 1.986,0.511 0.0215,0 0.0398,0.001 0.0547,0.001 0.7761,-0.001 1.4414,-0.171 2.0183,-0.465 0.8633,-0.442 1.5449,-1.173 2.0324,-2.151 0.4864,-0.978 0.7625,-2.204 0.7625,-3.567 0.002,-1.822 -0.5125,-3.446 -1.3632,-4.573"
         style="fill:#000000;fill-opacity:1;fill-rule:nonzero;stroke:none;stroke-width:0.1"
         id="path43350"
         inkscape:connector-curvature="0" />
      <path
         d="m 161.064,290.449 c 0.604,-0.792 1.359,-1.445 2.235,-1.892 0.875,-0.448 1.871,-0.69 2.941,-0.689 0.029,0 0.055,0 0.076,0 1.074,0.012 2.074,0.284 2.949,0.769 0.58,0.321 1.1,0.736 1.561,1.218 -0.041,-0.248 -0.084,-0.488 -0.126,-0.707 -0.133,-0.678 -0.264,-1.215 -0.36,-1.578 -0.049,-0.18 -0.088,-0.318 -0.115,-0.409 -0.014,-0.044 -0.023,-0.077 -0.029,-0.097 -0.004,-0.01 -0.006,-0.018 -0.007,-0.021 0,-0.001 -0.002,-0.002 -0.002,-0.002 v -0.002 l -0.01,-0.029 -0.007,-0.026 -0.002,-0.005 v -10e-4 c -0.022,-0.083 -0.295,-0.936 -0.912,-1.736 -0.319,-0.417 -0.726,-0.819 -1.237,-1.128 -0.511,-0.308 -1.129,-0.531 -1.924,-0.576 -0.111,-0.006 -0.218,-0.008 -0.323,-0.008 -1.411,0.004 -2.339,0.502 -2.951,0.987 -0.305,0.242 -0.524,0.484 -0.66,0.655 -0.068,0.086 -0.116,0.154 -0.144,0.194 -0.013,0.022 -0.021,0.034 -0.025,0.04 -0.002,0.003 -0.002,0.003 -0.002,0.003 l -0.544,-0.388 -1.304,-0.894 c 0.053,-0.09 0.478,-0.818 1.392,-1.55 0.909,-0.732 2.332,-1.451 4.238,-1.447 0.141,0 0.284,0.004 0.433,0.013 1.154,0.06 2.145,0.415 2.945,0.916 1.203,0.752 1.97,1.802 2.439,2.649 0.428,0.774 0.62,1.393 0.665,1.55 0.113,0.36 1.158,3.747 1.16,8.376 0,0.85 -0.044,1.748 -0.128,2.672 -0.096,2.107 -0.758,4.012 -1.9,5.434 -1.226,1.54 -3.025,2.485 -5.058,2.485 -0.007,0 -0.015,0 -0.023,0 -1.07,10e-4 -2.071,-0.255 -2.951,-0.722 -1.323,-0.7 -2.362,-1.865 -3.056,-3.267 -0.695,-1.406 -1.056,-3.053 -1.057,-4.786 10e-4,-2.286 0.615,-4.41 1.823,-6.001 z m 1.727,10.574 c 0.425,0.565 0.931,1.009 1.512,1.319 0.583,0.308 1.244,0.482 2.002,0.483 1.443,-0.007 2.59,-0.621 3.441,-1.671 0.746,-0.928 1.245,-2.225 1.351,-3.762 l -0.011,-10e-4 c 0.01,-0.093 0.012,-0.182 0.021,-0.275 0.005,-0.114 0.013,-0.226 0.013,-0.343 0.001,-1.828 -0.502,-3.486 -1.343,-4.639 -0.421,-0.579 -0.921,-1.036 -1.496,-1.355 -0.576,-0.317 -1.23,-0.502 -1.986,-0.51 -0.021,0 -0.041,-0.001 -0.055,-0.001 -0.776,0.001 -1.442,0.171 -2.018,0.464 -0.863,0.443 -1.545,1.173 -2.033,2.152 -0.485,0.977 -0.763,2.204 -0.763,3.566 -10e-4,1.823 0.514,3.446 1.365,4.573"
         style="fill:#000000;fill-opacity:1;fill-rule:nonzero;stroke:none;stroke-width:0.1"
         id="path43352"
         inkscape:connector-curvature="0" />
    </g>
  </g>
</svg>
