<?xml version="1.0" encoding="UTF-8" standalone="no"?>
<!-- Created with Inkscape (http://www.inkscape.org/) -->

<svg
   xmlns:dc="http://purl.org/dc/elements/1.1/"
   xmlns:cc="http://creativecommons.org/ns#"
   xmlns:rdf="http://www.w3.org/1999/02/22-rdf-syntax-ns#"
   xmlns:svg="http://www.w3.org/2000/svg"
   xmlns="http://www.w3.org/2000/svg"
   xmlns:sodipodi="http://sodipodi.sourceforge.net/DTD/sodipodi-0.dtd"
   xmlns:inkscape="http://www.inkscape.org/namespaces/inkscape"
   width="63.353001mm"
   height="88.352997mm"
   viewBox="0 0 63.353001 88.352997"
   version="1.1"
   id="svg22813"
   inkscape:version="0.92.2 2405546, 2018-03-11"
   sodipodi:docname="6d.svg">
  <defs
     id="defs22807" />
  <sodipodi:namedview
     id="base"
     pagecolor="#ffffff"
     bordercolor="#666666"
     borderopacity="1.0"
     inkscape:pageopacity="0.0"
     inkscape:pageshadow="2"
     inkscape:zoom="1.4"
     inkscape:cx="81.334592"
     inkscape:cy="124.23278"
     inkscape:document-units="mm"
     inkscape:current-layer="layer1"
     showgrid="false"
     inkscape:window-width="960"
     inkscape:window-height="992"
     inkscape:window-x="960"
     inkscape:window-y="27"
     inkscape:window-maximized="0" />
  <metadata
     id="metadata22810">
    <rdf:RDF>
      <cc:Work
         rdf:about="">
        <dc:format>image/svg+xml</dc:format>
        <dc:type
           rdf:resource="http://purl.org/dc/dcmitype/StillImage" />
        <dc:title></dc:title>
      </cc:Work>
    </rdf:RDF>
  </metadata>
  <g
     inkscape:label="Layer 1"
     inkscape:groupmode="layer"
     id="layer1"
     transform="translate(0,-208.647)">
    <g
       transform="matrix(0.35277777,0,0,-0.35277777,0,391.53491)"
       id="g87650">
      <path
         d="m 179.084,282.648 c 0,-7.829 -6.346,-14.175 -14.174,-14.175 H 14.6734 C 6.8457,268.473 0.5,274.819 0.5,282.648 v 221.098 c 0,7.828 6.3457,14.174 14.1734,14.174 H 164.91 c 7.828,0 14.174,-6.346 14.174,-14.174 V 282.648"
         style="fill:#f7f7f5;fill-opacity:1;fill-rule:nonzero;stroke:none;stroke-width:0.1"
         id="path74855"
         inkscape:connector-curvature="0" />
      <path
         d="m 179.084,282.648 c 0,-7.829 -6.346,-14.175 -14.174,-14.175 H 14.6734 C 6.8457,268.473 0.5,274.819 0.5,282.648 v 221.098 c 0,7.828 6.3457,14.174 14.1734,14.174 H 164.91 c 7.828,0 14.174,-6.346 14.174,-14.174 z"
         style="fill:none;stroke:#231f20;stroke-width:1;stroke-linecap:butt;stroke-linejoin:miter;stroke-miterlimit:4;stroke-dasharray:none;stroke-opacity:1"
         id="path74857"
         inkscape:connector-curvature="0" />
      <path
         d="m 13.2676,475.4 c 1.7867,-3.47 4.1449,-6.309 7.0758,-8.512 -2.9309,-2.207 -5.2891,-5.04 -7.0758,-8.496 -1.8024,3.456 -4.1676,6.289 -7.09768,8.496 2.93008,2.203 5.29528,5.042 7.09768,8.512 v 0"
         style="fill:#e52c3f;fill-opacity:1;fill-rule:nonzero;stroke:none;stroke-width:0.1"
         id="path74859"
         inkscape:connector-curvature="0" />
      <path
         d="m 166.338,328.002 c 1.787,-3.47 4.146,-6.308 7.076,-8.513 -2.93,-2.206 -5.289,-5.038 -7.076,-8.495 -1.801,3.457 -4.168,6.289 -7.097,8.495 2.929,2.205 5.296,5.043 7.097,8.513 v 0"
         style="fill:#e52c3f;fill-opacity:1;fill-rule:nonzero;stroke:none;stroke-width:0.1"
         id="path74861"
         inkscape:connector-curvature="0" />
      <path
         d="m 46.5883,492.408 c 4.4687,-8.674 10.3652,-15.77 17.6914,-21.283 -7.3262,-5.516 -13.2227,-12.595 -17.6914,-21.237 -4.5028,8.642 -10.4168,15.721 -17.7414,21.237 7.3246,5.513 13.2386,12.609 17.7414,21.283 v 0"
         style="fill:#e52c3f;fill-opacity:1;fill-rule:nonzero;stroke:none;stroke-width:0.1"
         id="path74863"
         inkscape:connector-curvature="0" />
      <path
         d="m 46.5883,414.455 c 4.468,-8.679 10.3644,-15.775 17.6914,-21.273 -7.327,-5.513 -13.2234,-12.599 -17.6914,-21.243 -4.5028,8.644 -10.4172,15.73 -17.7414,21.243 7.3242,5.498 13.2386,12.594 17.7414,21.273 v 0"
         style="fill:#e52c3f;fill-opacity:1;fill-rule:nonzero;stroke:none;stroke-width:0.1"
         id="path74865"
         inkscape:connector-curvature="0" />
      <path
         d="m 46.5883,336.506 c 4.4687,-8.675 10.3644,-15.768 17.6914,-21.283 -7.327,-5.517 -13.2227,-12.596 -17.6914,-21.237 -4.5028,8.641 -10.4168,15.72 -17.7414,21.237 7.3246,5.515 13.2386,12.608 17.7414,21.283 v 0"
         style="fill:#e52c3f;fill-opacity:1;fill-rule:nonzero;stroke:none;stroke-width:0.1"
         id="path74867"
         inkscape:connector-curvature="0" />
      <path
         d="m 133.045,492.408 c 4.469,-8.674 10.365,-15.77 17.691,-21.283 -7.326,-5.516 -13.222,-12.595 -17.691,-21.237 -4.502,8.642 -10.416,15.721 -17.741,21.237 7.325,5.513 13.239,12.609 17.741,21.283 v 0"
         style="fill:#e52c3f;fill-opacity:1;fill-rule:nonzero;stroke:none;stroke-width:0.1"
         id="path74869"
         inkscape:connector-curvature="0" />
      <path
         d="m 133.045,414.455 c 4.468,-8.679 10.364,-15.773 17.691,-21.271 -7.327,-5.515 -13.223,-12.6 -17.691,-21.245 -4.502,8.645 -10.416,15.73 -17.742,21.245 7.326,5.498 13.24,12.592 17.742,21.271 v 0"
         style="fill:#e52c3f;fill-opacity:1;fill-rule:nonzero;stroke:none;stroke-width:0.1"
         id="path74871"
         inkscape:connector-curvature="0" />
      <path
         d="m 133.045,336.506 c 4.468,-8.675 10.364,-15.77 17.691,-21.283 -7.327,-5.517 -13.223,-12.595 -17.691,-21.237 -4.502,8.642 -10.416,15.72 -17.742,21.237 7.326,5.513 13.24,12.608 17.742,21.283 v 0"
         style="fill:#e52c3f;fill-opacity:1;fill-rule:nonzero;stroke:none;stroke-width:0.1"
         id="path74873"
         inkscape:connector-curvature="0" />
      <path
         d="m 18.5191,494.428 c -0.6039,0.792 -1.3589,1.445 -2.2347,1.892 -0.8758,0.449 -1.8719,0.69 -2.941,0.689 -0.0293,0 -0.0547,0 -0.0762,0 -1.0742,-0.011 -2.0742,-0.284 -2.9492,-0.768 -0.58089,-0.321 -1.09964,-0.737 -1.56097,-1.218 0.04141,0.248 0.08399,0.487 0.12617,0.707 0.13243,0.678 0.26328,1.215 0.35938,1.577 0.04883,0.181 0.08789,0.318 0.11523,0.409 0.01367,0.044 0.02305,0.077 0.0293,0.098 0.00391,0.01 0.00586,0.017 0.00703,0.02 0,0.002 0.00117,0.002 0.00117,0.002 v 0.002 l 0.01055,0.029 0.00625,0.027 0.00195,0.005 v 10e-4 c 0.02305,0.082 0.29649,0.936 0.91254,1.735 0.3195,0.417 0.7265,0.82 1.2375,1.128 0.5113,0.309 1.1289,0.531 1.9238,0.576 0.1113,0.006 0.2176,0.008 0.323,0.008 1.4118,-0.004 2.3395,-0.502 2.952,-0.986 0.3039,-0.243 0.5226,-0.484 0.6601,-0.656 0.0672,-0.086 0.1153,-0.154 0.1434,-0.194 0.0133,-0.021 0.0215,-0.034 0.025,-0.04 0.002,-0.003 0.002,-0.003 0.002,-0.003 l 0.5437,0.387 1.3039,0.895 c -0.0527,0.09 -0.4777,0.818 -1.3914,1.55 -0.909,0.732 -2.3324,1.451 -4.2387,1.447 -0.1398,0 -0.2839,-0.004 -0.432,-0.012 -1.1547,-0.061 -2.1461,-0.416 -2.9457,-0.917 -1.20312,-0.752 -1.96992,-1.802 -2.43984,-2.649 -0.42773,-0.774 -0.61875,-1.392 -0.66484,-1.55 -0.1125,-0.36 -1.15704,-3.746 -1.15899,-8.375 0,-0.85 0.04375,-1.749 0.12735,-2.672 0.09609,-2.108 0.7582,-4.012 1.9,-5.435 1.22656,-1.539 3.02542,-2.485 5.05862,-2.485 0.0074,0 0.0144,0 0.0222,0 1.0711,0 2.0715,0.255 2.9512,0.723 1.3238,0.699 2.3629,1.864 3.0563,3.267 0.6953,1.405 1.0562,3.052 1.0578,4.785 -0.0016,2.286 -0.616,4.41 -1.8239,6.001 z M 16.793,483.855 c -0.4258,-0.566 -0.9321,-1.01 -1.5133,-1.319 -0.5824,-0.307 -1.2434,-0.483 -2.002,-0.484 -1.4433,0.007 -2.5898,0.622 -3.44059,1.671 -0.7457,0.929 -1.24492,2.225 -1.35117,3.763 h 0.01054 c -0.00976,0.094 -0.0121,0.182 -0.02031,0.275 -0.00508,0.114 -0.01289,0.227 -0.01289,0.344 -0.00195,1.828 0.50195,3.485 1.34297,4.639 0.42035,0.578 0.92075,1.035 1.49605,1.354 0.5762,0.318 1.2301,0.502 1.9852,0.511 0.0215,0 0.041,0 0.0559,0 0.7757,0 1.4414,-0.17 2.0179,-0.464 0.8629,-0.443 1.5446,-1.173 2.0328,-2.152 0.4852,-0.977 0.7625,-2.204 0.7625,-3.566 0.0012,-1.822 -0.5136,-3.446 -1.3636,-4.572"
         style="fill:#e52c3f;fill-opacity:1;fill-rule:nonzero;stroke:none;stroke-width:0.1"
         id="path74875"
         inkscape:connector-curvature="0" />
      <path
         d="m 161.064,291.967 c 0.604,-0.792 1.359,-1.446 2.234,-1.893 0.876,-0.448 1.872,-0.689 2.942,-0.688 0.029,0 0.055,0 0.076,0 1.074,0.012 2.074,0.283 2.949,0.767 0.58,0.323 1.1,0.738 1.561,1.219 -0.041,-0.248 -0.084,-0.488 -0.127,-0.708 -0.131,-0.676 -0.262,-1.215 -0.359,-1.577 -0.049,-0.181 -0.088,-0.318 -0.115,-0.408 -0.014,-0.044 -0.022,-0.077 -0.029,-0.098 -0.004,-0.01 -0.007,-0.017 -0.007,-0.02 0,-10e-4 -0.002,-0.002 -0.002,-0.002 v -0.002 l -0.01,-0.03 -0.006,-0.026 -0.001,-0.006 v 0 c -0.024,-0.083 -0.297,-0.936 -0.914,-1.736 -0.319,-0.416 -0.726,-0.82 -1.237,-1.127 -0.512,-0.309 -1.129,-0.531 -1.924,-0.576 -0.111,-0.006 -0.218,-0.008 -0.323,-0.008 -1.411,0.004 -2.339,0.502 -2.952,0.986 -0.304,0.243 -0.524,0.485 -0.66,0.655 -0.067,0.086 -0.115,0.154 -0.143,0.195 -0.013,0.02 -0.021,0.034 -0.025,0.039 -0.002,0.004 -0.002,0.004 -0.002,0.004 l -0.544,-0.388 -1.304,-0.894 c 0.053,-0.091 0.478,-0.819 1.391,-1.55 0.91,-0.732 2.333,-1.451 4.239,-1.447 0.14,0 0.284,0.004 0.433,0.011 1.154,0.062 2.145,0.416 2.945,0.917 1.203,0.753 1.97,1.803 2.439,2.65 0.428,0.773 0.62,1.392 0.665,1.549 0.113,0.361 1.158,3.746 1.16,8.377 0,0.849 -0.044,1.748 -0.127,2.67 -0.097,2.109 -0.759,4.013 -1.901,5.436 -1.226,1.539 -3.025,2.484 -5.058,2.484 -0.008,0 -0.016,0 -0.023,0 -1.071,0 -2.071,-0.254 -2.952,-0.722 -1.322,-0.7 -2.361,-1.865 -3.055,-3.267 -0.695,-1.405 -1.056,-3.053 -1.058,-4.785 0.002,-2.286 0.615,-4.411 1.824,-6.001 z m 1.727,10.573 c 0.425,0.565 0.931,1.01 1.512,1.319 0.583,0.307 1.243,0.483 2.002,0.484 1.443,-0.007 2.59,-0.622 3.441,-1.671 0.746,-0.929 1.245,-2.226 1.351,-3.763 l -0.011,-10e-4 c 0.009,-0.093 0.013,-0.181 0.021,-0.274 0.004,-0.114 0.013,-0.227 0.013,-0.344 0.001,-1.828 -0.503,-3.485 -1.343,-4.638 -0.42,-0.58 -0.921,-1.037 -1.496,-1.356 -0.576,-0.317 -1.231,-0.502 -1.986,-0.511 -0.022,0 -0.041,0 -0.055,0 -0.776,10e-4 -1.442,0.17 -2.018,0.464 -0.863,0.444 -1.545,1.174 -2.033,2.153 -0.486,0.977 -0.763,2.203 -0.763,3.566 -10e-4,1.822 0.514,3.445 1.365,4.572"
         style="fill:#e52c3f;fill-opacity:1;fill-rule:nonzero;stroke:none;stroke-width:0.1"
         id="path74877"
         inkscape:connector-curvature="0" />
    </g>
  </g>
</svg>
