<?xml version="1.0" encoding="UTF-8" standalone="no"?>
<!-- Created with Inkscape (http://www.inkscape.org/) -->

<svg
   xmlns:dc="http://purl.org/dc/elements/1.1/"
   xmlns:cc="http://creativecommons.org/ns#"
   xmlns:rdf="http://www.w3.org/1999/02/22-rdf-syntax-ns#"
   xmlns:svg="http://www.w3.org/2000/svg"
   xmlns="http://www.w3.org/2000/svg"
   xmlns:sodipodi="http://sodipodi.sourceforge.net/DTD/sodipodi-0.dtd"
   xmlns:inkscape="http://www.inkscape.org/namespaces/inkscape"
   width="63.353001mm"
   height="88.352997mm"
   viewBox="0 0 63.353001 88.352997"
   version="1.1"
   id="svg22813"
   inkscape:version="0.92.2 2405546, 2018-03-11"
   sodipodi:docname="6h.svg">
  <defs
     id="defs22807" />
  <sodipodi:namedview
     id="base"
     pagecolor="#ffffff"
     bordercolor="#666666"
     borderopacity="1.0"
     inkscape:pageopacity="0.0"
     inkscape:pageshadow="2"
     inkscape:zoom="1.4"
     inkscape:cx="79.906021"
     inkscape:cy="124.23278"
     inkscape:document-units="mm"
     inkscape:current-layer="layer1"
     showgrid="false"
     inkscape:window-width="1920"
     inkscape:window-height="992"
     inkscape:window-x="0"
     inkscape:window-y="27"
     inkscape:window-maximized="1" />
  <metadata
     id="metadata22810">
    <rdf:RDF>
      <cc:Work
         rdf:about="">
        <dc:format>image/svg+xml</dc:format>
        <dc:type
           rdf:resource="http://purl.org/dc/dcmitype/StillImage" />
        <dc:title></dc:title>
      </cc:Work>
    </rdf:RDF>
  </metadata>
  <g
     inkscape:label="Layer 1"
     inkscape:groupmode="layer"
     id="layer1"
     transform="translate(0,-208.647)">
    <g
       transform="matrix(0.35277777,0,0,-0.35277777,0,391.16626)"
       id="g43773">
      <path
         d="m 179.084,281.601 c 0,-7.828 -6.346,-14.173 -14.174,-14.173 H 14.6734 C 6.8457,267.428 0.5,273.773 0.5,281.601 v 221.102 c 0,7.828 6.3457,14.174 14.1734,14.174 H 164.91 c 7.828,0 14.174,-6.346 14.174,-14.174 V 281.601"
         style="fill:#f7f7f5;fill-opacity:1;fill-rule:nonzero;stroke:none;stroke-width:0.1"
         id="path31240"
         inkscape:connector-curvature="0" />
      <path
         d="m 179.084,281.601 c 0,-7.828 -6.346,-14.173 -14.174,-14.173 H 14.6734 C 6.8457,267.428 0.5,273.773 0.5,281.601 v 221.102 c 0,7.828 6.3457,14.174 14.1734,14.174 H 164.91 c 7.828,0 14.174,-6.346 14.174,-14.174 z"
         style="fill:none;stroke:#231f20;stroke-width:1;stroke-linecap:butt;stroke-linejoin:miter;stroke-miterlimit:4;stroke-dasharray:none;stroke-opacity:1"
         id="path31242"
         inkscape:connector-curvature="0" />
      <path
         d="m 17.2301,474.257 c -1.2473,0.387 -3.1856,-0.294 -3.8985,-3.122 -0.0597,-0.155 -0.1222,-0.151 -0.1777,0.006 -1.0285,2.864 -2.7219,3.491 -3.91327,3.116 -1.76407,-0.569 -3.19375,-2.673 -3.0629,-5.356 0.03516,-4.685 4.22777,-7.044 7.05777,-11.523 2.8301,4.479 7.0688,6.831 7.0813,11.537 0.2453,2.712 -1.2738,4.784 -3.0867,5.342"
         style="fill:#e52c3f;fill-opacity:1;fill-rule:nonzero;stroke:none;stroke-width:0.1"
         id="path31244"
         inkscape:connector-curvature="0" />
      <path
         d="m 13.2543,457.349 c -0.0063,0.01 -0.0125,0.019 -0.0188,0.029 -0.0066,-0.01 -0.0128,-0.019 -0.0191,-0.029 h 0.0379"
         style="fill:#e52c3f;fill-opacity:1;fill-rule:nonzero;stroke:none;stroke-width:0.1"
         id="path31246"
         inkscape:connector-curvature="0" />
      <path
         d="m 166.33,326.955 c 0.006,-0.01 0.012,-0.018 0.018,-0.028 0.006,0.01 0.013,0.018 0.019,0.028 h -0.037"
         style="fill:#e52c3f;fill-opacity:1;fill-rule:nonzero;stroke:none;stroke-width:0.1"
         id="path31248"
         inkscape:connector-curvature="0" />
      <path
         d="m 166.348,326.927 c -2.83,-4.481 -7.069,-6.832 -7.082,-11.537 -0.245,-2.713 1.275,-4.785 3.087,-5.344 1.246,-0.387 3.186,0.295 3.899,3.123 0.06,0.154 0.123,0.151 0.178,-0.006 1.029,-2.865 2.722,-3.49 3.911,-3.117 1.766,0.569 3.196,2.674 3.065,5.358 -0.035,4.683 -4.228,7.042 -7.058,11.523"
         style="fill:#e52c3f;fill-opacity:1;fill-rule:nonzero;stroke:none;stroke-width:0.1"
         id="path31250"
         inkscape:connector-curvature="0" />
      <path
         d="m 46.5582,451.679 c -0.0156,0.025 -0.0316,0.049 -0.0473,0.074 -0.0156,-0.025 -0.032,-0.049 -0.0476,-0.074 h 0.0949"
         style="fill:#e52c3f;fill-opacity:1;fill-rule:nonzero;stroke:none;stroke-width:0.1"
         id="path31252"
         inkscape:connector-curvature="0" />
      <path
         d="m 56.4977,493.95 c -3.1172,0.968 -7.9645,-0.736 -9.7461,-7.805 -0.1477,-0.387 -0.3043,-0.379 -0.4453,0.014 -2.5696,7.162 -6.804,8.726 -9.7825,7.791 -4.4101,-1.423 -7.9843,-6.682 -7.6566,-13.391 0.0879,-11.711 10.5687,-17.608 17.6437,-28.806 7.0762,11.198 17.6739,17.078 17.7036,28.84 0.6132,6.78 -3.1829,11.961 -7.7168,13.357"
         style="fill:#e52c3f;fill-opacity:1;fill-rule:nonzero;stroke:none;stroke-width:0.1"
         id="path31254"
         inkscape:connector-curvature="0" />
      <path
         d="m 46.568,335.458 c 0.0156,-0.024 0.0316,-0.049 0.0472,-0.073 0.0157,0.024 0.0317,0.049 0.0473,0.073 H 46.568"
         style="fill:#e52c3f;fill-opacity:1;fill-rule:nonzero;stroke:none;stroke-width:0.1"
         id="path31256"
         inkscape:connector-curvature="0" />
      <path
         d="m 64.259,306.579 c -0.0879,11.711 -10.568,17.608 -17.6438,28.806 -7.075,-11.198 -17.6738,-17.078 -17.7035,-28.839 -0.6133,-6.781 3.1832,-11.962 7.7168,-13.357 3.1172,-0.969 7.9649,0.734 9.7461,7.804 0.1481,0.387 0.3047,0.379 0.4453,-0.013 2.5692,-7.162 6.8035,-8.728 9.7828,-7.791 4.4094,1.422 7.9832,6.68 7.6563,13.39"
         style="fill:#e52c3f;fill-opacity:1;fill-rule:nonzero;stroke:none;stroke-width:0.1"
         id="path31258"
         inkscape:connector-curvature="0" />
      <path
         d="m 133.015,372.31 c -0.015,0.025 -0.032,0.049 -0.048,0.074 -0.015,-0.025 -0.032,-0.049 -0.047,-0.074 h 0.095"
         style="fill:#e52c3f;fill-opacity:1;fill-rule:nonzero;stroke:none;stroke-width:0.1"
         id="path31260"
         inkscape:connector-curvature="0" />
      <path
         d="m 142.954,414.58 c -3.118,0.968 -7.964,-0.735 -9.745,-7.804 -0.149,-0.387 -0.305,-0.378 -0.446,0.015 -2.57,7.161 -6.804,8.725 -9.783,7.789 -4.41,-1.423 -7.984,-6.68 -7.656,-13.388 0.088,-11.715 10.567,-17.613 17.643,-28.808 7.076,11.195 17.674,17.077 17.704,28.841 0.614,6.779 -3.183,11.959 -7.717,13.355"
         style="fill:#e52c3f;fill-opacity:1;fill-rule:nonzero;stroke:none;stroke-width:0.1"
         id="path31262"
         inkscape:connector-curvature="0" />
      <path
         d="m 142.955,493.95 c -3.119,0.968 -7.966,-0.736 -9.748,-7.805 -0.147,-0.387 -0.303,-0.379 -0.444,0.014 -2.57,7.162 -6.804,8.726 -9.783,7.791 -4.41,-1.423 -7.984,-6.682 -7.656,-13.391 0.088,-11.71 10.567,-17.607 17.643,-28.806 7.076,11.198 17.673,17.079 17.703,28.84 0.614,6.78 -3.182,11.961 -7.715,13.357"
         style="fill:#e52c3f;fill-opacity:1;fill-rule:nonzero;stroke:none;stroke-width:0.1"
         id="path31264"
         inkscape:connector-curvature="0" />
      <path
         d="m 133.015,451.679 c -0.015,0.025 -0.032,0.049 -0.048,0.074 -0.015,-0.025 -0.032,-0.049 -0.047,-0.074 h 0.095"
         style="fill:#e52c3f;fill-opacity:1;fill-rule:nonzero;stroke:none;stroke-width:0.1"
         id="path31266"
         inkscape:connector-curvature="0" />
      <path
         d="m 133.025,335.458 c 0.016,-0.024 0.031,-0.048 0.047,-0.072 0.016,0.024 0.031,0.048 0.047,0.072 h -0.094"
         style="fill:#e52c3f;fill-opacity:1;fill-rule:nonzero;stroke:none;stroke-width:0.1"
         id="path31268"
         inkscape:connector-curvature="0" />
      <path
         d="m 150.716,306.579 c -0.087,11.711 -10.568,17.609 -17.644,28.807 -7.074,-11.198 -17.674,-17.078 -17.703,-28.84 -0.614,-6.781 3.183,-11.962 7.717,-13.357 3.117,-0.969 7.964,0.734 9.746,7.804 0.148,0.387 0.304,0.379 0.445,-0.013 2.57,-7.162 6.803,-8.728 9.783,-7.791 4.41,1.422 7.983,6.68 7.656,13.39"
         style="fill:#e52c3f;fill-opacity:1;fill-rule:nonzero;stroke:none;stroke-width:0.1"
         id="path31270"
         inkscape:connector-curvature="0" />
      <path
         d="m 46.5582,372.31 c -0.0156,0.024 -0.0316,0.049 -0.0473,0.073 -0.0156,-0.024 -0.032,-0.049 -0.0476,-0.073 h 0.0949"
         style="fill:#e52c3f;fill-opacity:1;fill-rule:nonzero;stroke:none;stroke-width:0.1"
         id="path31272"
         inkscape:connector-curvature="0" />
      <path
         d="m 56.4977,414.58 c -3.1172,0.968 -7.9649,-0.735 -9.7461,-7.804 -0.1477,-0.387 -0.3043,-0.378 -0.4453,0.013 -2.5696,7.163 -6.804,8.726 -9.7829,7.791 -4.4097,-1.423 -7.9832,-6.68 -7.6562,-13.39 0.0879,-11.716 10.568,-17.611 17.6437,-28.807 7.075,11.195 17.6739,17.076 17.7036,28.842 0.6132,6.779 -3.1832,11.959 -7.7168,13.355"
         style="fill:#e52c3f;fill-opacity:1;fill-rule:nonzero;stroke:none;stroke-width:0.1"
         id="path31274"
         inkscape:connector-curvature="0" />
      <path
         d="m 18.5191,493.384 c -0.6039,0.792 -1.3589,1.445 -2.2347,1.893 -0.8758,0.448 -1.8719,0.689 -2.941,0.689 -0.0293,-0.001 -0.0547,-0.001 -0.0762,-0.001 -1.0742,-0.011 -2.0742,-0.284 -2.9492,-0.768 -0.58089,-0.322 -1.09964,-0.737 -1.56097,-1.218 0.04141,0.248 0.08399,0.487 0.12617,0.708 0.13243,0.677 0.26328,1.215 0.35938,1.576 0.04883,0.182 0.08789,0.319 0.11523,0.409 0.01367,0.044 0.02305,0.077 0.0293,0.098 0.00391,0.01 0.00586,0.017 0.00703,0.02 0,10e-4 0.00117,0.002 0.00117,0.002 v 0.002 l 0.01055,0.029 0.00625,0.027 0.00195,0.005 v 0 c 0.02305,0.084 0.29649,0.937 0.91254,1.736 0.3195,0.417 0.7265,0.82 1.2375,1.129 0.5113,0.308 1.1289,0.53 1.9238,0.575 0.1113,0.006 0.2176,0.008 0.323,0.008 1.4118,-0.004 2.3395,-0.502 2.952,-0.986 0.3039,-0.243 0.5226,-0.485 0.6601,-0.656 0.0672,-0.086 0.1153,-0.154 0.1434,-0.194 0.0133,-0.021 0.0215,-0.034 0.025,-0.04 0.002,-0.003 0.002,-0.003 0.002,-0.003 l 0.5437,0.388 1.3039,0.894 c -0.0527,0.09 -0.4777,0.819 -1.3914,1.55 -0.909,0.732 -2.3324,1.451 -4.2387,1.447 -0.1398,0 -0.2839,-0.004 -0.432,-0.012 -1.1547,-0.061 -2.1461,-0.416 -2.9457,-0.916 -1.20312,-0.754 -1.96992,-1.803 -2.43984,-2.65 -0.42773,-0.774 -0.61875,-1.393 -0.66484,-1.55 -0.1125,-0.36 -1.15704,-3.746 -1.15899,-8.375 0,-0.85 0.04375,-1.749 0.12735,-2.671 0.09609,-2.109 0.7582,-4.013 1.9,-5.436 1.22656,-1.539 3.02542,-2.484 5.05862,-2.484 0.0074,0 0.0144,0 0.0222,0 1.0711,0 2.0715,0.254 2.9512,0.722 1.3238,0.699 2.3629,1.864 3.0563,3.267 0.6953,1.405 1.0562,3.052 1.0578,4.785 -0.0016,2.286 -0.616,4.41 -1.8239,6.001 z M 16.793,482.811 c -0.4258,-0.566 -0.9321,-1.01 -1.5133,-1.319 -0.5824,-0.307 -1.2434,-0.483 -2.002,-0.484 -1.4433,0.007 -2.5898,0.622 -3.44059,1.671 -0.7457,0.928 -1.24492,2.225 -1.35117,3.762 l 0.01054,0.002 c -0.00976,0.093 -0.0121,0.181 -0.02031,0.274 -0.00508,0.114 -0.01289,0.226 -0.01289,0.344 -0.00195,1.828 0.50195,3.485 1.34297,4.639 0.42035,0.579 0.92075,1.036 1.49605,1.354 0.5762,0.318 1.2301,0.502 1.9852,0.512 0.0215,0 0.041,0 0.0559,0 0.7757,-0.002 1.4414,-0.17 2.0179,-0.465 0.8629,-0.443 1.5446,-1.173 2.0328,-2.152 0.4852,-0.977 0.7625,-2.204 0.7625,-3.566 0.0012,-1.822 -0.5136,-3.445 -1.3636,-4.572"
         style="fill:#e52c3f;fill-opacity:1;fill-rule:nonzero;stroke:none;stroke-width:0.1"
         id="path31276"
         inkscape:connector-curvature="0" />
      <path
         d="m 161.064,290.921 c 0.604,-0.793 1.359,-1.445 2.234,-1.892 0.876,-0.45 1.872,-0.69 2.942,-0.69 0.029,0 0.055,0 0.076,0 1.074,0.012 2.074,0.284 2.949,0.768 0.58,0.322 1.1,0.738 1.561,1.218 -0.041,-0.248 -0.084,-0.487 -0.127,-0.707 -0.131,-0.677 -0.262,-1.214 -0.359,-1.577 -0.049,-0.18 -0.088,-0.318 -0.115,-0.409 -0.014,-0.043 -0.022,-0.076 -0.029,-0.098 -0.004,-0.009 -0.007,-0.017 -0.007,-0.019 0,-0.002 -0.002,-0.002 -0.002,-0.002 v -0.002 l -0.01,-0.029 -0.006,-0.028 -0.001,-0.005 v -0.001 c -0.024,-0.082 -0.297,-0.935 -0.914,-1.735 -0.319,-0.417 -0.726,-0.819 -1.237,-1.128 -0.512,-0.308 -1.129,-0.531 -1.924,-0.576 -0.111,-0.006 -0.218,-0.008 -0.323,-0.008 -1.411,0.004 -2.339,0.502 -2.952,0.987 -0.304,0.242 -0.524,0.484 -0.66,0.656 -0.067,0.086 -0.115,0.153 -0.143,0.193 -0.013,0.022 -0.021,0.035 -0.025,0.04 -0.002,0.003 -0.002,0.003 -0.002,0.003 l -0.544,-0.387 -1.304,-0.894 c 0.053,-0.091 0.478,-0.819 1.391,-1.551 0.91,-0.732 2.333,-1.451 4.239,-1.447 0.14,0 0.284,0.004 0.433,0.012 1.154,0.062 2.145,0.416 2.945,0.917 1.203,0.752 1.97,1.803 2.439,2.649 0.428,0.774 0.62,1.392 0.665,1.551 0.113,0.359 1.158,3.746 1.16,8.375 0,0.849 -0.044,1.748 -0.127,2.672 -0.097,2.107 -0.759,4.011 -1.901,5.435 -1.226,1.539 -3.025,2.484 -5.058,2.484 -0.008,0 -0.016,0 -0.023,0 -1.071,0 -2.071,-0.255 -2.952,-0.722 -1.322,-0.699 -2.361,-1.865 -3.055,-3.268 -0.695,-1.404 -1.056,-3.052 -1.058,-4.785 0.002,-2.285 0.615,-4.41 1.824,-6 z m 1.727,10.572 c 0.425,0.567 0.931,1.01 1.512,1.32 0.583,0.307 1.243,0.483 2.002,0.483 1.443,-0.006 2.59,-0.621 3.441,-1.67 0.746,-0.93 1.245,-2.226 1.351,-3.763 h -0.011 c 0.009,-0.094 0.013,-0.182 0.021,-0.276 0.004,-0.113 0.013,-0.226 0.013,-0.344 0.001,-1.828 -0.503,-3.484 -1.343,-4.638 -0.42,-0.578 -0.921,-1.035 -1.496,-1.355 -0.576,-0.317 -1.231,-0.502 -1.986,-0.511 -0.022,0 -0.041,0 -0.055,0 -0.776,0 -1.442,0.17 -2.018,0.464 -0.863,0.443 -1.545,1.173 -2.033,2.152 -0.486,0.978 -0.763,2.205 -0.763,3.566 -10e-4,1.822 0.514,3.445 1.365,4.572"
         style="fill:#e52c3f;fill-opacity:1;fill-rule:nonzero;stroke:none;stroke-width:0.1"
         id="path31278"
         inkscape:connector-curvature="0" />
    </g>
  </g>
</svg>
