<?xml version="1.0" encoding="UTF-8" standalone="no"?>
<!-- Created with Inkscape (http://www.inkscape.org/) -->

<svg
   xmlns:dc="http://purl.org/dc/elements/1.1/"
   xmlns:cc="http://creativecommons.org/ns#"
   xmlns:rdf="http://www.w3.org/1999/02/22-rdf-syntax-ns#"
   xmlns:svg="http://www.w3.org/2000/svg"
   xmlns="http://www.w3.org/2000/svg"
   xmlns:sodipodi="http://sodipodi.sourceforge.net/DTD/sodipodi-0.dtd"
   xmlns:inkscape="http://www.inkscape.org/namespaces/inkscape"
   width="63.353001mm"
   height="88.352997mm"
   viewBox="0 0 63.353001 88.352997"
   version="1.1"
   id="svg22813"
   inkscape:version="0.92.2 2405546, 2018-03-11"
   sodipodi:docname="6s.svg">
  <defs
     id="defs22807" />
  <sodipodi:namedview
     id="base"
     pagecolor="#ffffff"
     bordercolor="#666666"
     borderopacity="1.0"
     inkscape:pageopacity="0.0"
     inkscape:pageshadow="2"
     inkscape:zoom="1.4"
     inkscape:cx="79.906021"
     inkscape:cy="67.089921"
     inkscape:document-units="mm"
     inkscape:current-layer="layer1"
     showgrid="false"
     inkscape:window-width="1920"
     inkscape:window-height="992"
     inkscape:window-x="0"
     inkscape:window-y="27"
     inkscape:window-maximized="1" />
  <metadata
     id="metadata22810">
    <rdf:RDF>
      <cc:Work
         rdf:about="">
        <dc:format>image/svg+xml</dc:format>
        <dc:type
           rdf:resource="http://purl.org/dc/dcmitype/StillImage" />
        <dc:title></dc:title>
      </cc:Work>
    </rdf:RDF>
  </metadata>
  <g
     inkscape:label="Layer 1"
     inkscape:groupmode="layer"
     id="layer1"
     transform="translate(0,-208.647)">
    <g
       transform="matrix(0.35277777,0,0,-0.35277777,0,391.00046)"
       id="g23177">
      <path
         inkscape:connector-curvature="0"
         id="path4169"
         style="fill:#f7f7f5;fill-opacity:1;fill-rule:nonzero;stroke:none;stroke-width:0.1"
         d="m 179.083,281.132 c 0,-7.828 -6.346,-14.174 -14.174,-14.174 H 14.6734 C 6.8457,266.958 0.5,273.304 0.5,281.132 V 502.23 c 0,7.829 6.3457,14.174 14.1734,14.174 H 164.909 c 7.828,0 14.174,-6.345 14.174,-14.174 V 281.132" />
      <path
         inkscape:connector-curvature="0"
         id="path4171"
         style="fill:none;stroke:#231f20;stroke-width:1;stroke-linecap:butt;stroke-linejoin:miter;stroke-miterlimit:4;stroke-dasharray:none;stroke-opacity:1"
         d="m 179.083,281.132 c 0,-7.828 -6.346,-14.174 -14.174,-14.174 H 14.6734 C 6.8457,266.958 0.5,273.304 0.5,281.132 V 502.23 c 0,7.829 6.3457,14.174 14.1734,14.174 H 164.909 c 7.828,0 14.174,-6.345 14.174,-14.174 z" />
      <path
         inkscape:connector-curvature="0"
         id="path4173"
         style="fill:#000000;fill-opacity:1;fill-rule:nonzero;stroke:none;stroke-width:0.1"
         d="m 18.5191,492.911 c -0.6035,0.792 -1.3586,1.446 -2.2347,1.893 -0.8758,0.448 -1.8719,0.689 -2.941,0.688 -0.0293,0 -0.0547,0 -0.0762,0 -1.0742,-0.012 -2.0742,-0.284 -2.9492,-0.768 -0.58089,-0.322 -1.09964,-0.736 -1.56097,-1.218 0.04141,0.248 0.08399,0.487 0.12617,0.708 0.13243,0.677 0.26328,1.215 0.35938,1.576 0.04883,0.182 0.08789,0.319 0.11523,0.409 0.01367,0.044 0.02305,0.078 0.0293,0.098 0.00391,0.01 0.00586,0.017 0.00703,0.021 0,0 0.00117,0.002 0.00117,0.002 v 0.001 l 0.01055,0.03 0.00625,0.026 0.00195,0.005 v 10e-4 c 0.02305,0.083 0.29649,0.937 0.91254,1.735 0.3195,0.417 0.7265,0.821 1.2375,1.128 0.5113,0.309 1.1289,0.531 1.9238,0.576 0.1113,0.006 0.2176,0.008 0.323,0.008 1.4118,-0.004 2.3395,-0.502 2.952,-0.986 0.3039,-0.242 0.5226,-0.485 0.6605,-0.655 0.0672,-0.086 0.1153,-0.155 0.1434,-0.195 0.0129,-0.02 0.0215,-0.034 0.0246,-0.04 0.002,-0.003 0.002,-0.003 0.002,-0.003 l 0.5437,0.388 1.3039,0.895 c -0.0527,0.089 -0.4777,0.818 -1.3906,1.549 -0.9094,0.733 -2.3332,1.451 -4.2395,1.447 -0.1398,0 -0.2839,-0.003 -0.432,-0.012 -1.1547,-0.061 -2.1461,-0.415 -2.9457,-0.916 -1.20312,-0.753 -1.96992,-1.803 -2.43984,-2.65 -0.42773,-0.774 -0.61875,-1.392 -0.66484,-1.549 -0.1125,-0.361 -1.15704,-3.746 -1.15899,-8.376 0,-0.85 0.04375,-1.748 0.12735,-2.671 0.09609,-2.109 0.7582,-4.013 1.9,-5.436 1.22656,-1.539 3.02542,-2.484 5.05862,-2.484 0.0074,0 0.0144,0 0.0222,0 1.0711,0 2.0715,0.255 2.9512,0.723 1.3242,0.699 2.3633,1.864 3.0566,3.266 0.6954,1.405 1.0559,3.053 1.0579,4.785 -0.002,2.286 -0.6164,4.41 -1.8243,6.001 z M 16.793,482.338 c -0.4258,-0.565 -0.9321,-1.01 -1.5133,-1.319 -0.5824,-0.307 -1.2434,-0.483 -2.002,-0.484 -1.4433,0.007 -2.5898,0.622 -3.44059,1.671 -0.7457,0.929 -1.24492,2.226 -1.35117,3.763 l 0.01054,0.001 c -0.00976,0.093 -0.0121,0.182 -0.02031,0.274 -0.00508,0.115 -0.01289,0.227 -0.01289,0.344 -0.00195,1.828 0.50195,3.485 1.34297,4.639 0.42035,0.579 0.92075,1.036 1.49605,1.354 0.5762,0.319 1.2301,0.502 1.9852,0.512 0.0215,0 0.041,0 0.0559,0 0.7757,-0.001 1.4414,-0.17 2.0179,-0.465 0.8629,-0.442 1.5446,-1.173 2.0328,-2.151 0.4852,-0.978 0.7625,-2.204 0.7625,-3.567 0.0012,-1.822 -0.5136,-3.445 -1.3636,-4.572" />
      <path
         inkscape:connector-curvature="0"
         id="path4175"
         style="fill:#000000;fill-opacity:1;fill-rule:nonzero;stroke:none;stroke-width:0.1"
         d="m 161.064,290.45 c 0.603,-0.791 1.359,-1.445 2.234,-1.892 0.877,-0.447 1.871,-0.69 2.941,-0.688 0.03,0 0.055,0 0.077,0 1.074,0.012 2.074,0.284 2.949,0.768 0.58,0.322 1.099,0.736 1.56,1.219 -0.041,-0.248 -0.084,-0.489 -0.127,-0.707 -0.13,-0.678 -0.261,-1.215 -0.357,-1.579 -0.051,-0.179 -0.09,-0.318 -0.115,-0.408 -0.014,-0.045 -0.024,-0.078 -0.03,-0.097 -0.003,-0.01 -0.007,-0.018 -0.007,-0.022 l -0.002,-0.002 v -0.002 l -0.01,-0.029 -0.006,-0.025 -0.002,-0.006 v 0 c -0.024,-0.084 -0.297,-0.936 -0.912,-1.737 -0.32,-0.416 -0.727,-0.818 -1.238,-1.127 -0.512,-0.308 -1.129,-0.531 -1.924,-0.576 -0.111,-0.006 -0.219,-0.008 -0.322,-0.008 -1.412,0.004 -2.34,0.502 -2.953,0.987 -0.304,0.242 -0.524,0.484 -0.661,0.654 -0.066,0.086 -0.115,0.154 -0.143,0.195 -0.013,0.022 -0.021,0.034 -0.025,0.039 -0.002,0.004 -0.002,0.004 -0.002,0.004 l -0.543,-0.388 -1.305,-0.895 c 0.054,-0.09 0.479,-0.818 1.391,-1.549 0.911,-0.732 2.334,-1.451 4.241,-1.447 0.138,0 0.283,0.004 0.431,0.012 1.155,0.06 2.147,0.416 2.946,0.916 1.203,0.754 1.97,1.803 2.439,2.65 0.427,0.774 0.619,1.393 0.664,1.549 0.113,0.361 1.158,3.748 1.16,8.377 0,0.85 -0.043,1.748 -0.127,2.672 -0.095,2.107 -0.757,4.012 -1.9,5.433 -1.227,1.541 -3.025,2.485 -5.059,2.485 -0.007,0 -0.015,0 -0.021,0 -1.072,0.002 -2.072,-0.254 -2.953,-0.721 -1.323,-0.701 -2.362,-1.865 -3.055,-3.267 -0.695,-1.407 -1.057,-3.053 -1.059,-4.786 0.002,-2.287 0.616,-4.41 1.825,-6.002 z m 1.726,10.575 c 0.426,0.564 0.932,1.009 1.514,1.318 0.582,0.309 1.242,0.482 2.002,0.484 1.441,-0.007 2.589,-0.621 3.439,-1.672 0.746,-0.927 1.246,-2.224 1.352,-3.761 l -0.012,-0.002 c 0.01,-0.092 0.014,-0.182 0.022,-0.274 0.004,-0.115 0.013,-0.226 0.013,-0.343 0.002,-1.829 -0.504,-3.487 -1.343,-4.639 -0.42,-0.58 -0.92,-1.037 -1.497,-1.356 -0.576,-0.316 -1.23,-0.501 -1.984,-0.509 -0.023,0 -0.041,-0.002 -0.057,-0.002 -0.775,0.002 -1.441,0.172 -2.017,0.465 -0.863,0.443 -1.545,1.173 -2.033,2.152 -0.487,0.977 -0.762,2.203 -0.762,3.566 -0.002,1.823 0.514,3.446 1.363,4.573" />
      <path
         inkscape:connector-curvature="0"
         id="path4177"
         style="fill:#231f20;fill-opacity:1;fill-rule:evenodd;stroke:none;stroke-width:0.1"
         d="m 13.2465,473.884 c -0.041,-0.027 -0.0703,-0.041 -0.1172,-0.072 -3.0379,-1.94 -6.58282,-5.724 -6.9461,-10.442 -0.17304,-2.244 1.2625,-3.798 3.11758,-3.832 1.18402,-0.021 2.13672,0.4 2.65272,1.203 0.4289,0.669 0.5383,1.7 0.6074,1.223 0.25,-1.816 -0.5105,-3.562 -0.9218,-5.088 0.4589,0.167 1.0351,0.251 1.6132,0.253 h 0.0098 c 0.577,-0.002 1.1524,-0.086 1.6106,-0.253 -0.4114,1.526 -1.17,3.272 -0.9211,5.088 0.0695,0.477 0.1789,-0.554 0.6066,-1.223 0.5156,-0.803 1.4688,-1.224 2.6523,-1.203 1.8555,0.034 3.2911,1.588 3.118,3.832 -0.364,4.718 -3.9082,8.502 -6.9433,10.442 -0.0332,0.025 -0.0625,0.04 -0.1102,0.072 h -0.0285" />
      <path
         inkscape:connector-curvature="0"
         id="path4179"
         style="fill:none;stroke:#231f20;stroke-width:0.065018;stroke-linecap:butt;stroke-linejoin:round;stroke-miterlimit:4;stroke-dasharray:none;stroke-opacity:1"
         d="m 13.2465,473.884 c -0.041,-0.027 -0.0703,-0.041 -0.1172,-0.072 -3.0379,-1.94 -6.58282,-5.724 -6.9461,-10.442 -0.17304,-2.244 1.2625,-3.798 3.11758,-3.832 1.18402,-0.021 2.13672,0.4 2.65272,1.203 0.4289,0.669 0.5383,1.7 0.6074,1.223 0.25,-1.816 -0.5105,-3.562 -0.9218,-5.088 0.4589,0.167 1.0351,0.251 1.6132,0.253 h 0.0098 c 0.577,-0.002 1.1524,-0.086 1.6106,-0.253 -0.4114,1.526 -1.17,3.272 -0.9211,5.088 0.0695,0.477 0.1789,-0.554 0.6066,-1.223 0.5156,-0.803 1.4688,-1.224 2.6523,-1.203 1.8555,0.034 3.2911,1.588 3.118,3.832 -0.364,4.718 -3.9082,8.502 -6.9433,10.442 -0.0332,0.025 -0.0625,0.04 -0.1102,0.072 z" />
      <path
         inkscape:connector-curvature="0"
         id="path4181"
         style="fill:#231f20;fill-opacity:1;fill-rule:evenodd;stroke:none;stroke-width:0.1"
         d="m 166.318,309.478 c -0.041,0.027 -0.071,0.041 -0.118,0.072 -3.039,1.939 -6.584,5.725 -6.947,10.441 -0.172,2.245 1.263,3.799 3.119,3.832 1.184,0.022 2.137,-0.398 2.653,-1.203 0.427,-0.668 0.537,-1.699 0.607,-1.222 0.25,1.816 -0.512,3.562 -0.922,5.088 0.459,-0.166 1.035,-0.25 1.613,-0.252 h 0.01 c 0.576,0.002 1.153,0.086 1.61,0.252 -0.411,-1.526 -1.17,-3.272 -0.92,-5.088 0.068,-0.477 0.177,0.554 0.605,1.222 0.516,0.805 1.469,1.225 2.654,1.203 1.856,-0.033 3.291,-1.587 3.118,-3.832 -0.364,-4.716 -3.909,-8.502 -6.944,-10.441 -0.033,-0.023 -0.062,-0.039 -0.111,-0.072 h -0.027" />
      <path
         inkscape:connector-curvature="0"
         id="path4183"
         style="fill:none;stroke:#231f20;stroke-width:0.065018;stroke-linecap:butt;stroke-linejoin:round;stroke-miterlimit:4;stroke-dasharray:none;stroke-opacity:1"
         d="m 166.318,309.478 c -0.041,0.027 -0.071,0.041 -0.118,0.072 -3.039,1.939 -6.584,5.725 -6.947,10.441 -0.172,2.245 1.263,3.799 3.119,3.832 1.184,0.022 2.137,-0.398 2.653,-1.203 0.427,-0.668 0.537,-1.699 0.607,-1.222 0.25,1.816 -0.512,3.562 -0.922,5.088 0.459,-0.166 1.035,-0.25 1.613,-0.252 h 0.01 c 0.576,0.002 1.153,0.086 1.61,0.252 -0.411,-1.526 -1.17,-3.272 -0.92,-5.088 0.068,-0.477 0.177,0.554 0.605,1.222 0.516,0.805 1.469,1.225 2.654,1.203 1.856,-0.033 3.291,-1.587 3.118,-3.832 -0.364,-4.716 -3.909,-8.502 -6.944,-10.441 -0.033,-0.023 -0.062,-0.039 -0.111,-0.072 z" />
      <path
         inkscape:connector-curvature="0"
         id="path4185"
         style="fill:#231f20;fill-opacity:1;fill-rule:evenodd;stroke:none;stroke-width:0.1"
         d="m 46.5391,490.892 c -0.1024,-0.067 -0.1746,-0.103 -0.293,-0.181 -7.5945,-4.848 -16.4559,-14.309 -17.3641,-26.104 -0.4324,-5.61 3.1551,-9.494 7.793,-9.578 2.9609,-0.055 5.3418,0.996 6.6328,3.006 1.0723,1.672 1.3457,4.248 1.5195,3.058 0.625,-4.542 -1.2773,-8.907 -2.307,-12.721 1.1477,0.417 2.5902,0.627 4.0332,0.632 h 0.0246 c 1.4422,-0.005 2.8821,-0.215 4.0274,-0.632 -1.0282,3.814 -2.927,8.179 -2.3028,12.721 0.1731,1.19 0.4465,-1.386 1.5168,-3.058 1.2891,-2.01 3.67,-3.061 6.6309,-3.006 4.6387,0.084 8.2254,3.968 7.7937,9.578 -0.9089,11.795 -9.7695,21.256 -17.3582,26.104 -0.0824,0.062 -0.1554,0.1 -0.2746,0.181 h -0.0722" />
      <path
         inkscape:connector-curvature="0"
         id="path4187"
         style="fill:none;stroke:#231f20;stroke-width:0.16254601;stroke-linecap:butt;stroke-linejoin:round;stroke-miterlimit:4;stroke-dasharray:none;stroke-opacity:1"
         d="m 46.5391,490.892 c -0.1024,-0.067 -0.1746,-0.103 -0.293,-0.181 -7.5945,-4.848 -16.4559,-14.309 -17.3641,-26.104 -0.4324,-5.61 3.1551,-9.494 7.793,-9.578 2.9609,-0.055 5.3418,0.996 6.6328,3.006 1.0723,1.672 1.3457,4.248 1.5195,3.058 0.625,-4.542 -1.2773,-8.907 -2.307,-12.721 1.1477,0.417 2.5902,0.627 4.0332,0.632 h 0.0246 c 1.4422,-0.005 2.8821,-0.215 4.0274,-0.632 -1.0282,3.814 -2.927,8.179 -2.3028,12.721 0.1731,1.19 0.4465,-1.386 1.5168,-3.058 1.2891,-2.01 3.67,-3.061 6.6309,-3.006 4.6387,0.084 8.2254,3.968 7.7937,9.578 -0.9089,11.795 -9.7695,21.256 -17.3582,26.104 -0.0824,0.062 -0.1554,0.1 -0.2746,0.181 z" />
      <path
         inkscape:connector-curvature="0"
         id="path4189"
         style="fill:#231f20;fill-opacity:1;fill-rule:evenodd;stroke:none;stroke-width:0.1"
         d="m 132.995,490.893 c -0.101,-0.068 -0.174,-0.104 -0.293,-0.181 -7.595,-4.849 -16.455,-14.31 -17.363,-26.105 -0.434,-5.61 3.154,-9.494 7.793,-9.578 2.961,-0.054 5.342,0.998 6.631,3.006 1.072,1.672 1.346,4.248 1.519,3.058 0.625,-4.541 -1.275,-8.906 -2.304,-12.72 1.146,0.417 2.588,0.627 4.033,0.632 h 0.023 c 1.444,-0.005 2.881,-0.215 4.028,-0.632 -1.028,3.814 -2.926,8.179 -2.303,12.72 0.174,1.19 0.447,-1.386 1.518,-3.058 1.289,-2.008 3.669,-3.06 6.63,-3.006 4.639,0.084 8.225,3.968 7.793,9.578 -0.908,11.795 -9.769,21.256 -17.357,26.105 -0.084,0.061 -0.156,0.099 -0.275,0.181 h -0.073" />
      <path
         inkscape:connector-curvature="0"
         id="path4191"
         style="fill:none;stroke:#231f20;stroke-width:0.16254601;stroke-linecap:butt;stroke-linejoin:round;stroke-miterlimit:4;stroke-dasharray:none;stroke-opacity:1"
         d="m 132.995,490.893 c -0.101,-0.068 -0.174,-0.104 -0.293,-0.181 -7.595,-4.849 -16.455,-14.31 -17.363,-26.105 -0.434,-5.61 3.154,-9.494 7.793,-9.578 2.961,-0.054 5.342,0.998 6.631,3.006 1.072,1.672 1.346,4.248 1.519,3.058 0.625,-4.541 -1.275,-8.906 -2.304,-12.72 1.146,0.417 2.588,0.627 4.033,0.632 h 0.023 c 1.444,-0.005 2.881,-0.215 4.028,-0.632 -1.028,3.814 -2.926,8.179 -2.303,12.72 0.174,1.19 0.447,-1.386 1.518,-3.058 1.289,-2.008 3.669,-3.06 6.63,-3.006 4.639,0.084 8.225,3.968 7.793,9.578 -0.908,11.795 -9.769,21.256 -17.357,26.105 -0.084,0.061 -0.156,0.099 -0.275,0.181 z" />
      <path
         inkscape:connector-curvature="0"
         id="path4193"
         style="fill:#231f20;fill-opacity:1;fill-rule:evenodd;stroke:none;stroke-width:0.1"
         d="m 46.5402,412.939 c -0.1035,-0.066 -0.1757,-0.102 -0.2929,-0.18 -7.5957,-4.848 -16.4567,-14.307 -17.3649,-26.102 -0.4328,-5.609 3.1551,-9.494 7.7926,-9.578 2.9609,-0.055 5.3418,0.996 6.6328,3.006 1.0723,1.672 1.3457,4.248 1.5195,3.059 0.625,-4.543 -1.2773,-8.908 -2.307,-12.721 1.1488,0.416 2.5902,0.627 4.0332,0.631 h 0.0258 c 1.441,-0.004 2.8809,-0.215 4.0273,-0.631 -1.0293,3.813 -2.9281,8.178 -2.3031,12.721 0.1723,1.189 0.4457,-1.387 1.516,-3.059 1.2891,-2.01 3.67,-3.061 6.6309,-3.006 4.6387,0.084 8.2266,3.969 7.7949,9.578 -0.9101,11.795 -9.7695,21.254 -17.3594,26.102 -0.0824,0.063 -0.1543,0.1 -0.2734,0.18 h -0.0723" />
      <path
         inkscape:connector-curvature="0"
         id="path4195"
         style="fill:none;stroke:#231f20;stroke-width:0.16254601;stroke-linecap:butt;stroke-linejoin:round;stroke-miterlimit:4;stroke-dasharray:none;stroke-opacity:1"
         d="m 46.5402,412.939 c -0.1035,-0.066 -0.1757,-0.102 -0.2929,-0.18 -7.5957,-4.848 -16.4567,-14.307 -17.3649,-26.102 -0.4328,-5.609 3.1551,-9.494 7.7926,-9.578 2.9609,-0.055 5.3418,0.996 6.6328,3.006 1.0723,1.672 1.3457,4.248 1.5195,3.059 0.625,-4.543 -1.2773,-8.908 -2.307,-12.721 1.1488,0.416 2.5902,0.627 4.0332,0.631 h 0.0258 c 1.441,-0.004 2.8809,-0.215 4.0273,-0.631 -1.0293,3.813 -2.9281,8.178 -2.3031,12.721 0.1723,1.189 0.4457,-1.387 1.516,-3.059 1.2891,-2.01 3.67,-3.061 6.6309,-3.006 4.6387,0.084 8.2266,3.969 7.7949,9.578 -0.9101,11.795 -9.7695,21.254 -17.3594,26.102 -0.0824,0.063 -0.1543,0.1 -0.2734,0.18 z" />
      <path
         inkscape:connector-curvature="0"
         id="path4197"
         style="fill:#231f20;fill-opacity:1;fill-rule:evenodd;stroke:none;stroke-width:0.1"
         d="m 132.995,412.939 c -0.101,-0.066 -0.174,-0.103 -0.293,-0.18 -7.595,-4.848 -16.455,-14.307 -17.363,-26.102 -0.434,-5.609 3.154,-9.494 7.793,-9.578 2.961,-0.055 5.342,0.998 6.631,3.006 1.072,1.672 1.346,4.248 1.519,3.059 0.625,-4.541 -1.275,-8.906 -2.304,-12.721 1.146,0.418 2.588,0.627 4.033,0.633 h 0.023 c 1.444,-0.006 2.881,-0.215 4.028,-0.633 -1.028,3.815 -2.926,8.18 -2.303,12.721 0.174,1.189 0.447,-1.387 1.518,-3.059 1.289,-2.008 3.669,-3.061 6.63,-3.006 4.639,0.084 8.225,3.969 7.793,9.578 -0.908,11.795 -9.769,21.254 -17.357,26.102 -0.084,0.061 -0.156,0.099 -0.275,0.18 h -0.073" />
      <path
         inkscape:connector-curvature="0"
         id="path4199"
         style="fill:none;stroke:#231f20;stroke-width:0.16254601;stroke-linecap:butt;stroke-linejoin:round;stroke-miterlimit:4;stroke-dasharray:none;stroke-opacity:1"
         d="m 132.995,412.939 c -0.101,-0.066 -0.174,-0.103 -0.293,-0.18 -7.595,-4.848 -16.455,-14.307 -17.363,-26.102 -0.434,-5.609 3.154,-9.494 7.793,-9.578 2.961,-0.055 5.342,0.998 6.631,3.006 1.072,1.672 1.346,4.248 1.519,3.059 0.625,-4.541 -1.275,-8.906 -2.304,-12.721 1.146,0.418 2.588,0.627 4.033,0.633 h 0.023 c 1.444,-0.006 2.881,-0.215 4.028,-0.633 -1.028,3.815 -2.926,8.18 -2.303,12.721 0.174,1.189 0.447,-1.387 1.518,-3.059 1.289,-2.008 3.669,-3.061 6.63,-3.006 4.639,0.084 8.225,3.969 7.793,9.578 -0.908,11.795 -9.769,21.254 -17.357,26.102 -0.084,0.061 -0.156,0.099 -0.275,0.18 z" />
      <path
         inkscape:connector-curvature="0"
         id="path4201"
         style="fill:#231f20;fill-opacity:1;fill-rule:evenodd;stroke:none;stroke-width:0.1"
         d="m 46.5391,292.47 c -0.1024,0.068 -0.1746,0.103 -0.293,0.182 -7.5957,4.849 -16.4559,14.31 -17.3641,26.103 -0.4328,5.611 3.1551,9.494 7.793,9.58 2.9609,0.053 5.3418,-0.998 6.6316,-3.008 1.0723,-1.672 1.3457,-4.248 1.5196,-3.056 0.625,4.54 -1.2762,8.906 -2.3059,12.718 1.1477,-0.416 2.5891,-0.626 4.0332,-0.63 h 0.0246 c 1.4422,0.004 2.8809,0.214 4.0274,0.63 -1.0282,-3.812 -2.927,-8.178 -2.3028,-12.718 0.1731,-1.192 0.4465,1.384 1.5168,3.056 1.2891,2.01 3.67,3.061 6.6309,3.008 4.6387,-0.086 8.2254,-3.969 7.7937,-9.58 -0.9089,-11.793 -9.7695,-21.254 -17.3582,-26.103 -0.0832,-0.063 -0.1554,-0.1 -0.2746,-0.182 h -0.0722" />
      <path
         inkscape:connector-curvature="0"
         id="path4203"
         style="fill:none;stroke:#231f20;stroke-width:0.16254601;stroke-linecap:butt;stroke-linejoin:round;stroke-miterlimit:4;stroke-dasharray:none;stroke-opacity:1"
         d="m 46.5391,292.47 c -0.1024,0.068 -0.1746,0.103 -0.293,0.182 -7.5957,4.849 -16.4559,14.31 -17.3641,26.103 -0.4328,5.611 3.1551,9.494 7.793,9.58 2.9609,0.053 5.3418,-0.998 6.6316,-3.008 1.0723,-1.672 1.3457,-4.248 1.5196,-3.056 0.625,4.54 -1.2762,8.906 -2.3059,12.718 1.1477,-0.416 2.5891,-0.626 4.0332,-0.63 h 0.0246 c 1.4422,0.004 2.8809,0.214 4.0274,0.63 -1.0282,-3.812 -2.927,-8.178 -2.3028,-12.718 0.1731,-1.192 0.4465,1.384 1.5168,3.056 1.2891,2.01 3.67,3.061 6.6309,3.008 4.6387,-0.086 8.2254,-3.969 7.7937,-9.58 -0.9089,-11.793 -9.7695,-21.254 -17.3582,-26.103 -0.0832,-0.063 -0.1554,-0.1 -0.2746,-0.182 z" />
      <path
         inkscape:connector-curvature="0"
         id="path4205"
         style="fill:#231f20;fill-opacity:1;fill-rule:evenodd;stroke:none;stroke-width:0.1"
         d="m 132.995,292.47 c -0.101,0.066 -0.174,0.103 -0.293,0.182 -7.595,4.847 -16.455,14.308 -17.363,26.103 -0.434,5.609 3.154,9.494 7.793,9.578 2.961,0.055 5.342,-0.996 6.631,-3.006 1.072,-1.672 1.346,-4.248 1.519,-3.058 0.625,4.542 -1.275,8.908 -2.304,12.72 1.146,-0.416 2.588,-0.626 4.033,-0.63 h 0.023 c 1.444,0.004 2.881,0.214 4.028,0.63 -1.028,-3.812 -2.926,-8.178 -2.303,-12.72 0.174,-1.19 0.447,1.386 1.518,3.058 1.289,2.01 3.669,3.061 6.63,3.006 4.639,-0.084 8.225,-3.969 7.793,-9.578 -0.908,-11.795 -9.769,-21.256 -17.357,-26.103 -0.084,-0.063 -0.156,-0.1 -0.275,-0.182 h -0.073" />
      <path
         inkscape:connector-curvature="0"
         id="path4207"
         style="fill:none;stroke:#231f20;stroke-width:0.16254601;stroke-linecap:butt;stroke-linejoin:round;stroke-miterlimit:4;stroke-dasharray:none;stroke-opacity:1"
         d="m 132.995,292.47 c -0.101,0.066 -0.174,0.103 -0.293,0.182 -7.595,4.847 -16.455,14.308 -17.363,26.103 -0.434,5.609 3.154,9.494 7.793,9.578 2.961,0.055 5.342,-0.996 6.631,-3.006 1.072,-1.672 1.346,-4.248 1.519,-3.058 0.625,4.542 -1.275,8.908 -2.304,12.72 1.146,-0.416 2.588,-0.626 4.033,-0.63 h 0.023 c 1.444,0.004 2.881,0.214 4.028,0.63 -1.028,-3.812 -2.926,-8.178 -2.303,-12.72 0.174,-1.19 0.447,1.386 1.518,3.058 1.289,2.01 3.669,3.061 6.63,3.006 4.639,-0.084 8.225,-3.969 7.793,-9.578 -0.908,-11.795 -9.769,-21.256 -17.357,-26.103 -0.084,-0.063 -0.156,-0.1 -0.275,-0.182 z" />
    </g>
  </g>
</svg>
