<?xml version="1.0" encoding="UTF-8" standalone="no"?>
<!-- Created with Inkscape (http://www.inkscape.org/) -->

<svg
   xmlns:dc="http://purl.org/dc/elements/1.1/"
   xmlns:cc="http://creativecommons.org/ns#"
   xmlns:rdf="http://www.w3.org/1999/02/22-rdf-syntax-ns#"
   xmlns:svg="http://www.w3.org/2000/svg"
   xmlns="http://www.w3.org/2000/svg"
   xmlns:sodipodi="http://sodipodi.sourceforge.net/DTD/sodipodi-0.dtd"
   xmlns:inkscape="http://www.inkscape.org/namespaces/inkscape"
   width="63.353001mm"
   height="88.352997mm"
   viewBox="0 0 63.353001 88.352997"
   version="1.1"
   id="svg22813"
   inkscape:version="0.92.2 2405546, 2018-03-11"
   sodipodi:docname="7c.svg">
  <defs
     id="defs22807" />
  <sodipodi:namedview
     id="base"
     pagecolor="#ffffff"
     bordercolor="#666666"
     borderopacity="1.0"
     inkscape:pageopacity="0.0"
     inkscape:pageshadow="2"
     inkscape:zoom="1.4"
     inkscape:cx="79.906021"
     inkscape:cy="124.23278"
     inkscape:document-units="mm"
     inkscape:current-layer="layer1"
     showgrid="false"
     inkscape:window-width="1920"
     inkscape:window-height="992"
     inkscape:window-x="0"
     inkscape:window-y="27"
     inkscape:window-maximized="1" />
  <metadata
     id="metadata22810">
    <rdf:RDF>
      <cc:Work
         rdf:about="">
        <dc:format>image/svg+xml</dc:format>
        <dc:type
           rdf:resource="http://purl.org/dc/dcmitype/StillImage" />
        <dc:title></dc:title>
      </cc:Work>
    </rdf:RDF>
  </metadata>
  <g
     inkscape:label="Layer 1"
     inkscape:groupmode="layer"
     id="layer1"
     transform="translate(0,-208.647)">
    <g
       transform="matrix(0.35277777,0,0,-0.35277777,-72.000179,391.0001)"
       id="g64113">
      <path
         d="m 383.177,281.13 c 0,-7.827 -6.345,-14.173 -14.173,-14.173 H 218.768 c -7.827,0 -14.173,6.346 -14.173,14.173 v 221.102 c 0,7.828 6.346,14.173 14.173,14.173 h 150.236 c 7.828,0 14.173,-6.345 14.173,-14.173 V 281.13"
         style="fill:#f7f7f5;fill-opacity:1;fill-rule:nonzero;stroke:none;stroke-width:0.1"
         id="path43354"
         inkscape:connector-curvature="0" />
      <path
         d="m 383.177,281.13 c 0,-7.827 -6.345,-14.173 -14.173,-14.173 H 218.768 c -7.827,0 -14.173,6.346 -14.173,14.173 v 221.102 c 0,7.828 6.346,14.173 14.173,14.173 h 150.236 c 7.828,0 14.173,-6.345 14.173,-14.173 z"
         style="fill:none;stroke:#231f20;stroke-width:1;stroke-linecap:butt;stroke-linejoin:miter;stroke-miterlimit:4;stroke-dasharray:none;stroke-opacity:1"
         id="path43356"
         inkscape:connector-curvature="0" />
      <path
         d="m 217.351,473.885 c -1.863,0 -3.377,-1.703 -3.377,-3.801 0,-1.2 0.501,-2.264 1.269,-2.967 0.259,-0.237 0.148,-0.495 -0.116,-0.334 -0.48,0.291 -1.022,0.477 -1.606,0.477 -1.797,0 -3.257,-1.643 -3.257,-3.667 0,-2.023 1.46,-3.667 3.257,-3.667 1.198,0 2.248,0.729 2.81,1.817 0.056,0.106 0.1,0.252 0.178,0.252 0.107,0 0.157,-0.175 0.157,-0.502 0,-1.315 -0.505,-2.851 -1.252,-4.616 0.323,0.077 1.299,0.271 1.937,0.271 0.638,0 1.614,-0.194 1.936,-0.271 -0.746,1.765 -1.251,3.301 -1.251,4.616 0,0.327 0.05,0.502 0.157,0.502 0.078,0 0.123,-0.146 0.178,-0.252 0.563,-1.088 1.611,-1.817 2.81,-1.817 1.798,0 3.257,1.644 3.257,3.667 0,2.024 -1.459,3.667 -3.257,3.667 -0.585,0 -1.126,-0.186 -1.607,-0.477 -0.263,-0.161 -0.374,0.097 -0.115,0.334 0.768,0.703 1.269,1.767 1.269,2.967 0,2.098 -1.514,3.801 -3.377,3.801"
         style="fill:#050301;fill-opacity:1;fill-rule:nonzero;stroke:none;stroke-width:0.1"
         id="path43358"
         inkscape:connector-curvature="0" />
      <path
         d="m 370.422,309.477 c 1.863,0 3.376,1.704 3.376,3.802 0,1.199 -0.5,2.263 -1.268,2.966 -0.259,0.237 -0.147,0.494 0.116,0.334 0.479,-0.292 1.021,-0.476 1.606,-0.476 1.797,0 3.257,1.642 3.257,3.666 0,2.023 -1.46,3.666 -3.257,3.666 -1.198,0 -2.247,-0.728 -2.811,-1.817 -0.055,-0.105 -0.099,-0.252 -0.176,-0.252 -0.108,0 -0.158,0.176 -0.158,0.502 0,1.316 0.506,2.851 1.25,4.618 -0.321,-0.078 -1.297,-0.274 -1.935,-0.274 -0.639,0 -1.613,0.196 -1.936,0.274 0.744,-1.767 1.252,-3.302 1.252,-4.618 0,-0.326 -0.052,-0.502 -0.159,-0.502 -0.078,0 -0.123,0.147 -0.177,0.252 -0.562,1.089 -1.612,1.817 -2.81,1.817 -1.798,0 -3.257,-1.643 -3.257,-3.666 0,-2.024 1.459,-3.666 3.257,-3.666 0.585,0 1.126,0.184 1.606,0.476 0.264,0.16 0.374,-0.097 0.116,-0.334 -0.768,-0.703 -1.268,-1.767 -1.268,-2.966 0,-2.098 1.513,-3.802 3.376,-3.802"
         style="fill:#050301;fill-opacity:1;fill-rule:nonzero;stroke:none;stroke-width:0.1"
         id="path43360"
         inkscape:connector-curvature="0" />
      <path
         d="m 250.659,490.894 c -4.66,0 -8.441,-4.259 -8.441,-9.505 0,-2.999 1.251,-5.66 3.17,-7.416 0.647,-0.594 0.37,-1.237 -0.289,-0.836 -1.201,0.729 -2.554,1.193 -4.016,1.193 -4.494,0 -8.142,-4.107 -8.142,-9.167 0,-5.06 3.648,-9.168 8.142,-9.168 2.996,0 5.618,1.823 7.026,4.542 0.138,0.266 0.249,0.631 0.444,0.631 0.267,0 0.392,-0.438 0.392,-1.256 0,-3.287 -1.262,-7.127 -3.127,-11.539 0.805,0.192 3.246,0.679 4.841,0.679 1.594,0 4.034,-0.487 4.841,-0.679 -1.867,4.412 -3.128,8.252 -3.128,11.539 0,0.818 0.125,1.256 0.393,1.256 0.194,0 0.305,-0.365 0.442,-0.631 1.408,-2.719 4.031,-4.542 7.027,-4.542 4.494,0 8.141,4.108 8.141,9.168 0,5.06 -3.647,9.167 -8.141,9.167 -1.463,0 -2.817,-0.464 -4.015,-1.193 -0.66,-0.401 -0.939,0.242 -0.29,0.836 1.919,1.756 3.169,4.417 3.169,7.416 0,5.246 -3.78,9.505 -8.439,9.505"
         style="fill:#050301;fill-opacity:1;fill-rule:nonzero;stroke:none;stroke-width:0.1"
         id="path43362"
         inkscape:connector-curvature="0" />
      <path
         d="m 250.659,412.941 c -4.66,0 -8.441,-4.255 -8.441,-9.496 0,-3 1.252,-5.663 3.17,-7.421 0.647,-0.594 0.37,-1.239 -0.289,-0.836 -1.201,0.729 -2.554,1.193 -4.016,1.193 -4.494,0 -8.142,-4.109 -8.142,-9.167 0,-5.056 3.648,-9.16 8.142,-9.16 2.996,0 5.618,1.821 7.026,4.538 0.138,0.265 0.25,0.63 0.444,0.63 0.267,0 0.392,-0.437 0.392,-1.255 0,-3.283 -1.262,-7.125 -3.127,-11.545 0.805,0.192 3.246,0.68 4.841,0.68 1.594,0 4.035,-0.488 4.841,-0.68 -1.866,4.42 -3.128,8.262 -3.128,11.545 0,0.818 0.125,1.255 0.393,1.255 0.194,0 0.305,-0.365 0.442,-0.63 1.408,-2.717 4.031,-4.538 7.027,-4.538 4.494,0 8.141,4.104 8.141,9.16 0,5.058 -3.647,9.167 -8.141,9.167 -1.463,0 -2.817,-0.464 -4.015,-1.193 -0.66,-0.403 -0.938,0.242 -0.289,0.836 1.918,1.758 3.169,4.421 3.169,7.421 0,5.241 -3.781,9.496 -8.44,9.496"
         style="fill:#050301;fill-opacity:1;fill-rule:nonzero;stroke:none;stroke-width:0.1"
         id="path43364"
         inkscape:connector-curvature="0" />
      <path
         d="m 250.659,292.469 c 4.659,0 8.441,4.257 8.441,9.505 0,2.998 -1.252,5.658 -3.17,7.415 -0.649,0.593 -0.371,1.239 0.289,0.837 1.199,-0.731 2.552,-1.194 4.015,-1.194 4.494,0 8.141,4.107 8.141,9.166 0,5.061 -3.647,9.168 -8.141,9.168 -2.996,0 -5.618,-1.822 -7.027,-4.541 -0.137,-0.265 -0.248,-0.63 -0.442,-0.63 -0.268,0 -0.393,0.437 -0.393,1.255 0,3.288 1.262,7.126 3.128,11.538 -0.806,-0.19 -3.248,-0.678 -4.841,-0.678 -1.595,0 -4.036,0.488 -4.841,0.678 1.866,-4.412 3.127,-8.25 3.127,-11.538 0,-0.818 -0.125,-1.255 -0.392,-1.255 -0.194,0 -0.305,0.365 -0.444,0.63 -1.408,2.719 -4.03,4.541 -7.025,4.541 -4.495,0 -8.143,-4.107 -8.143,-9.168 0,-5.059 3.648,-9.166 8.143,-9.166 1.461,0 2.816,0.463 4.015,1.194 0.659,0.402 0.937,-0.244 0.289,-0.837 -1.918,-1.757 -3.17,-4.417 -3.17,-7.415 0,-5.248 3.782,-9.505 8.441,-9.505"
         style="fill:#050301;fill-opacity:1;fill-rule:nonzero;stroke:none;stroke-width:0.1"
         id="path43366"
         inkscape:connector-curvature="0" />
      <path
         d="m 337.114,490.893 c -4.659,0 -8.44,-4.258 -8.44,-9.504 0,-2.999 1.251,-5.66 3.17,-7.416 0.647,-0.594 0.371,-1.237 -0.289,-0.836 -1.2,0.729 -2.554,1.192 -4.015,1.192 -4.494,0 -8.142,-4.106 -8.142,-9.166 0,-5.06 3.648,-9.168 8.142,-9.168 2.994,0 5.617,1.823 7.026,4.542 0.137,0.266 0.248,0.63 0.444,0.63 0.265,0 0.392,-0.437 0.392,-1.255 0,-3.288 -1.263,-7.127 -3.129,-11.539 0.806,0.192 3.248,0.679 4.841,0.679 1.596,0 4.036,-0.487 4.843,-0.679 -1.866,4.412 -3.129,8.251 -3.129,11.539 0,0.818 0.126,1.255 0.393,1.255 0.194,0 0.306,-0.364 0.442,-0.63 1.408,-2.719 4.03,-4.542 7.026,-4.542 4.496,0 8.142,4.108 8.142,9.168 0,5.06 -3.646,9.166 -8.142,9.166 -1.46,0 -2.815,-0.463 -4.013,-1.192 -0.661,-0.401 -0.938,0.242 -0.29,0.836 1.918,1.756 3.169,4.417 3.169,7.416 0,5.246 -3.78,9.504 -8.441,9.504"
         style="fill:#050301;fill-opacity:1;fill-rule:nonzero;stroke:none;stroke-width:0.1"
         id="path43368"
         inkscape:connector-curvature="0" />
      <path
         d="m 337.114,412.941 c -4.659,0 -8.44,-4.255 -8.44,-9.496 0,-3 1.251,-5.663 3.17,-7.421 0.647,-0.593 0.371,-1.237 -0.289,-0.836 -1.2,0.73 -2.554,1.194 -4.015,1.194 -4.494,0 -8.142,-4.11 -8.142,-9.167 0,-5.056 3.648,-9.16 8.142,-9.16 2.994,0 5.617,1.821 7.026,4.538 0.137,0.265 0.248,0.63 0.444,0.63 0.265,0 0.392,-0.438 0.392,-1.255 0,-3.286 -1.263,-7.125 -3.129,-11.546 0.806,0.192 3.248,0.681 4.841,0.681 1.596,0 4.036,-0.489 4.843,-0.681 -1.866,4.421 -3.129,8.26 -3.129,11.546 0,0.817 0.126,1.255 0.393,1.255 0.194,0 0.306,-0.365 0.443,-0.63 1.407,-2.717 4.029,-4.538 7.025,-4.538 4.496,0 8.142,4.104 8.142,9.16 0,5.057 -3.646,9.167 -8.142,9.167 -1.46,0 -2.815,-0.464 -4.013,-1.194 -0.661,-0.401 -0.938,0.243 -0.29,0.836 1.918,1.758 3.169,4.421 3.169,7.421 0,5.241 -3.78,9.496 -8.441,9.496"
         style="fill:#050301;fill-opacity:1;fill-rule:nonzero;stroke:none;stroke-width:0.1"
         id="path43370"
         inkscape:connector-curvature="0" />
      <path
         d="m 337.113,292.469 c 4.662,0 8.443,4.257 8.443,9.505 0,2.998 -1.252,5.658 -3.17,7.415 -0.648,0.593 -0.371,1.239 0.29,0.837 1.199,-0.731 2.553,-1.194 4.013,-1.194 4.496,0 8.142,4.107 8.142,9.166 0,5.061 -3.646,9.168 -8.142,9.168 -2.996,0 -5.617,-1.822 -7.025,-4.541 -0.137,-0.265 -0.249,-0.63 -0.443,-0.63 -0.267,0 -0.393,0.437 -0.393,1.255 0,3.288 1.263,7.126 3.128,11.538 -0.806,-0.191 -3.247,-0.678 -4.843,-0.678 -1.593,0 -4.034,0.487 -4.84,0.678 1.867,-4.412 3.129,-8.25 3.129,-11.538 0,-0.818 -0.125,-1.255 -0.392,-1.255 -0.196,0 -0.307,0.365 -0.444,0.63 -1.409,2.719 -4.031,4.541 -7.026,4.541 -4.494,0 -8.142,-4.107 -8.142,-9.168 0,-5.059 3.648,-9.166 8.142,-9.166 1.461,0 2.815,0.463 4.015,1.194 0.66,0.402 0.937,-0.244 0.289,-0.837 -1.919,-1.757 -3.169,-4.417 -3.169,-7.415 0,-5.248 3.781,-9.505 8.438,-9.505"
         style="fill:#050301;fill-opacity:1;fill-rule:nonzero;stroke:none;stroke-width:0.1"
         id="path43372"
         inkscape:connector-curvature="0" />
      <path
         d="m 293.889,459.711 c -4.66,0 -8.443,-4.256 -8.443,-9.5 0,-2.998 1.252,-5.657 3.171,-7.413 0.648,-0.593 0.371,-1.237 -0.289,-0.836 -1.2,0.729 -2.553,1.192 -4.015,1.192 -4.495,0 -8.143,-4.104 -8.143,-9.163 0,-5.057 3.648,-9.164 8.143,-9.164 2.995,0 5.618,1.822 7.026,4.54 0.139,0.266 0.249,0.63 0.443,0.63 0.268,0 0.393,-0.436 0.393,-1.256 0,-3.285 -1.262,-7.128 -3.127,-11.55 0.805,0.193 3.246,0.68 4.841,0.68 1.593,0 4.031,-0.487 4.838,-0.68 -1.866,4.422 -3.128,8.265 -3.128,11.55 0,0.82 0.126,1.256 0.391,1.256 0.195,0 0.307,-0.364 0.445,-0.63 1.406,-2.718 4.029,-4.54 7.025,-4.54 4.495,0 8.143,4.107 8.143,9.164 0,5.059 -3.648,9.163 -8.143,9.163 -1.461,0 -2.815,-0.463 -4.015,-1.192 -0.66,-0.401 -0.937,0.243 -0.289,0.836 1.918,1.756 3.17,4.415 3.17,7.413 0,5.244 -3.781,9.5 -8.437,9.5"
         style="fill:#050301;fill-opacity:1;fill-rule:nonzero;stroke:none;stroke-width:0.1"
         id="path43374"
         inkscape:connector-curvature="0" />
      <path
         d="m 210.266,502.232 v -1.442 h -0.002 v -2.452 l 2.226,10e-4 -0.002,1.486 h 9.345 c -1.448,-2.656 -5.353,-10.627 -6.765,-21.688 l 2.239,10e-4 c 0.83,6.523 2.253,11.627 3.879,15.411 0.812,1.892 1.572,3.372 2.125,4.374 0.276,0.502 0.5,0.884 0.655,1.137 0.161,0.265 0.432,0.705 0.47,0.765 v 2.407 h -14.17"
         style="fill:#000000;fill-opacity:1;fill-rule:nonzero;stroke:none;stroke-width:0.1"
         id="path43376"
         inkscape:connector-curvature="0" />
      <path
         d="m 377.506,281.13 v 1.442 h 0.002 v 2.453 l -2.227,-0.002 0.002,-1.487 h -9.344 c 1.448,2.657 5.352,10.628 6.764,21.689 l -2.238,-0.001 c -0.83,-6.523 -2.253,-11.627 -3.879,-15.41 -0.813,-1.892 -1.572,-3.373 -2.125,-4.375 -0.276,-0.501 -0.501,-0.883 -0.655,-1.136 -0.161,-0.266 -0.432,-0.705 -0.471,-0.767 v -2.406 h 14.171"
         style="fill:#000000;fill-opacity:1;fill-rule:nonzero;stroke:none;stroke-width:0.1"
         id="path43378"
         inkscape:connector-curvature="0" />
    </g>
  </g>
</svg>
