<?xml version="1.0" encoding="UTF-8" standalone="no"?>
<!-- Created with Inkscape (http://www.inkscape.org/) -->

<svg
   xmlns:dc="http://purl.org/dc/elements/1.1/"
   xmlns:cc="http://creativecommons.org/ns#"
   xmlns:rdf="http://www.w3.org/1999/02/22-rdf-syntax-ns#"
   xmlns:svg="http://www.w3.org/2000/svg"
   xmlns="http://www.w3.org/2000/svg"
   xmlns:sodipodi="http://sodipodi.sourceforge.net/DTD/sodipodi-0.dtd"
   xmlns:inkscape="http://www.inkscape.org/namespaces/inkscape"
   width="63.353001mm"
   height="88.352997mm"
   viewBox="0 0 63.353001 88.352997"
   version="1.1"
   id="svg22813"
   inkscape:version="0.92.2 2405546, 2018-03-11"
   sodipodi:docname="7d.svg">
  <defs
     id="defs22807" />
  <sodipodi:namedview
     id="base"
     pagecolor="#ffffff"
     bordercolor="#666666"
     borderopacity="1.0"
     inkscape:pageopacity="0.0"
     inkscape:pageshadow="2"
     inkscape:zoom="1.4"
     inkscape:cx="81.334592"
     inkscape:cy="124.23278"
     inkscape:document-units="mm"
     inkscape:current-layer="layer1"
     showgrid="false"
     inkscape:window-width="960"
     inkscape:window-height="992"
     inkscape:window-x="960"
     inkscape:window-y="27"
     inkscape:window-maximized="0" />
  <metadata
     id="metadata22810">
    <rdf:RDF>
      <cc:Work
         rdf:about="">
        <dc:format>image/svg+xml</dc:format>
        <dc:type
           rdf:resource="http://purl.org/dc/dcmitype/StillImage" />
        <dc:title></dc:title>
      </cc:Work>
    </rdf:RDF>
  </metadata>
  <g
     inkscape:label="Layer 1"
     inkscape:groupmode="layer"
     id="layer1"
     transform="translate(0,-208.647)">
    <g
       transform="matrix(0.35277777,0,0,-0.35277777,-71.75006,391.53633)"
       id="g87636">
      <path
         d="m 382.47,282.65 c 0,-7.828 -6.346,-14.173 -14.175,-14.173 H 218.06 c -7.828,0 -14.174,6.345 -14.174,14.173 v 221.095 c 0,7.828 6.346,14.173 14.174,14.173 h 150.235 c 7.829,0 14.175,-6.345 14.175,-14.173 V 282.65"
         style="fill:#f7f7f5;fill-opacity:1;fill-rule:nonzero;stroke:none;stroke-width:0.1"
         id="path74879"
         inkscape:connector-curvature="0" />
      <path
         d="m 382.47,282.65 c 0,-7.828 -6.346,-14.173 -14.175,-14.173 H 218.06 c -7.828,0 -14.174,6.345 -14.174,14.173 v 221.095 c 0,7.828 6.346,14.173 14.174,14.173 h 150.235 c 7.829,0 14.175,-6.345 14.175,-14.173 z"
         style="fill:none;stroke:#231f20;stroke-width:1;stroke-linecap:butt;stroke-linejoin:miter;stroke-miterlimit:4;stroke-dasharray:none;stroke-opacity:1"
         id="path74881"
         inkscape:connector-curvature="0" />
      <path
         d="m 216.654,475.398 c 1.787,-3.47 4.145,-6.308 7.076,-8.512 -2.931,-2.207 -5.289,-5.038 -7.076,-8.495 -1.802,3.457 -4.168,6.288 -7.098,8.495 2.93,2.204 5.296,5.042 7.098,8.512 v 0"
         style="fill:#e52c3f;fill-opacity:1;fill-rule:nonzero;stroke:none;stroke-width:0.1"
         id="path74883"
         inkscape:connector-curvature="0" />
      <path
         d="m 369.723,328.005 c 1.787,-3.47 4.147,-6.308 7.077,-8.513 -2.93,-2.206 -5.29,-5.038 -7.077,-8.495 -1.803,3.457 -4.168,6.289 -7.098,8.495 2.93,2.205 5.295,5.043 7.098,8.513 v 0"
         style="fill:#e52c3f;fill-opacity:1;fill-rule:nonzero;stroke:none;stroke-width:0.1"
         id="path74885"
         inkscape:connector-curvature="0" />
      <path
         d="m 249.974,492.407 c 4.469,-8.675 10.366,-15.77 17.692,-21.284 -7.326,-5.516 -13.223,-12.594 -17.692,-21.236 -4.502,8.642 -10.416,15.72 -17.741,21.236 7.325,5.514 13.239,12.609 17.741,21.284 v 0"
         style="fill:#e52c3f;fill-opacity:1;fill-rule:nonzero;stroke:none;stroke-width:0.1"
         id="path74887"
         inkscape:connector-curvature="0" />
      <path
         d="m 249.975,414.454 c 4.468,-8.674 10.364,-15.769 17.691,-21.274 -7.327,-5.514 -13.223,-12.596 -17.691,-21.239 -4.503,8.643 -10.418,15.725 -17.742,21.239 7.324,5.505 13.239,12.6 17.742,21.274 v 0"
         style="fill:#e52c3f;fill-opacity:1;fill-rule:nonzero;stroke:none;stroke-width:0.1"
         id="path74889"
         inkscape:connector-curvature="0" />
      <path
         d="m 249.975,336.509 c 4.468,-8.675 10.364,-15.769 17.691,-21.282 -7.327,-5.518 -13.223,-12.596 -17.691,-21.238 -4.503,8.642 -10.417,15.72 -17.742,21.238 7.325,5.513 13.239,12.607 17.742,21.282 v 0"
         style="fill:#e52c3f;fill-opacity:1;fill-rule:nonzero;stroke:none;stroke-width:0.1"
         id="path74891"
         inkscape:connector-curvature="0" />
      <path
         d="m 336.43,492.407 c 4.469,-8.675 10.365,-15.77 17.691,-21.284 -7.326,-5.516 -13.222,-12.594 -17.691,-21.236 -4.502,8.642 -10.416,15.72 -17.74,21.236 7.324,5.514 13.238,12.609 17.74,21.284 v 0"
         style="fill:#e52c3f;fill-opacity:1;fill-rule:nonzero;stroke:none;stroke-width:0.1"
         id="path74893"
         inkscape:connector-curvature="0" />
      <path
         d="m 336.43,414.454 c 4.469,-8.676 10.365,-15.769 17.691,-21.274 -7.326,-5.512 -13.222,-12.596 -17.691,-21.239 -4.502,8.643 -10.416,15.727 -17.74,21.239 7.324,5.505 13.238,12.598 17.74,21.274 v 0"
         style="fill:#e52c3f;fill-opacity:1;fill-rule:nonzero;stroke:none;stroke-width:0.1"
         id="path74895"
         inkscape:connector-curvature="0" />
      <path
         d="m 336.43,336.509 c 4.469,-8.675 10.365,-15.77 17.691,-21.282 -7.326,-5.517 -13.222,-12.596 -17.691,-21.238 -4.502,8.642 -10.416,15.721 -17.74,21.238 7.324,5.512 13.238,12.607 17.74,21.282 v 0"
         style="fill:#e52c3f;fill-opacity:1;fill-rule:nonzero;stroke:none;stroke-width:0.1"
         id="path74897"
         inkscape:connector-curvature="0" />
      <path
         d="m 293.202,461.226 c 4.47,-8.675 10.365,-15.771 17.691,-21.283 -7.326,-5.517 -13.221,-12.595 -17.691,-21.238 -4.502,8.643 -10.416,15.721 -17.741,21.238 7.325,5.512 13.239,12.608 17.741,21.283 v 0"
         style="fill:#e52c3f;fill-opacity:1;fill-rule:nonzero;stroke:none;stroke-width:0.1"
         id="path74899"
         inkscape:connector-curvature="0" />
      <path
         d="m 209.558,503.746 v -1.443 h -0.002 v -2.452 l 2.226,0.002 -0.002,1.486 h 9.345 c -1.448,-2.656 -5.352,-10.628 -6.764,-21.688 l 2.238,10e-4 c 0.83,6.523 2.253,11.627 3.879,15.41 0.812,1.892 1.572,3.373 2.125,4.375 0.276,0.501 0.501,0.883 0.655,1.136 0.161,0.265 0.431,0.705 0.471,0.766 v 2.407 h -14.171"
         style="fill:#e52c3f;fill-opacity:1;fill-rule:nonzero;stroke:none;stroke-width:0.1"
         id="path74901"
         inkscape:connector-curvature="0" />
      <path
         d="m 376.797,282.65 v 1.443 h 0.003 v 2.452 l -2.227,-0.002 0.002,-1.486 h -9.346 c 1.449,2.656 5.353,10.628 6.766,21.688 l -2.239,-10e-4 c -0.83,-6.523 -2.252,-11.627 -3.879,-15.41 -0.812,-1.891 -1.572,-3.373 -2.125,-4.375 -0.277,-0.501 -0.502,-0.883 -0.654,-1.136 -0.162,-0.266 -0.434,-0.705 -0.473,-0.766 v -2.407 h 14.172"
         style="fill:#e52c3f;fill-opacity:1;fill-rule:nonzero;stroke:none;stroke-width:0.1"
         id="path74903"
         inkscape:connector-curvature="0" />
    </g>
  </g>
</svg>
