<?xml version="1.0" encoding="UTF-8" standalone="no"?>
<!-- Created with Inkscape (http://www.inkscape.org/) -->

<svg
   xmlns:dc="http://purl.org/dc/elements/1.1/"
   xmlns:cc="http://creativecommons.org/ns#"
   xmlns:rdf="http://www.w3.org/1999/02/22-rdf-syntax-ns#"
   xmlns:svg="http://www.w3.org/2000/svg"
   xmlns="http://www.w3.org/2000/svg"
   xmlns:sodipodi="http://sodipodi.sourceforge.net/DTD/sodipodi-0.dtd"
   xmlns:inkscape="http://www.inkscape.org/namespaces/inkscape"
   width="63.353001mm"
   height="88.352997mm"
   viewBox="0 0 63.353001 88.352997"
   version="1.1"
   id="svg22813"
   inkscape:version="0.92.2 2405546, 2018-03-11"
   sodipodi:docname="7h.svg">
  <defs
     id="defs22807" />
  <sodipodi:namedview
     id="base"
     pagecolor="#ffffff"
     bordercolor="#666666"
     borderopacity="1.0"
     inkscape:pageopacity="0.0"
     inkscape:pageshadow="2"
     inkscape:zoom="1.4"
     inkscape:cx="79.906021"
     inkscape:cy="124.23278"
     inkscape:document-units="mm"
     inkscape:current-layer="layer1"
     showgrid="false"
     inkscape:window-width="1920"
     inkscape:window-height="992"
     inkscape:window-x="0"
     inkscape:window-y="27"
     inkscape:window-maximized="1" />
  <metadata
     id="metadata22810">
    <rdf:RDF>
      <cc:Work
         rdf:about="">
        <dc:format>image/svg+xml</dc:format>
        <dc:type
           rdf:resource="http://purl.org/dc/dcmitype/StillImage" />
        <dc:title></dc:title>
      </cc:Work>
    </rdf:RDF>
  </metadata>
  <g
     inkscape:label="Layer 1"
     inkscape:groupmode="layer"
     id="layer1"
     transform="translate(0,-208.647)">
    <g
       transform="matrix(0.35277777,0,0,-0.35277777,-71.75006,391.16626)"
       id="g43751">
      <path
         d="m 382.47,281.602 c 0,-7.829 -6.346,-14.174 -14.174,-14.174 H 218.06 c -7.828,0 -14.174,6.345 -14.174,14.174 v 221.101 c 0,7.828 6.346,14.174 14.174,14.174 h 150.236 c 7.828,0 14.174,-6.346 14.174,-14.174 V 281.602"
         style="fill:#f7f7f5;fill-opacity:1;fill-rule:nonzero;stroke:none;stroke-width:0.1"
         id="path31280"
         inkscape:connector-curvature="0" />
      <path
         d="m 382.47,281.602 c 0,-7.829 -6.346,-14.174 -14.174,-14.174 H 218.06 c -7.828,0 -14.174,6.345 -14.174,14.174 v 221.101 c 0,7.828 6.346,14.174 14.174,14.174 h 150.236 c 7.828,0 14.174,-6.346 14.174,-14.174 z"
         style="fill:none;stroke:#231f20;stroke-width:1;stroke-linecap:butt;stroke-linejoin:miter;stroke-miterlimit:4;stroke-dasharray:none;stroke-opacity:1"
         id="path31282"
         inkscape:connector-curvature="0" />
      <path
         d="m 216.64,457.349 c -0.006,0.01 -0.013,0.019 -0.019,0.029 -0.006,-0.01 -0.012,-0.019 -0.018,-0.029 h 0.037"
         style="fill:#e52c3f;fill-opacity:1;fill-rule:nonzero;stroke:none;stroke-width:0.1"
         id="path31284"
         inkscape:connector-curvature="0" />
      <path
         d="m 220.616,474.257 c -1.247,0.388 -3.186,-0.294 -3.898,-3.121 -0.06,-0.156 -0.122,-0.152 -0.178,0.005 -1.029,2.865 -2.722,3.491 -3.913,3.116 -1.764,-0.569 -3.194,-2.673 -3.063,-5.356 0.035,-4.684 4.227,-7.044 7.057,-11.523 2.831,4.479 7.07,6.831 7.081,11.537 0.246,2.712 -1.273,4.784 -3.086,5.342"
         style="fill:#e52c3f;fill-opacity:1;fill-rule:nonzero;stroke:none;stroke-width:0.1"
         id="path31286"
         inkscape:connector-curvature="0" />
      <path
         d="m 369.714,326.956 c 0.006,-0.01 0.013,-0.019 0.02,-0.029 0.006,0.01 0.012,0.019 0.019,0.029 h -0.039"
         style="fill:#e52c3f;fill-opacity:1;fill-rule:nonzero;stroke:none;stroke-width:0.1"
         id="path31288"
         inkscape:connector-curvature="0" />
      <path
         d="m 369.734,326.927 c -2.83,-4.48 -7.07,-6.832 -7.082,-11.536 -0.245,-2.713 1.273,-4.786 3.086,-5.344 1.248,-0.387 3.187,0.295 3.9,3.123 0.058,0.154 0.121,0.15 0.178,-0.006 1.027,-2.865 2.72,-3.49 3.912,-3.117 1.765,0.569 3.193,2.674 3.062,5.357 -0.035,4.683 -4.227,7.043 -7.056,11.523"
         style="fill:#e52c3f;fill-opacity:1;fill-rule:nonzero;stroke:none;stroke-width:0.1"
         id="path31290"
         inkscape:connector-curvature="0" />
      <path
         d="m 259.883,493.95 c -3.117,0.97 -7.965,-0.736 -9.746,-7.804 -0.148,-0.388 -0.305,-0.379 -0.445,0.014 -2.57,7.162 -6.804,8.726 -9.782,7.79 -4.41,-1.422 -7.984,-6.681 -7.657,-13.391 0.088,-11.71 10.568,-17.608 17.643,-28.806 7.076,11.198 17.674,17.078 17.704,28.84 0.613,6.78 -3.183,11.961 -7.717,13.357"
         style="fill:#e52c3f;fill-opacity:1;fill-rule:nonzero;stroke:none;stroke-width:0.1"
         id="path31292"
         inkscape:connector-curvature="0" />
      <path
         d="m 249.943,451.68 c -0.015,0.025 -0.031,0.048 -0.047,0.073 -0.016,-0.025 -0.032,-0.048 -0.047,-0.073 h 0.094"
         style="fill:#e52c3f;fill-opacity:1;fill-rule:nonzero;stroke:none;stroke-width:0.1"
         id="path31294"
         inkscape:connector-curvature="0" />
      <path
         d="m 267.644,306.58 c -0.088,11.711 -10.568,17.608 -17.644,28.807 -7.075,-11.198 -17.673,-17.079 -17.703,-28.84 -0.613,-6.781 3.183,-11.962 7.717,-13.358 3.117,-0.968 7.965,0.735 9.746,7.805 0.148,0.387 0.304,0.379 0.445,-0.014 2.57,-7.162 6.804,-8.727 9.783,-7.791 4.41,1.422 7.984,6.681 7.656,13.391"
         style="fill:#e52c3f;fill-opacity:1;fill-rule:nonzero;stroke:none;stroke-width:0.1"
         id="path31296"
         inkscape:connector-curvature="0" />
      <path
         d="m 249.953,335.46 c 0.016,-0.024 0.032,-0.049 0.047,-0.073 0.016,0.024 0.032,0.049 0.048,0.073 h -0.095"
         style="fill:#e52c3f;fill-opacity:1;fill-rule:nonzero;stroke:none;stroke-width:0.1"
         id="path31298"
         inkscape:connector-curvature="0" />
      <path
         d="m 336.402,370.893 c -0.016,0.025 -0.033,0.048 -0.048,0.074 -0.016,-0.026 -0.033,-0.049 -0.048,-0.074 h 0.096"
         style="fill:#e52c3f;fill-opacity:1;fill-rule:nonzero;stroke:none;stroke-width:0.1"
         id="path31300"
         inkscape:connector-curvature="0" />
      <path
         d="m 346.341,413.163 c -3.117,0.969 -7.965,-0.736 -9.746,-7.804 -0.149,-0.387 -0.305,-0.379 -0.445,0.014 -2.571,7.162 -6.804,8.726 -9.784,7.79 -4.41,-1.423 -7.983,-6.681 -7.656,-13.39 0.088,-11.713 10.568,-17.609 17.644,-28.806 7.076,11.197 17.675,17.077 17.704,28.841 0.613,6.78 -3.184,11.959 -7.717,13.355"
         style="fill:#e52c3f;fill-opacity:1;fill-rule:nonzero;stroke:none;stroke-width:0.1"
         id="path31302"
         inkscape:connector-curvature="0" />
      <path
         d="m 336.402,451.679 c -0.016,0.025 -0.033,0.049 -0.048,0.074 -0.016,-0.025 -0.033,-0.049 -0.048,-0.074 h 0.096"
         style="fill:#e52c3f;fill-opacity:1;fill-rule:nonzero;stroke:none;stroke-width:0.1"
         id="path31304"
         inkscape:connector-curvature="0" />
      <path
         d="m 346.341,493.95 c -3.117,0.968 -7.965,-0.736 -9.746,-7.805 -0.149,-0.387 -0.305,-0.378 -0.445,0.014 -2.571,7.162 -6.805,8.727 -9.783,7.791 -4.41,-1.423 -7.983,-6.681 -7.657,-13.391 0.088,-11.71 10.568,-17.607 17.644,-28.806 7.076,11.198 17.675,17.079 17.704,28.84 0.613,6.78 -3.183,11.961 -7.717,13.357"
         style="fill:#e52c3f;fill-opacity:1;fill-rule:nonzero;stroke:none;stroke-width:0.1"
         id="path31306"
         inkscape:connector-curvature="0" />
      <path
         d="m 354.102,306.58 c -0.088,11.711 -10.568,17.608 -17.643,28.807 -7.076,-11.198 -17.675,-17.079 -17.704,-28.84 -0.613,-6.781 3.183,-11.962 7.717,-13.358 3.117,-0.968 7.964,0.735 9.746,7.805 0.147,0.387 0.305,0.379 0.445,-0.014 2.569,-7.162 6.803,-8.727 9.782,-7.791 4.41,1.422 7.984,6.681 7.657,13.391"
         style="fill:#e52c3f;fill-opacity:1;fill-rule:nonzero;stroke:none;stroke-width:0.1"
         id="path31308"
         inkscape:connector-curvature="0" />
      <path
         d="m 336.411,335.46 c 0.016,-0.024 0.032,-0.049 0.048,-0.073 0.015,0.024 0.031,0.049 0.047,0.073 h -0.095"
         style="fill:#e52c3f;fill-opacity:1;fill-rule:nonzero;stroke:none;stroke-width:0.1"
         id="path31310"
         inkscape:connector-curvature="0" />
      <path
         d="m 259.883,413.163 c -3.117,0.969 -7.965,-0.735 -9.746,-7.804 -0.148,-0.387 -0.304,-0.379 -0.446,0.014 -2.569,7.162 -6.803,8.726 -9.782,7.79 -4.41,-1.423 -7.983,-6.681 -7.656,-13.39 0.088,-11.713 10.568,-17.609 17.643,-28.807 7.076,11.198 17.674,17.078 17.704,28.841 0.613,6.781 -3.184,11.96 -7.717,13.356"
         style="fill:#e52c3f;fill-opacity:1;fill-rule:nonzero;stroke:none;stroke-width:0.1"
         id="path31312"
         inkscape:connector-curvature="0" />
      <path
         d="m 249.944,370.893 c -0.016,0.024 -0.032,0.048 -0.048,0.073 -0.016,-0.025 -0.032,-0.049 -0.047,-0.073 h 0.095"
         style="fill:#e52c3f;fill-opacity:1;fill-rule:nonzero;stroke:none;stroke-width:0.1"
         id="path31314"
         inkscape:connector-curvature="0" />
      <path
         d="m 303.114,459.935 c -3.117,0.969 -7.97,-0.736 -9.751,-7.805 -0.149,-0.387 -0.305,-0.378 -0.446,0.014 -2.568,7.162 -6.803,8.727 -9.78,7.791 -4.409,-1.423 -7.983,-6.681 -7.655,-13.391 0.088,-11.711 10.565,-17.607 17.639,-28.806 7.083,11.199 17.678,17.079 17.708,28.84 0.614,6.78 -3.183,11.961 -7.715,13.357"
         style="fill:#e52c3f;fill-opacity:1;fill-rule:nonzero;stroke:none;stroke-width:0.1"
         id="path31316"
         inkscape:connector-curvature="0" />
      <path
         d="m 293.169,417.665 c -0.015,0.024 -0.032,0.048 -0.048,0.073 -0.016,-0.025 -0.032,-0.049 -0.048,-0.073 h 0.096"
         style="fill:#e52c3f;fill-opacity:1;fill-rule:nonzero;stroke:none;stroke-width:0.1"
         id="path31318"
         inkscape:connector-curvature="0" />
      <path
         d="m 209.558,502.704 v -1.443 h -0.002 v -2.452 l 2.226,0.002 -0.002,1.486 h 9.345 c -1.448,-2.656 -5.352,-10.627 -6.764,-21.688 l 2.238,0.002 c 0.83,6.522 2.253,11.626 3.879,15.409 0.812,1.892 1.572,3.373 2.125,4.375 0.276,0.501 0.501,0.883 0.655,1.136 0.161,0.265 0.431,0.705 0.471,0.766 v 2.407 h -14.171"
         style="fill:#e52c3f;fill-opacity:1;fill-rule:nonzero;stroke:none;stroke-width:0.1"
         id="path31320"
         inkscape:connector-curvature="0" />
      <path
         d="m 376.798,281.602 v 1.442 h 0.002 v 2.452 l -2.227,-0.002 0.002,-1.486 h -9.345 c 1.449,2.656 5.353,10.628 6.765,21.688 l -2.238,-0.001 c -0.83,-6.523 -2.253,-11.627 -3.879,-15.41 -0.812,-1.891 -1.572,-3.373 -2.125,-4.375 -0.277,-0.501 -0.502,-0.883 -0.655,-1.135 -0.161,-0.266 -0.433,-0.705 -0.472,-0.767 v -2.406 h 14.172"
         style="fill:#e52c3f;fill-opacity:1;fill-rule:nonzero;stroke:none;stroke-width:0.1"
         id="path31322"
         inkscape:connector-curvature="0" />
    </g>
  </g>
</svg>
