<?xml version="1.0" encoding="UTF-8" standalone="no"?>
<!-- Created with Inkscape (http://www.inkscape.org/) -->

<svg
   xmlns:dc="http://purl.org/dc/elements/1.1/"
   xmlns:cc="http://creativecommons.org/ns#"
   xmlns:rdf="http://www.w3.org/1999/02/22-rdf-syntax-ns#"
   xmlns:svg="http://www.w3.org/2000/svg"
   xmlns="http://www.w3.org/2000/svg"
   xmlns:sodipodi="http://sodipodi.sourceforge.net/DTD/sodipodi-0.dtd"
   xmlns:inkscape="http://www.inkscape.org/namespaces/inkscape"
   width="63.353001mm"
   height="88.352997mm"
   viewBox="0 0 63.353001 88.352997"
   version="1.1"
   id="svg22813"
   inkscape:version="0.92.2 2405546, 2018-03-11"
   sodipodi:docname="7s.svg">
  <defs
     id="defs22807" />
  <sodipodi:namedview
     id="base"
     pagecolor="#ffffff"
     bordercolor="#666666"
     borderopacity="1.0"
     inkscape:pageopacity="0.0"
     inkscape:pageshadow="2"
     inkscape:zoom="1.4"
     inkscape:cx="79.906021"
     inkscape:cy="67.089921"
     inkscape:document-units="mm"
     inkscape:current-layer="layer1"
     showgrid="false"
     inkscape:window-width="1920"
     inkscape:window-height="992"
     inkscape:window-x="0"
     inkscape:window-y="27"
     inkscape:window-maximized="1" />
  <metadata
     id="metadata22810">
    <rdf:RDF>
      <cc:Work
         rdf:about="">
        <dc:format>image/svg+xml</dc:format>
        <dc:type
           rdf:resource="http://purl.org/dc/dcmitype/StillImage" />
        <dc:title></dc:title>
      </cc:Work>
    </rdf:RDF>
  </metadata>
  <g
     inkscape:label="Layer 1"
     inkscape:groupmode="layer"
     id="layer1"
     transform="translate(0,-208.647)">
    <g
       transform="matrix(0.35277777,0,0,-0.35277777,-71.75006,391.00081)"
       id="g23155">
      <path
         inkscape:connector-curvature="0"
         id="path4209"
         style="fill:#f7f7f5;fill-opacity:1;fill-rule:nonzero;stroke:none;stroke-width:0.1"
         d="m 382.47,281.133 c 0,-7.828 -6.346,-14.174 -14.174,-14.174 H 218.059 c -7.827,0 -14.173,6.346 -14.173,14.174 V 502.23 c 0,7.828 6.346,14.174 14.173,14.174 h 150.237 c 7.828,0 14.174,-6.346 14.174,-14.174 V 281.133" />
      <path
         inkscape:connector-curvature="0"
         id="path4211"
         style="fill:none;stroke:#231f20;stroke-width:1;stroke-linecap:butt;stroke-linejoin:miter;stroke-miterlimit:4;stroke-dasharray:none;stroke-opacity:1"
         d="m 382.47,281.133 c 0,-7.828 -6.346,-14.174 -14.174,-14.174 H 218.059 c -7.827,0 -14.173,6.346 -14.173,14.174 V 502.23 c 0,7.828 6.346,14.174 14.173,14.174 h 150.237 c 7.828,0 14.174,-6.346 14.174,-14.174 z" />
      <path
         inkscape:connector-curvature="0"
         id="path4213"
         style="fill:#000000;fill-opacity:1;fill-rule:nonzero;stroke:none;stroke-width:0.1"
         d="m 209.557,502.23 v -1.442 h -0.002 v -2.452 l 2.226,0.002 -0.001,1.486 h 9.345 c -1.449,-2.658 -5.353,-10.628 -6.766,-21.688 l 2.239,10e-4 c 0.831,6.522 2.253,11.626 3.879,15.409 0.813,1.892 1.572,3.374 2.126,4.375 0.276,0.501 0.501,0.883 0.654,1.136 0.161,0.266 0.432,0.705 0.472,0.767 v 2.406 h -14.172" />
      <path
         inkscape:connector-curvature="0"
         id="path4215"
         style="fill:#000000;fill-opacity:1;fill-rule:nonzero;stroke:none;stroke-width:0.1"
         d="m 376.798,281.133 v 1.441 h 0.002 v 2.453 l -2.227,-0.002 0.002,-1.486 h -9.345 c 1.449,2.656 5.353,10.627 6.765,21.688 h -2.238 c -0.83,-6.524 -2.252,-11.627 -3.879,-15.411 -0.812,-1.892 -1.572,-3.373 -2.125,-4.375 -0.277,-0.502 -0.502,-0.882 -0.654,-1.136 -0.162,-0.266 -0.434,-0.705 -0.473,-0.766 v -2.406 h 14.172" />
      <path
         inkscape:connector-curvature="0"
         id="path4217"
         style="fill:#231f20;fill-opacity:1;fill-rule:evenodd;stroke:none;stroke-width:0.1"
         d="m 216.632,473.884 c -0.041,-0.027 -0.07,-0.042 -0.117,-0.072 -3.038,-1.941 -6.583,-5.725 -6.946,-10.442 -0.173,-2.244 1.263,-3.798 3.118,-3.832 1.184,-0.021 2.136,0.4 2.652,1.203 0.429,0.668 0.538,1.7 0.608,1.223 0.25,-1.816 -0.511,-3.562 -0.922,-5.088 0.459,0.167 1.035,0.251 1.613,0.253 h 0.01 c 0.577,-0.002 1.152,-0.086 1.61,-0.253 -0.411,1.526 -1.17,3.272 -0.92,5.088 0.069,0.477 0.178,-0.555 0.606,-1.223 0.515,-0.803 1.469,-1.224 2.652,-1.203 1.856,0.034 3.291,1.588 3.118,3.832 -0.363,4.717 -3.908,8.501 -6.943,10.442 -0.033,0.024 -0.062,0.039 -0.11,0.072 h -0.029" />
      <path
         inkscape:connector-curvature="0"
         id="path4219"
         style="fill:none;stroke:#231f20;stroke-width:0.065018;stroke-linecap:butt;stroke-linejoin:round;stroke-miterlimit:4;stroke-dasharray:none;stroke-opacity:1"
         d="m 216.632,473.884 c -0.041,-0.027 -0.07,-0.042 -0.117,-0.072 -3.038,-1.941 -6.583,-5.725 -6.946,-10.442 -0.173,-2.244 1.263,-3.798 3.118,-3.832 1.184,-0.021 2.136,0.4 2.652,1.203 0.429,0.668 0.538,1.7 0.608,1.223 0.25,-1.816 -0.511,-3.562 -0.922,-5.088 0.459,0.167 1.035,0.251 1.613,0.253 h 0.01 c 0.577,-0.002 1.152,-0.086 1.61,-0.253 -0.411,1.526 -1.17,3.272 -0.92,5.088 0.069,0.477 0.178,-0.555 0.606,-1.223 0.515,-0.803 1.469,-1.224 2.652,-1.203 1.856,0.034 3.291,1.588 3.118,3.832 -0.363,4.717 -3.908,8.501 -6.943,10.442 -0.033,0.024 -0.062,0.039 -0.11,0.072 z" />
      <path
         inkscape:connector-curvature="0"
         id="path4221"
         style="fill:#231f20;fill-opacity:1;fill-rule:evenodd;stroke:none;stroke-width:0.1"
         d="m 369.704,309.48 c -0.041,0.028 -0.07,0.041 -0.117,0.073 -3.039,1.939 -6.584,5.724 -6.947,10.441 -0.172,2.244 1.264,3.797 3.119,3.832 1.184,0.022 2.137,-0.4 2.652,-1.203 0.428,-0.668 0.537,-1.699 0.608,-1.223 0.25,1.817 -0.512,3.563 -0.922,5.088 0.459,-0.168 1.035,-0.252 1.613,-0.254 h 0.01 c 0.576,0.002 1.152,0.086 1.609,0.254 -0.41,-1.525 -1.17,-3.271 -0.92,-5.088 0.069,-0.476 0.178,0.555 0.606,1.223 0.515,0.803 1.469,1.225 2.652,1.203 1.856,-0.035 3.291,-1.588 3.119,-3.832 -0.363,-4.717 -3.908,-8.502 -6.943,-10.441 -0.033,-0.026 -0.063,-0.041 -0.111,-0.073 h -0.028" />
      <path
         inkscape:connector-curvature="0"
         id="path4223"
         style="fill:none;stroke:#231f20;stroke-width:0.065018;stroke-linecap:butt;stroke-linejoin:round;stroke-miterlimit:4;stroke-dasharray:none;stroke-opacity:1"
         d="m 369.704,309.48 c -0.041,0.028 -0.07,0.041 -0.117,0.073 -3.039,1.939 -6.584,5.724 -6.947,10.441 -0.172,2.244 1.264,3.797 3.119,3.832 1.184,0.022 2.137,-0.4 2.652,-1.203 0.428,-0.668 0.537,-1.699 0.608,-1.223 0.25,1.817 -0.512,3.563 -0.922,5.088 0.459,-0.168 1.035,-0.252 1.613,-0.254 h 0.01 c 0.576,0.002 1.152,0.086 1.609,0.254 -0.41,-1.525 -1.17,-3.271 -0.92,-5.088 0.069,-0.476 0.178,0.555 0.606,1.223 0.515,0.803 1.469,1.225 2.652,1.203 1.856,-0.035 3.291,-1.588 3.119,-3.832 -0.363,-4.717 -3.908,-8.502 -6.943,-10.441 -0.033,-0.026 -0.063,-0.041 -0.111,-0.073 z" />
      <path
         inkscape:connector-curvature="0"
         id="path4225"
         style="fill:#231f20;fill-opacity:1;fill-rule:evenodd;stroke:none;stroke-width:0.1"
         d="m 249.925,490.891 c -0.102,-0.066 -0.174,-0.102 -0.293,-0.18 -7.596,-4.849 -16.456,-14.31 -17.364,-26.104 -0.432,-5.611 3.155,-9.495 7.794,-9.579 2.961,-0.055 5.342,0.997 6.631,3.007 1.072,1.672 1.345,4.248 1.519,3.057 0.625,-4.542 -1.276,-8.907 -2.306,-12.721 1.148,0.418 2.589,0.628 4.035,0.633 h 0.023 c 1.442,-0.005 2.881,-0.215 4.027,-0.633 -1.027,3.814 -2.925,8.179 -2.302,12.721 0.174,1.191 0.446,-1.385 1.516,-3.057 1.289,-2.01 3.671,-3.062 6.631,-3.007 4.639,0.084 8.226,3.968 7.794,9.579 -0.908,11.794 -9.769,21.255 -17.359,26.104 -0.082,0.062 -0.155,0.099 -0.274,0.18 h -0.072" />
      <path
         inkscape:connector-curvature="0"
         id="path4227"
         style="fill:none;stroke:#231f20;stroke-width:0.16254601;stroke-linecap:butt;stroke-linejoin:round;stroke-miterlimit:4;stroke-dasharray:none;stroke-opacity:1"
         d="m 249.925,490.891 c -0.102,-0.066 -0.174,-0.102 -0.293,-0.18 -7.596,-4.849 -16.456,-14.31 -17.364,-26.104 -0.432,-5.611 3.155,-9.495 7.794,-9.579 2.961,-0.055 5.342,0.997 6.631,3.007 1.072,1.672 1.345,4.248 1.519,3.057 0.625,-4.542 -1.276,-8.907 -2.306,-12.721 1.148,0.418 2.589,0.628 4.035,0.633 h 0.023 c 1.442,-0.005 2.881,-0.215 4.027,-0.633 -1.027,3.814 -2.925,8.179 -2.302,12.721 0.174,1.191 0.446,-1.385 1.516,-3.057 1.289,-2.01 3.671,-3.062 6.631,-3.007 4.639,0.084 8.226,3.968 7.794,9.579 -0.908,11.794 -9.769,21.255 -17.359,26.104 -0.082,0.062 -0.155,0.099 -0.274,0.18 z" />
      <path
         inkscape:connector-curvature="0"
         id="path4229"
         style="fill:#231f20;fill-opacity:1;fill-rule:evenodd;stroke:none;stroke-width:0.1"
         d="m 336.382,490.891 c -0.102,-0.066 -0.174,-0.102 -0.293,-0.18 -7.596,-4.849 -16.455,-14.31 -17.363,-26.104 -0.434,-5.611 3.154,-9.495 7.793,-9.579 2.961,-0.055 5.342,0.997 6.631,3.007 1.072,1.672 1.345,4.248 1.519,3.057 0.625,-4.542 -1.275,-8.907 -2.305,-12.721 1.147,0.418 2.588,0.628 4.034,0.633 h 0.023 c 1.443,-0.005 2.881,-0.215 4.027,-0.633 -1.027,3.814 -2.925,8.179 -2.302,12.721 0.174,1.191 0.447,-1.385 1.517,-3.057 1.289,-2.01 3.67,-3.062 6.631,-3.007 4.639,0.084 8.225,3.968 7.793,9.579 -0.908,11.794 -9.769,21.255 -17.357,26.104 -0.084,0.062 -0.157,0.099 -0.276,0.18 h -0.072" />
      <path
         inkscape:connector-curvature="0"
         id="path4231"
         style="fill:none;stroke:#231f20;stroke-width:0.16254601;stroke-linecap:butt;stroke-linejoin:round;stroke-miterlimit:4;stroke-dasharray:none;stroke-opacity:1"
         d="m 336.382,490.891 c -0.102,-0.066 -0.174,-0.102 -0.293,-0.18 -7.596,-4.849 -16.455,-14.31 -17.363,-26.104 -0.434,-5.611 3.154,-9.495 7.793,-9.579 2.961,-0.055 5.342,0.997 6.631,3.007 1.072,1.672 1.345,4.248 1.519,3.057 0.625,-4.542 -1.275,-8.907 -2.305,-12.721 1.147,0.418 2.588,0.628 4.034,0.633 h 0.023 c 1.443,-0.005 2.881,-0.215 4.027,-0.633 -1.027,3.814 -2.925,8.179 -2.302,12.721 0.174,1.191 0.447,-1.385 1.517,-3.057 1.289,-2.01 3.67,-3.062 6.631,-3.007 4.639,0.084 8.225,3.968 7.793,9.579 -0.908,11.794 -9.769,21.255 -17.357,26.104 -0.084,0.062 -0.157,0.099 -0.276,0.18 z" />
      <path
         inkscape:connector-curvature="0"
         id="path4233"
         style="fill:#231f20;fill-opacity:1;fill-rule:evenodd;stroke:none;stroke-width:0.1"
         d="m 293.154,459.711 c -0.102,-0.068 -0.174,-0.104 -0.293,-0.181 -7.596,-4.85 -16.457,-14.31 -17.366,-26.104 -0.431,-5.61 3.157,-9.495 7.795,-9.58 2.961,-0.054 5.342,0.998 6.631,3.008 1.072,1.671 1.346,4.248 1.52,3.057 0.625,-4.542 -1.276,-8.907 -2.305,-12.721 1.146,0.418 2.588,0.627 4.033,0.633 h 0.024 c 1.443,-0.006 2.88,-0.215 4.027,-0.633 -1.027,3.814 -2.926,8.179 -2.303,12.721 0.174,1.191 0.447,-1.386 1.518,-3.057 1.289,-2.01 3.67,-3.062 6.631,-3.008 4.638,0.085 8.224,3.97 7.793,9.58 -0.909,11.794 -9.77,21.254 -17.358,26.104 -0.084,0.061 -0.156,0.099 -0.275,0.181 h -0.072" />
      <path
         inkscape:connector-curvature="0"
         id="path4235"
         style="fill:none;stroke:#231f20;stroke-width:0.16254601;stroke-linecap:butt;stroke-linejoin:round;stroke-miterlimit:4;stroke-dasharray:none;stroke-opacity:1"
         d="m 293.154,459.711 c -0.102,-0.068 -0.174,-0.104 -0.293,-0.181 -7.596,-4.85 -16.457,-14.31 -17.366,-26.104 -0.431,-5.61 3.157,-9.495 7.795,-9.58 2.961,-0.054 5.342,0.998 6.631,3.008 1.072,1.671 1.346,4.248 1.52,3.057 0.625,-4.542 -1.276,-8.907 -2.305,-12.721 1.146,0.418 2.588,0.627 4.033,0.633 h 0.024 c 1.443,-0.006 2.88,-0.215 4.027,-0.633 -1.027,3.814 -2.926,8.179 -2.303,12.721 0.174,1.191 0.447,-1.386 1.518,-3.057 1.289,-2.01 3.67,-3.062 6.631,-3.008 4.638,0.085 8.224,3.97 7.793,9.58 -0.909,11.794 -9.77,21.254 -17.358,26.104 -0.084,0.061 -0.156,0.099 -0.275,0.181 z" />
      <path
         inkscape:connector-curvature="0"
         id="path4237"
         style="fill:#231f20;fill-opacity:1;fill-rule:evenodd;stroke:none;stroke-width:0.1"
         d="m 249.925,412.939 c -0.102,-0.066 -0.174,-0.103 -0.293,-0.18 -7.596,-4.848 -16.456,-14.307 -17.364,-26.099 -0.432,-5.611 3.155,-9.496 7.794,-9.58 2.961,-0.055 5.342,0.998 6.631,3.008 1.072,1.672 1.345,4.248 1.519,3.057 0.625,-4.541 -1.276,-8.907 -2.306,-12.721 1.148,0.418 2.589,0.627 4.035,0.633 h 0.023 c 1.442,-0.006 2.881,-0.215 4.027,-0.633 -1.027,3.814 -2.925,8.18 -2.302,12.721 0.174,1.191 0.446,-1.385 1.516,-3.057 1.289,-2.01 3.671,-3.063 6.631,-3.008 4.639,0.084 8.226,3.969 7.794,9.58 -0.908,11.792 -9.769,21.251 -17.359,26.099 -0.082,0.061 -0.155,0.1 -0.274,0.18 h -0.072" />
      <path
         inkscape:connector-curvature="0"
         id="path4239"
         style="fill:none;stroke:#231f20;stroke-width:0.16254601;stroke-linecap:butt;stroke-linejoin:round;stroke-miterlimit:4;stroke-dasharray:none;stroke-opacity:1"
         d="m 249.925,412.939 c -0.102,-0.066 -0.174,-0.103 -0.293,-0.18 -7.596,-4.848 -16.456,-14.307 -17.364,-26.099 -0.432,-5.611 3.155,-9.496 7.794,-9.58 2.961,-0.055 5.342,0.998 6.631,3.008 1.072,1.672 1.345,4.248 1.519,3.057 0.625,-4.541 -1.276,-8.907 -2.306,-12.721 1.148,0.418 2.589,0.627 4.035,0.633 h 0.023 c 1.442,-0.006 2.881,-0.215 4.027,-0.633 -1.027,3.814 -2.925,8.18 -2.302,12.721 0.174,1.191 0.446,-1.385 1.516,-3.057 1.289,-2.01 3.671,-3.063 6.631,-3.008 4.639,0.084 8.226,3.969 7.794,9.58 -0.908,11.792 -9.769,21.251 -17.359,26.099 -0.082,0.061 -0.155,0.1 -0.274,0.18 z" />
      <path
         inkscape:connector-curvature="0"
         id="path4241"
         style="fill:#231f20;fill-opacity:1;fill-rule:evenodd;stroke:none;stroke-width:0.1"
         d="m 336.382,412.939 c -0.102,-0.066 -0.174,-0.101 -0.293,-0.18 -7.596,-4.848 -16.455,-14.307 -17.363,-26.099 -0.434,-5.611 3.154,-9.496 7.793,-9.58 2.961,-0.055 5.342,0.998 6.631,3.008 1.072,1.67 1.345,4.248 1.519,3.057 0.625,-4.541 -1.275,-8.907 -2.305,-12.721 1.147,0.418 2.588,0.627 4.034,0.633 h 0.023 c 1.443,-0.006 2.881,-0.215 4.027,-0.633 -1.027,3.814 -2.925,8.18 -2.302,12.721 0.174,1.191 0.447,-1.387 1.517,-3.057 1.289,-2.01 3.67,-3.063 6.631,-3.008 4.639,0.084 8.225,3.969 7.793,9.58 -0.908,11.792 -9.769,21.251 -17.357,26.099 -0.084,0.063 -0.157,0.1 -0.276,0.18 h -0.072" />
      <path
         inkscape:connector-curvature="0"
         id="path4243"
         style="fill:none;stroke:#231f20;stroke-width:0.16254601;stroke-linecap:butt;stroke-linejoin:round;stroke-miterlimit:4;stroke-dasharray:none;stroke-opacity:1"
         d="m 336.382,412.939 c -0.102,-0.066 -0.174,-0.101 -0.293,-0.18 -7.596,-4.848 -16.455,-14.307 -17.363,-26.099 -0.434,-5.611 3.154,-9.496 7.793,-9.58 2.961,-0.055 5.342,0.998 6.631,3.008 1.072,1.67 1.345,4.248 1.519,3.057 0.625,-4.541 -1.275,-8.907 -2.305,-12.721 1.147,0.418 2.588,0.627 4.034,0.633 h 0.023 c 1.443,-0.006 2.881,-0.215 4.027,-0.633 -1.027,3.814 -2.925,8.18 -2.302,12.721 0.174,1.191 0.447,-1.387 1.517,-3.057 1.289,-2.01 3.67,-3.063 6.631,-3.008 4.639,0.084 8.225,3.969 7.793,9.58 -0.908,11.792 -9.769,21.251 -17.357,26.099 -0.084,0.063 -0.157,0.1 -0.276,0.18 z" />
      <path
         inkscape:connector-curvature="0"
         id="path4245"
         style="fill:#231f20;fill-opacity:1;fill-rule:evenodd;stroke:none;stroke-width:0.1"
         d="m 249.925,292.471 c -0.102,0.066 -0.174,0.103 -0.293,0.181 -7.596,4.848 -16.456,14.309 -17.364,26.104 -0.432,5.609 3.155,9.494 7.794,9.578 2.961,0.055 5.342,-0.996 6.631,-3.006 1.072,-1.672 1.345,-4.248 1.519,-3.058 0.625,4.543 -1.276,8.908 -2.306,12.72 1.148,-0.416 2.589,-0.627 4.035,-0.631 h 0.023 c 1.442,0.004 2.881,0.215 4.027,0.631 -1.027,-3.812 -2.925,-8.177 -2.302,-12.72 0.174,-1.19 0.446,1.386 1.516,3.058 1.289,2.01 3.671,3.061 6.631,3.006 4.639,-0.084 8.226,-3.969 7.794,-9.578 -0.908,-11.795 -9.769,-21.256 -17.359,-26.104 -0.082,-0.062 -0.155,-0.099 -0.274,-0.181 h -0.072" />
      <path
         inkscape:connector-curvature="0"
         id="path4247"
         style="fill:none;stroke:#231f20;stroke-width:0.16254601;stroke-linecap:butt;stroke-linejoin:round;stroke-miterlimit:4;stroke-dasharray:none;stroke-opacity:1"
         d="m 249.925,292.471 c -0.102,0.066 -0.174,0.103 -0.293,0.181 -7.596,4.848 -16.456,14.309 -17.364,26.104 -0.432,5.609 3.155,9.494 7.794,9.578 2.961,0.055 5.342,-0.996 6.631,-3.006 1.072,-1.672 1.345,-4.248 1.519,-3.058 0.625,4.543 -1.276,8.908 -2.306,12.72 1.148,-0.416 2.589,-0.627 4.035,-0.631 h 0.023 c 1.442,0.004 2.881,0.215 4.027,0.631 -1.027,-3.812 -2.925,-8.177 -2.302,-12.72 0.174,-1.19 0.446,1.386 1.516,3.058 1.289,2.01 3.671,3.061 6.631,3.006 4.639,-0.084 8.226,-3.969 7.794,-9.578 -0.908,-11.795 -9.769,-21.256 -17.359,-26.104 -0.082,-0.062 -0.155,-0.099 -0.274,-0.181 z" />
      <path
         inkscape:connector-curvature="0"
         id="path4249"
         style="fill:#231f20;fill-opacity:1;fill-rule:evenodd;stroke:none;stroke-width:0.1"
         d="m 336.382,292.471 c -0.102,0.068 -0.174,0.103 -0.293,0.181 -7.596,4.85 -16.455,14.311 -17.363,26.104 -0.432,5.609 3.154,9.494 7.793,9.58 2.961,0.053 5.342,-0.998 6.631,-3.008 1.072,-1.672 1.345,-4.248 1.519,-3.058 0.625,4.543 -1.275,8.908 -2.305,12.72 1.147,-0.416 2.588,-0.627 4.034,-0.631 h 0.023 c 1.443,0.004 2.881,0.215 4.029,0.631 -1.029,-3.812 -2.927,-8.177 -2.304,-12.72 0.174,-1.19 0.449,1.386 1.517,3.058 1.289,2.01 3.67,3.061 6.631,3.008 4.639,-0.086 8.225,-3.971 7.793,-9.58 -0.908,-11.793 -9.769,-21.254 -17.357,-26.104 -0.084,-0.062 -0.157,-0.099 -0.276,-0.181 h -0.072" />
      <path
         inkscape:connector-curvature="0"
         id="path4251"
         style="fill:none;stroke:#231f20;stroke-width:0.16254601;stroke-linecap:butt;stroke-linejoin:round;stroke-miterlimit:4;stroke-dasharray:none;stroke-opacity:1"
         d="m 336.382,292.471 c -0.102,0.068 -0.174,0.103 -0.293,0.181 -7.596,4.85 -16.455,14.311 -17.363,26.104 -0.432,5.609 3.154,9.494 7.793,9.58 2.961,0.053 5.342,-0.998 6.631,-3.008 1.072,-1.672 1.345,-4.248 1.519,-3.058 0.625,4.543 -1.275,8.908 -2.305,12.72 1.147,-0.416 2.588,-0.627 4.034,-0.631 h 0.023 c 1.443,0.004 2.881,0.215 4.029,0.631 -1.029,-3.812 -2.927,-8.177 -2.304,-12.72 0.174,-1.19 0.449,1.386 1.517,3.058 1.289,2.01 3.67,3.061 6.631,3.008 4.639,-0.086 8.225,-3.971 7.793,-9.58 -0.908,-11.793 -9.769,-21.254 -17.357,-26.104 -0.084,-0.062 -0.157,-0.099 -0.276,-0.181 z" />
    </g>
  </g>
</svg>
