<?xml version="1.0" encoding="UTF-8" standalone="no"?>
<!-- Created with Inkscape (http://www.inkscape.org/) -->

<svg
   xmlns:dc="http://purl.org/dc/elements/1.1/"
   xmlns:cc="http://creativecommons.org/ns#"
   xmlns:rdf="http://www.w3.org/1999/02/22-rdf-syntax-ns#"
   xmlns:svg="http://www.w3.org/2000/svg"
   xmlns="http://www.w3.org/2000/svg"
   xmlns:sodipodi="http://sodipodi.sourceforge.net/DTD/sodipodi-0.dtd"
   xmlns:inkscape="http://www.inkscape.org/namespaces/inkscape"
   width="63.353001mm"
   height="88.352997mm"
   viewBox="0 0 63.353001 88.352997"
   version="1.1"
   id="svg22813"
   inkscape:version="0.92.2 2405546, 2018-03-11"
   sodipodi:docname="8c.svg">
  <defs
     id="defs22807" />
  <sodipodi:namedview
     id="base"
     pagecolor="#ffffff"
     bordercolor="#666666"
     borderopacity="1.0"
     inkscape:pageopacity="0.0"
     inkscape:pageshadow="2"
     inkscape:zoom="1.4"
     inkscape:cx="79.906021"
     inkscape:cy="124.23278"
     inkscape:document-units="mm"
     inkscape:current-layer="layer1"
     showgrid="false"
     inkscape:window-width="1920"
     inkscape:window-height="992"
     inkscape:window-x="0"
     inkscape:window-y="27"
     inkscape:window-maximized="1" />
  <metadata
     id="metadata22810">
    <rdf:RDF>
      <cc:Work
         rdf:about="">
        <dc:format>image/svg+xml</dc:format>
        <dc:type
           rdf:resource="http://purl.org/dc/dcmitype/StillImage" />
        <dc:title></dc:title>
      </cc:Work>
    </rdf:RDF>
  </metadata>
  <g
     inkscape:label="Layer 1"
     inkscape:groupmode="layer"
     id="layer1"
     transform="translate(0,-208.647)">
    <g
       transform="matrix(0.35277777,0,0,-0.35277777,-143.50082,391.0001)"
       id="g64129">
      <path
         d="m 585.851,281.13 c 0,-7.827 -6.345,-14.173 -14.173,-14.173 H 421.447 c -7.827,0 -14.173,6.346 -14.173,14.173 v 221.102 c 0,7.828 6.346,14.173 14.173,14.173 h 150.231 c 7.828,0 14.173,-6.345 14.173,-14.173 V 281.13"
         style="fill:#f7f7f5;fill-opacity:1;fill-rule:nonzero;stroke:none;stroke-width:0.1"
         id="path43380"
         inkscape:connector-curvature="0" />
      <path
         d="m 585.851,281.13 c 0,-7.827 -6.345,-14.173 -14.173,-14.173 H 421.447 c -7.827,0 -14.173,6.346 -14.173,14.173 v 221.102 c 0,7.828 6.346,14.173 14.173,14.173 h 150.231 c 7.828,0 14.173,-6.345 14.173,-14.173 z"
         style="fill:none;stroke:#231f20;stroke-width:1;stroke-linecap:butt;stroke-linejoin:miter;stroke-miterlimit:4;stroke-dasharray:none;stroke-opacity:1"
         id="path43382"
         inkscape:connector-curvature="0" />
      <path
         d="m 420.03,473.885 c -1.864,0 -3.376,-1.703 -3.376,-3.801 0,-1.2 0.5,-2.264 1.268,-2.967 0.259,-0.238 0.148,-0.495 -0.116,-0.335 -0.48,0.292 -1.021,0.478 -1.606,0.478 -1.797,0 -3.257,-1.643 -3.257,-3.667 0,-2.023 1.46,-3.667 3.257,-3.667 1.198,0 2.248,0.729 2.811,1.817 0.055,0.106 0.099,0.252 0.177,0.252 0.107,0 0.157,-0.175 0.157,-0.503 0,-1.314 -0.504,-2.85 -1.252,-4.615 0.323,0.076 1.299,0.271 1.937,0.271 0.638,0 1.614,-0.195 1.936,-0.271 -0.745,1.765 -1.25,3.301 -1.25,4.615 0,0.328 0.049,0.503 0.156,0.503 0.078,0 0.123,-0.146 0.178,-0.252 0.563,-1.088 1.612,-1.817 2.81,-1.817 1.798,0 3.257,1.644 3.257,3.667 0,2.024 -1.459,3.667 -3.257,3.667 -0.584,0 -1.126,-0.186 -1.606,-0.478 -0.264,-0.16 -0.375,0.097 -0.116,0.335 0.768,0.703 1.269,1.767 1.269,2.967 0,2.098 -1.514,3.801 -3.377,3.801"
         style="fill:#050301;fill-opacity:1;fill-rule:nonzero;stroke:none;stroke-width:0.1"
         id="path43384"
         inkscape:connector-curvature="0" />
      <path
         d="m 573.097,309.477 c 1.863,0 3.377,1.704 3.377,3.802 0,1.199 -0.501,2.263 -1.268,2.966 -0.261,0.237 -0.149,0.494 0.114,0.334 0.48,-0.291 1.022,-0.476 1.607,-0.476 1.797,0 3.257,1.642 3.257,3.666 0,2.023 -1.46,3.667 -3.257,3.667 -1.198,0 -2.247,-0.729 -2.81,-1.818 -0.056,-0.105 -0.1,-0.252 -0.178,-0.252 -0.107,0 -0.157,0.176 -0.157,0.503 0,1.315 0.505,2.851 1.251,4.615 -0.322,-0.076 -1.299,-0.27 -1.936,-0.27 -0.638,0 -1.613,0.194 -1.937,0.27 0.746,-1.764 1.252,-3.3 1.252,-4.615 0,-0.327 -0.051,-0.503 -0.158,-0.503 -0.077,0 -0.123,0.147 -0.177,0.252 -0.562,1.089 -1.612,1.818 -2.81,1.818 -1.798,0 -3.257,-1.644 -3.257,-3.667 0,-2.024 1.459,-3.666 3.257,-3.666 0.585,0 1.126,0.185 1.606,0.476 0.264,0.16 0.375,-0.097 0.116,-0.334 -0.768,-0.703 -1.268,-1.767 -1.268,-2.966 0,-2.098 1.513,-3.802 3.376,-3.802"
         style="fill:#050301;fill-opacity:1;fill-rule:nonzero;stroke:none;stroke-width:0.1"
         id="path43386"
         inkscape:connector-curvature="0" />
      <path
         d="m 453.338,490.894 c -4.66,0 -8.441,-4.258 -8.441,-9.505 0,-2.999 1.251,-5.66 3.17,-7.416 0.647,-0.593 0.37,-1.237 -0.29,-0.836 -1.199,0.729 -2.553,1.193 -4.015,1.193 -4.494,0 -8.141,-4.107 -8.141,-9.167 0,-5.06 3.647,-9.168 8.141,-9.168 2.996,0 5.618,1.823 7.027,4.542 0.137,0.266 0.248,0.631 0.443,0.631 0.267,0 0.392,-0.438 0.392,-1.256 0,-3.287 -1.262,-7.127 -3.128,-11.539 0.806,0.193 3.248,0.679 4.842,0.679 1.594,0 4.036,-0.486 4.841,-0.679 -1.866,4.412 -3.128,8.252 -3.128,11.539 0,0.818 0.125,1.256 0.392,1.256 0.195,0 0.306,-0.365 0.443,-0.631 1.409,-2.719 4.03,-4.542 7.027,-4.542 4.494,0 8.141,4.108 8.141,9.168 0,5.06 -3.647,9.167 -8.141,9.167 -1.462,0 -2.817,-0.464 -4.015,-1.193 -0.66,-0.401 -0.937,0.243 -0.289,0.836 1.918,1.756 3.169,4.417 3.169,7.416 0,5.247 -3.782,9.505 -8.44,9.505"
         style="fill:#050301;fill-opacity:1;fill-rule:nonzero;stroke:none;stroke-width:0.1"
         id="path43388"
         inkscape:connector-curvature="0" />
      <path
         d="m 453.338,412.941 c -4.66,0 -8.441,-4.257 -8.441,-9.5 0,-2.998 1.251,-5.659 3.17,-7.414 0.647,-0.593 0.37,-1.238 -0.29,-0.836 -1.199,0.729 -2.553,1.192 -4.015,1.192 -4.494,0 -8.141,-4.103 -8.141,-9.161 0,-5.059 3.647,-9.165 8.141,-9.165 2.996,0 5.618,1.821 7.027,4.54 0.137,0.265 0.248,0.631 0.443,0.631 0.267,0 0.392,-0.438 0.392,-1.256 0,-3.286 -1.262,-7.129 -3.128,-11.551 0.806,0.193 3.248,0.68 4.842,0.68 1.594,0 4.036,-0.487 4.841,-0.68 -1.866,4.422 -3.128,8.265 -3.128,11.551 0,0.818 0.125,1.256 0.392,1.256 0.195,0 0.306,-0.366 0.443,-0.631 1.409,-2.719 4.03,-4.54 7.027,-4.54 4.494,0 8.141,4.106 8.141,9.165 0,5.058 -3.647,9.161 -8.141,9.161 -1.462,0 -2.817,-0.463 -4.015,-1.192 -0.66,-0.402 -0.937,0.243 -0.289,0.836 1.918,1.755 3.169,4.416 3.169,7.414 0,5.243 -3.782,9.5 -8.44,9.5"
         style="fill:#050301;fill-opacity:1;fill-rule:nonzero;stroke:none;stroke-width:0.1"
         id="path43390"
         inkscape:connector-curvature="0" />
      <path
         d="m 453.338,292.469 c 4.658,0 8.441,4.257 8.441,9.505 0,2.998 -1.252,5.658 -3.17,7.415 -0.648,0.593 -0.371,1.238 0.289,0.837 1.199,-0.731 2.553,-1.194 4.015,-1.194 4.494,0 8.141,4.106 8.141,9.166 0,5.061 -3.647,9.168 -8.141,9.168 -2.995,0 -5.618,-1.822 -7.027,-4.541 -0.137,-0.265 -0.248,-0.63 -0.443,-0.63 -0.267,0 -0.392,0.437 -0.392,1.255 0,3.286 1.262,7.126 3.127,11.538 -0.804,-0.191 -3.246,-0.678 -4.84,-0.678 -1.595,0 -4.036,0.487 -4.842,0.678 1.867,-4.412 3.128,-8.252 3.128,-11.538 0,-0.818 -0.124,-1.255 -0.392,-1.255 -0.195,0 -0.306,0.365 -0.443,0.63 -1.409,2.719 -4.031,4.541 -7.026,4.541 -4.495,0 -8.142,-4.107 -8.142,-9.168 0,-5.06 3.647,-9.166 8.142,-9.166 1.461,0 2.816,0.463 4.014,1.194 0.66,0.401 0.939,-0.244 0.29,-0.837 -1.919,-1.757 -3.17,-4.417 -3.17,-7.415 0,-5.248 3.781,-9.505 8.441,-9.505"
         style="fill:#050301;fill-opacity:1;fill-rule:nonzero;stroke:none;stroke-width:0.1"
         id="path43392"
         inkscape:connector-curvature="0" />
      <path
         d="m 539.788,490.893 c -4.659,0 -8.44,-4.258 -8.44,-9.504 0,-2.999 1.252,-5.66 3.17,-7.416 0.647,-0.594 0.37,-1.237 -0.289,-0.836 -1.2,0.729 -2.554,1.192 -4.016,1.192 -4.493,0 -8.142,-4.106 -8.142,-9.166 0,-5.06 3.649,-9.168 8.142,-9.168 2.995,0 5.618,1.823 7.026,4.542 0.138,0.266 0.249,0.631 0.444,0.631 0.266,0 0.392,-0.438 0.392,-1.256 0,-3.288 -1.262,-7.127 -3.128,-11.539 0.806,0.192 3.248,0.678 4.841,0.678 1.595,0 4.035,-0.486 4.842,-0.678 -1.866,4.412 -3.128,8.251 -3.128,11.539 0,0.818 0.125,1.256 0.393,1.256 0.194,0 0.305,-0.365 0.443,-0.631 1.407,-2.719 4.03,-4.542 7.025,-4.542 4.494,0 8.142,4.108 8.142,9.168 0,5.06 -3.648,9.166 -8.142,9.166 -1.461,0 -2.815,-0.463 -4.014,-1.192 -0.66,-0.401 -0.938,0.242 -0.289,0.836 1.918,1.756 3.169,4.417 3.169,7.416 0,5.246 -3.782,9.504 -8.441,9.504"
         style="fill:#050301;fill-opacity:1;fill-rule:nonzero;stroke:none;stroke-width:0.1"
         id="path43394"
         inkscape:connector-curvature="0" />
      <path
         d="m 539.788,412.941 c -4.659,0 -8.44,-4.257 -8.44,-9.5 0,-2.998 1.252,-5.659 3.17,-7.414 0.647,-0.593 0.37,-1.236 -0.289,-0.836 -1.2,0.73 -2.554,1.193 -4.016,1.193 -4.493,0 -8.142,-4.104 -8.142,-9.162 0,-5.059 3.649,-9.165 8.142,-9.165 2.995,0 5.618,1.823 7.026,4.54 0.138,0.266 0.249,0.631 0.444,0.631 0.266,0 0.392,-0.438 0.392,-1.256 0,-3.286 -1.262,-7.128 -3.128,-11.55 0.806,0.192 3.248,0.681 4.841,0.681 1.595,0 4.035,-0.489 4.842,-0.681 -1.866,4.422 -3.128,8.264 -3.128,11.55 0,0.818 0.125,1.256 0.393,1.256 0.194,0 0.305,-0.365 0.443,-0.631 1.407,-2.717 4.03,-4.54 7.025,-4.54 4.494,0 8.142,4.106 8.142,9.165 0,5.058 -3.648,9.162 -8.142,9.162 -1.461,0 -2.815,-0.463 -4.014,-1.193 -0.66,-0.4 -0.938,0.243 -0.289,0.836 1.918,1.755 3.169,4.416 3.169,7.414 0,5.243 -3.782,9.5 -8.441,9.5"
         style="fill:#050301;fill-opacity:1;fill-rule:nonzero;stroke:none;stroke-width:0.1"
         id="path43396"
         inkscape:connector-curvature="0" />
      <path
         d="m 539.788,292.469 c 4.659,0 8.442,4.257 8.442,9.505 0,2.998 -1.252,5.658 -3.17,7.415 -0.649,0.593 -0.371,1.238 0.289,0.837 1.2,-0.731 2.553,-1.194 4.014,-1.194 4.494,0 8.142,4.106 8.142,9.166 0,5.061 -3.648,9.168 -8.142,9.168 -2.995,0 -5.617,-1.822 -7.025,-4.541 -0.138,-0.265 -0.249,-0.63 -0.443,-0.63 -0.268,0 -0.393,0.437 -0.393,1.255 0,3.286 1.262,7.126 3.127,11.538 -0.806,-0.191 -3.246,-0.678 -4.841,-0.678 -1.595,0 -4.035,0.487 -4.841,0.678 1.867,-4.412 3.128,-8.252 3.128,-11.538 0,-0.818 -0.125,-1.255 -0.392,-1.255 -0.195,0 -0.306,0.365 -0.444,0.63 -1.408,2.719 -4.03,4.541 -7.025,4.541 -4.494,0 -8.143,-4.107 -8.143,-9.168 0,-5.06 3.649,-9.166 8.143,-9.166 1.461,0 2.815,0.463 4.015,1.194 0.659,0.401 0.937,-0.244 0.289,-0.837 -1.918,-1.757 -3.17,-4.417 -3.17,-7.415 0,-5.248 3.782,-9.505 8.44,-9.505"
         style="fill:#050301;fill-opacity:1;fill-rule:nonzero;stroke:none;stroke-width:0.1"
         id="path43398"
         inkscape:connector-curvature="0" />
      <path
         d="m 496.562,449.791 c -4.66,0 -8.44,-4.257 -8.44,-9.5 0,-2.998 1.252,-5.658 3.169,-7.413 0.648,-0.594 0.371,-1.237 -0.288,-0.837 -1.2,0.73 -2.554,1.193 -4.015,1.193 -4.494,0 -8.141,-4.105 -8.141,-9.163 0,-5.058 3.647,-9.164 8.141,-9.164 2.995,0 5.617,1.822 7.025,4.539 0.137,0.267 0.249,0.631 0.444,0.631 0.266,0 0.391,-0.437 0.391,-1.256 0,-3.286 -1.262,-7.128 -3.127,-11.55 0.806,0.192 3.246,0.68 4.841,0.68 1.592,0 4.033,-0.488 4.84,-0.68 -1.867,4.422 -3.129,8.264 -3.129,11.55 0,0.819 0.125,1.256 0.392,1.256 0.194,0 0.306,-0.364 0.444,-0.631 1.408,-2.717 4.03,-4.539 7.026,-4.539 4.495,0 8.142,4.106 8.142,9.164 0,5.058 -3.647,9.163 -8.142,9.163 -1.461,0 -2.817,-0.463 -4.015,-1.193 -0.66,-0.4 -0.937,0.243 -0.289,0.837 1.918,1.755 3.169,4.415 3.169,7.413 0,5.243 -3.781,9.5 -8.438,9.5"
         style="fill:#050301;fill-opacity:1;fill-rule:nonzero;stroke:none;stroke-width:0.1"
         id="path43400"
         inkscape:connector-curvature="0" />
      <path
         d="m 496.561,333.571 c 4.658,0 8.44,4.258 8.44,9.504 0,2.999 -1.252,5.661 -3.17,7.416 -0.648,0.594 -0.371,1.239 0.289,0.836 1.2,-0.729 2.554,-1.193 4.015,-1.193 4.495,0 8.142,4.107 8.142,9.168 0,5.059 -3.647,9.167 -8.142,9.167 -2.996,0 -5.617,-1.823 -7.026,-4.541 -0.138,-0.266 -0.25,-0.631 -0.444,-0.631 -0.267,0 -0.392,0.437 -0.392,1.256 0,3.286 1.262,7.126 3.127,11.538 -0.805,-0.191 -3.246,-0.678 -4.839,-0.678 -1.595,0 -4.034,0.487 -4.84,0.678 1.866,-4.412 3.127,-8.252 3.127,-11.538 0,-0.819 -0.125,-1.256 -0.391,-1.256 -0.195,0 -0.307,0.365 -0.443,0.631 -1.409,2.718 -4.031,4.541 -7.026,4.541 -4.494,0 -8.141,-4.108 -8.141,-9.167 0,-5.061 3.647,-9.168 8.141,-9.168 1.461,0 2.815,0.464 4.015,1.193 0.659,0.403 0.936,-0.242 0.288,-0.836 -1.917,-1.755 -3.169,-4.417 -3.169,-7.416 0,-5.246 3.782,-9.504 8.439,-9.504"
         style="fill:#050301;fill-opacity:1;fill-rule:nonzero;stroke:none;stroke-width:0.1"
         id="path43402"
         inkscape:connector-curvature="0" />
      <path
         d="m 424.996,490.295 c -0.369,0.363 -0.78,0.68 -1.22,0.953 0.187,0.146 0.368,0.299 0.538,0.465 1.115,1.091 1.837,2.651 1.835,4.383 0.002,1.731 -0.72,3.292 -1.835,4.383 -1.114,1.094 -2.63,1.753 -4.284,1.753 -1.655,0 -3.17,-0.659 -4.285,-1.753 -1.115,-1.091 -1.835,-2.652 -1.834,-4.383 -10e-4,-1.732 0.719,-3.292 1.834,-4.383 0.17,-0.166 0.351,-0.319 0.538,-0.465 -0.438,-0.273 -0.85,-0.59 -1.22,-0.953 -1.289,-1.263 -2.121,-3.065 -2.12,-5.063 -10e-4,-1.998 0.831,-3.801 2.12,-5.064 1.29,-1.267 3.047,-2.03 4.967,-2.031 1.919,10e-4 3.675,0.764 4.966,2.031 1.29,1.263 2.123,3.066 2.12,5.064 0.003,1.998 -0.83,3.8 -2.12,5.063 z m -7.792,8.406 c 0.705,0.694 1.703,1.142 2.824,1.142 h 0.002 c 1.123,10e-4 2.12,-0.448 2.826,-1.142 0.705,-0.697 1.108,-1.607 1.11,-2.605 -0.002,-0.998 -0.405,-1.908 -1.11,-2.606 -0.706,-0.693 -1.703,-1.142 -2.826,-1.141 -1.122,-10e-4 -2.121,0.448 -2.826,1.141 -0.704,0.698 -1.109,1.608 -1.109,2.606 0,0.998 0.405,1.908 1.109,2.605 z m 6.243,-16.646 c -0.855,-0.842 -2.064,-1.383 -3.417,-1.382 -1.354,-10e-4 -2.563,0.54 -3.418,1.382 -0.855,0.846 -1.35,1.956 -1.351,3.177 10e-4,1.22 0.496,2.332 1.351,3.177 0.855,0.841 2.061,1.382 3.416,1.382 h 0.002 c 1.353,10e-4 2.562,-0.541 3.417,-1.382 0.856,-0.845 1.351,-1.957 1.352,-3.177 -10e-4,-1.221 -0.496,-2.331 -1.352,-3.177"
         style="fill:#000000;fill-opacity:1;fill-rule:nonzero;stroke:none;stroke-width:0.1"
         id="path43404"
         inkscape:connector-curvature="0" />
      <path
         d="m 568.129,293.068 c 0.369,-0.364 0.78,-0.68 1.22,-0.954 -0.188,-0.146 -0.369,-0.298 -0.538,-0.464 -1.116,-1.091 -1.837,-2.653 -1.835,-4.383 -0.002,-1.732 0.719,-3.293 1.835,-4.383 1.114,-1.096 2.63,-1.753 4.284,-1.754 1.655,10e-4 3.17,0.658 4.285,1.754 1.114,1.09 1.835,2.651 1.834,4.383 10e-4,1.73 -0.72,3.292 -1.834,4.383 -0.17,0.166 -0.351,0.318 -0.538,0.464 0.438,0.274 0.849,0.59 1.22,0.954 1.289,1.261 2.121,3.064 2.12,5.062 10e-4,1.998 -0.831,3.801 -2.12,5.063 -1.291,1.268 -3.047,2.031 -4.967,2.032 -1.919,-0.001 -3.676,-0.764 -4.966,-2.032 -1.29,-1.262 -2.123,-3.065 -2.12,-5.063 -0.003,-1.998 0.83,-3.801 2.12,-5.062 z m 7.792,-8.407 c -0.705,-0.693 -1.703,-1.141 -2.824,-1.141 h -0.002 c -1.123,-10e-4 -2.12,0.448 -2.826,1.141 -0.705,0.698 -1.109,1.608 -1.11,2.606 10e-4,0.998 0.405,1.908 1.11,2.605 0.706,0.694 1.703,1.143 2.826,1.142 1.122,10e-4 2.121,-0.448 2.826,-1.142 0.704,-0.697 1.108,-1.607 1.109,-2.605 -10e-4,-0.998 -0.405,-1.908 -1.109,-2.606 z m -6.243,16.647 c 0.854,0.84 2.063,1.381 3.417,1.381 1.353,0 2.562,-0.541 3.418,-1.381 0.855,-0.847 1.35,-1.957 1.351,-3.178 -10e-4,-1.221 -0.496,-2.331 -1.351,-3.178 -0.856,-0.839 -2.062,-1.381 -3.416,-1.381 h -0.002 c -1.354,-0.001 -2.563,0.542 -3.417,1.381 -0.857,0.847 -1.352,1.957 -1.353,3.178 10e-4,1.221 0.496,2.331 1.353,3.178"
         style="fill:#000000;fill-opacity:1;fill-rule:nonzero;stroke:none;stroke-width:0.1"
         id="path43406"
         inkscape:connector-curvature="0" />
    </g>
  </g>
</svg>
