<?xml version="1.0" encoding="UTF-8" standalone="no"?>
<!-- Created with Inkscape (http://www.inkscape.org/) -->

<svg
   xmlns:dc="http://purl.org/dc/elements/1.1/"
   xmlns:cc="http://creativecommons.org/ns#"
   xmlns:rdf="http://www.w3.org/1999/02/22-rdf-syntax-ns#"
   xmlns:svg="http://www.w3.org/2000/svg"
   xmlns="http://www.w3.org/2000/svg"
   xmlns:sodipodi="http://sodipodi.sourceforge.net/DTD/sodipodi-0.dtd"
   xmlns:inkscape="http://www.inkscape.org/namespaces/inkscape"
   width="63.353001mm"
   height="88.352997mm"
   viewBox="0 0 63.353001 88.352997"
   version="1.1"
   id="svg22813"
   inkscape:version="0.92.2 2405546, 2018-03-11"
   sodipodi:docname="8d.svg">
  <defs
     id="defs22807" />
  <sodipodi:namedview
     id="base"
     pagecolor="#ffffff"
     bordercolor="#666666"
     borderopacity="1.0"
     inkscape:pageopacity="0.0"
     inkscape:pageshadow="2"
     inkscape:zoom="1.4"
     inkscape:cx="81.334592"
     inkscape:cy="124.23278"
     inkscape:document-units="mm"
     inkscape:current-layer="layer1"
     showgrid="false"
     inkscape:window-width="960"
     inkscape:window-height="992"
     inkscape:window-x="960"
     inkscape:window-y="27"
     inkscape:window-maximized="0" />
  <metadata
     id="metadata22810">
    <rdf:RDF>
      <cc:Work
         rdf:about="">
        <dc:format>image/svg+xml</dc:format>
        <dc:type
           rdf:resource="http://purl.org/dc/dcmitype/StillImage" />
        <dc:title></dc:title>
      </cc:Work>
    </rdf:RDF>
  </metadata>
  <g
     inkscape:label="Layer 1"
     inkscape:groupmode="layer"
     id="layer1"
     transform="translate(0,-208.647)">
    <g
       transform="matrix(0.35277777,0,0,-0.35277777,-143.50047,391.53633)"
       id="g87621">
      <path
         d="m 585.855,282.65 c 0,-7.828 -6.346,-14.173 -14.174,-14.173 H 421.446 c -7.828,0 -14.173,6.345 -14.173,14.173 v 221.095 c 0,7.828 6.345,14.173 14.173,14.173 h 150.235 c 7.828,0 14.174,-6.345 14.174,-14.173 V 282.65"
         style="fill:#f7f7f5;fill-opacity:1;fill-rule:nonzero;stroke:none;stroke-width:0.1"
         id="path74905"
         inkscape:connector-curvature="0" />
      <path
         d="m 585.855,282.65 c 0,-7.828 -6.346,-14.173 -14.174,-14.173 H 421.446 c -7.828,0 -14.173,6.345 -14.173,14.173 v 221.095 c 0,7.828 6.345,14.173 14.173,14.173 h 150.235 c 7.828,0 14.174,-6.345 14.174,-14.173 z"
         style="fill:none;stroke:#231f20;stroke-width:1;stroke-linecap:butt;stroke-linejoin:miter;stroke-miterlimit:4;stroke-dasharray:none;stroke-opacity:1"
         id="path74907"
         inkscape:connector-curvature="0" />
      <path
         d="m 420.04,475.398 c 1.787,-3.47 4.145,-6.308 7.076,-8.512 -2.931,-2.207 -5.289,-5.038 -7.076,-8.495 -1.802,3.457 -4.167,6.288 -7.097,8.495 2.93,2.204 5.295,5.042 7.097,8.512 v 0"
         style="fill:#e52c3f;fill-opacity:1;fill-rule:nonzero;stroke:none;stroke-width:0.1"
         id="path74909"
         inkscape:connector-curvature="0" />
      <path
         d="m 573.109,328.005 c 1.787,-3.47 4.145,-6.308 7.076,-8.513 -2.931,-2.206 -5.289,-5.038 -7.076,-8.495 -1.803,3.457 -4.168,6.289 -7.098,8.495 2.93,2.205 5.295,5.043 7.098,8.513 v 0"
         style="fill:#e52c3f;fill-opacity:1;fill-rule:nonzero;stroke:none;stroke-width:0.1"
         id="path74911"
         inkscape:connector-curvature="0" />
      <path
         d="m 453.361,492.406 c 4.469,-8.675 10.365,-15.77 17.691,-21.283 -7.326,-5.517 -13.222,-12.595 -17.691,-21.237 -4.503,8.642 -10.417,15.72 -17.741,21.237 7.324,5.513 13.238,12.608 17.741,21.283 v 0"
         style="fill:#e52c3f;fill-opacity:1;fill-rule:nonzero;stroke:none;stroke-width:0.1"
         id="path74913"
         inkscape:connector-curvature="0" />
      <path
         d="m 453.361,414.454 c 4.468,-8.674 10.365,-15.765 17.691,-21.28 -7.326,-5.513 -13.223,-12.594 -17.691,-21.233 -4.503,8.639 -10.418,15.72 -17.741,21.233 7.323,5.515 13.238,12.606 17.741,21.28 v 0"
         style="fill:#e52c3f;fill-opacity:1;fill-rule:nonzero;stroke:none;stroke-width:0.1"
         id="path74915"
         inkscape:connector-curvature="0" />
      <path
         d="m 453.361,336.509 c 4.469,-8.675 10.365,-15.769 17.691,-21.282 -7.326,-5.518 -13.222,-12.596 -17.691,-21.238 -4.503,8.642 -10.417,15.72 -17.741,21.238 7.324,5.513 13.238,12.607 17.741,21.282 v 0"
         style="fill:#e52c3f;fill-opacity:1;fill-rule:nonzero;stroke:none;stroke-width:0.1"
         id="path74917"
         inkscape:connector-curvature="0" />
      <path
         d="m 539.816,492.406 c 4.469,-8.675 10.365,-15.769 17.691,-21.283 -7.326,-5.516 -13.222,-12.595 -17.691,-21.237 -4.502,8.642 -10.417,15.721 -17.741,21.237 7.324,5.514 13.239,12.608 17.741,21.283 v 0"
         style="fill:#e52c3f;fill-opacity:1;fill-rule:nonzero;stroke:none;stroke-width:0.1"
         id="path74919"
         inkscape:connector-curvature="0" />
      <path
         d="m 539.816,414.454 c 4.469,-8.672 10.365,-15.765 17.691,-21.278 -7.326,-5.515 -13.222,-12.596 -17.691,-21.235 -4.502,8.639 -10.417,15.72 -17.741,21.235 7.324,5.513 13.239,12.606 17.741,21.278 v 0"
         style="fill:#e52c3f;fill-opacity:1;fill-rule:nonzero;stroke:none;stroke-width:0.1"
         id="path74921"
         inkscape:connector-curvature="0" />
      <path
         d="m 539.816,336.509 c 4.469,-8.675 10.365,-15.77 17.691,-21.282 -7.326,-5.517 -13.222,-12.596 -17.691,-21.238 -4.502,8.642 -10.416,15.721 -17.741,21.238 7.325,5.512 13.239,12.607 17.741,21.282 v 0"
         style="fill:#e52c3f;fill-opacity:1;fill-rule:nonzero;stroke:none;stroke-width:0.1"
         id="path74923"
         inkscape:connector-curvature="0" />
      <path
         d="m 496.588,451.304 c 4.469,-8.675 10.365,-15.769 17.691,-21.283 -7.326,-5.517 -13.222,-12.595 -17.691,-21.235 -4.502,8.64 -10.416,15.718 -17.741,21.235 7.325,5.514 13.239,12.608 17.741,21.283 v 0"
         style="fill:#e52c3f;fill-opacity:1;fill-rule:nonzero;stroke:none;stroke-width:0.1"
         id="path74925"
         inkscape:connector-curvature="0" />
      <path
         d="m 496.588,377.611 c 4.468,-8.675 10.365,-15.77 17.691,-21.285 -7.326,-5.515 -13.223,-12.596 -17.691,-21.234 -4.502,8.638 -10.417,15.719 -17.741,21.234 7.324,5.515 13.239,12.61 17.741,21.285 v 0"
         style="fill:#e52c3f;fill-opacity:1;fill-rule:nonzero;stroke:none;stroke-width:0.1"
         id="path74927"
         inkscape:connector-curvature="0" />
      <path
         d="m 424.995,491.809 c -0.37,0.363 -0.781,0.679 -1.22,0.953 0.188,0.146 0.368,0.298 0.538,0.465 1.116,1.09 1.837,2.652 1.835,4.382 0.002,1.731 -0.719,3.293 -1.835,4.383 -1.114,1.096 -2.63,1.753 -4.284,1.754 -1.655,-10e-4 -3.17,-0.658 -4.285,-1.754 -1.115,-1.09 -1.835,-2.652 -1.834,-4.383 -0.001,-1.73 0.719,-3.292 1.834,-4.382 0.17,-0.167 0.351,-0.319 0.538,-0.465 -0.439,-0.274 -0.85,-0.59 -1.22,-0.953 -1.289,-1.263 -2.121,-3.065 -2.12,-5.063 -0.001,-1.998 0.831,-3.801 2.12,-5.064 1.29,-1.268 3.047,-2.03 4.967,-2.031 1.919,10e-4 3.676,0.763 4.966,2.031 1.29,1.263 2.123,3.066 2.12,5.064 0.003,1.998 -0.83,3.8 -2.12,5.063 z m -7.792,8.406 c 0.705,0.693 1.703,1.141 2.824,1.141 h 0.002 c 1.123,0.001 2.12,-0.448 2.826,-1.141 0.705,-0.698 1.108,-1.608 1.109,-2.606 -10e-4,-0.998 -0.404,-1.907 -1.109,-2.605 -0.706,-0.694 -1.703,-1.142 -2.826,-1.141 -1.122,-10e-4 -2.121,0.447 -2.826,1.141 -0.704,0.698 -1.108,1.607 -1.11,2.605 0.002,0.998 0.406,1.908 1.11,2.606 z m 6.243,-16.646 c -0.855,-0.842 -2.064,-1.383 -3.417,-1.382 -1.354,-0.001 -2.563,0.54 -3.418,1.382 -0.856,0.845 -1.35,1.956 -1.352,3.177 0.002,1.22 0.496,2.331 1.352,3.177 0.855,0.84 2.061,1.382 3.416,1.382 h 0.002 c 1.353,0 2.562,-0.541 3.417,-1.382 0.856,-0.846 1.351,-1.957 1.352,-3.177 -10e-4,-1.221 -0.496,-2.332 -1.352,-3.177"
         style="fill:#e52c3f;fill-opacity:1;fill-rule:nonzero;stroke:none;stroke-width:0.1"
         id="path74929"
         inkscape:connector-curvature="0" />
      <path
         d="m 568.132,294.587 c 0.37,-0.362 0.781,-0.679 1.219,-0.953 -0.187,-0.146 -0.367,-0.298 -0.537,-0.464 -1.115,-1.091 -1.838,-2.652 -1.836,-4.383 -0.002,-1.731 0.721,-3.293 1.836,-4.383 1.115,-1.095 2.63,-1.752 4.284,-1.754 1.656,0.002 3.169,0.659 4.284,1.754 1.116,1.09 1.836,2.652 1.835,4.383 10e-4,1.731 -0.719,3.292 -1.835,4.383 -0.169,0.166 -0.35,0.318 -0.537,0.464 0.439,0.274 0.85,0.591 1.219,0.953 1.29,1.263 2.121,3.065 2.121,5.063 0,1.998 -0.831,3.801 -2.121,5.064 -1.289,1.267 -3.047,2.03 -4.966,2.031 -1.919,-10e-4 -3.676,-0.764 -4.966,-2.031 -1.29,-1.263 -2.123,-3.066 -2.121,-5.064 -0.002,-1.998 0.831,-3.8 2.121,-5.063 z m 7.791,-8.405 c -0.705,-0.694 -1.702,-1.142 -2.824,-1.142 h -0.001 c -1.123,-0.001 -2.12,0.448 -2.826,1.142 -0.705,0.697 -1.108,1.607 -1.109,2.605 10e-4,0.998 0.404,1.907 1.109,2.606 0.706,0.693 1.703,1.141 2.826,1.14 1.122,10e-4 2.12,-0.447 2.825,-1.14 0.706,-0.699 1.11,-1.608 1.111,-2.606 -10e-4,-0.998 -0.405,-1.908 -1.111,-2.605 z m -6.242,16.645 c 0.855,0.841 2.063,1.383 3.417,1.382 1.354,10e-4 2.562,-0.541 3.417,-1.382 0.856,-0.846 1.351,-1.956 1.353,-3.177 -0.002,-1.22 -0.497,-2.331 -1.353,-3.177 -0.854,-0.84 -2.06,-1.382 -3.416,-1.382 h -0.001 c -1.354,0 -2.562,0.542 -3.417,1.382 -0.856,0.846 -1.351,1.957 -1.353,3.177 0.002,1.221 0.497,2.331 1.353,3.177"
         style="fill:#e52c3f;fill-opacity:1;fill-rule:nonzero;stroke:none;stroke-width:0.1"
         id="path74931"
         inkscape:connector-curvature="0" />
    </g>
  </g>
</svg>
