<?xml version="1.0" encoding="UTF-8" standalone="no"?>
<!-- Created with Inkscape (http://www.inkscape.org/) -->

<svg
   xmlns:dc="http://purl.org/dc/elements/1.1/"
   xmlns:cc="http://creativecommons.org/ns#"
   xmlns:rdf="http://www.w3.org/1999/02/22-rdf-syntax-ns#"
   xmlns:svg="http://www.w3.org/2000/svg"
   xmlns="http://www.w3.org/2000/svg"
   xmlns:sodipodi="http://sodipodi.sourceforge.net/DTD/sodipodi-0.dtd"
   xmlns:inkscape="http://www.inkscape.org/namespaces/inkscape"
   width="63.353001mm"
   height="88.352997mm"
   viewBox="0 0 63.353001 88.352997"
   version="1.1"
   id="svg22813"
   inkscape:version="0.92.2 2405546, 2018-03-11"
   sodipodi:docname="8h.svg">
  <defs
     id="defs22807" />
  <sodipodi:namedview
     id="base"
     pagecolor="#ffffff"
     bordercolor="#666666"
     borderopacity="1.0"
     inkscape:pageopacity="0.0"
     inkscape:pageshadow="2"
     inkscape:zoom="1.4"
     inkscape:cx="79.906021"
     inkscape:cy="124.23278"
     inkscape:document-units="mm"
     inkscape:current-layer="layer1"
     showgrid="false"
     inkscape:window-width="1920"
     inkscape:window-height="992"
     inkscape:window-x="0"
     inkscape:window-y="27"
     inkscape:window-maximized="1" />
  <metadata
     id="metadata22810">
    <rdf:RDF>
      <cc:Work
         rdf:about="">
        <dc:format>image/svg+xml</dc:format>
        <dc:type
           rdf:resource="http://purl.org/dc/dcmitype/StillImage" />
        <dc:title></dc:title>
      </cc:Work>
    </rdf:RDF>
  </metadata>
  <g
     inkscape:label="Layer 1"
     inkscape:groupmode="layer"
     id="layer1"
     transform="translate(0,-208.647)">
    <g
       transform="matrix(0.35277777,0,0,-0.35277777,-143.50047,391.16697)"
       id="g43727">
      <path
         d="m 585.855,281.604 c 0,-7.829 -6.346,-14.174 -14.174,-14.174 H 421.446 c -7.827,0 -14.173,6.345 -14.173,14.174 v 221.098 c 0,7.828 6.346,14.173 14.173,14.173 h 150.235 c 7.828,0 14.174,-6.345 14.174,-14.173 V 281.604"
         style="fill:#f7f7f5;fill-opacity:1;fill-rule:nonzero;stroke:none;stroke-width:0.1"
         id="path31324"
         inkscape:connector-curvature="0" />
      <path
         d="m 585.855,281.604 c 0,-7.829 -6.346,-14.174 -14.174,-14.174 H 421.446 c -7.827,0 -14.173,6.345 -14.173,14.174 v 221.098 c 0,7.828 6.346,14.173 14.173,14.173 h 150.235 c 7.828,0 14.174,-6.345 14.174,-14.173 z"
         style="fill:none;stroke:#231f20;stroke-width:1;stroke-linecap:butt;stroke-linejoin:miter;stroke-miterlimit:4;stroke-dasharray:none;stroke-opacity:1"
         id="path31326"
         inkscape:connector-curvature="0" />
      <path
         d="m 573.119,326.928 c -2.83,-4.479 -7.069,-6.831 -7.08,-11.535 -0.246,-2.713 1.275,-4.786 3.084,-5.344 1.247,-0.387 3.187,0.295 3.9,3.123 0.059,0.154 0.121,0.151 0.178,-0.006 1.025,-2.865 2.721,-3.49 3.912,-3.117 1.766,0.569 3.194,2.673 3.064,5.357 -0.038,4.684 -4.228,7.043 -7.058,11.522"
         style="fill:#e52c3f;fill-opacity:1;fill-rule:nonzero;stroke:none;stroke-width:0.1"
         id="path31328"
         inkscape:connector-curvature="0" />
      <path
         d="m 573.099,326.957 c 0.007,-0.01 0.013,-0.019 0.02,-0.029 0.006,0.01 0.012,0.019 0.019,0.029 h -0.039"
         style="fill:#e52c3f;fill-opacity:1;fill-rule:nonzero;stroke:none;stroke-width:0.1"
         id="path31330"
         inkscape:connector-curvature="0" />
      <path
         d="m 420.027,457.348 c -0.006,0.009 -0.013,0.018 -0.019,0.027 -0.006,-0.009 -0.012,-0.018 -0.018,-0.027 h 0.037"
         style="fill:#e52c3f;fill-opacity:1;fill-rule:nonzero;stroke:none;stroke-width:0.1"
         id="path31332"
         inkscape:connector-curvature="0" />
      <path
         d="m 424.003,474.257 c -1.247,0.387 -3.185,-0.296 -3.898,-3.123 -0.059,-0.155 -0.121,-0.151 -0.177,0.005 -1.03,2.865 -2.723,3.492 -3.913,3.118 -1.766,-0.57 -3.195,-2.673 -3.065,-5.357 0.038,-4.684 4.23,-7.043 7.058,-11.525 2.829,4.482 7.07,6.834 7.081,11.538 0.248,2.712 -1.275,4.785 -3.086,5.344"
         style="fill:#e52c3f;fill-opacity:1;fill-rule:nonzero;stroke:none;stroke-width:0.1"
         id="path31334"
         inkscape:connector-curvature="0" />
      <path
         d="m 557.487,306.582 c -0.091,11.71 -10.569,17.607 -17.645,28.806 -7.076,-11.199 -17.671,-17.078 -17.703,-28.839 -0.609,-6.781 3.183,-11.963 7.717,-13.358 3.118,-0.968 7.964,0.735 9.747,7.805 0.145,0.387 0.303,0.379 0.447,-0.014 2.566,-7.162 6.803,-8.726 9.778,-7.791 4.414,1.422 7.988,6.681 7.659,13.391"
         style="fill:#e52c3f;fill-opacity:1;fill-rule:nonzero;stroke:none;stroke-width:0.1"
         id="path31336"
         inkscape:connector-curvature="0" />
      <path
         d="m 539.795,335.462 c 0.015,-0.025 0.032,-0.05 0.047,-0.074 0.017,0.024 0.033,0.049 0.049,0.074 h -0.096"
         style="fill:#e52c3f;fill-opacity:1;fill-rule:nonzero;stroke:none;stroke-width:0.1"
         id="path31338"
         inkscape:connector-curvature="0" />
      <path
         d="m 539.787,451.679 c -0.016,0.026 -0.033,0.05 -0.048,0.075 -0.017,-0.025 -0.034,-0.049 -0.049,-0.075 h 0.097"
         style="fill:#e52c3f;fill-opacity:1;fill-rule:nonzero;stroke:none;stroke-width:0.1"
         id="path31340"
         inkscape:connector-curvature="0" />
      <path
         d="m 549.724,493.95 c -3.117,0.968 -7.964,-0.736 -9.746,-7.805 -0.144,-0.388 -0.303,-0.379 -0.441,0.014 -2.573,7.162 -6.804,8.726 -9.785,7.791 -4.407,-1.423 -7.981,-6.682 -7.657,-13.391 0.09,-11.711 10.566,-17.608 17.644,-28.805 7.077,11.197 17.677,17.078 17.703,28.838 0.615,6.781 -3.182,11.962 -7.718,13.358"
         style="fill:#e52c3f;fill-opacity:1;fill-rule:nonzero;stroke:none;stroke-width:0.1"
         id="path31342"
         inkscape:connector-curvature="0" />
      <path
         d="m 549.724,413.163 c -3.117,0.967 -7.964,-0.736 -9.746,-7.804 -0.144,-0.388 -0.303,-0.379 -0.441,0.014 -2.573,7.161 -6.804,8.726 -9.785,7.79 -4.407,-1.423 -7.981,-6.681 -7.657,-13.389 0.09,-11.71 10.566,-17.608 17.644,-28.805 7.077,11.197 17.677,17.077 17.703,28.839 0.615,6.778 -3.182,11.958 -7.718,13.355"
         style="fill:#e52c3f;fill-opacity:1;fill-rule:nonzero;stroke:none;stroke-width:0.1"
         id="path31344"
         inkscape:connector-curvature="0" />
      <path
         d="m 539.787,370.895 c -0.016,0.025 -0.033,0.05 -0.048,0.074 -0.017,-0.024 -0.034,-0.049 -0.049,-0.074 h 0.097"
         style="fill:#e52c3f;fill-opacity:1;fill-rule:nonzero;stroke:none;stroke-width:0.1"
         id="path31346"
         inkscape:connector-curvature="0" />
      <path
         d="m 468.197,309.416 c -0.09,11.713 -10.57,17.609 -17.645,28.808 -7.075,-11.197 -17.673,-17.078 -17.702,-28.841 -0.612,-6.779 3.181,-11.961 7.718,-13.358 3.117,-0.966 7.964,0.737 9.743,7.806 0.15,0.386 0.305,0.379 0.447,-0.013 2.569,-7.164 6.804,-8.728 9.781,-7.793 4.411,1.424 7.984,6.682 7.658,13.391"
         style="fill:#e52c3f;fill-opacity:1;fill-rule:nonzero;stroke:none;stroke-width:0.1"
         id="path31348"
         inkscape:connector-curvature="0" />
      <path
         d="m 450.505,338.297 c 0.016,-0.024 0.032,-0.049 0.047,-0.073 0.016,0.024 0.032,0.049 0.048,0.073 h -0.095"
         style="fill:#e52c3f;fill-opacity:1;fill-rule:nonzero;stroke:none;stroke-width:0.1"
         id="path31350"
         inkscape:connector-curvature="0" />
      <path
         d="m 460.435,493.949 c -3.117,0.969 -7.964,-0.735 -9.743,-7.804 -0.151,-0.388 -0.306,-0.379 -0.447,0.014 -2.569,7.162 -6.804,8.726 -9.782,7.79 -4.409,-1.422 -7.983,-6.681 -7.657,-13.39 0.088,-11.712 10.567,-17.609 17.645,-28.807 7.074,11.198 17.672,17.078 17.702,28.841 0.612,6.779 -3.182,11.96 -7.718,13.356"
         style="fill:#e52c3f;fill-opacity:1;fill-rule:nonzero;stroke:none;stroke-width:0.1"
         id="path31352"
         inkscape:connector-curvature="0" />
      <path
         d="m 450.498,451.679 c -0.016,0.025 -0.032,0.048 -0.047,0.073 -0.016,-0.025 -0.032,-0.048 -0.047,-0.073 h 0.094"
         style="fill:#e52c3f;fill-opacity:1;fill-rule:nonzero;stroke:none;stroke-width:0.1"
         id="path31354"
         inkscape:connector-curvature="0" />
      <path
         d="m 460.435,413.162 c -3.117,0.969 -7.964,-0.735 -9.743,-7.803 -0.151,-0.387 -0.306,-0.379 -0.447,0.014 -2.569,7.161 -6.804,8.725 -9.782,7.789 -4.409,-1.422 -7.983,-6.68 -7.657,-13.389 0.088,-11.71 10.567,-17.608 17.645,-28.805 7.074,11.197 17.672,17.078 17.702,28.839 0.612,6.779 -3.182,11.959 -7.718,13.355"
         style="fill:#e52c3f;fill-opacity:1;fill-rule:nonzero;stroke:none;stroke-width:0.1"
         id="path31356"
         inkscape:connector-curvature="0" />
      <path
         d="m 450.498,370.895 c -0.016,0.024 -0.032,0.048 -0.047,0.073 -0.016,-0.025 -0.032,-0.049 -0.047,-0.073 h 0.094"
         style="fill:#e52c3f;fill-opacity:1;fill-rule:nonzero;stroke:none;stroke-width:0.1"
         id="path31358"
         inkscape:connector-curvature="0" />
      <path
         d="m 514.258,347.684 c -0.085,11.711 -10.565,17.608 -17.639,28.806 -7.08,-11.198 -17.676,-17.078 -17.706,-28.84 -0.612,-6.78 3.182,-11.961 7.715,-13.357 3.12,-0.967 7.968,0.736 9.749,7.806 0.148,0.385 0.305,0.378 0.445,-0.014 2.57,-7.163 6.805,-8.728 9.784,-7.792 4.408,1.422 7.982,6.682 7.652,13.391"
         style="fill:#e52c3f;fill-opacity:1;fill-rule:nonzero;stroke:none;stroke-width:0.1"
         id="path31360"
         inkscape:connector-curvature="0" />
      <path
         d="m 496.57,376.564 c 0.017,-0.025 0.033,-0.049 0.049,-0.074 0.016,0.025 0.032,0.049 0.048,0.074 h -0.097"
         style="fill:#e52c3f;fill-opacity:1;fill-rule:nonzero;stroke:none;stroke-width:0.1"
         id="path31362"
         inkscape:connector-curvature="0" />
      <path
         d="m 506.498,452.847 c -3.119,0.969 -7.965,-0.735 -9.744,-7.804 -0.15,-0.388 -0.307,-0.379 -0.447,0.013 -2.57,7.163 -6.806,8.727 -9.784,7.791 -4.409,-1.423 -7.982,-6.681 -7.656,-13.392 0.088,-11.71 10.567,-17.607 17.645,-28.806 7.072,11.199 17.669,17.08 17.702,28.841 0.61,6.78 -3.187,11.961 -7.716,13.357"
         style="fill:#e52c3f;fill-opacity:1;fill-rule:nonzero;stroke:none;stroke-width:0.1"
         id="path31364"
         inkscape:connector-curvature="0" />
      <path
         d="m 496.559,410.577 c -0.016,0.024 -0.032,0.048 -0.047,0.072 -0.016,-0.024 -0.032,-0.048 -0.047,-0.072 h 0.094"
         style="fill:#e52c3f;fill-opacity:1;fill-rule:nonzero;stroke:none;stroke-width:0.1"
         id="path31366"
         inkscape:connector-curvature="0" />
      <path
         d="m 424.995,490.766 c -0.369,0.363 -0.78,0.679 -1.22,0.954 0.188,0.145 0.369,0.297 0.539,0.464 1.115,1.09 1.836,2.652 1.834,4.382 0.002,1.731 -0.719,3.293 -1.834,4.383 -1.115,1.096 -2.63,1.753 -4.285,1.754 -1.655,-10e-4 -3.17,-0.658 -4.285,-1.754 -1.114,-1.09 -1.835,-2.652 -1.834,-4.383 -0.001,-1.73 0.72,-3.292 1.834,-4.382 0.17,-0.167 0.352,-0.319 0.538,-0.464 -0.438,-0.275 -0.849,-0.591 -1.219,-0.954 -1.29,-1.262 -2.122,-3.065 -2.12,-5.063 -0.002,-1.998 0.83,-3.801 2.12,-5.064 1.29,-1.268 3.046,-2.03 4.966,-2.031 1.919,10e-4 3.676,0.763 4.966,2.031 1.29,1.263 2.123,3.066 2.12,5.064 0.003,1.998 -0.83,3.801 -2.12,5.063 z m -7.792,8.406 c 0.705,0.693 1.703,1.141 2.824,1.141 h 0.002 c 1.123,0.001 2.121,-0.448 2.826,-1.141 0.706,-0.698 1.109,-1.608 1.11,-2.606 -10e-4,-0.998 -0.404,-1.907 -1.11,-2.605 -0.705,-0.694 -1.703,-1.142 -2.826,-1.141 -1.122,-10e-4 -2.121,0.447 -2.826,1.141 -0.704,0.698 -1.108,1.607 -1.109,2.605 0.001,0.998 0.405,1.908 1.109,2.606 z m 6.243,-16.646 c -0.854,-0.841 -2.063,-1.383 -3.417,-1.382 -1.353,-0.001 -2.562,0.541 -3.418,1.382 -0.855,0.845 -1.349,1.956 -1.351,3.177 0.002,1.22 0.496,2.331 1.351,3.177 0.856,0.84 2.062,1.382 3.416,1.382 h 0.002 c 1.354,0 2.563,-0.541 3.417,-1.382 0.857,-0.846 1.352,-1.957 1.353,-3.177 -10e-4,-1.221 -0.496,-2.332 -1.353,-3.177"
         style="fill:#e52c3f;fill-opacity:1;fill-rule:nonzero;stroke:none;stroke-width:0.1"
         id="path31368"
         inkscape:connector-curvature="0" />
      <path
         d="m 568.132,293.54 c 0.37,-0.362 0.781,-0.679 1.219,-0.953 -0.187,-0.146 -0.367,-0.298 -0.537,-0.464 -1.115,-1.091 -1.838,-2.652 -1.836,-4.383 -0.002,-1.731 0.721,-3.293 1.836,-4.383 1.115,-1.095 2.63,-1.752 4.284,-1.753 1.656,0.001 3.169,0.658 4.284,1.753 1.116,1.09 1.836,2.652 1.835,4.383 10e-4,1.731 -0.719,3.292 -1.835,4.383 -0.169,0.166 -0.35,0.318 -0.537,0.464 0.439,0.274 0.85,0.591 1.219,0.953 1.29,1.263 2.121,3.065 2.121,5.064 0,1.998 -0.831,3.8 -2.121,5.063 -1.289,1.268 -3.047,2.03 -4.966,2.031 -1.919,-10e-4 -3.676,-0.763 -4.966,-2.031 -1.29,-1.263 -2.123,-3.065 -2.121,-5.063 -0.002,-1.999 0.831,-3.801 2.121,-5.064 z m 7.791,-8.405 c -0.705,-0.694 -1.702,-1.142 -2.824,-1.142 h -0.001 c -1.123,-10e-4 -2.12,0.448 -2.826,1.142 -0.705,0.697 -1.108,1.607 -1.109,2.605 10e-4,0.998 0.404,1.908 1.109,2.606 0.706,0.693 1.703,1.142 2.826,1.14 1.122,0.002 2.12,-0.447 2.825,-1.14 0.706,-0.698 1.11,-1.608 1.111,-2.606 -10e-4,-0.998 -0.405,-1.908 -1.111,-2.605 z m -6.242,16.645 c 0.855,0.841 2.063,1.383 3.417,1.382 1.354,0.001 2.562,-0.541 3.417,-1.382 0.856,-0.845 1.351,-1.956 1.353,-3.176 -0.002,-1.221 -0.497,-2.331 -1.353,-3.178 -0.854,-0.84 -2.06,-1.382 -3.416,-1.382 h -0.001 c -1.354,0 -2.562,0.542 -3.417,1.382 -0.856,0.847 -1.351,1.957 -1.353,3.178 0.002,1.22 0.497,2.331 1.353,3.176"
         style="fill:#e52c3f;fill-opacity:1;fill-rule:nonzero;stroke:none;stroke-width:0.1"
         id="path31370"
         inkscape:connector-curvature="0" />
    </g>
  </g>
</svg>
