<?xml version="1.0" encoding="UTF-8" standalone="no"?>
<!-- Created with Inkscape (http://www.inkscape.org/) -->

<svg
   xmlns:dc="http://purl.org/dc/elements/1.1/"
   xmlns:cc="http://creativecommons.org/ns#"
   xmlns:rdf="http://www.w3.org/1999/02/22-rdf-syntax-ns#"
   xmlns:svg="http://www.w3.org/2000/svg"
   xmlns="http://www.w3.org/2000/svg"
   xmlns:sodipodi="http://sodipodi.sourceforge.net/DTD/sodipodi-0.dtd"
   xmlns:inkscape="http://www.inkscape.org/namespaces/inkscape"
   width="63.353001mm"
   height="88.352997mm"
   viewBox="0 0 63.353001 88.352997"
   version="1.1"
   id="svg22813"
   inkscape:version="0.92.2 2405546, 2018-03-11"
   sodipodi:docname="8s.svg">
  <defs
     id="defs22807" />
  <sodipodi:namedview
     id="base"
     pagecolor="#ffffff"
     bordercolor="#666666"
     borderopacity="1.0"
     inkscape:pageopacity="0.0"
     inkscape:pageshadow="2"
     inkscape:zoom="1.4"
     inkscape:cx="79.906021"
     inkscape:cy="67.089921"
     inkscape:document-units="mm"
     inkscape:current-layer="layer1"
     showgrid="false"
     inkscape:window-width="1920"
     inkscape:window-height="992"
     inkscape:window-x="0"
     inkscape:window-y="27"
     inkscape:window-maximized="1" />
  <metadata
     id="metadata22810">
    <rdf:RDF>
      <cc:Work
         rdf:about="">
        <dc:format>image/svg+xml</dc:format>
        <dc:type
           rdf:resource="http://purl.org/dc/dcmitype/StillImage" />
        <dc:title></dc:title>
      </cc:Work>
    </rdf:RDF>
  </metadata>
  <g
     inkscape:label="Layer 1"
     inkscape:groupmode="layer"
     id="layer1"
     transform="translate(0,-208.647)">
    <g
       transform="matrix(0.35277777,0,0,-0.35277777,-143.49977,391.00081)"
       id="g23131">
      <path
         inkscape:connector-curvature="0"
         id="path4365"
         style="fill:#f7f7f5;fill-opacity:1;fill-rule:nonzero;stroke:none;stroke-width:0.1"
         d="m 585.856,281.132 c 0,-7.827 -6.346,-14.173 -14.174,-14.173 H 421.445 c -7.828,0 -14.174,6.346 -14.174,14.173 V 502.23 c 0,7.828 6.346,14.174 14.174,14.174 h 150.237 c 7.828,0 14.174,-6.346 14.174,-14.174 V 281.132" />
      <path
         inkscape:connector-curvature="0"
         id="path4367"
         style="fill:none;stroke:#231f20;stroke-width:1;stroke-linecap:butt;stroke-linejoin:miter;stroke-miterlimit:4;stroke-dasharray:none;stroke-opacity:1"
         d="m 585.856,281.132 c 0,-7.827 -6.346,-14.173 -14.174,-14.173 H 421.445 c -7.828,0 -14.174,6.346 -14.174,14.173 V 502.23 c 0,7.828 6.346,14.174 14.174,14.174 h 150.237 c 7.828,0 14.174,-6.346 14.174,-14.174 z" />
      <path
         inkscape:connector-curvature="0"
         id="path4369"
         style="fill:#000000;fill-opacity:1;fill-rule:nonzero;stroke:none;stroke-width:0.1"
         d="m 424.994,490.293 c -0.369,0.363 -0.781,0.68 -1.219,0.953 0.186,0.146 0.367,0.299 0.537,0.465 1.115,1.091 1.838,2.652 1.836,4.383 0.002,1.731 -0.721,3.292 -1.836,4.383 -1.115,1.094 -2.631,1.753 -4.285,1.753 -1.654,0 -3.168,-0.659 -4.283,-1.753 -1.115,-1.091 -1.836,-2.652 -1.836,-4.383 0,-1.731 0.721,-3.292 1.836,-4.383 0.168,-0.166 0.349,-0.319 0.537,-0.465 -0.44,-0.273 -0.85,-0.59 -1.219,-0.953 -1.291,-1.263 -2.121,-3.065 -2.121,-5.063 0,-1.998 0.83,-3.8 2.121,-5.063 1.289,-1.267 3.047,-2.03 4.965,-2.031 1.92,10e-4 3.676,0.764 4.967,2.031 1.289,1.263 2.123,3.065 2.121,5.063 0.002,1.998 -0.832,3.8 -2.121,5.063 z m -7.791,8.406 c 0.705,0.694 1.701,1.142 2.824,1.142 v 0 c 1.123,10e-4 2.121,-0.448 2.826,-1.142 0.705,-0.697 1.11,-1.607 1.11,-2.605 0,-0.998 -0.405,-1.908 -1.11,-2.606 -0.705,-0.693 -1.703,-1.142 -2.826,-1.141 -1.121,-10e-4 -2.119,0.448 -2.824,1.141 -0.705,0.698 -1.11,1.608 -1.112,2.606 0.002,0.998 0.407,1.908 1.112,2.605 z m 6.242,-16.646 c -0.856,-0.841 -2.063,-1.382 -3.418,-1.381 -1.354,-0.001 -2.561,0.54 -3.416,1.381 -0.857,0.847 -1.352,1.957 -1.354,3.177 0.002,1.22 0.497,2.332 1.354,3.177 0.853,0.841 2.06,1.382 3.416,1.382 v 0 c 1.355,0.001 2.562,-0.541 3.418,-1.382 0.855,-0.845 1.351,-1.957 1.353,-3.177 -0.002,-1.22 -0.498,-2.33 -1.353,-3.177" />
      <path
         inkscape:connector-curvature="0"
         id="path4371"
         style="fill:#000000;fill-opacity:1;fill-rule:nonzero;stroke:none;stroke-width:0.1"
         d="m 568.131,293.07 c 0.371,-0.364 0.782,-0.68 1.221,-0.954 -0.188,-0.146 -0.369,-0.298 -0.537,-0.464 -1.115,-1.091 -1.838,-2.653 -1.836,-4.383 -0.002,-1.732 0.721,-3.293 1.836,-4.383 1.114,-1.096 2.629,-1.753 4.283,-1.754 1.654,10e-4 3.17,0.658 4.285,1.754 1.115,1.09 1.836,2.651 1.834,4.383 0.002,1.73 -0.719,3.292 -1.834,4.383 -0.17,0.166 -0.351,0.318 -0.539,0.464 0.44,0.274 0.852,0.59 1.221,0.954 1.289,1.261 2.121,3.064 2.121,5.062 0,1.998 -0.832,3.801 -2.121,5.063 -1.291,1.268 -3.047,2.031 -4.967,2.032 -1.919,-10e-4 -3.676,-0.764 -4.967,-2.032 -1.289,-1.262 -2.121,-3.065 -2.119,-5.063 -0.002,-1.998 0.83,-3.801 2.119,-5.062 z m 7.794,-8.407 c -0.706,-0.693 -1.704,-1.142 -2.825,-1.142 h -0.002 c -1.123,0 -2.119,0.449 -2.826,1.142 -0.705,0.698 -1.108,1.608 -1.109,2.606 10e-4,0.998 0.404,1.908 1.109,2.605 0.707,0.694 1.703,1.143 2.826,1.142 1.123,10e-4 2.121,-0.448 2.827,-1.142 0.704,-0.697 1.109,-1.607 1.109,-2.605 0,-0.998 -0.405,-1.908 -1.109,-2.606 z m -6.245,16.647 c 0.856,0.84 2.065,1.381 3.418,1.381 1.354,0 2.563,-0.541 3.418,-1.381 0.855,-0.847 1.35,-1.957 1.352,-3.178 -0.002,-1.221 -0.497,-2.331 -1.352,-3.178 -0.855,-0.84 -2.062,-1.381 -3.416,-1.381 h -0.002 c -1.353,-10e-4 -2.562,0.541 -3.418,1.381 -0.855,0.847 -1.351,1.957 -1.351,3.178 0,1.221 0.496,2.331 1.351,3.178" />
      <path
         inkscape:connector-curvature="0"
         id="path4373"
         style="fill:#231f20;fill-opacity:1;fill-rule:evenodd;stroke:none;stroke-width:0.1"
         d="m 420.018,473.883 c -0.041,-0.028 -0.07,-0.041 -0.117,-0.072 -3.038,-1.94 -6.583,-5.725 -6.946,-10.442 -0.173,-2.244 1.262,-3.798 3.117,-3.832 1.185,-0.021 2.137,0.4 2.653,1.203 0.429,0.668 0.538,1.699 0.608,1.223 0.25,-1.817 -0.511,-3.563 -0.922,-5.088 0.459,0.167 1.035,0.251 1.613,0.253 h 0.01 c 0.576,-0.002 1.152,-0.086 1.61,-0.253 -0.411,1.525 -1.17,3.271 -0.921,5.088 0.07,0.476 0.179,-0.555 0.607,-1.223 0.515,-0.803 1.468,-1.224 2.652,-1.203 1.856,0.034 3.291,1.588 3.118,3.832 -0.364,4.717 -3.908,8.502 -6.943,10.442 -0.033,0.024 -0.062,0.04 -0.111,0.072 h -0.028" />
      <path
         inkscape:connector-curvature="0"
         id="path4375"
         style="fill:none;stroke:#231f20;stroke-width:0.065018;stroke-linecap:butt;stroke-linejoin:round;stroke-miterlimit:4;stroke-dasharray:none;stroke-opacity:1"
         d="m 420.018,473.883 c -0.041,-0.028 -0.07,-0.041 -0.117,-0.072 -3.038,-1.94 -6.583,-5.725 -6.946,-10.442 -0.173,-2.244 1.262,-3.798 3.117,-3.832 1.185,-0.021 2.137,0.4 2.653,1.203 0.429,0.668 0.538,1.699 0.608,1.223 0.25,-1.817 -0.511,-3.563 -0.922,-5.088 0.459,0.167 1.035,0.251 1.613,0.253 h 0.01 c 0.576,-0.002 1.152,-0.086 1.61,-0.253 -0.411,1.525 -1.17,3.271 -0.921,5.088 0.07,0.476 0.179,-0.555 0.607,-1.223 0.515,-0.803 1.468,-1.224 2.652,-1.203 1.856,0.034 3.291,1.588 3.118,3.832 -0.364,4.717 -3.908,8.502 -6.943,10.442 -0.033,0.024 -0.062,0.04 -0.111,0.072 z" />
      <path
         inkscape:connector-curvature="0"
         id="path4377"
         style="fill:#231f20;fill-opacity:1;fill-rule:evenodd;stroke:none;stroke-width:0.1"
         d="m 573.091,309.48 c -0.041,0.027 -0.071,0.041 -0.118,0.072 -3.039,1.939 -6.584,5.725 -6.947,10.441 -0.172,2.245 1.263,3.797 3.117,3.832 1.186,0.022 2.137,-0.4 2.654,-1.203 0.428,-0.668 0.537,-1.699 0.608,-1.222 0.25,1.816 -0.512,3.562 -0.922,5.088 0.459,-0.168 1.035,-0.252 1.613,-0.254 h 0.01 c 0.576,0.002 1.152,0.086 1.61,0.254 -0.411,-1.526 -1.171,-3.272 -0.921,-5.088 0.069,-0.477 0.178,0.554 0.606,1.222 0.515,0.803 1.469,1.225 2.653,1.203 1.855,-0.035 3.29,-1.587 3.118,-3.832 -0.365,-4.716 -3.908,-8.502 -6.943,-10.441 -0.033,-0.025 -0.063,-0.04 -0.111,-0.072 h -0.027" />
      <path
         inkscape:connector-curvature="0"
         id="path4379"
         style="fill:none;stroke:#231f20;stroke-width:0.065018;stroke-linecap:butt;stroke-linejoin:round;stroke-miterlimit:4;stroke-dasharray:none;stroke-opacity:1"
         d="m 573.091,309.48 c -0.041,0.027 -0.071,0.041 -0.118,0.072 -3.039,1.939 -6.584,5.725 -6.947,10.441 -0.172,2.245 1.263,3.797 3.117,3.832 1.186,0.022 2.137,-0.4 2.654,-1.203 0.428,-0.668 0.537,-1.699 0.608,-1.222 0.25,1.816 -0.512,3.562 -0.922,5.088 0.459,-0.168 1.035,-0.252 1.613,-0.254 h 0.01 c 0.576,0.002 1.152,0.086 1.61,0.254 -0.411,-1.526 -1.171,-3.272 -0.921,-5.088 0.069,-0.477 0.178,0.554 0.606,1.222 0.515,0.803 1.469,1.225 2.653,1.203 1.855,-0.035 3.29,-1.587 3.118,-3.832 -0.365,-4.716 -3.908,-8.502 -6.943,-10.441 -0.033,-0.025 -0.063,-0.04 -0.111,-0.072 z" />
      <path
         inkscape:connector-curvature="0"
         id="path4381"
         style="fill:#231f20;fill-opacity:1;fill-rule:evenodd;stroke:none;stroke-width:0.1"
         d="m 453.312,490.892 c -0.104,-0.068 -0.176,-0.104 -0.293,-0.181 -7.596,-4.85 -16.457,-14.311 -17.365,-26.104 -0.433,-5.61 3.155,-9.494 7.792,-9.58 2.961,-0.053 5.342,0.998 6.633,3.008 1.073,1.671 1.346,4.248 1.52,3.058 0.625,-4.542 -1.278,-8.907 -2.307,-12.721 1.149,0.417 2.59,0.627 4.033,0.632 h 0.026 c 1.441,-0.005 2.881,-0.215 4.027,-0.632 -1.029,3.814 -2.928,8.179 -2.303,12.721 0.172,1.19 0.446,-1.387 1.516,-3.058 1.289,-2.01 3.67,-3.061 6.631,-3.008 4.639,0.086 8.226,3.97 7.795,9.58 -0.91,11.793 -9.77,21.254 -17.36,26.104 -0.082,0.062 -0.154,0.1 -0.273,0.181 h -0.072" />
      <path
         inkscape:connector-curvature="0"
         id="path4383"
         style="fill:none;stroke:#231f20;stroke-width:0.16254601;stroke-linecap:butt;stroke-linejoin:round;stroke-miterlimit:4;stroke-dasharray:none;stroke-opacity:1"
         d="m 453.312,490.892 c -0.104,-0.068 -0.176,-0.104 -0.293,-0.181 -7.596,-4.85 -16.457,-14.311 -17.365,-26.104 -0.433,-5.61 3.155,-9.494 7.792,-9.58 2.961,-0.053 5.342,0.998 6.633,3.008 1.073,1.671 1.346,4.248 1.52,3.058 0.625,-4.542 -1.278,-8.907 -2.307,-12.721 1.149,0.417 2.59,0.627 4.033,0.632 h 0.026 c 1.441,-0.005 2.881,-0.215 4.027,-0.632 -1.029,3.814 -2.928,8.179 -2.303,12.721 0.172,1.19 0.446,-1.387 1.516,-3.058 1.289,-2.01 3.67,-3.061 6.631,-3.008 4.639,0.086 8.226,3.97 7.795,9.58 -0.91,11.793 -9.77,21.254 -17.36,26.104 -0.082,0.062 -0.154,0.1 -0.273,0.181 z" />
      <path
         inkscape:connector-curvature="0"
         id="path4385"
         style="fill:#231f20;fill-opacity:1;fill-rule:evenodd;stroke:none;stroke-width:0.1"
         d="m 539.768,490.892 c -0.102,-0.068 -0.174,-0.104 -0.293,-0.181 -7.596,-4.85 -16.455,-14.311 -17.363,-26.104 -0.433,-5.61 3.154,-9.494 7.793,-9.58 2.961,-0.053 5.341,0.998 6.631,3.008 1.072,1.671 1.345,4.248 1.519,3.058 0.625,-4.542 -1.275,-8.907 -2.305,-12.721 1.147,0.417 2.588,0.627 4.034,0.632 h 0.023 c 1.443,-0.005 2.881,-0.215 4.027,-0.632 -1.027,3.814 -2.925,8.179 -2.302,12.721 0.173,1.19 0.447,-1.387 1.518,-3.058 1.288,-2.01 3.669,-3.061 6.63,-3.008 4.639,0.086 8.225,3.97 7.793,9.58 -0.908,11.793 -9.769,21.254 -17.357,26.104 -0.084,0.062 -0.157,0.1 -0.275,0.181 h -0.073" />
      <path
         inkscape:connector-curvature="0"
         id="path4387"
         style="fill:none;stroke:#231f20;stroke-width:0.16254601;stroke-linecap:butt;stroke-linejoin:round;stroke-miterlimit:4;stroke-dasharray:none;stroke-opacity:1"
         d="m 539.768,490.892 c -0.102,-0.068 -0.174,-0.104 -0.293,-0.181 -7.596,-4.85 -16.455,-14.311 -17.363,-26.104 -0.433,-5.61 3.154,-9.494 7.793,-9.58 2.961,-0.053 5.341,0.998 6.631,3.008 1.072,1.671 1.345,4.248 1.519,3.058 0.625,-4.542 -1.275,-8.907 -2.305,-12.721 1.147,0.417 2.588,0.627 4.034,0.632 h 0.023 c 1.443,-0.005 2.881,-0.215 4.027,-0.632 -1.027,3.814 -2.925,8.179 -2.302,12.721 0.173,1.19 0.447,-1.387 1.518,-3.058 1.288,-2.01 3.669,-3.061 6.63,-3.008 4.639,0.086 8.225,3.97 7.793,9.58 -0.908,11.793 -9.769,21.254 -17.357,26.104 -0.084,0.062 -0.157,0.1 -0.275,0.181 z" />
      <path
         inkscape:connector-curvature="0"
         id="path4389"
         style="fill:#231f20;fill-opacity:1;fill-rule:evenodd;stroke:none;stroke-width:0.1"
         d="m 496.538,449.789 c -0.101,-0.067 -0.174,-0.103 -0.293,-0.18 -7.593,-4.85 -16.455,-14.311 -17.363,-26.104 -0.432,-5.61 3.156,-9.494 7.793,-9.581 2.961,-0.053 5.342,0.998 6.631,3.008 1.072,1.672 1.346,4.249 1.519,3.058 0.625,-4.542 -1.275,-8.906 -2.304,-12.718 1.146,0.416 2.588,0.627 4.033,0.631 h 0.023 c 1.444,-0.004 2.882,-0.215 4.029,-0.631 -1.028,3.812 -2.927,8.176 -2.304,12.718 0.174,1.191 0.448,-1.386 1.518,-3.058 1.29,-2.01 3.671,-3.061 6.632,-3.008 4.639,0.087 8.224,3.971 7.793,9.581 -0.908,11.793 -9.77,21.254 -17.359,26.104 -0.084,0.061 -0.156,0.099 -0.275,0.18 h -0.073" />
      <path
         inkscape:connector-curvature="0"
         id="path4391"
         style="fill:none;stroke:#231f20;stroke-width:0.16254601;stroke-linecap:butt;stroke-linejoin:round;stroke-miterlimit:4;stroke-dasharray:none;stroke-opacity:1"
         d="m 496.538,449.789 c -0.101,-0.067 -0.174,-0.103 -0.293,-0.18 -7.593,-4.85 -16.455,-14.311 -17.363,-26.104 -0.432,-5.61 3.156,-9.494 7.793,-9.581 2.961,-0.053 5.342,0.998 6.631,3.008 1.072,1.672 1.346,4.249 1.519,3.058 0.625,-4.542 -1.275,-8.906 -2.304,-12.718 1.146,0.416 2.588,0.627 4.033,0.631 h 0.023 c 1.444,-0.004 2.882,-0.215 4.029,-0.631 -1.028,3.812 -2.927,8.176 -2.304,12.718 0.174,1.191 0.448,-1.386 1.518,-3.058 1.29,-2.01 3.671,-3.061 6.632,-3.008 4.639,0.087 8.224,3.971 7.793,9.581 -0.908,11.793 -9.77,21.254 -17.359,26.104 -0.084,0.061 -0.156,0.099 -0.275,0.18 z" />
      <path
         inkscape:connector-curvature="0"
         id="path4393"
         style="fill:#231f20;fill-opacity:1;fill-rule:evenodd;stroke:none;stroke-width:0.1"
         d="m 453.312,412.939 c -0.104,-0.066 -0.176,-0.103 -0.293,-0.18 -7.596,-4.848 -16.457,-14.307 -17.365,-26.1 -0.433,-5.611 3.155,-9.496 7.792,-9.58 2.961,-0.055 5.342,0.998 6.633,3.008 1.073,1.671 1.346,4.248 1.52,3.057 0.625,-4.541 -1.278,-8.906 -2.307,-12.721 1.149,0.418 2.59,0.627 4.033,0.633 h 0.026 c 1.441,-0.006 2.881,-0.215 4.027,-0.633 -1.029,3.815 -2.928,8.18 -2.303,12.721 0.172,1.191 0.446,-1.386 1.516,-3.057 1.289,-2.01 3.67,-3.063 6.631,-3.008 4.639,0.084 8.226,3.969 7.795,9.58 -0.91,11.793 -9.77,21.252 -17.36,26.1 -0.082,0.062 -0.154,0.1 -0.273,0.18 h -0.072" />
      <path
         inkscape:connector-curvature="0"
         id="path4395"
         style="fill:none;stroke:#231f20;stroke-width:0.16254601;stroke-linecap:butt;stroke-linejoin:round;stroke-miterlimit:4;stroke-dasharray:none;stroke-opacity:1"
         d="m 453.312,412.939 c -0.104,-0.066 -0.176,-0.103 -0.293,-0.18 -7.596,-4.848 -16.457,-14.307 -17.365,-26.1 -0.433,-5.611 3.155,-9.496 7.792,-9.58 2.961,-0.055 5.342,0.998 6.633,3.008 1.073,1.671 1.346,4.248 1.52,3.057 0.625,-4.541 -1.278,-8.906 -2.307,-12.721 1.149,0.418 2.59,0.627 4.033,0.633 h 0.026 c 1.441,-0.006 2.881,-0.215 4.027,-0.633 -1.029,3.815 -2.928,8.18 -2.303,12.721 0.172,1.191 0.446,-1.386 1.516,-3.057 1.289,-2.01 3.67,-3.063 6.631,-3.008 4.639,0.084 8.226,3.969 7.795,9.58 -0.91,11.793 -9.77,21.252 -17.36,26.1 -0.082,0.062 -0.154,0.1 -0.273,0.18 z" />
      <path
         inkscape:connector-curvature="0"
         id="path4397"
         style="fill:#231f20;fill-opacity:1;fill-rule:evenodd;stroke:none;stroke-width:0.1"
         d="m 536.934,412.939 c -0.104,-0.066 -0.176,-0.103 -0.293,-0.18 -7.596,-4.848 -16.457,-14.307 -17.365,-26.1 -0.432,-5.61 3.156,-9.495 7.793,-9.58 2.961,-0.054 5.342,0.998 6.633,3.008 1.072,1.672 1.345,4.248 1.519,3.058 0.625,-4.542 -1.277,-8.907 -2.307,-12.721 1.149,0.417 2.59,0.627 4.034,0.632 h 0.025 c 1.441,-0.005 2.881,-0.215 4.027,-0.632 -1.029,3.814 -2.927,8.179 -2.302,12.721 0.172,1.19 0.445,-1.386 1.515,-3.058 1.289,-2.01 3.67,-3.062 6.631,-3.008 4.639,0.085 8.227,3.97 7.795,9.58 -0.91,11.793 -9.769,21.252 -17.359,26.1 -0.082,0.061 -0.155,0.099 -0.274,0.18 h -0.072" />
      <path
         inkscape:connector-curvature="0"
         id="path4399"
         style="fill:none;stroke:#231f20;stroke-width:0.16254601;stroke-linecap:butt;stroke-linejoin:round;stroke-miterlimit:4;stroke-dasharray:none;stroke-opacity:1"
         d="m 536.934,412.939 c -0.104,-0.066 -0.176,-0.103 -0.293,-0.18 -7.596,-4.848 -16.457,-14.307 -17.365,-26.1 -0.432,-5.61 3.156,-9.495 7.793,-9.58 2.961,-0.054 5.342,0.998 6.633,3.008 1.072,1.672 1.345,4.248 1.519,3.058 0.625,-4.542 -1.277,-8.907 -2.307,-12.721 1.149,0.417 2.59,0.627 4.034,0.632 h 0.025 c 1.441,-0.005 2.881,-0.215 4.027,-0.632 -1.029,3.814 -2.927,8.179 -2.302,12.721 0.172,1.19 0.445,-1.386 1.515,-3.058 1.289,-2.01 3.67,-3.062 6.631,-3.008 4.639,0.085 8.227,3.97 7.795,9.58 -0.91,11.793 -9.769,21.252 -17.359,26.1 -0.082,0.061 -0.155,0.099 -0.274,0.18 z" />
      <path
         inkscape:connector-curvature="0"
         id="path4401"
         style="fill:#231f20;fill-opacity:1;fill-rule:evenodd;stroke:none;stroke-width:0.1"
         d="m 496.538,333.573 c -0.101,0.068 -0.174,0.104 -0.293,0.182 -7.595,4.849 -16.455,14.309 -17.363,26.104 -0.434,5.609 3.154,9.494 7.793,9.579 2.961,0.053 5.342,-0.997 6.631,-3.007 1.072,-1.672 1.346,-4.248 1.519,-3.059 0.625,4.543 -1.275,8.908 -2.304,12.721 1.146,-0.416 2.588,-0.627 4.033,-0.631 h 0.023 c 1.444,0.004 2.882,0.215 4.029,0.631 -1.028,-3.813 -2.927,-8.178 -2.304,-12.721 0.174,-1.189 0.448,1.387 1.518,3.059 1.29,2.01 3.671,3.06 6.632,3.007 4.639,-0.085 8.224,-3.97 7.793,-9.579 -0.908,-11.795 -9.77,-21.255 -17.359,-26.104 -0.084,-0.062 -0.156,-0.1 -0.275,-0.182 h -0.073" />
      <path
         inkscape:connector-curvature="0"
         id="path4403"
         style="fill:none;stroke:#231f20;stroke-width:0.16254601;stroke-linecap:butt;stroke-linejoin:round;stroke-miterlimit:4;stroke-dasharray:none;stroke-opacity:1"
         d="m 496.538,333.573 c -0.101,0.068 -0.174,0.104 -0.293,0.182 -7.595,4.849 -16.455,14.309 -17.363,26.104 -0.434,5.609 3.154,9.494 7.793,9.579 2.961,0.053 5.342,-0.997 6.631,-3.007 1.072,-1.672 1.346,-4.248 1.519,-3.059 0.625,4.543 -1.275,8.908 -2.304,12.721 1.146,-0.416 2.588,-0.627 4.033,-0.631 h 0.023 c 1.444,0.004 2.882,0.215 4.029,0.631 -1.028,-3.813 -2.927,-8.178 -2.304,-12.721 0.174,-1.189 0.448,1.387 1.518,3.059 1.29,2.01 3.671,3.06 6.632,3.007 4.639,-0.085 8.224,-3.97 7.793,-9.579 -0.908,-11.795 -9.77,-21.255 -17.359,-26.104 -0.084,-0.062 -0.156,-0.1 -0.275,-0.182 z" />
      <path
         inkscape:connector-curvature="0"
         id="path4405"
         style="fill:#231f20;fill-opacity:1;fill-rule:evenodd;stroke:none;stroke-width:0.1"
         d="m 453.31,292.472 c -0.102,0.066 -0.174,0.103 -0.293,0.18 -7.596,4.849 -16.455,14.31 -17.363,26.104 -0.434,5.61 3.154,9.495 7.792,9.579 2.961,0.055 5.342,-0.997 6.631,-3.007 1.073,-1.671 1.346,-4.248 1.52,-3.057 0.625,4.542 -1.276,8.907 -2.305,12.72 1.147,-0.417 2.588,-0.627 4.033,-0.632 h 0.024 c 1.443,0.005 2.881,0.215 4.027,0.632 -1.027,-3.813 -2.926,-8.178 -2.303,-12.72 0.174,-1.191 0.448,1.386 1.518,3.057 1.289,2.01 3.67,3.062 6.631,3.007 4.639,-0.084 8.224,-3.969 7.793,-9.579 -0.908,-11.794 -9.77,-21.255 -17.358,-26.104 -0.084,-0.061 -0.156,-0.099 -0.275,-0.18 h -0.072" />
      <path
         inkscape:connector-curvature="0"
         id="path4407"
         style="fill:none;stroke:#231f20;stroke-width:0.16254601;stroke-linecap:butt;stroke-linejoin:round;stroke-miterlimit:4;stroke-dasharray:none;stroke-opacity:1"
         d="m 453.31,292.472 c -0.102,0.066 -0.174,0.103 -0.293,0.18 -7.596,4.849 -16.455,14.31 -17.363,26.104 -0.434,5.61 3.154,9.495 7.792,9.579 2.961,0.055 5.342,-0.997 6.631,-3.007 1.073,-1.671 1.346,-4.248 1.52,-3.057 0.625,4.542 -1.276,8.907 -2.305,12.72 1.147,-0.417 2.588,-0.627 4.033,-0.632 h 0.024 c 1.443,0.005 2.881,0.215 4.027,0.632 -1.027,-3.813 -2.926,-8.178 -2.303,-12.72 0.174,-1.191 0.448,1.386 1.518,3.057 1.289,2.01 3.67,3.062 6.631,3.007 4.639,-0.084 8.224,-3.969 7.793,-9.579 -0.908,-11.794 -9.77,-21.255 -17.358,-26.104 -0.084,-0.061 -0.156,-0.099 -0.275,-0.18 z" />
      <path
         inkscape:connector-curvature="0"
         id="path4409"
         style="fill:#231f20;fill-opacity:1;fill-rule:evenodd;stroke:none;stroke-width:0.1"
         d="m 539.768,292.472 c -0.102,0.066 -0.174,0.102 -0.293,0.18 -7.596,4.849 -16.455,14.31 -17.363,26.103 -0.433,5.611 3.154,9.496 7.793,9.58 2.961,0.055 5.341,-0.998 6.631,-3.008 1.072,-1.671 1.345,-4.248 1.519,-3.056 0.625,4.54 -1.275,8.906 -2.305,12.72 1.147,-0.418 2.588,-0.627 4.034,-0.632 h 0.023 c 1.443,0.005 2.881,0.214 4.027,0.632 -1.027,-3.814 -2.925,-8.18 -2.302,-12.72 0.173,-1.192 0.447,1.385 1.518,3.056 1.288,2.01 3.669,3.063 6.63,3.008 4.639,-0.084 8.225,-3.969 7.793,-9.58 -0.908,-11.793 -9.769,-21.254 -17.357,-26.103 -0.084,-0.063 -0.157,-0.1 -0.275,-0.18 h -0.073" />
      <path
         inkscape:connector-curvature="0"
         id="path4411"
         style="fill:none;stroke:#231f20;stroke-width:0.16254601;stroke-linecap:butt;stroke-linejoin:round;stroke-miterlimit:4;stroke-dasharray:none;stroke-opacity:1"
         d="m 539.768,292.472 c -0.102,0.066 -0.174,0.102 -0.293,0.18 -7.596,4.849 -16.455,14.31 -17.363,26.103 -0.433,5.611 3.154,9.496 7.793,9.58 2.961,0.055 5.341,-0.998 6.631,-3.008 1.072,-1.671 1.345,-4.248 1.519,-3.056 0.625,4.54 -1.275,8.906 -2.305,12.72 1.147,-0.418 2.588,-0.627 4.034,-0.632 h 0.023 c 1.443,0.005 2.881,0.214 4.027,0.632 -1.027,-3.814 -2.925,-8.18 -2.302,-12.72 0.173,-1.192 0.447,1.385 1.518,3.056 1.288,2.01 3.669,3.063 6.63,3.008 4.639,-0.084 8.225,-3.969 7.793,-9.58 -0.908,-11.793 -9.769,-21.254 -17.357,-26.103 -0.084,-0.063 -0.157,-0.1 -0.275,-0.18 z" />
    </g>
  </g>
</svg>
