<?xml version="1.0" encoding="UTF-8" standalone="no"?>
<!-- Created with Inkscape (http://www.inkscape.org/) -->

<svg
   xmlns:dc="http://purl.org/dc/elements/1.1/"
   xmlns:cc="http://creativecommons.org/ns#"
   xmlns:rdf="http://www.w3.org/1999/02/22-rdf-syntax-ns#"
   xmlns:svg="http://www.w3.org/2000/svg"
   xmlns="http://www.w3.org/2000/svg"
   xmlns:sodipodi="http://sodipodi.sourceforge.net/DTD/sodipodi-0.dtd"
   xmlns:inkscape="http://www.inkscape.org/namespaces/inkscape"
   width="63.353001mm"
   height="88.352997mm"
   viewBox="0 0 63.353001 88.352997"
   version="1.1"
   id="svg22813"
   inkscape:version="0.92.2 2405546, 2018-03-11"
   sodipodi:docname="9c.svg">
  <defs
     id="defs22807" />
  <sodipodi:namedview
     id="base"
     pagecolor="#ffffff"
     bordercolor="#666666"
     borderopacity="1.0"
     inkscape:pageopacity="0.0"
     inkscape:pageshadow="2"
     inkscape:zoom="1.4"
     inkscape:cx="79.906021"
     inkscape:cy="124.23278"
     inkscape:document-units="mm"
     inkscape:current-layer="layer1"
     showgrid="false"
     inkscape:window-width="1920"
     inkscape:window-height="992"
     inkscape:window-x="0"
     inkscape:window-y="27"
     inkscape:window-maximized="1" />
  <metadata
     id="metadata22810">
    <rdf:RDF>
      <cc:Work
         rdf:about="">
        <dc:format>image/svg+xml</dc:format>
        <dc:type
           rdf:resource="http://purl.org/dc/dcmitype/StillImage" />
        <dc:title></dc:title>
      </cc:Work>
    </rdf:RDF>
  </metadata>
  <g
     inkscape:label="Layer 1"
     inkscape:groupmode="layer"
     id="layer1"
     transform="translate(0,-208.647)">
    <g
       transform="matrix(0.35277777,0,0,-0.35277777,-215.25018,391.0001)"
       id="g64146">
      <path
         d="m 789.24,281.13 c 0,-7.827 -6.344,-14.173 -14.172,-14.173 H 624.831 c -7.827,0 -14.173,6.346 -14.173,14.173 v 221.102 c 0,7.828 6.346,14.174 14.173,14.174 h 150.237 c 7.828,0 14.172,-6.346 14.172,-14.174 V 281.13"
         style="fill:#f7f7f5;fill-opacity:1;fill-rule:nonzero;stroke:none;stroke-width:0.1"
         id="path43278"
         inkscape:connector-curvature="0" />
      <path
         d="m 789.24,281.13 c 0,-7.827 -6.344,-14.173 -14.172,-14.173 H 624.831 c -7.827,0 -14.173,6.346 -14.173,14.173 v 221.102 c 0,7.828 6.346,14.174 14.173,14.174 h 150.237 c 7.828,0 14.172,-6.346 14.172,-14.174 z"
         style="fill:none;stroke:#231f20;stroke-width:1;stroke-linecap:butt;stroke-linejoin:miter;stroke-miterlimit:4;stroke-dasharray:none;stroke-opacity:1"
         id="path43280"
         inkscape:connector-curvature="0" />
      <path
         d="m 623.415,473.886 c -1.864,0 -3.377,-1.704 -3.377,-3.802 0,-1.2 0.501,-2.264 1.269,-2.966 0.259,-0.238 0.147,-0.495 -0.116,-0.335 -0.48,0.292 -1.022,0.478 -1.606,0.478 -1.798,0 -3.257,-1.643 -3.257,-3.668 0,-2.023 1.459,-3.667 3.257,-3.667 1.198,0 2.247,0.729 2.81,1.817 0.055,0.106 0.099,0.253 0.177,0.253 0.108,0 0.158,-0.176 0.158,-0.503 0,-1.315 -0.505,-2.851 -1.251,-4.615 0.322,0.076 1.298,0.271 1.936,0.271 0.638,0 1.614,-0.195 1.937,-0.271 -0.747,1.764 -1.252,3.3 -1.252,4.615 0,0.327 0.05,0.503 0.157,0.503 0.078,0 0.122,-0.147 0.178,-0.253 0.563,-1.088 1.611,-1.817 2.81,-1.817 1.797,0 3.256,1.644 3.256,3.667 0,2.025 -1.459,3.668 -3.256,3.668 -0.585,0 -1.127,-0.186 -1.606,-0.478 -0.264,-0.16 -0.375,0.097 -0.116,0.335 0.768,0.702 1.268,1.766 1.268,2.966 0,2.098 -1.512,3.802 -3.376,3.802"
         style="fill:#050301;fill-opacity:1;fill-rule:nonzero;stroke:none;stroke-width:0.1"
         id="path43282"
         inkscape:connector-curvature="0" />
      <path
         d="m 776.486,309.477 c 1.863,0 3.377,1.704 3.377,3.802 0,1.199 -0.502,2.263 -1.268,2.966 -0.26,0.237 -0.149,0.494 0.115,0.334 0.479,-0.291 1.02,-0.476 1.606,-0.476 1.797,0 3.256,1.642 3.256,3.666 0,2.023 -1.459,3.667 -3.256,3.667 -1.199,0 -2.246,-0.729 -2.81,-1.818 -0.056,-0.105 -0.101,-0.252 -0.178,-0.252 -0.107,0 -0.157,0.176 -0.157,0.503 0,1.315 0.505,2.851 1.251,4.615 -0.322,-0.076 -1.299,-0.27 -1.936,-0.27 -0.638,0 -1.614,0.194 -1.937,0.27 0.746,-1.764 1.252,-3.3 1.252,-4.615 0,-0.327 -0.051,-0.503 -0.157,-0.503 -0.078,0 -0.123,0.147 -0.177,0.252 -0.563,1.089 -1.613,1.818 -2.812,1.818 -1.796,0 -3.255,-1.644 -3.255,-3.667 0,-2.024 1.459,-3.666 3.255,-3.666 0.585,0 1.127,0.185 1.607,0.476 0.263,0.16 0.375,-0.097 0.116,-0.334 -0.767,-0.703 -1.269,-1.767 -1.269,-2.966 0,-2.098 1.513,-3.802 3.377,-3.802"
         style="fill:#050301;fill-opacity:1;fill-rule:nonzero;stroke:none;stroke-width:0.1"
         id="path43284"
         inkscape:connector-curvature="0" />
      <path
         d="m 656.722,490.893 c -4.66,0 -8.442,-4.258 -8.442,-9.504 0,-2.999 1.251,-5.66 3.17,-7.416 0.648,-0.593 0.371,-1.237 -0.289,-0.836 -1.199,0.73 -2.554,1.193 -4.015,1.193 -4.494,0 -8.141,-4.107 -8.141,-9.167 0,-5.06 3.647,-9.167 8.141,-9.167 2.996,0 5.618,1.822 7.026,4.541 0.138,0.266 0.249,0.631 0.443,0.631 0.268,0 0.393,-0.438 0.393,-1.256 0,-3.287 -1.263,-7.126 -3.128,-11.538 0.806,0.192 3.247,0.678 4.842,0.678 1.594,0 4.035,-0.486 4.841,-0.678 -1.867,4.412 -3.128,8.251 -3.128,11.538 0,0.818 0.125,1.256 0.391,1.256 0.195,0 0.306,-0.365 0.444,-0.631 1.408,-2.719 4.031,-4.541 7.026,-4.541 4.494,0 8.142,4.107 8.142,9.167 0,5.06 -3.648,9.167 -8.142,9.167 -1.461,0 -2.816,-0.463 -4.015,-1.193 -0.66,-0.401 -0.937,0.243 -0.289,0.836 1.918,1.756 3.169,4.417 3.169,7.416 0,5.246 -3.781,9.504 -8.439,9.504"
         style="fill:#050301;fill-opacity:1;fill-rule:nonzero;stroke:none;stroke-width:0.1"
         id="path43286"
         inkscape:connector-curvature="0" />
      <path
         d="m 656.722,438.925 c -4.66,0 -8.442,-4.256 -8.442,-9.5 0,-2.998 1.251,-5.658 3.17,-7.414 0.648,-0.593 0.371,-1.237 -0.289,-0.836 -1.199,0.73 -2.554,1.193 -4.015,1.193 -4.494,0 -8.141,-4.105 -8.141,-9.163 0,-5.059 3.647,-9.164 8.141,-9.164 2.996,0 5.618,1.822 7.026,4.539 0.138,0.266 0.249,0.631 0.443,0.631 0.268,0 0.393,-0.437 0.393,-1.256 0,-3.285 -1.263,-7.129 -3.128,-11.55 0.806,0.192 3.247,0.679 4.842,0.679 1.594,0 4.035,-0.487 4.841,-0.679 -1.867,4.421 -3.128,8.265 -3.128,11.55 0,0.819 0.125,1.256 0.391,1.256 0.195,0 0.306,-0.365 0.444,-0.631 1.408,-2.717 4.031,-4.539 7.026,-4.539 4.494,0 8.142,4.105 8.142,9.164 0,5.058 -3.648,9.163 -8.142,9.163 -1.461,0 -2.816,-0.463 -4.015,-1.193 -0.66,-0.401 -0.937,0.243 -0.289,0.836 1.918,1.756 3.169,4.416 3.169,7.414 0,5.244 -3.781,9.5 -8.439,9.5"
         style="fill:#050301;fill-opacity:1;fill-rule:nonzero;stroke:none;stroke-width:0.1"
         id="path43288"
         inkscape:connector-curvature="0" />
      <path
         d="m 656.721,292.469 c 4.66,0 8.441,4.257 8.441,9.503 0,3 -1.252,5.66 -3.17,7.417 -0.648,0.593 -0.371,1.238 0.289,0.837 1.199,-0.731 2.554,-1.194 4.015,-1.194 4.494,0 8.142,4.107 8.142,9.166 0,5.061 -3.648,9.168 -8.142,9.168 -2.995,0 -5.617,-1.822 -7.025,-4.541 -0.138,-0.265 -0.25,-0.63 -0.445,-0.63 -0.266,0 -0.391,0.437 -0.391,1.255 0,3.288 1.261,7.126 3.128,11.538 -0.806,-0.191 -3.247,-0.678 -4.842,-0.678 -1.595,0 -4.035,0.487 -4.841,0.678 1.866,-4.412 3.128,-8.25 3.128,-11.538 0,-0.818 -0.125,-1.255 -0.393,-1.255 -0.194,0 -0.305,0.365 -0.443,0.63 -1.408,2.719 -4.03,4.541 -7.026,4.541 -4.494,0 -8.141,-4.107 -8.141,-9.168 0,-5.059 3.647,-9.166 8.141,-9.166 1.461,0 2.816,0.463 4.015,1.194 0.66,0.401 0.938,-0.244 0.289,-0.837 -1.919,-1.757 -3.169,-4.417 -3.169,-7.417 0,-5.246 3.782,-9.503 8.44,-9.503"
         style="fill:#050301;fill-opacity:1;fill-rule:nonzero;stroke:none;stroke-width:0.1"
         id="path43290"
         inkscape:connector-curvature="0" />
      <path
         d="m 656.722,344.436 c 4.66,0 8.441,4.259 8.441,9.505 0,3 -1.252,5.66 -3.17,7.416 -0.648,0.593 -0.371,1.238 0.289,0.836 1.2,-0.729 2.553,-1.193 4.015,-1.193 4.494,0 8.142,4.107 8.142,9.167 0,5.061 -3.648,9.168 -8.142,9.168 -2.995,0 -5.617,-1.822 -7.026,-4.542 -0.137,-0.264 -0.248,-0.63 -0.443,-0.63 -0.267,0 -0.392,0.437 -0.392,1.256 0,3.286 1.261,7.125 3.128,11.537 -0.806,-0.191 -3.248,-0.678 -4.842,-0.678 -1.595,0 -4.035,0.487 -4.841,0.678 1.866,-4.412 3.128,-8.251 3.128,-11.537 0,-0.819 -0.125,-1.256 -0.393,-1.256 -0.194,0 -0.304,0.366 -0.443,0.63 -1.408,2.72 -4.03,4.542 -7.025,4.542 -4.494,0 -8.143,-4.107 -8.143,-9.168 0,-5.06 3.649,-9.167 8.143,-9.167 1.461,0 2.815,0.464 4.014,1.193 0.66,0.402 0.938,-0.243 0.289,-0.836 -1.918,-1.756 -3.169,-4.416 -3.169,-7.416 0,-5.246 3.782,-9.505 8.44,-9.505"
         style="fill:#050301;fill-opacity:1;fill-rule:nonzero;stroke:none;stroke-width:0.1"
         id="path43292"
         inkscape:connector-curvature="0" />
      <path
         d="m 743.178,490.893 c -4.659,0 -8.44,-4.258 -8.44,-9.504 0,-2.999 1.25,-5.66 3.169,-7.416 0.648,-0.593 0.37,-1.237 -0.29,-0.836 -1.199,0.73 -2.553,1.193 -4.014,1.193 -4.494,0 -8.142,-4.107 -8.142,-9.167 0,-5.06 3.648,-9.167 8.142,-9.167 2.995,0 5.618,1.822 7.025,4.541 0.139,0.266 0.249,0.631 0.444,0.631 0.267,0 0.392,-0.438 0.392,-1.256 0,-3.287 -1.262,-7.126 -3.127,-11.538 0.806,0.192 3.246,0.678 4.841,0.678 1.595,0 4.035,-0.486 4.841,-0.678 -1.867,4.412 -3.128,8.251 -3.128,11.538 0,0.818 0.125,1.256 0.392,1.256 0.196,0 0.306,-0.365 0.444,-0.631 1.408,-2.719 4.031,-4.541 7.025,-4.541 4.494,0 8.143,4.107 8.143,9.167 0,5.06 -3.649,9.167 -8.143,9.167 -1.461,0 -2.814,-0.463 -4.014,-1.193 -0.66,-0.401 -0.938,0.243 -0.29,0.836 1.919,1.756 3.17,4.417 3.17,7.416 0,5.246 -3.782,9.504 -8.44,9.504"
         style="fill:#050301;fill-opacity:1;fill-rule:nonzero;stroke:none;stroke-width:0.1"
         id="path43294"
         inkscape:connector-curvature="0" />
      <path
         d="m 743.178,438.925 c -4.659,0 -8.44,-4.256 -8.44,-9.5 0,-2.999 1.25,-5.659 3.169,-7.414 0.648,-0.593 0.37,-1.237 -0.29,-0.836 -1.199,0.729 -2.553,1.193 -4.014,1.193 -4.494,0 -8.142,-4.105 -8.142,-9.163 0,-5.059 3.648,-9.164 8.142,-9.164 2.995,0 5.618,1.821 7.025,4.539 0.139,0.266 0.249,0.631 0.444,0.631 0.267,0 0.392,-0.438 0.392,-1.256 0,-3.285 -1.262,-7.129 -3.127,-11.55 0.806,0.192 3.246,0.679 4.841,0.679 1.595,0 4.035,-0.487 4.841,-0.679 -1.867,4.421 -3.128,8.265 -3.128,11.55 0,0.818 0.125,1.256 0.392,1.256 0.196,0 0.306,-0.365 0.444,-0.631 1.408,-2.718 4.031,-4.539 7.025,-4.539 4.494,0 8.143,4.105 8.143,9.164 0,5.058 -3.649,9.163 -8.143,9.163 -1.461,0 -2.814,-0.464 -4.014,-1.193 -0.66,-0.401 -0.938,0.243 -0.29,0.836 1.919,1.755 3.17,4.415 3.17,7.414 0,5.244 -3.782,9.5 -8.44,9.5"
         style="fill:#050301;fill-opacity:1;fill-rule:nonzero;stroke:none;stroke-width:0.1"
         id="path43296"
         inkscape:connector-curvature="0" />
      <path
         d="m 743.178,292.469 c 4.659,0 8.44,4.257 8.44,9.503 0,3 -1.251,5.66 -3.17,7.417 -0.647,0.593 -0.37,1.238 0.29,0.837 1.2,-0.731 2.553,-1.194 4.015,-1.194 4.493,0 8.142,4.107 8.142,9.166 0,5.061 -3.649,9.168 -8.142,9.168 -2.995,0 -5.618,-1.822 -7.025,-4.541 -0.139,-0.265 -0.249,-0.63 -0.445,-0.63 -0.266,0 -0.392,0.437 -0.392,1.255 0,3.288 1.263,7.126 3.128,11.538 -0.806,-0.191 -3.246,-0.678 -4.841,-0.678 -1.595,0 -4.035,0.487 -4.842,0.678 1.867,-4.412 3.128,-8.25 3.128,-11.538 0,-0.818 -0.124,-1.255 -0.392,-1.255 -0.195,0 -0.305,0.365 -0.443,0.63 -1.408,2.719 -4.031,4.541 -7.025,4.541 -4.495,0 -8.143,-4.107 -8.143,-9.168 0,-5.059 3.648,-9.166 8.143,-9.166 1.46,0 2.814,0.463 4.013,1.194 0.66,0.401 0.939,-0.244 0.29,-0.837 -1.919,-1.757 -3.169,-4.417 -3.169,-7.417 0,-5.246 3.781,-9.503 8.44,-9.503"
         style="fill:#050301;fill-opacity:1;fill-rule:nonzero;stroke:none;stroke-width:0.1"
         id="path43298"
         inkscape:connector-curvature="0" />
      <path
         d="m 743.178,344.436 c 4.659,0 8.44,4.259 8.44,9.505 0,3 -1.251,5.66 -3.17,7.416 -0.647,0.593 -0.37,1.238 0.29,0.836 1.2,-0.729 2.553,-1.193 4.015,-1.193 4.493,0 8.142,4.107 8.142,9.167 0,5.061 -3.649,9.168 -8.142,9.168 -2.995,0 -5.618,-1.822 -7.025,-4.542 -0.139,-0.264 -0.249,-0.63 -0.445,-0.63 -0.266,0 -0.392,0.437 -0.392,1.256 0,3.286 1.263,7.125 3.128,11.537 -0.806,-0.191 -3.246,-0.678 -4.841,-0.678 -1.595,0 -4.035,0.487 -4.842,0.678 1.867,-4.412 3.128,-8.251 3.128,-11.537 0,-0.819 -0.124,-1.256 -0.392,-1.256 -0.195,0 -0.305,0.366 -0.443,0.63 -1.408,2.72 -4.031,4.542 -7.025,4.542 -4.495,0 -8.143,-4.107 -8.143,-9.168 0,-5.06 3.648,-9.167 8.143,-9.167 1.46,0 2.814,0.464 4.013,1.193 0.66,0.402 0.939,-0.243 0.29,-0.836 -1.919,-1.756 -3.169,-4.416 -3.169,-7.416 0,-5.246 3.781,-9.505 8.44,-9.505"
         style="fill:#050301;fill-opacity:1;fill-rule:nonzero;stroke:none;stroke-width:0.1"
         id="path43300"
         inkscape:connector-curvature="0" />
      <path
         d="m 699.951,412.941 c -4.66,0 -8.441,-4.261 -8.441,-9.509 0,-3.002 1.251,-5.664 3.17,-7.422 0.648,-0.594 0.371,-1.238 -0.289,-0.836 -1.2,0.73 -2.554,1.194 -4.016,1.194 -4.494,0 -8.141,-4.11 -8.141,-9.172 0,-5.055 3.647,-9.158 8.141,-9.158 2.996,0 5.618,1.82 7.027,4.536 0.137,0.267 0.248,0.63 0.444,0.63 0.267,0 0.392,-0.436 0.392,-1.254 0,-3.283 -1.263,-7.119 -3.129,-11.529 0.806,0.193 3.248,0.68 4.842,0.68 1.593,0 4.033,-0.487 4.839,-0.68 -1.866,4.41 -3.128,8.246 -3.128,11.529 0,0.818 0.125,1.254 0.393,1.254 0.194,0 0.304,-0.363 0.443,-0.63 1.408,-2.716 4.031,-4.536 7.025,-4.536 4.496,0 8.143,4.103 8.143,9.158 0,5.062 -3.647,9.172 -8.143,9.172 -1.46,0 -2.815,-0.464 -4.014,-1.194 -0.659,-0.402 -0.938,0.242 -0.289,0.836 1.918,1.758 3.17,4.42 3.17,7.422 0,5.248 -3.783,9.509 -8.439,9.509"
         style="fill:#050301;fill-opacity:1;fill-rule:nonzero;stroke:none;stroke-width:0.1"
         id="path43302"
         inkscape:connector-curvature="0" />
      <path
         d="m 630.306,494.857 c -0.128,1.936 -0.775,3.681 -1.859,4.998 -1.205,1.472 -2.97,2.377 -4.968,2.377 -0.006,0 -0.014,0 -0.021,0 -1.052,0 -2.035,-0.244 -2.9,-0.691 -1.299,-0.671 -2.319,-1.786 -3,-3.129 -0.683,-1.344 -1.037,-2.921 -1.039,-4.58 0.002,-2.188 0.604,-4.221 1.791,-5.744 0.594,-0.759 1.334,-1.384 2.195,-1.813 0.86,-0.429 1.838,-0.659 2.889,-0.658 0.028,0 0.053,0 0.075,0 1.054,0.01 2.036,0.271 2.894,0.735 0.731,0.394 1.365,0.933 1.901,1.569 -0.069,-1.605 -0.325,-3.525 -1.059,-4.932 -0.382,-0.739 -0.872,-1.338 -1.537,-1.771 -0.668,-0.431 -1.536,-0.716 -2.753,-0.718 -0.886,10e-4 -1.581,0.208 -2.156,0.512 -0.861,0.453 -1.464,1.152 -1.85,1.751 -0.192,0.298 -0.329,0.566 -0.413,0.752 -0.043,0.093 -0.072,0.166 -0.09,0.211 -0.01,0.022 -0.014,0.038 -0.017,0.045 l -0.026,-0.01 -2.036,-0.793 c 0.034,-0.089 0.416,-1.232 1.428,-2.423 0.506,-0.594 1.177,-1.198 2.037,-1.653 0.86,-0.456 1.909,-0.756 3.123,-0.754 0.005,0 0.009,0 0.014,0 1.534,0 2.832,0.381 3.869,1.056 0.781,0.505 1.404,1.167 1.887,1.898 0.722,1.097 1.139,2.34 1.395,3.549 0.255,1.211 0.348,2.397 0.385,3.408 0.026,0.707 0.035,1.394 0.035,2.043 0,2.383 -0.166,4.431 -0.194,4.765 z m -3.439,-5.158 c -0.414,-0.553 -0.904,-0.99 -1.469,-1.295 -0.566,-0.305 -1.209,-0.481 -1.951,-0.49 -0.021,0 -0.039,0 -0.053,0 -0.762,0 -1.417,0.162 -1.982,0.444 -0.848,0.423 -1.517,1.122 -1.997,2.06 -0.476,0.936 -0.75,2.109 -0.748,3.414 -0.002,1.744 0.503,3.299 1.338,4.377 0.418,0.541 0.915,0.967 1.487,1.263 0.572,0.295 1.22,0.462 1.966,0.463 1.417,-0.006 2.543,-0.595 3.379,-1.6 0.83,-1.006 1.348,-2.462 1.349,-4.194 0.002,-1.75 -0.495,-3.337 -1.319,-4.442"
         style="fill:#000000;fill-opacity:1;fill-rule:nonzero;stroke:none;stroke-width:0.1"
         id="path43304"
         inkscape:connector-curvature="0" />
      <path
         d="m 769.593,288.505 c 0.128,-1.935 0.774,-3.681 1.858,-4.997 1.205,-1.473 2.971,-2.378 4.969,-2.378 0.006,0 0.014,0 0.021,0 1.051,0 2.035,0.244 2.9,0.691 1.299,0.671 2.318,1.786 3,3.129 0.682,1.345 1.037,2.921 1.039,4.58 -0.002,2.189 -0.605,4.222 -1.791,5.745 -0.594,0.758 -1.334,1.383 -2.195,1.812 -0.861,0.43 -1.838,0.659 -2.889,0.658 -0.028,0 -0.054,0 -0.075,0 -1.055,-0.009 -2.036,-0.27 -2.895,-0.734 -0.73,-0.395 -1.364,-0.934 -1.9,-1.57 0.068,1.605 0.324,3.525 1.058,4.932 0.382,0.74 0.873,1.339 1.537,1.772 0.668,0.43 1.537,0.716 2.754,0.718 0.885,-0.002 1.58,-0.209 2.156,-0.512 0.86,-0.453 1.464,-1.153 1.849,-1.751 0.193,-0.298 0.329,-0.567 0.413,-0.753 0.043,-0.092 0.073,-0.165 0.09,-0.211 0.01,-0.022 0.015,-0.037 0.018,-0.045 l 0.025,0.011 2.036,0.793 c -0.033,0.089 -0.416,1.232 -1.427,2.423 -0.506,0.593 -1.177,1.197 -2.037,1.653 -0.86,0.456 -1.91,0.755 -3.123,0.754 -0.005,0 -0.009,0 -0.014,0 -1.534,0 -2.832,-0.382 -3.869,-1.056 -0.781,-0.506 -1.405,-1.168 -1.887,-1.898 -0.723,-1.098 -1.14,-2.34 -1.396,-3.549 -0.254,-1.211 -0.347,-2.397 -0.384,-3.408 -0.027,-0.707 -0.036,-1.395 -0.036,-2.043 0,-2.383 0.166,-4.431 0.195,-4.766 z m 3.438,5.158 c 0.414,0.554 0.905,0.991 1.47,1.296 0.565,0.304 1.208,0.48 1.95,0.489 0.022,0 0.039,0 0.054,0 0.762,0 1.417,-0.162 1.981,-0.443 0.849,-0.424 1.518,-1.123 1.998,-2.06 0.476,-0.936 0.75,-2.11 0.748,-3.415 0.002,-1.744 -0.503,-3.298 -1.338,-4.376 -0.418,-0.541 -0.915,-0.968 -1.488,-1.263 -0.572,-0.295 -1.219,-0.462 -1.965,-0.463 -1.418,0.006 -2.543,0.595 -3.379,1.599 -0.83,1.006 -1.348,2.462 -1.349,4.195 -0.002,1.75 0.494,3.337 1.318,4.441"
         style="fill:#000000;fill-opacity:1;fill-rule:nonzero;stroke:none;stroke-width:0.1"
         id="path43306"
         inkscape:connector-curvature="0" />
    </g>
  </g>
</svg>
