<?xml version="1.0" encoding="UTF-8" standalone="no"?>
<!-- Created with Inkscape (http://www.inkscape.org/) -->

<svg
   xmlns:dc="http://purl.org/dc/elements/1.1/"
   xmlns:cc="http://creativecommons.org/ns#"
   xmlns:rdf="http://www.w3.org/1999/02/22-rdf-syntax-ns#"
   xmlns:svg="http://www.w3.org/2000/svg"
   xmlns="http://www.w3.org/2000/svg"
   xmlns:sodipodi="http://sodipodi.sourceforge.net/DTD/sodipodi-0.dtd"
   xmlns:inkscape="http://www.inkscape.org/namespaces/inkscape"
   width="63.353001mm"
   height="88.352997mm"
   viewBox="0 0 63.353001 88.352997"
   version="1.1"
   id="svg22813"
   inkscape:version="0.92.2 2405546, 2018-03-11"
   sodipodi:docname="9d.svg">
  <defs
     id="defs22807" />
  <sodipodi:namedview
     id="base"
     pagecolor="#ffffff"
     bordercolor="#666666"
     borderopacity="1.0"
     inkscape:pageopacity="0.0"
     inkscape:pageshadow="2"
     inkscape:zoom="1.4"
     inkscape:cx="81.334592"
     inkscape:cy="124.23278"
     inkscape:document-units="mm"
     inkscape:current-layer="layer1"
     showgrid="false"
     inkscape:window-width="960"
     inkscape:window-height="992"
     inkscape:window-x="960"
     inkscape:window-y="27"
     inkscape:window-maximized="0" />
  <metadata
     id="metadata22810">
    <rdf:RDF>
      <cc:Work
         rdf:about="">
        <dc:format>image/svg+xml</dc:format>
        <dc:type
           rdf:resource="http://purl.org/dc/dcmitype/StillImage" />
        <dc:title></dc:title>
      </cc:Work>
    </rdf:RDF>
  </metadata>
  <g
     inkscape:label="Layer 1"
     inkscape:groupmode="layer"
     id="layer1"
     transform="translate(0,-208.647)">
    <g
       transform="matrix(0.35277777,0,0,-0.35277777,-215.25018,391.53562)"
       id="g21878">
      <path
         d="m 789.241,282.648 c 0,-7.828 -6.346,-14.173 -14.174,-14.173 H 624.83 c -7.826,0 -14.172,6.345 -14.172,14.173 v 221.099 c 0,7.828 6.346,14.173 14.172,14.173 h 150.237 c 7.828,0 14.174,-6.345 14.174,-14.173 V 282.648"
         style="fill:#f7f7f5;fill-opacity:1;fill-rule:nonzero;stroke:none;stroke-width:0.1"
         id="path9164"
         inkscape:connector-curvature="0" />
      <path
         d="m 789.241,282.648 c 0,-7.828 -6.346,-14.173 -14.174,-14.173 H 624.83 c -7.826,0 -14.172,6.345 -14.172,14.173 v 221.099 c 0,7.828 6.346,14.173 14.172,14.173 h 150.237 c 7.828,0 14.174,-6.345 14.174,-14.173 z"
         style="fill:none;stroke:#231f20;stroke-width:1;stroke-linecap:butt;stroke-linejoin:miter;stroke-miterlimit:4;stroke-dasharray:none;stroke-opacity:1"
         id="path9166"
         inkscape:connector-curvature="0" />
      <path
         d="m 623.425,475.4 c 1.787,-3.47 4.146,-6.308 7.075,-8.512 -2.929,-2.207 -5.288,-5.038 -7.075,-8.495 -1.802,3.457 -4.167,6.288 -7.097,8.495 2.93,2.204 5.295,5.042 7.097,8.512 v 0"
         style="fill:#e52c3f;fill-opacity:1;fill-rule:nonzero;stroke:none;stroke-width:0.1"
         id="path9168"
         inkscape:connector-curvature="0" />
      <path
         d="m 776.495,328.003 c 1.787,-3.47 4.146,-6.308 7.076,-8.513 -2.93,-2.206 -5.289,-5.038 -7.076,-8.495 -1.803,3.457 -4.168,6.289 -7.098,8.495 2.93,2.205 5.295,5.043 7.098,8.513 v 0"
         style="fill:#e52c3f;fill-opacity:1;fill-rule:nonzero;stroke:none;stroke-width:0.1"
         id="path9170"
         inkscape:connector-curvature="0" />
      <path
         d="m 656.746,492.408 c 4.47,-8.675 10.366,-15.77 17.692,-21.283 -7.326,-5.517 -13.222,-12.595 -17.692,-21.237 -4.503,8.642 -10.417,15.72 -17.742,21.237 7.325,5.513 13.239,12.608 17.742,21.283 v 0"
         style="fill:#e52c3f;fill-opacity:1;fill-rule:nonzero;stroke:none;stroke-width:0.1"
         id="path9172"
         inkscape:connector-curvature="0" />
      <path
         d="m 656.746,440.44 c 4.468,-8.676 10.365,-15.77 17.692,-21.285 -7.327,-5.516 -13.224,-12.595 -17.692,-21.232 -4.503,8.637 -10.417,15.716 -17.742,21.232 7.325,5.515 13.239,12.609 17.742,21.285 v 0"
         style="fill:#e52c3f;fill-opacity:1;fill-rule:nonzero;stroke:none;stroke-width:0.1"
         id="path9174"
         inkscape:connector-curvature="0" />
      <path
         d="m 656.746,388.475 c 4.47,-8.674 10.365,-15.77 17.692,-21.282 -7.327,-5.517 -13.222,-12.597 -17.692,-21.238 -4.503,8.641 -10.417,15.721 -17.742,21.238 7.325,5.512 13.239,12.608 17.742,21.282 v 0"
         style="fill:#e52c3f;fill-opacity:1;fill-rule:nonzero;stroke:none;stroke-width:0.1"
         id="path9176"
         inkscape:connector-curvature="0" />
      <path
         d="m 656.746,336.507 c 4.47,-8.674 10.366,-15.769 17.692,-21.282 -7.326,-5.518 -13.222,-12.597 -17.692,-21.237 -4.503,8.64 -10.417,15.719 -17.742,21.237 7.325,5.513 13.239,12.608 17.742,21.282 v 0"
         style="fill:#e52c3f;fill-opacity:1;fill-rule:nonzero;stroke:none;stroke-width:0.1"
         id="path9178"
         inkscape:connector-curvature="0" />
      <path
         d="m 743.202,492.409 c 4.468,-8.675 10.365,-15.77 17.691,-21.284 -7.326,-5.516 -13.223,-12.594 -17.691,-21.236 -4.502,8.642 -10.416,15.72 -17.74,21.236 7.324,5.514 13.238,12.609 17.74,21.284 v 0"
         style="fill:#e52c3f;fill-opacity:1;fill-rule:nonzero;stroke:none;stroke-width:0.1"
         id="path9180"
         inkscape:connector-curvature="0" />
      <path
         d="m 743.202,440.44 c 4.468,-8.674 10.365,-15.77 17.691,-21.284 -7.326,-5.516 -13.223,-12.595 -17.691,-21.232 -4.502,8.637 -10.418,15.716 -17.74,21.232 7.322,5.514 13.238,12.61 17.74,21.284 v 0"
         style="fill:#e52c3f;fill-opacity:1;fill-rule:nonzero;stroke:none;stroke-width:0.1"
         id="path9182"
         inkscape:connector-curvature="0" />
      <path
         d="m 743.202,388.476 c 4.468,-8.675 10.365,-15.77 17.691,-21.283 -7.326,-5.517 -13.223,-12.596 -17.691,-21.238 -4.502,8.642 -10.416,15.721 -17.74,21.238 7.324,5.513 13.238,12.608 17.74,21.283 v 0"
         style="fill:#e52c3f;fill-opacity:1;fill-rule:nonzero;stroke:none;stroke-width:0.1"
         id="path9184"
         inkscape:connector-curvature="0" />
      <path
         d="m 743.202,336.507 c 4.468,-8.674 10.365,-15.769 17.691,-21.282 -7.326,-5.518 -13.223,-12.597 -17.691,-21.237 -4.502,8.64 -10.416,15.719 -17.74,21.237 7.324,5.513 13.238,12.608 17.74,21.282 v 0"
         style="fill:#e52c3f;fill-opacity:1;fill-rule:nonzero;stroke:none;stroke-width:0.1"
         id="path9186"
         inkscape:connector-curvature="0" />
      <path
         d="m 699.973,414.456 c 4.471,-8.684 10.365,-15.784 17.691,-21.292 -7.326,-5.512 -13.22,-12.588 -17.691,-21.225 -4.502,8.637 -10.416,15.713 -17.74,21.225 7.324,5.508 13.238,12.608 17.74,21.292 v 0"
         style="fill:#e52c3f;fill-opacity:1;fill-rule:nonzero;stroke:none;stroke-width:0.1"
         id="path9188"
         inkscape:connector-curvature="0" />
      <path
         d="m 630.305,496.373 c -0.126,1.936 -0.775,3.68 -1.857,4.997 -1.205,1.472 -2.973,2.378 -4.971,2.378 -0.006,0 -0.014,0 -0.019,0 -1.053,0 -2.036,-0.244 -2.901,-0.692 -1.299,-0.671 -2.318,-1.785 -3,-3.128 -0.682,-1.345 -1.037,-2.922 -1.039,-4.58 0.002,-2.189 0.605,-4.223 1.791,-5.744 0.594,-0.76 1.334,-1.385 2.195,-1.813 0.862,-0.429 1.838,-0.66 2.889,-0.659 0.027,0 0.055,0 0.074,0 1.055,0.011 2.037,0.271 2.897,0.736 0.73,0.393 1.363,0.932 1.9,1.568 -0.068,-1.604 -0.326,-3.524 -1.059,-4.932 -0.382,-0.739 -0.872,-1.338 -1.539,-1.771 -0.666,-0.431 -1.535,-0.716 -2.752,-0.718 -0.886,0.001 -1.58,0.208 -2.156,0.512 -0.859,0.453 -1.463,1.153 -1.849,1.751 -0.193,0.298 -0.329,0.567 -0.414,0.753 -0.041,0.092 -0.07,0.165 -0.088,0.211 -0.01,0.021 -0.016,0.037 -0.018,0.045 l -0.025,-0.011 -2.037,-0.792 c 0.033,-0.09 0.416,-1.234 1.427,-2.424 0.506,-0.594 1.176,-1.197 2.037,-1.653 0.86,-0.456 1.911,-0.755 3.123,-0.754 0.004,0 0.011,0 0.015,0 1.533,0 2.831,0.382 3.868,1.056 0.782,0.506 1.405,1.168 1.887,1.898 0.723,1.098 1.141,2.34 1.396,3.549 0.254,1.211 0.349,2.397 0.386,3.409 0.025,0.706 0.034,1.394 0.034,2.042 0,2.383 -0.166,4.431 -0.195,4.766 z m -3.439,-5.158 c -0.412,-0.554 -0.903,-0.991 -1.469,-1.297 -0.564,-0.303 -1.207,-0.48 -1.949,-0.489 -0.023,0 -0.041,0 -0.055,0 -0.762,0.001 -1.416,0.163 -1.982,0.444 -0.848,0.424 -1.518,1.123 -1.997,2.06 -0.476,0.936 -0.75,2.11 -0.748,3.415 -0.002,1.743 0.504,3.298 1.338,4.377 0.418,0.541 0.914,0.967 1.487,1.262 0.572,0.295 1.221,0.462 1.967,0.463 1.415,-0.006 2.542,-0.595 3.379,-1.599 0.829,-1.007 1.347,-2.463 1.349,-4.195 0,-1.75 -0.494,-3.337 -1.32,-4.441"
         style="fill:#e52c3f;fill-opacity:1;fill-rule:nonzero;stroke:none;stroke-width:0.1"
         id="path9190"
         inkscape:connector-curvature="0" />
      <path
         d="m 769.592,290.023 c 0.127,-1.935 0.776,-3.68 1.858,-4.996 1.205,-1.473 2.972,-2.379 4.97,-2.379 0.006,0 0.014,0 0.02,0 1.053,0 2.035,0.245 2.901,0.692 1.298,0.671 2.318,1.785 3,3.129 0.681,1.344 1.036,2.92 1.038,4.579 -0.002,2.188 -0.605,4.223 -1.791,5.744 -0.593,0.76 -1.334,1.385 -2.195,1.813 -0.861,0.429 -1.838,0.659 -2.889,0.659 -0.027,0 -0.054,0 -0.074,0 -1.055,-0.01 -2.037,-0.271 -2.896,-0.736 -0.73,-0.393 -1.364,-0.932 -1.901,-1.568 0.069,1.604 0.326,3.524 1.059,4.932 0.383,0.739 0.873,1.338 1.539,1.771 0.666,0.431 1.535,0.716 2.752,0.718 0.887,-10e-4 1.58,-0.209 2.156,-0.512 0.859,-0.453 1.463,-1.153 1.85,-1.751 0.193,-0.298 0.328,-0.567 0.414,-0.753 0.041,-0.092 0.07,-0.165 0.088,-0.211 0.009,-0.021 0.015,-0.037 0.017,-0.045 l 0.026,0.011 2.037,0.792 c -0.033,0.09 -0.416,1.234 -1.428,2.424 -0.506,0.594 -1.176,1.197 -2.037,1.653 -0.86,0.456 -1.91,0.755 -3.123,0.754 -0.004,0 -0.01,0 -0.014,0 -1.533,0 -2.832,-0.382 -3.869,-1.057 -0.781,-0.504 -1.404,-1.166 -1.887,-1.897 -0.722,-1.098 -1.14,-2.34 -1.396,-3.549 -0.254,-1.211 -0.348,-2.397 -0.385,-3.409 -0.025,-0.706 -0.035,-1.393 -0.035,-2.042 0,-2.383 0.166,-4.43 0.195,-4.766 z m 3.44,5.159 c 0.412,0.552 0.902,0.99 1.468,1.295 0.565,0.304 1.208,0.481 1.95,0.49 0.023,0 0.041,0 0.054,0 0.762,0 1.416,-0.162 1.983,-0.444 0.847,-0.423 1.517,-1.123 1.996,-2.06 0.476,-0.936 0.75,-2.109 0.748,-3.415 0.002,-1.743 -0.504,-3.298 -1.338,-4.377 -0.418,-0.541 -0.914,-0.967 -1.486,-1.262 -0.573,-0.295 -1.221,-0.462 -1.967,-0.464 -1.416,0.007 -2.543,0.596 -3.379,1.6 -0.83,1.007 -1.348,2.463 -1.349,4.195 0,1.75 0.493,3.337 1.32,4.442"
         style="fill:#e52c3f;fill-opacity:1;fill-rule:nonzero;stroke:none;stroke-width:0.1"
         id="path9192"
         inkscape:connector-curvature="0" />
    </g>
  </g>
</svg>
