<?xml version="1.0" encoding="UTF-8" standalone="no"?>
<!-- Created with Inkscape (http://www.inkscape.org/) -->

<svg
   xmlns:dc="http://purl.org/dc/elements/1.1/"
   xmlns:cc="http://creativecommons.org/ns#"
   xmlns:rdf="http://www.w3.org/1999/02/22-rdf-syntax-ns#"
   xmlns:svg="http://www.w3.org/2000/svg"
   xmlns="http://www.w3.org/2000/svg"
   xmlns:sodipodi="http://sodipodi.sourceforge.net/DTD/sodipodi-0.dtd"
   xmlns:inkscape="http://www.inkscape.org/namespaces/inkscape"
   width="63.353001mm"
   height="88.352997mm"
   viewBox="0 0 63.353001 88.352997"
   version="1.1"
   id="svg22813"
   inkscape:version="0.92.2 2405546, 2018-03-11"
   sodipodi:docname="9h.svg">
  <defs
     id="defs22807" />
  <sodipodi:namedview
     id="base"
     pagecolor="#ffffff"
     bordercolor="#666666"
     borderopacity="1.0"
     inkscape:pageopacity="0.0"
     inkscape:pageshadow="2"
     inkscape:zoom="1.4"
     inkscape:cx="79.906021"
     inkscape:cy="124.23278"
     inkscape:document-units="mm"
     inkscape:current-layer="layer1"
     showgrid="false"
     inkscape:window-width="1920"
     inkscape:window-height="992"
     inkscape:window-x="0"
     inkscape:window-y="27"
     inkscape:window-maximized="1" />
  <metadata
     id="metadata22810">
    <rdf:RDF>
      <cc:Work
         rdf:about="">
        <dc:format>image/svg+xml</dc:format>
        <dc:type
           rdf:resource="http://purl.org/dc/dcmitype/StillImage" />
        <dc:title></dc:title>
      </cc:Work>
    </rdf:RDF>
  </metadata>
  <g
     inkscape:label="Layer 1"
     inkscape:groupmode="layer"
     id="layer1"
     transform="translate(0,-208.647)">
    <g
       transform="matrix(0.35277777,0,0,-0.35277777,-215.25018,391.16626)"
       id="g43701">
      <path
         d="m 789.241,281.602 c 0,-7.829 -6.346,-14.174 -14.174,-14.174 H 624.83 c -7.826,0 -14.172,6.345 -14.172,14.174 v 221.101 c 0,7.828 6.346,14.174 14.172,14.174 h 150.237 c 7.828,0 14.174,-6.346 14.174,-14.174 V 281.602"
         style="fill:#f7f7f5;fill-opacity:1;fill-rule:nonzero;stroke:none;stroke-width:0.1"
         id="path31372"
         inkscape:connector-curvature="0" />
      <path
         d="m 789.241,281.602 c 0,-7.829 -6.346,-14.174 -14.174,-14.174 H 624.83 c -7.826,0 -14.172,6.345 -14.172,14.174 v 221.101 c 0,7.828 6.346,14.174 14.172,14.174 h 150.237 c 7.828,0 14.174,-6.346 14.174,-14.174 z"
         style="fill:none;stroke:#231f20;stroke-width:1;stroke-linecap:butt;stroke-linejoin:miter;stroke-miterlimit:4;stroke-dasharray:none;stroke-opacity:1"
         id="path31374"
         inkscape:connector-curvature="0" />
      <path
         d="m 627.388,474.257 c -1.247,0.387 -3.186,-0.294 -3.899,-3.121 -0.06,-0.156 -0.121,-0.152 -0.178,0.005 -1.029,2.864 -2.723,3.491 -3.914,3.116 -1.762,-0.569 -3.193,-2.673 -3.06,-5.356 0.033,-4.684 4.224,-7.044 7.056,-11.522 2.831,4.478 7.069,6.831 7.082,11.535 0.244,2.713 -1.274,4.785 -3.087,5.343"
         style="fill:#e52c3f;fill-opacity:1;fill-rule:nonzero;stroke:none;stroke-width:0.1"
         id="path31376"
         inkscape:connector-curvature="0" />
      <path
         d="m 623.413,457.349 c -0.006,0.01 -0.014,0.019 -0.02,0.03 -0.006,-0.011 -0.014,-0.02 -0.02,-0.03 h 0.04"
         style="fill:#e52c3f;fill-opacity:1;fill-rule:nonzero;stroke:none;stroke-width:0.1"
         id="path31378"
         inkscape:connector-curvature="0" />
      <path
         d="m 776.507,326.925 c -2.832,-4.477 -7.071,-6.83 -7.082,-11.534 -0.245,-2.712 1.271,-4.784 3.085,-5.344 1.248,-0.387 3.19,0.296 3.903,3.123 0.058,0.155 0.121,0.151 0.178,-0.005 1.025,-2.866 2.722,-3.491 3.911,-3.118 1.768,0.57 3.196,2.674 3.061,5.357 -0.031,4.685 -4.224,7.044 -7.056,11.521"
         style="fill:#e52c3f;fill-opacity:1;fill-rule:nonzero;stroke:none;stroke-width:0.1"
         id="path31380"
         inkscape:connector-curvature="0" />
      <path
         d="m 776.487,326.956 c 0.007,-0.011 0.013,-0.02 0.02,-0.031 0.007,0.011 0.014,0.02 0.021,0.031 h -0.041"
         style="fill:#e52c3f;fill-opacity:1;fill-rule:nonzero;stroke:none;stroke-width:0.1"
         id="path31382"
         inkscape:connector-curvature="0" />
      <path
         d="m 666.655,493.95 c -3.117,0.968 -7.965,-0.735 -9.746,-7.805 -0.149,-0.387 -0.303,-0.378 -0.443,0.014 -2.571,7.162 -6.805,8.727 -9.784,7.791 -4.41,-1.422 -7.984,-6.681 -7.657,-13.391 0.088,-11.71 10.566,-17.607 17.643,-28.804 7.078,11.197 17.674,17.077 17.703,28.838 0.614,6.78 -3.181,11.96 -7.716,13.357"
         style="fill:#e52c3f;fill-opacity:1;fill-rule:nonzero;stroke:none;stroke-width:0.1"
         id="path31384"
         inkscape:connector-curvature="0" />
      <path
         d="m 656.717,451.68 c -0.015,0.025 -0.033,0.05 -0.049,0.075 -0.015,-0.025 -0.033,-0.05 -0.048,-0.075 h 0.097"
         style="fill:#e52c3f;fill-opacity:1;fill-rule:nonzero;stroke:none;stroke-width:0.1"
         id="path31386"
         inkscape:connector-curvature="0" />
      <path
         d="m 656.717,398.767 c -0.015,0.026 -0.033,0.05 -0.049,0.075 -0.015,-0.025 -0.033,-0.049 -0.048,-0.075 h 0.097"
         style="fill:#e52c3f;fill-opacity:1;fill-rule:nonzero;stroke:none;stroke-width:0.1"
         id="path31388"
         inkscape:connector-curvature="0" />
      <path
         d="m 666.655,441.038 c -3.117,0.967 -7.965,-0.737 -9.746,-7.806 -0.149,-0.387 -0.303,-0.378 -0.445,0.014 -2.569,7.162 -6.803,8.727 -9.782,7.792 -4.41,-1.423 -7.984,-6.682 -7.657,-13.392 0.087,-11.71 10.566,-17.607 17.643,-28.804 7.078,11.197 17.674,17.078 17.703,28.837 0.614,6.782 -3.181,11.962 -7.716,13.359"
         style="fill:#e52c3f;fill-opacity:1;fill-rule:nonzero;stroke:none;stroke-width:0.1"
         id="path31390"
         inkscape:connector-curvature="0" />
      <path
         d="m 656.725,335.461 c 0.016,-0.024 0.031,-0.048 0.047,-0.072 0.016,0.024 0.032,0.048 0.047,0.072 h -0.094"
         style="fill:#e52c3f;fill-opacity:1;fill-rule:nonzero;stroke:none;stroke-width:0.1"
         id="path31392"
         inkscape:connector-curvature="0" />
      <path
         d="m 674.416,306.58 c -0.087,11.713 -10.568,17.609 -17.644,28.809 -7.074,-11.2 -17.674,-17.08 -17.703,-28.842 -0.612,-6.78 3.183,-11.961 7.717,-13.358 3.119,-0.967 7.966,0.737 9.746,7.805 0.147,0.389 0.305,0.379 0.447,-0.014 2.568,-7.162 6.804,-8.726 9.781,-7.791 4.41,1.422 7.985,6.682 7.656,13.391"
         style="fill:#e52c3f;fill-opacity:1;fill-rule:nonzero;stroke:none;stroke-width:0.1"
         id="path31394"
         inkscape:connector-curvature="0" />
      <path
         d="m 656.725,388.373 c 0.016,-0.024 0.031,-0.048 0.047,-0.072 0.016,0.024 0.032,0.048 0.047,0.072 h -0.094"
         style="fill:#e52c3f;fill-opacity:1;fill-rule:nonzero;stroke:none;stroke-width:0.1"
         id="path31396"
         inkscape:connector-curvature="0" />
      <path
         d="m 674.416,359.493 c -0.087,11.713 -10.568,17.61 -17.644,28.808 -7.074,-11.198 -17.674,-17.078 -17.703,-28.841 -0.612,-6.781 3.183,-11.96 7.717,-13.357 3.119,-0.968 7.966,0.736 9.746,7.805 0.147,0.387 0.305,0.378 0.447,-0.013 2.568,-7.165 6.804,-8.729 9.781,-7.792 4.41,1.422 7.985,6.68 7.656,13.39"
         style="fill:#e52c3f;fill-opacity:1;fill-rule:nonzero;stroke:none;stroke-width:0.1"
         id="path31398"
         inkscape:connector-curvature="0" />
      <path
         d="m 743.175,451.68 c -0.016,0.025 -0.034,0.05 -0.05,0.075 -0.015,-0.025 -0.033,-0.05 -0.048,-0.075 h 0.098"
         style="fill:#e52c3f;fill-opacity:1;fill-rule:nonzero;stroke:none;stroke-width:0.1"
         id="path31400"
         inkscape:connector-curvature="0" />
      <path
         d="m 753.112,493.951 c -3.117,0.967 -7.965,-0.737 -9.746,-7.806 -0.145,-0.387 -0.303,-0.378 -0.448,0.014 -2.566,7.162 -6.804,8.727 -9.779,7.792 -4.412,-1.423 -7.986,-6.682 -7.658,-13.392 0.092,-11.71 10.566,-17.607 17.644,-28.804 7.079,11.197 17.67,17.077 17.704,28.837 0.611,6.781 -3.182,11.961 -7.717,13.359"
         style="fill:#e52c3f;fill-opacity:1;fill-rule:nonzero;stroke:none;stroke-width:0.1"
         id="path31402"
         inkscape:connector-curvature="0" />
      <path
         d="m 743.175,398.766 c -0.016,0.025 -0.034,0.05 -0.05,0.075 -0.015,-0.025 -0.033,-0.05 -0.048,-0.075 h 0.098"
         style="fill:#e52c3f;fill-opacity:1;fill-rule:nonzero;stroke:none;stroke-width:0.1"
         id="path31404"
         inkscape:connector-curvature="0" />
      <path
         d="m 753.112,441.038 c -3.117,0.967 -7.965,-0.737 -9.746,-7.807 -0.145,-0.386 -0.303,-0.377 -0.448,0.015 -2.566,7.162 -6.804,8.726 -9.779,7.792 -4.412,-1.423 -7.986,-6.682 -7.658,-13.392 0.092,-11.71 10.566,-17.608 17.644,-28.805 7.079,11.197 17.67,17.078 17.704,28.838 0.611,6.78 -3.182,11.961 -7.717,13.359"
         style="fill:#e52c3f;fill-opacity:1;fill-rule:nonzero;stroke:none;stroke-width:0.1"
         id="path31406"
         inkscape:connector-curvature="0" />
      <path
         d="m 743.18,335.461 c 0.016,-0.025 0.033,-0.05 0.049,-0.075 0.016,0.025 0.033,0.05 0.049,0.075 h -0.098"
         style="fill:#e52c3f;fill-opacity:1;fill-rule:nonzero;stroke:none;stroke-width:0.1"
         id="path31408"
         inkscape:connector-curvature="0" />
      <path
         d="m 760.873,306.58 c -0.091,11.711 -10.566,17.608 -17.644,28.806 -7.076,-11.198 -17.675,-17.078 -17.703,-28.839 -0.615,-6.781 3.182,-11.96 7.719,-13.358 3.115,-0.968 7.963,0.737 9.746,7.805 0.144,0.389 0.3,0.379 0.439,-0.014 2.572,-7.162 6.805,-8.727 9.786,-7.791 4.407,1.422 7.98,6.682 7.657,13.391"
         style="fill:#e52c3f;fill-opacity:1;fill-rule:nonzero;stroke:none;stroke-width:0.1"
         id="path31410"
         inkscape:connector-curvature="0" />
      <path
         d="m 760.873,359.493 c -0.091,11.711 -10.566,17.608 -17.644,28.805 -7.076,-11.197 -17.675,-17.077 -17.703,-28.838 -0.615,-6.781 3.182,-11.96 7.719,-13.357 3.115,-0.968 7.963,0.736 9.746,7.804 0.144,0.388 0.3,0.379 0.439,-0.012 2.572,-7.165 6.805,-8.729 9.786,-7.792 4.407,1.422 7.98,6.68 7.657,13.39"
         style="fill:#e52c3f;fill-opacity:1;fill-rule:nonzero;stroke:none;stroke-width:0.1"
         id="path31412"
         inkscape:connector-curvature="0" />
      <path
         d="m 743.18,388.373 c 0.016,-0.025 0.033,-0.05 0.049,-0.075 0.016,0.025 0.033,0.05 0.049,0.075 h -0.098"
         style="fill:#e52c3f;fill-opacity:1;fill-rule:nonzero;stroke:none;stroke-width:0.1"
         id="path31414"
         inkscape:connector-curvature="0" />
      <path
         d="m 699.94,370.893 c -0.015,0.024 -0.031,0.048 -0.047,0.072 -0.016,-0.024 -0.031,-0.048 -0.047,-0.072 h 0.094"
         style="fill:#e52c3f;fill-opacity:1;fill-rule:nonzero;stroke:none;stroke-width:0.1"
         id="path31416"
         inkscape:connector-curvature="0" />
      <path
         d="m 709.883,413.164 c -3.117,0.968 -7.969,-0.736 -9.748,-7.806 -0.15,-0.386 -0.305,-0.378 -0.447,0.015 -2.568,7.162 -6.803,8.726 -9.779,7.791 -4.411,-1.423 -7.984,-6.681 -7.655,-13.391 0.088,-11.712 10.568,-17.61 17.639,-28.808 7.08,11.198 17.676,17.078 17.707,28.841 0.609,6.782 -3.186,11.961 -7.717,13.358"
         style="fill:#e52c3f;fill-opacity:1;fill-rule:nonzero;stroke:none;stroke-width:0.1"
         id="path31418"
         inkscape:connector-curvature="0" />
      <path
         d="m 630.305,495.329 c -0.126,1.936 -0.775,3.68 -1.857,4.997 -1.205,1.472 -2.973,2.378 -4.971,2.378 -0.006,0 -0.014,0 -0.019,0 -1.053,0 -2.036,-0.245 -2.901,-0.692 -1.299,-0.671 -2.318,-1.785 -3,-3.128 -0.682,-1.345 -1.037,-2.921 -1.039,-4.58 0.002,-2.189 0.605,-4.222 1.791,-5.744 0.594,-0.76 1.334,-1.385 2.195,-1.814 0.862,-0.428 1.838,-0.658 2.889,-0.658 0.027,0 0.055,0 0.074,0 1.055,0.011 2.037,0.271 2.897,0.736 0.73,0.393 1.363,0.932 1.9,1.568 -0.068,-1.604 -0.326,-3.524 -1.059,-4.931 -0.382,-0.74 -0.872,-1.338 -1.539,-1.772 -0.666,-0.431 -1.535,-0.716 -2.752,-0.718 -0.886,10e-4 -1.58,0.209 -2.156,0.512 -0.859,0.454 -1.463,1.153 -1.849,1.751 -0.193,0.298 -0.329,0.567 -0.414,0.753 -0.041,0.093 -0.07,0.165 -0.088,0.211 -0.01,0.022 -0.016,0.037 -0.018,0.045 l -0.025,-0.011 -2.037,-0.793 c 0.033,-0.089 0.416,-1.232 1.427,-2.423 0.506,-0.594 1.176,-1.197 2.037,-1.653 0.86,-0.456 1.911,-0.755 3.123,-0.754 0.004,0 0.011,0 0.015,0 1.533,0 2.831,0.382 3.868,1.057 0.782,0.505 1.405,1.166 1.887,1.897 0.723,1.098 1.141,2.34 1.396,3.55 0.254,1.21 0.349,2.396 0.386,3.408 0.025,0.707 0.034,1.393 0.034,2.042 0,2.383 -0.166,4.431 -0.195,4.766 z m -3.439,-5.158 c -0.412,-0.554 -0.903,-0.991 -1.469,-1.296 -0.564,-0.304 -1.207,-0.481 -1.949,-0.49 -0.023,0 -0.041,0 -0.055,0 -0.762,0.001 -1.416,0.163 -1.982,0.445 -0.848,0.423 -1.518,1.122 -1.997,2.059 -0.476,0.936 -0.75,2.11 -0.748,3.415 -0.002,1.743 0.504,3.298 1.338,4.377 0.418,0.541 0.914,0.967 1.487,1.262 0.572,0.295 1.221,0.462 1.967,0.463 1.415,-0.006 2.542,-0.595 3.379,-1.599 0.829,-1.007 1.347,-2.462 1.349,-4.195 0,-1.75 -0.494,-3.337 -1.32,-4.441"
         style="fill:#e52c3f;fill-opacity:1;fill-rule:nonzero;stroke:none;stroke-width:0.1"
         id="path31420"
         inkscape:connector-curvature="0" />
      <path
         d="m 769.592,288.977 c 0.127,-1.936 0.774,-3.681 1.858,-4.997 1.205,-1.473 2.97,-2.378 4.968,-2.378 0.007,0 0.014,0 0.022,0 1.051,0 2.035,0.244 2.901,0.691 1.298,0.671 2.318,1.785 3,3.129 0.681,1.344 1.036,2.921 1.038,4.579 -0.002,2.188 -0.605,4.223 -1.791,5.744 -0.593,0.76 -1.334,1.385 -2.195,1.814 -0.861,0.429 -1.838,0.659 -2.889,0.658 -0.029,0 -0.054,0 -0.075,0 -1.056,-0.01 -2.036,-0.271 -2.895,-0.735 -0.73,-0.394 -1.364,-0.933 -1.901,-1.569 0.069,1.605 0.325,3.525 1.059,4.932 0.383,0.739 0.873,1.338 1.537,1.771 0.668,0.431 1.537,0.716 2.754,0.718 0.885,-10e-4 1.58,-0.209 2.156,-0.512 0.859,-0.453 1.463,-1.153 1.85,-1.751 0.191,-0.298 0.328,-0.567 0.412,-0.753 0.043,-0.092 0.072,-0.164 0.09,-0.211 0.009,-0.021 0.015,-0.037 0.017,-0.044 l 0.026,0.01 2.037,0.792 c -0.033,0.09 -0.416,1.234 -1.428,2.424 -0.506,0.594 -1.177,1.197 -2.037,1.654 -0.86,0.455 -1.91,0.754 -3.123,0.753 -0.006,0 -0.01,0 -0.014,0 -1.535,0 -2.832,-0.382 -3.869,-1.056 -0.781,-0.505 -1.404,-1.167 -1.887,-1.898 -0.722,-1.097 -1.14,-2.34 -1.396,-3.549 -0.254,-1.211 -0.348,-2.397 -0.385,-3.409 -0.025,-0.706 -0.035,-1.393 -0.035,-2.042 0,-2.383 0.166,-4.43 0.195,-4.765 z m 3.438,5.158 c 0.414,0.553 0.904,0.99 1.47,1.296 0.565,0.303 1.208,0.48 1.95,0.489 0.021,0 0.039,0 0.054,0 0.762,0 1.416,-0.162 1.981,-0.444 0.849,-0.423 1.517,-1.122 1.998,-2.06 0.476,-0.936 0.75,-2.109 0.748,-3.415 0.002,-1.743 -0.504,-3.298 -1.338,-4.377 -0.418,-0.541 -0.916,-0.967 -1.488,-1.261 -0.572,-0.295 -1.219,-0.463 -1.965,-0.465 -1.418,0.007 -2.543,0.596 -3.379,1.6 -0.83,1.007 -1.348,2.463 -1.349,4.195 -0.003,1.75 0.493,3.337 1.318,4.442"
         style="fill:#e52c3f;fill-opacity:1;fill-rule:nonzero;stroke:none;stroke-width:0.1"
         id="path31422"
         inkscape:connector-curvature="0" />
    </g>
  </g>
</svg>
