<?xml version="1.0" encoding="UTF-8" standalone="no"?>
<!-- Created with Inkscape (http://www.inkscape.org/) -->

<svg
   xmlns:dc="http://purl.org/dc/elements/1.1/"
   xmlns:cc="http://creativecommons.org/ns#"
   xmlns:rdf="http://www.w3.org/1999/02/22-rdf-syntax-ns#"
   xmlns:svg="http://www.w3.org/2000/svg"
   xmlns="http://www.w3.org/2000/svg"
   xmlns:sodipodi="http://sodipodi.sourceforge.net/DTD/sodipodi-0.dtd"
   xmlns:inkscape="http://www.inkscape.org/namespaces/inkscape"
   width="63.353001mm"
   height="88.352997mm"
   viewBox="0 0 63.353001 88.352997"
   version="1.1"
   id="svg22813"
   inkscape:version="0.92.2 2405546, 2018-03-11"
   sodipodi:docname="9s.svg">
  <defs
     id="defs22807" />
  <sodipodi:namedview
     id="base"
     pagecolor="#ffffff"
     bordercolor="#666666"
     borderopacity="1.0"
     inkscape:pageopacity="0.0"
     inkscape:pageshadow="2"
     inkscape:zoom="1.4"
     inkscape:cx="79.906021"
     inkscape:cy="67.089921"
     inkscape:document-units="mm"
     inkscape:current-layer="layer1"
     showgrid="false"
     inkscape:window-width="1920"
     inkscape:window-height="992"
     inkscape:window-x="0"
     inkscape:window-y="27"
     inkscape:window-maximized="1" />
  <metadata
     id="metadata22810">
    <rdf:RDF>
      <cc:Work
         rdf:about="">
        <dc:format>image/svg+xml</dc:format>
        <dc:type
           rdf:resource="http://purl.org/dc/dcmitype/StillImage" />
        <dc:title></dc:title>
      </cc:Work>
    </rdf:RDF>
  </metadata>
  <g
     inkscape:label="Layer 1"
     inkscape:groupmode="layer"
     id="layer1"
     transform="translate(0,-208.647)">
    <g
       transform="matrix(0.35277777,0,0,-0.35277777,-215.25018,391.00081)"
       id="g23105">
      <path
         inkscape:connector-curvature="0"
         id="path4253"
         style="fill:#f7f7f5;fill-opacity:1;fill-rule:nonzero;stroke:none;stroke-width:0.1"
         d="m 789.242,281.132 c 0,-7.827 -6.346,-14.173 -14.174,-14.173 H 624.832 c -7.828,0 -14.174,6.346 -14.174,14.173 V 502.23 c 0,7.828 6.346,14.174 14.174,14.174 h 150.236 c 7.828,0 14.174,-6.346 14.174,-14.174 V 281.132" />
      <path
         inkscape:connector-curvature="0"
         id="path4255"
         style="fill:none;stroke:#231f20;stroke-width:1;stroke-linecap:butt;stroke-linejoin:miter;stroke-miterlimit:4;stroke-dasharray:none;stroke-opacity:1"
         d="m 789.242,281.132 c 0,-7.827 -6.346,-14.173 -14.174,-14.173 H 624.832 c -7.828,0 -14.174,6.346 -14.174,14.173 V 502.23 c 0,7.828 6.346,14.174 14.174,14.174 h 150.236 c 7.828,0 14.174,-6.346 14.174,-14.174 z" />
      <path
         inkscape:connector-curvature="0"
         id="path4257"
         style="fill:#000000;fill-opacity:1;fill-rule:nonzero;stroke:none;stroke-width:0.1"
         d="m 630.305,494.855 c -0.126,1.935 -0.774,3.68 -1.857,4.997 -1.205,1.472 -2.972,2.378 -4.97,2.378 -0.006,0 -0.014,0 -0.019,0 -1.053,0 -2.036,-0.244 -2.902,-0.692 -1.299,-0.671 -2.318,-1.785 -2.999,-3.129 -0.683,-1.345 -1.038,-2.921 -1.039,-4.579 10e-4,-2.189 0.604,-4.223 1.791,-5.744 0.593,-0.76 1.334,-1.385 2.194,-1.813 0.862,-0.429 1.839,-0.66 2.889,-0.659 0.028,0 0.055,0 0.075,0 1.055,0.01 2.037,0.271 2.896,0.736 0.73,0.393 1.363,0.932 1.9,1.568 -0.068,-1.604 -0.325,-3.524 -1.059,-4.932 -0.382,-0.739 -0.871,-1.338 -1.537,-1.771 -0.668,-0.431 -1.536,-0.716 -2.752,-0.718 -0.887,10e-4 -1.582,0.208 -2.158,0.512 -0.859,0.453 -1.463,1.153 -1.849,1.751 -0.193,0.298 -0.329,0.566 -0.413,0.753 -0.042,0.092 -0.071,0.165 -0.089,0.211 -0.01,0.021 -0.016,0.037 -0.018,0.045 l -0.025,-0.011 -2.036,-0.793 c 0.032,-0.089 0.416,-1.233 1.427,-2.423 0.506,-0.594 1.176,-1.197 2.036,-1.653 0.861,-0.456 1.911,-0.755 3.125,-0.754 0.004,0 0.009,0 0.013,0 1.534,0 2.832,0.382 3.869,1.056 0.781,0.505 1.404,1.168 1.886,1.898 0.723,1.098 1.141,2.34 1.396,3.549 0.256,1.211 0.349,2.397 0.386,3.409 0.025,0.706 0.034,1.394 0.034,2.042 0,2.383 -0.166,4.431 -0.195,4.766 z m -3.438,-5.159 c -0.413,-0.553 -0.904,-0.99 -1.469,-1.296 -0.565,-0.303 -1.208,-0.48 -1.95,-0.489 -0.023,0 -0.04,0 -0.055,0 -0.762,0 -1.416,0.162 -1.981,0.444 -0.849,0.424 -1.518,1.123 -1.998,2.06 -0.476,0.936 -0.748,2.11 -0.748,3.415 0,1.743 0.504,3.298 1.339,4.377 0.417,0.541 0.915,0.967 1.487,1.262 0.572,0.295 1.221,0.462 1.967,0.463 1.416,-0.006 2.543,-0.595 3.379,-1.6 0.828,-1.006 1.347,-2.462 1.348,-4.194 10e-4,-1.75 -0.494,-3.337 -1.319,-4.442" />
      <path
         inkscape:connector-curvature="0"
         id="path4259"
         style="fill:#000000;fill-opacity:1;fill-rule:nonzero;stroke:none;stroke-width:0.1"
         d="m 769.593,288.507 c 0.127,-1.936 0.776,-3.681 1.858,-4.997 1.205,-1.473 2.972,-2.378 4.97,-2.378 0.006,0 0.014,0 0.02,0 1.053,0 2.035,0.244 2.9,0.691 1.299,0.671 2.319,1.786 3,3.129 0.682,1.345 1.038,2.921 1.039,4.58 -10e-4,2.189 -0.605,4.222 -1.791,5.745 -0.593,0.758 -1.334,1.383 -2.195,1.812 -0.861,0.43 -1.838,0.659 -2.889,0.658 -0.027,0 -0.054,0 -0.074,0 -1.054,-0.009 -2.037,-0.27 -2.896,-0.734 -0.731,-0.395 -1.364,-0.934 -1.901,-1.57 0.069,1.605 0.327,3.525 1.059,4.932 0.383,0.739 0.873,1.339 1.539,1.771 0.666,0.431 1.535,0.717 2.752,0.718 0.887,-10e-4 1.58,-0.208 2.156,-0.511 0.86,-0.453 1.463,-1.153 1.85,-1.751 0.193,-0.298 0.328,-0.567 0.414,-0.753 0.041,-0.092 0.07,-0.165 0.088,-0.211 0.01,-0.022 0.015,-0.037 0.017,-0.045 l 0.026,0.011 2.037,0.792 c -0.033,0.09 -0.416,1.233 -1.428,2.424 -0.506,0.593 -1.176,1.197 -2.037,1.653 -0.859,0.456 -1.91,0.755 -3.123,0.754 -0.004,0 -0.01,0 -0.014,0 -1.533,0 -2.832,-0.382 -3.869,-1.056 -0.781,-0.506 -1.404,-1.168 -1.887,-1.898 -0.722,-1.098 -1.14,-2.34 -1.396,-3.549 -0.254,-1.211 -0.348,-2.397 -0.385,-3.408 -0.025,-0.707 -0.035,-1.395 -0.035,-2.043 0,-2.383 0.166,-4.431 0.195,-4.766 z m 3.44,5.158 c 0.412,0.554 0.902,0.99 1.469,1.296 0.564,0.304 1.207,0.48 1.949,0.489 0.023,0 0.041,0 0.054,0 0.762,0 1.416,-0.162 1.983,-0.443 0.848,-0.424 1.517,-1.123 1.996,-2.061 0.477,-0.935 0.75,-2.109 0.748,-3.414 0.002,-1.744 -0.504,-3.298 -1.338,-4.377 -0.418,-0.541 -0.914,-0.966 -1.486,-1.262 -0.572,-0.295 -1.221,-0.462 -1.967,-0.463 -1.416,0.006 -2.543,0.595 -3.379,1.599 -0.83,1.006 -1.348,2.462 -1.349,4.195 0,1.75 0.494,3.337 1.32,4.441" />
      <path
         inkscape:connector-curvature="0"
         id="path4261"
         style="fill:#231f20;fill-opacity:1;fill-rule:evenodd;stroke:none;stroke-width:0.1"
         d="m 623.405,473.884 c -0.041,-0.027 -0.071,-0.041 -0.117,-0.072 -3.038,-1.94 -6.583,-5.725 -6.947,-10.442 -0.173,-2.244 1.263,-3.798 3.118,-3.832 1.184,-0.021 2.137,0.4 2.653,1.203 0.429,0.668 0.538,1.7 0.607,1.223 0.25,-1.816 -0.51,-3.562 -0.922,-5.088 0.459,0.167 1.036,0.251 1.614,0.253 h 0.009 c 0.578,-0.002 1.153,-0.086 1.611,-0.253 -0.411,1.526 -1.17,3.272 -0.921,5.088 0.069,0.477 0.179,-0.555 0.606,-1.223 0.516,-0.803 1.469,-1.224 2.653,-1.203 1.855,0.034 3.291,1.588 3.118,3.832 -0.364,4.717 -3.908,8.502 -6.944,10.442 -0.033,0.024 -0.062,0.04 -0.11,0.072 h -0.028" />
      <path
         inkscape:connector-curvature="0"
         id="path4263"
         style="fill:none;stroke:#231f20;stroke-width:0.065018;stroke-linecap:butt;stroke-linejoin:round;stroke-miterlimit:4;stroke-dasharray:none;stroke-opacity:1"
         d="m 623.405,473.884 c -0.041,-0.027 -0.071,-0.041 -0.117,-0.072 -3.038,-1.94 -6.583,-5.725 -6.947,-10.442 -0.173,-2.244 1.263,-3.798 3.118,-3.832 1.184,-0.021 2.137,0.4 2.653,1.203 0.429,0.668 0.538,1.7 0.607,1.223 0.25,-1.816 -0.51,-3.562 -0.922,-5.088 0.459,0.167 1.036,0.251 1.614,0.253 h 0.009 c 0.578,-0.002 1.153,-0.086 1.611,-0.253 -0.411,1.526 -1.17,3.272 -0.921,5.088 0.069,0.477 0.179,-0.555 0.606,-1.223 0.516,-0.803 1.469,-1.224 2.653,-1.203 1.855,0.034 3.291,1.588 3.118,3.832 -0.364,4.717 -3.908,8.502 -6.944,10.442 -0.033,0.024 -0.062,0.04 -0.11,0.072 z" />
      <path
         inkscape:connector-curvature="0"
         id="path4265"
         style="fill:#231f20;fill-opacity:1;fill-rule:evenodd;stroke:none;stroke-width:0.1"
         d="m 776.476,309.48 c -0.041,0.026 -0.07,0.041 -0.117,0.072 -3.039,1.939 -6.584,5.723 -6.947,10.441 -0.172,2.245 1.263,3.797 3.119,3.832 1.183,0.022 2.137,-0.4 2.652,-1.203 0.428,-0.669 0.537,-1.699 0.608,-1.222 0.25,1.816 -0.512,3.562 -0.922,5.088 0.459,-0.168 1.035,-0.252 1.613,-0.254 h 0.01 c 0.576,0.002 1.152,0.086 1.609,0.254 -0.41,-1.526 -1.17,-3.272 -0.92,-5.088 0.069,-0.477 0.178,0.553 0.606,1.222 0.515,0.803 1.468,1.225 2.652,1.203 1.856,-0.035 3.291,-1.587 3.119,-3.832 -0.363,-4.718 -3.908,-8.502 -6.943,-10.441 -0.033,-0.025 -0.063,-0.041 -0.111,-0.072 h -0.028" />
      <path
         inkscape:connector-curvature="0"
         id="path4267"
         style="fill:none;stroke:#231f20;stroke-width:0.065018;stroke-linecap:butt;stroke-linejoin:round;stroke-miterlimit:4;stroke-dasharray:none;stroke-opacity:1"
         d="m 776.476,309.48 c -0.041,0.026 -0.07,0.041 -0.117,0.072 -3.039,1.939 -6.584,5.723 -6.947,10.441 -0.172,2.245 1.263,3.797 3.119,3.832 1.183,0.022 2.137,-0.4 2.652,-1.203 0.428,-0.669 0.537,-1.699 0.608,-1.222 0.25,1.816 -0.512,3.562 -0.922,5.088 0.459,-0.168 1.035,-0.252 1.613,-0.254 h 0.01 c 0.576,0.002 1.152,0.086 1.609,0.254 -0.41,-1.526 -1.17,-3.272 -0.92,-5.088 0.069,-0.477 0.178,0.553 0.606,1.222 0.515,0.803 1.468,1.225 2.652,1.203 1.856,-0.035 3.291,-1.587 3.119,-3.832 -0.363,-4.718 -3.908,-8.502 -6.943,-10.441 -0.033,-0.025 -0.063,-0.041 -0.111,-0.072 z" />
      <path
         inkscape:connector-curvature="0"
         id="path4269"
         style="fill:#231f20;fill-opacity:1;fill-rule:evenodd;stroke:none;stroke-width:0.1"
         d="m 656.697,490.891 c -0.102,-0.067 -0.174,-0.103 -0.293,-0.181 -7.595,-4.849 -16.456,-14.31 -17.365,-26.103 -0.431,-5.611 3.156,-9.496 7.795,-9.58 2.961,-0.054 5.341,0.998 6.632,3.007 1.072,1.672 1.345,4.248 1.519,3.058 0.625,-4.542 -1.277,-8.907 -2.306,-12.721 1.147,0.417 2.589,0.627 4.034,0.632 h 0.023 c 1.443,-0.005 2.882,-0.215 4.027,-0.632 -1.027,3.814 -2.925,8.179 -2.302,12.721 0.173,1.19 0.446,-1.386 1.516,-3.058 1.289,-2.009 3.671,-3.061 6.631,-3.007 4.638,0.084 8.226,3.969 7.794,9.58 -0.908,11.793 -9.77,21.254 -17.359,26.103 -0.081,0.063 -0.155,0.1 -0.274,0.181 h -0.072" />
      <path
         inkscape:connector-curvature="0"
         id="path4271"
         style="fill:none;stroke:#231f20;stroke-width:0.16254601;stroke-linecap:butt;stroke-linejoin:round;stroke-miterlimit:4;stroke-dasharray:none;stroke-opacity:1"
         d="m 656.697,490.891 c -0.102,-0.067 -0.174,-0.103 -0.293,-0.181 -7.595,-4.849 -16.456,-14.31 -17.365,-26.103 -0.431,-5.611 3.156,-9.496 7.795,-9.58 2.961,-0.054 5.341,0.998 6.632,3.007 1.072,1.672 1.345,4.248 1.519,3.058 0.625,-4.542 -1.277,-8.907 -2.306,-12.721 1.147,0.417 2.589,0.627 4.034,0.632 h 0.023 c 1.443,-0.005 2.882,-0.215 4.027,-0.632 -1.027,3.814 -2.925,8.179 -2.302,12.721 0.173,1.19 0.446,-1.386 1.516,-3.058 1.289,-2.009 3.671,-3.061 6.631,-3.007 4.638,0.084 8.226,3.969 7.794,9.58 -0.908,11.793 -9.77,21.254 -17.359,26.103 -0.081,0.063 -0.155,0.1 -0.274,0.181 z" />
      <path
         inkscape:connector-curvature="0"
         id="path4273"
         style="fill:#231f20;fill-opacity:1;fill-rule:evenodd;stroke:none;stroke-width:0.1"
         d="m 743.154,490.891 c -0.102,-0.067 -0.174,-0.103 -0.293,-0.181 -7.596,-4.849 -16.457,-14.31 -17.365,-26.103 -0.432,-5.611 3.156,-9.496 7.795,-9.58 2.961,-0.054 5.341,0.998 6.63,3.007 1.073,1.672 1.346,4.248 1.52,3.058 0.625,-4.542 -1.277,-8.907 -2.307,-12.721 1.149,0.417 2.59,0.627 4.036,0.632 h 0.023 c 1.441,-0.005 2.881,-0.215 4.027,-0.632 -1.027,3.814 -2.925,8.179 -2.302,12.721 0.173,1.19 0.445,-1.386 1.515,-3.058 1.289,-2.009 3.672,-3.061 6.631,-3.007 4.639,0.084 8.227,3.969 7.795,9.58 -0.908,11.793 -9.77,21.254 -17.359,26.103 -0.082,0.063 -0.155,0.1 -0.274,0.181 h -0.072" />
      <path
         inkscape:connector-curvature="0"
         id="path4275"
         style="fill:none;stroke:#231f20;stroke-width:0.16254601;stroke-linecap:butt;stroke-linejoin:round;stroke-miterlimit:4;stroke-dasharray:none;stroke-opacity:1"
         d="m 743.154,490.891 c -0.102,-0.067 -0.174,-0.103 -0.293,-0.181 -7.596,-4.849 -16.457,-14.31 -17.365,-26.103 -0.432,-5.611 3.156,-9.496 7.795,-9.58 2.961,-0.054 5.341,0.998 6.63,3.007 1.073,1.672 1.346,4.248 1.52,3.058 0.625,-4.542 -1.277,-8.907 -2.307,-12.721 1.149,0.417 2.59,0.627 4.036,0.632 h 0.023 c 1.441,-0.005 2.881,-0.215 4.027,-0.632 -1.027,3.814 -2.925,8.179 -2.302,12.721 0.173,1.19 0.445,-1.386 1.515,-3.058 1.289,-2.009 3.672,-3.061 6.631,-3.007 4.639,0.084 8.227,3.969 7.795,9.58 -0.908,11.793 -9.77,21.254 -17.359,26.103 -0.082,0.063 -0.155,0.1 -0.274,0.181 z" />
      <path
         inkscape:connector-curvature="0"
         id="path4277"
         style="fill:#231f20;fill-opacity:1;fill-rule:evenodd;stroke:none;stroke-width:0.1"
         d="m 656.697,438.923 c -0.102,-0.068 -0.174,-0.103 -0.293,-0.181 -7.595,-4.849 -16.456,-14.31 -17.365,-26.104 -0.431,-5.608 3.156,-9.493 7.795,-9.577 2.961,-0.055 5.341,0.998 6.632,3.006 1.072,1.672 1.345,4.248 1.519,3.058 0.625,-4.541 -1.277,-8.905 -2.306,-12.718 1.147,0.418 2.589,0.627 4.034,0.632 h 0.023 c 1.443,-0.005 2.882,-0.214 4.027,-0.632 -1.027,3.813 -2.925,8.177 -2.302,12.718 0.173,1.19 0.446,-1.386 1.516,-3.058 1.289,-2.008 3.671,-3.061 6.631,-3.006 4.638,0.084 8.226,3.969 7.794,9.577 -0.908,11.794 -9.77,21.255 -17.359,26.104 -0.081,0.062 -0.155,0.099 -0.274,0.181 h -0.072" />
      <path
         inkscape:connector-curvature="0"
         id="path4279"
         style="fill:none;stroke:#231f20;stroke-width:0.16254601;stroke-linecap:butt;stroke-linejoin:round;stroke-miterlimit:4;stroke-dasharray:none;stroke-opacity:1"
         d="m 656.697,438.923 c -0.102,-0.068 -0.174,-0.103 -0.293,-0.181 -7.595,-4.849 -16.456,-14.31 -17.365,-26.104 -0.431,-5.608 3.156,-9.493 7.795,-9.577 2.961,-0.055 5.341,0.998 6.632,3.006 1.072,1.672 1.345,4.248 1.519,3.058 0.625,-4.541 -1.277,-8.905 -2.306,-12.718 1.147,0.418 2.589,0.627 4.034,0.632 h 0.023 c 1.443,-0.005 2.882,-0.214 4.027,-0.632 -1.027,3.813 -2.925,8.177 -2.302,12.718 0.173,1.19 0.446,-1.386 1.516,-3.058 1.289,-2.008 3.671,-3.061 6.631,-3.006 4.638,0.084 8.226,3.969 7.794,9.577 -0.908,11.794 -9.77,21.255 -17.359,26.104 -0.081,0.062 -0.155,0.099 -0.274,0.181 z" />
      <path
         inkscape:connector-curvature="0"
         id="path4281"
         style="fill:#231f20;fill-opacity:1;fill-rule:evenodd;stroke:none;stroke-width:0.1"
         d="m 743.154,438.923 c -0.102,-0.068 -0.174,-0.103 -0.293,-0.181 -7.596,-4.849 -16.457,-14.31 -17.365,-26.104 -0.432,-5.608 3.156,-9.493 7.795,-9.577 2.961,-0.055 5.341,0.998 6.63,3.006 1.073,1.672 1.346,4.248 1.52,3.058 0.625,-4.541 -1.277,-8.905 -2.307,-12.718 1.149,0.418 2.59,0.627 4.036,0.632 h 0.023 c 1.441,-0.005 2.881,-0.214 4.027,-0.632 -1.027,3.813 -2.925,8.177 -2.302,12.718 0.173,1.19 0.445,-1.386 1.515,-3.058 1.289,-2.008 3.672,-3.061 6.631,-3.006 4.639,0.084 8.227,3.969 7.795,9.577 -0.908,11.794 -9.77,21.255 -17.359,26.104 -0.082,0.062 -0.155,0.099 -0.274,0.181 h -0.072" />
      <path
         inkscape:connector-curvature="0"
         id="path4283"
         style="fill:none;stroke:#231f20;stroke-width:0.16254601;stroke-linecap:butt;stroke-linejoin:round;stroke-miterlimit:4;stroke-dasharray:none;stroke-opacity:1"
         d="m 743.154,438.923 c -0.102,-0.068 -0.174,-0.103 -0.293,-0.181 -7.596,-4.849 -16.457,-14.31 -17.365,-26.104 -0.432,-5.608 3.156,-9.493 7.795,-9.577 2.961,-0.055 5.341,0.998 6.63,3.006 1.073,1.672 1.346,4.248 1.52,3.058 0.625,-4.541 -1.277,-8.905 -2.307,-12.718 1.149,0.418 2.59,0.627 4.036,0.632 h 0.023 c 1.441,-0.005 2.881,-0.214 4.027,-0.632 -1.027,3.813 -2.925,8.177 -2.302,12.718 0.173,1.19 0.445,-1.386 1.515,-3.058 1.289,-2.008 3.672,-3.061 6.631,-3.006 4.639,0.084 8.227,3.969 7.795,9.577 -0.908,11.794 -9.77,21.255 -17.359,26.104 -0.082,0.062 -0.155,0.099 -0.274,0.181 z" />
      <path
         inkscape:connector-curvature="0"
         id="path4285"
         style="fill:#231f20;fill-opacity:1;fill-rule:evenodd;stroke:none;stroke-width:0.1"
         d="m 699.925,412.939 c -0.101,-0.066 -0.173,-0.103 -0.293,-0.18 -7.594,-4.848 -16.456,-14.307 -17.364,-26.1 -0.431,-5.611 3.155,-9.495 7.794,-9.58 2.961,-0.054 5.342,0.998 6.632,3.008 1.072,1.672 1.345,4.248 1.519,3.057 0.625,-4.541 -1.277,-8.906 -2.306,-12.72 1.147,0.417 2.589,0.627 4.034,0.632 h 0.023 c 1.444,-0.005 2.883,-0.215 4.028,-0.632 -1.028,3.814 -2.926,8.179 -2.303,12.72 0.174,1.191 0.447,-1.385 1.518,-3.057 1.289,-2.01 3.67,-3.062 6.631,-3.008 4.638,0.085 8.226,3.969 7.792,9.58 -0.908,11.793 -9.769,21.252 -17.358,26.1 -0.082,0.061 -0.155,0.099 -0.274,0.18 h -0.073" />
      <path
         inkscape:connector-curvature="0"
         id="path4287"
         style="fill:none;stroke:#231f20;stroke-width:0.16254601;stroke-linecap:butt;stroke-linejoin:round;stroke-miterlimit:4;stroke-dasharray:none;stroke-opacity:1"
         d="m 699.925,412.939 c -0.101,-0.066 -0.173,-0.103 -0.293,-0.18 -7.594,-4.848 -16.456,-14.307 -17.364,-26.1 -0.431,-5.611 3.155,-9.495 7.794,-9.58 2.961,-0.054 5.342,0.998 6.632,3.008 1.072,1.672 1.345,4.248 1.519,3.057 0.625,-4.541 -1.277,-8.906 -2.306,-12.72 1.147,0.417 2.589,0.627 4.034,0.632 h 0.023 c 1.444,-0.005 2.883,-0.215 4.028,-0.632 -1.028,3.814 -2.926,8.179 -2.303,12.72 0.174,1.191 0.447,-1.385 1.518,-3.057 1.289,-2.01 3.67,-3.062 6.631,-3.008 4.638,0.085 8.226,3.969 7.792,9.58 -0.908,11.793 -9.769,21.252 -17.358,26.1 -0.082,0.061 -0.155,0.099 -0.274,0.18 z" />
      <path
         inkscape:connector-curvature="0"
         id="path4289"
         style="fill:#231f20;fill-opacity:1;fill-rule:evenodd;stroke:none;stroke-width:0.1"
         d="m 656.697,344.439 c -0.102,0.068 -0.174,0.103 -0.293,0.181 -7.595,4.85 -16.456,14.311 -17.365,26.104 -0.431,5.611 3.156,9.494 7.795,9.58 2.961,0.053 5.341,-0.998 6.632,-3.008 1.072,-1.672 1.345,-4.248 1.519,-3.057 0.625,4.541 -1.277,8.906 -2.306,12.719 1.147,-0.416 2.589,-0.627 4.034,-0.631 h 0.023 c 1.443,0.004 2.882,0.215 4.027,0.631 -1.027,-3.813 -2.925,-8.178 -2.302,-12.719 0.173,-1.191 0.446,1.385 1.516,3.057 1.289,2.01 3.671,3.061 6.631,3.008 4.638,-0.086 8.226,-3.969 7.794,-9.58 -0.908,-11.793 -9.77,-21.254 -17.359,-26.104 -0.081,-0.062 -0.155,-0.099 -0.274,-0.181 h -0.072" />
      <path
         inkscape:connector-curvature="0"
         id="path4291"
         style="fill:none;stroke:#231f20;stroke-width:0.16254601;stroke-linecap:butt;stroke-linejoin:round;stroke-miterlimit:4;stroke-dasharray:none;stroke-opacity:1"
         d="m 656.697,344.439 c -0.102,0.068 -0.174,0.103 -0.293,0.181 -7.595,4.85 -16.456,14.311 -17.365,26.104 -0.431,5.611 3.156,9.494 7.795,9.58 2.961,0.053 5.341,-0.998 6.632,-3.008 1.072,-1.672 1.345,-4.248 1.519,-3.057 0.625,4.541 -1.277,8.906 -2.306,12.719 1.147,-0.416 2.589,-0.627 4.034,-0.631 h 0.023 c 1.443,0.004 2.882,0.215 4.027,0.631 -1.027,-3.813 -2.925,-8.178 -2.302,-12.719 0.173,-1.191 0.446,1.385 1.516,3.057 1.289,2.01 3.671,3.061 6.631,3.008 4.638,-0.086 8.226,-3.969 7.794,-9.58 -0.908,-11.793 -9.77,-21.254 -17.359,-26.104 -0.081,-0.062 -0.155,-0.099 -0.274,-0.181 z" />
      <path
         inkscape:connector-curvature="0"
         id="path4293"
         style="fill:#231f20;fill-opacity:1;fill-rule:evenodd;stroke:none;stroke-width:0.1"
         d="m 743.154,344.439 c -0.102,0.068 -0.174,0.103 -0.293,0.181 -7.594,4.85 -16.455,14.311 -17.363,26.104 -0.432,5.611 3.154,9.494 7.793,9.58 2.961,0.053 5.341,-0.998 6.632,-3.008 1.073,-1.672 1.346,-4.248 1.52,-3.057 0.625,4.541 -1.277,8.906 -2.307,12.719 1.147,-0.416 2.59,-0.627 4.034,-0.631 h 0.023 c 1.443,0.004 2.883,0.215 4.027,0.631 -1.027,-3.813 -2.925,-8.178 -2.302,-12.719 0.173,-1.191 0.447,1.385 1.517,3.057 1.289,2.01 3.67,3.061 6.631,3.008 4.639,-0.086 8.227,-3.969 7.793,-9.58 -0.908,-11.793 -9.77,-21.254 -17.357,-26.104 -0.082,-0.062 -0.157,-0.099 -0.276,-0.181 h -0.072" />
      <path
         inkscape:connector-curvature="0"
         id="path4295"
         style="fill:none;stroke:#231f20;stroke-width:0.16254601;stroke-linecap:butt;stroke-linejoin:round;stroke-miterlimit:4;stroke-dasharray:none;stroke-opacity:1"
         d="m 743.154,344.439 c -0.102,0.068 -0.174,0.103 -0.293,0.181 -7.594,4.85 -16.455,14.311 -17.363,26.104 -0.432,5.611 3.154,9.494 7.793,9.58 2.961,0.053 5.341,-0.998 6.632,-3.008 1.073,-1.672 1.346,-4.248 1.52,-3.057 0.625,4.541 -1.277,8.906 -2.307,12.719 1.147,-0.416 2.59,-0.627 4.034,-0.631 h 0.023 c 1.443,0.004 2.883,0.215 4.027,0.631 -1.027,-3.813 -2.925,-8.178 -2.302,-12.719 0.173,-1.191 0.447,1.385 1.517,3.057 1.289,2.01 3.67,3.061 6.631,3.008 4.639,-0.086 8.227,-3.969 7.793,-9.58 -0.908,-11.793 -9.77,-21.254 -17.357,-26.104 -0.082,-0.062 -0.157,-0.099 -0.276,-0.181 z" />
      <path
         inkscape:connector-curvature="0"
         id="path4297"
         style="fill:#231f20;fill-opacity:1;fill-rule:evenodd;stroke:none;stroke-width:0.1"
         d="m 656.697,292.471 c -0.102,0.067 -0.174,0.102 -0.293,0.181 -7.595,4.849 -16.456,14.31 -17.365,26.103 -0.431,5.611 3.156,9.495 7.795,9.58 2.961,0.054 5.341,-0.998 6.632,-3.008 1.072,-1.672 1.345,-4.248 1.519,-3.056 0.625,4.54 -1.277,8.906 -2.306,12.719 1.147,-0.417 2.589,-0.627 4.034,-0.631 h 0.023 c 1.443,0.004 2.882,0.214 4.027,0.631 -1.027,-3.813 -2.925,-8.179 -2.302,-12.719 0.173,-1.192 0.446,1.384 1.516,3.056 1.289,2.01 3.671,3.062 6.631,3.008 4.638,-0.085 8.226,-3.969 7.794,-9.58 -0.908,-11.793 -9.77,-21.254 -17.359,-26.103 -0.081,-0.063 -0.155,-0.1 -0.274,-0.181 h -0.072" />
      <path
         inkscape:connector-curvature="0"
         id="path4299"
         style="fill:none;stroke:#231f20;stroke-width:0.16254601;stroke-linecap:butt;stroke-linejoin:round;stroke-miterlimit:4;stroke-dasharray:none;stroke-opacity:1"
         d="m 656.697,292.471 c -0.102,0.067 -0.174,0.102 -0.293,0.181 -7.595,4.849 -16.456,14.31 -17.365,26.103 -0.431,5.611 3.156,9.495 7.795,9.58 2.961,0.054 5.341,-0.998 6.632,-3.008 1.072,-1.672 1.345,-4.248 1.519,-3.056 0.625,4.54 -1.277,8.906 -2.306,12.719 1.147,-0.417 2.589,-0.627 4.034,-0.631 h 0.023 c 1.443,0.004 2.882,0.214 4.027,0.631 -1.027,-3.813 -2.925,-8.179 -2.302,-12.719 0.173,-1.192 0.446,1.384 1.516,3.056 1.289,2.01 3.671,3.062 6.631,3.008 4.638,-0.085 8.226,-3.969 7.794,-9.58 -0.908,-11.793 -9.77,-21.254 -17.359,-26.103 -0.081,-0.063 -0.155,-0.1 -0.274,-0.181 z" />
      <path
         inkscape:connector-curvature="0"
         id="path4301"
         style="fill:#231f20;fill-opacity:1;fill-rule:evenodd;stroke:none;stroke-width:0.1"
         d="m 743.154,292.471 c -0.102,0.067 -0.174,0.103 -0.293,0.181 -7.594,4.849 -16.455,14.31 -17.363,26.103 -0.432,5.611 3.154,9.495 7.793,9.58 2.961,0.054 5.341,-0.998 6.632,-3.008 1.073,-1.672 1.346,-4.248 1.52,-3.056 0.625,4.54 -1.277,8.906 -2.307,12.719 1.147,-0.417 2.59,-0.627 4.034,-0.631 h 0.023 c 1.443,0.004 2.883,0.214 4.027,0.631 -1.027,-3.813 -2.925,-8.179 -2.302,-12.719 0.173,-1.192 0.447,1.384 1.517,3.056 1.289,2.01 3.67,3.062 6.631,3.008 4.639,-0.085 8.227,-3.969 7.793,-9.58 -0.908,-11.793 -9.77,-21.254 -17.357,-26.103 -0.082,-0.063 -0.157,-0.1 -0.276,-0.181 h -0.072" />
      <path
         inkscape:connector-curvature="0"
         id="path4303"
         style="fill:none;stroke:#231f20;stroke-width:0.16254601;stroke-linecap:butt;stroke-linejoin:round;stroke-miterlimit:4;stroke-dasharray:none;stroke-opacity:1"
         d="m 743.154,292.471 c -0.102,0.067 -0.174,0.103 -0.293,0.181 -7.594,4.849 -16.455,14.31 -17.363,26.103 -0.432,5.611 3.154,9.495 7.793,9.58 2.961,0.054 5.341,-0.998 6.632,-3.008 1.073,-1.672 1.346,-4.248 1.52,-3.056 0.625,4.54 -1.277,8.906 -2.307,12.719 1.147,-0.417 2.59,-0.627 4.034,-0.631 h 0.023 c 1.443,0.004 2.883,0.214 4.027,0.631 -1.027,-3.813 -2.925,-8.179 -2.302,-12.719 0.173,-1.192 0.447,1.384 1.517,3.056 1.289,2.01 3.67,3.062 6.631,3.008 4.639,-0.085 8.227,-3.969 7.793,-9.58 -0.908,-11.793 -9.77,-21.254 -17.357,-26.103 -0.082,-0.063 -0.157,-0.1 -0.276,-0.181 z" />
    </g>
  </g>
</svg>
