<?xml version="1.0" encoding="UTF-8" standalone="no"?>
<!-- Created with Inkscape (http://www.inkscape.org/) -->

<svg
   xmlns:dc="http://purl.org/dc/elements/1.1/"
   xmlns:cc="http://creativecommons.org/ns#"
   xmlns:rdf="http://www.w3.org/1999/02/22-rdf-syntax-ns#"
   xmlns:svg="http://www.w3.org/2000/svg"
   xmlns="http://www.w3.org/2000/svg"
   xmlns:sodipodi="http://sodipodi.sourceforge.net/DTD/sodipodi-0.dtd"
   xmlns:inkscape="http://www.inkscape.org/namespaces/inkscape"
   width="63.353001mm"
   height="88.352997mm"
   viewBox="0 0 63.353001 88.352997"
   version="1.1"
   id="svg22813"
   inkscape:version="0.92.2 2405546, 2018-03-11"
   sodipodi:docname="tc.svg">
  <defs
     id="defs22807" />
  <sodipodi:namedview
     id="base"
     pagecolor="#ffffff"
     bordercolor="#666666"
     borderopacity="1.0"
     inkscape:pageopacity="0.0"
     inkscape:pageshadow="2"
     inkscape:zoom="1.4"
     inkscape:cx="79.906021"
     inkscape:cy="124.23278"
     inkscape:document-units="mm"
     inkscape:current-layer="layer1"
     showgrid="false"
     inkscape:window-width="1920"
     inkscape:window-height="992"
     inkscape:window-x="0"
     inkscape:window-y="27"
     inkscape:window-maximized="1" />
  <metadata
     id="metadata22810">
    <rdf:RDF>
      <cc:Work
         rdf:about="">
        <dc:format>image/svg+xml</dc:format>
        <dc:type
           rdf:resource="http://purl.org/dc/dcmitype/StillImage" />
        <dc:title></dc:title>
      </cc:Work>
    </rdf:RDF>
  </metadata>
  <g
     inkscape:label="Layer 1"
     inkscape:groupmode="layer"
     id="layer1"
     transform="translate(0,-208.647)">
    <g
       transform="matrix(0.35277777,0,0,-0.35277777,-287.00024,391.0001)"
       id="g64166">
      <path
         d="m 992.626,281.13 c 0,-7.827 -6.345,-14.173 -14.173,-14.173 H 828.217 c -7.827,0 -14.173,6.346 -14.173,14.173 v 221.102 c 0,7.828 6.346,14.174 14.173,14.174 h 150.236 c 7.828,0 14.173,-6.346 14.173,-14.174 V 281.13"
         style="fill:#f7f7f5;fill-opacity:1;fill-rule:nonzero;stroke:none;stroke-width:0.1"
         id="path43408"
         inkscape:connector-curvature="0" />
      <path
         d="m 992.626,281.13 c 0,-7.827 -6.345,-14.173 -14.173,-14.173 H 828.217 c -7.827,0 -14.173,6.346 -14.173,14.173 v 221.102 c 0,7.828 6.346,14.174 14.173,14.174 h 150.236 c 7.828,0 14.173,-6.346 14.173,-14.174 z"
         style="fill:none;stroke:#231f20;stroke-width:1;stroke-linecap:butt;stroke-linejoin:miter;stroke-miterlimit:4;stroke-dasharray:none;stroke-opacity:1"
         id="path43410"
         inkscape:connector-curvature="0" />
      <path
         d="m 826.801,473.886 c -1.865,0 -3.377,-1.704 -3.377,-3.802 0,-1.2 0.501,-2.264 1.269,-2.967 0.258,-0.237 0.147,-0.494 -0.116,-0.334 -0.48,0.291 -1.022,0.478 -1.606,0.478 -1.798,0 -3.257,-1.644 -3.257,-3.668 0,-2.023 1.459,-3.667 3.257,-3.667 1.198,0 2.247,0.729 2.809,1.817 0.056,0.106 0.101,0.253 0.178,0.253 0.108,0 0.157,-0.176 0.157,-0.503 0,-1.315 -0.504,-2.851 -1.252,-4.615 0.323,0.076 1.299,0.27 1.938,0.27 0.638,0 1.613,-0.194 1.937,-0.27 -0.747,1.764 -1.252,3.3 -1.252,4.615 0,0.327 0.049,0.503 0.157,0.503 0.078,0 0.122,-0.147 0.177,-0.253 0.563,-1.088 1.612,-1.817 2.81,-1.817 1.798,0 3.257,1.644 3.257,3.667 0,2.024 -1.459,3.668 -3.257,3.668 -0.584,0 -1.126,-0.187 -1.607,-0.478 -0.262,-0.16 -0.374,0.097 -0.115,0.334 0.769,0.703 1.269,1.767 1.269,2.967 0,2.098 -1.513,3.802 -3.376,3.802"
         style="fill:#050301;fill-opacity:1;fill-rule:nonzero;stroke:none;stroke-width:0.1"
         id="path43412"
         inkscape:connector-curvature="0" />
      <path
         d="m 979.871,309.477 c 1.863,0 3.377,1.704 3.377,3.802 0,1.199 -0.501,2.263 -1.268,2.966 -0.26,0.237 -0.148,0.494 0.115,0.334 0.479,-0.292 1.021,-0.476 1.606,-0.476 1.797,0 3.257,1.642 3.257,3.667 0,2.022 -1.46,3.665 -3.257,3.665 -1.199,0 -2.247,-0.728 -2.81,-1.817 -0.056,-0.105 -0.1,-0.252 -0.178,-0.252 -0.106,0 -0.156,0.176 -0.156,0.503 0,1.315 0.504,2.851 1.25,4.617 -0.321,-0.077 -1.298,-0.272 -1.936,-0.272 -0.637,0 -1.613,0.195 -1.936,0.272 0.745,-1.766 1.251,-3.302 1.251,-4.617 0,-0.327 -0.05,-0.503 -0.158,-0.503 -0.077,0 -0.123,0.147 -0.176,0.252 -0.564,1.089 -1.614,1.817 -2.811,1.817 -1.798,0 -3.257,-1.643 -3.257,-3.665 0,-2.025 1.459,-3.667 3.257,-3.667 0.585,0 1.126,0.184 1.607,0.476 0.263,0.16 0.375,-0.097 0.116,-0.334 -0.769,-0.703 -1.269,-1.767 -1.269,-2.966 0,-2.098 1.513,-3.802 3.376,-3.802"
         style="fill:#050301;fill-opacity:1;fill-rule:nonzero;stroke:none;stroke-width:0.1"
         id="path43414"
         inkscape:connector-curvature="0" />
      <path
         d="m 859.398,490.893 c -4.66,0 -8.441,-4.258 -8.441,-9.504 0,-2.999 1.252,-5.66 3.17,-7.416 0.648,-0.593 0.371,-1.237 -0.289,-0.836 -1.199,0.73 -2.553,1.193 -4.015,1.193 -4.494,0 -8.141,-4.107 -8.141,-9.167 0,-5.06 3.647,-9.167 8.141,-9.167 2.995,0 5.618,1.822 7.026,4.541 0.137,0.266 0.249,0.631 0.443,0.631 0.268,0 0.393,-0.438 0.393,-1.256 0,-3.287 -1.262,-7.126 -3.128,-11.538 0.806,0.192 3.247,0.678 4.841,0.678 1.595,0 4.036,-0.486 4.841,-0.678 -1.866,4.412 -3.128,8.251 -3.128,11.538 0,0.818 0.125,1.256 0.393,1.256 0.194,0 0.305,-0.365 0.443,-0.631 1.408,-2.719 4.031,-4.541 7.026,-4.541 4.495,0 8.142,4.107 8.142,9.167 0,5.06 -3.647,9.167 -8.142,9.167 -1.461,0 -2.816,-0.463 -4.015,-1.193 -0.66,-0.401 -0.938,0.243 -0.289,0.836 1.918,1.756 3.169,4.417 3.169,7.416 0,5.246 -3.781,9.504 -8.44,9.504"
         style="fill:#050301;fill-opacity:1;fill-rule:nonzero;stroke:none;stroke-width:0.1"
         id="path43416"
         inkscape:connector-curvature="0" />
      <path
         d="m 860.107,438.925 c -4.659,0 -8.44,-4.258 -8.44,-9.503 0,-3 1.251,-5.66 3.169,-7.417 0.648,-0.592 0.371,-1.237 -0.289,-0.835 -1.199,0.729 -2.553,1.193 -4.015,1.193 -4.494,0 -8.141,-4.106 -8.141,-9.166 0,-5.06 3.647,-9.167 8.141,-9.167 2.995,0 5.617,1.822 7.025,4.541 0.139,0.265 0.25,0.631 0.445,0.631 0.267,0 0.392,-0.438 0.392,-1.256 0,-3.287 -1.262,-7.126 -3.127,-11.541 0.804,0.192 3.246,0.679 4.84,0.679 1.595,0 4.036,-0.487 4.841,-0.679 -1.866,4.415 -3.127,8.254 -3.127,11.541 0,0.818 0.124,1.256 0.392,1.256 0.195,0 0.306,-0.366 0.443,-0.631 1.408,-2.719 4.03,-4.541 7.026,-4.541 4.495,0 8.142,4.107 8.142,9.167 0,5.06 -3.647,9.166 -8.142,9.166 -1.461,0 -2.816,-0.464 -4.014,-1.193 -0.66,-0.402 -0.938,0.243 -0.29,0.835 1.919,1.757 3.17,4.417 3.17,7.417 0,5.245 -3.781,9.503 -8.441,9.503"
         style="fill:#050301;fill-opacity:1;fill-rule:nonzero;stroke:none;stroke-width:0.1"
         id="path43418"
         inkscape:connector-curvature="0" />
      <path
         d="m 860.107,292.469 c 4.66,0 8.441,4.257 8.441,9.503 0,3 -1.251,5.66 -3.17,7.417 -0.648,0.593 -0.37,1.238 0.29,0.837 1.199,-0.731 2.553,-1.194 4.014,-1.194 4.495,0 8.142,4.107 8.142,9.166 0,5.061 -3.647,9.168 -8.142,9.168 -2.996,0 -5.618,-1.822 -7.026,-4.541 -0.137,-0.265 -0.248,-0.63 -0.443,-0.63 -0.267,0 -0.392,0.437 -0.392,1.255 0,3.288 1.262,7.126 3.127,11.538 -0.805,-0.191 -3.247,-0.678 -4.841,-0.678 -1.594,0 -4.036,0.487 -4.841,0.678 1.866,-4.412 3.128,-8.25 3.128,-11.538 0,-0.818 -0.125,-1.255 -0.392,-1.255 -0.195,0 -0.306,0.365 -0.443,0.63 -1.409,2.719 -4.031,4.541 -7.027,4.541 -4.494,0 -8.141,-4.107 -8.141,-9.168 0,-5.059 3.647,-9.166 8.141,-9.166 1.462,0 2.817,0.463 4.015,1.194 0.66,0.401 0.937,-0.244 0.289,-0.837 -1.918,-1.757 -3.169,-4.417 -3.169,-7.417 0,-5.246 3.781,-9.503 8.44,-9.503"
         style="fill:#050301;fill-opacity:1;fill-rule:nonzero;stroke:none;stroke-width:0.1"
         id="path43420"
         inkscape:connector-curvature="0" />
      <path
         d="m 860.107,344.436 c 4.66,0 8.441,4.259 8.441,9.505 0,3 -1.251,5.66 -3.17,7.416 -0.648,0.593 -0.37,1.238 0.29,0.836 1.199,-0.729 2.553,-1.193 4.014,-1.193 4.495,0 8.142,4.107 8.142,9.167 0,5.061 -3.647,9.168 -8.142,9.168 -2.996,0 -5.618,-1.822 -7.026,-4.542 -0.137,-0.264 -0.248,-0.63 -0.443,-0.63 -0.267,0 -0.392,0.437 -0.392,1.256 0,3.286 1.262,7.125 3.127,11.537 -0.805,-0.191 -3.247,-0.678 -4.841,-0.678 -1.594,0 -4.036,0.487 -4.841,0.678 1.866,-4.412 3.128,-8.251 3.128,-11.537 0,-0.819 -0.125,-1.256 -0.392,-1.256 -0.195,0 -0.306,0.366 -0.443,0.63 -1.409,2.72 -4.031,4.542 -7.027,4.542 -4.494,0 -8.141,-4.107 -8.141,-9.168 0,-5.06 3.647,-9.167 8.141,-9.167 1.462,0 2.817,0.464 4.015,1.193 0.66,0.402 0.937,-0.243 0.289,-0.836 -1.918,-1.756 -3.169,-4.416 -3.169,-7.416 0,-5.246 3.781,-9.505 8.44,-9.505"
         style="fill:#050301;fill-opacity:1;fill-rule:nonzero;stroke:none;stroke-width:0.1"
         id="path43422"
         inkscape:connector-curvature="0" />
      <path
         d="m 946.564,490.893 c -4.66,0 -8.441,-4.258 -8.441,-9.504 0,-2.999 1.251,-5.66 3.17,-7.416 0.648,-0.593 0.37,-1.237 -0.29,-0.836 -1.199,0.73 -2.553,1.193 -4.015,1.193 -4.494,0 -8.141,-4.107 -8.141,-9.167 0,-5.06 3.647,-9.167 8.141,-9.167 2.996,0 5.617,1.822 7.026,4.541 0.138,0.266 0.249,0.631 0.444,0.631 0.267,0 0.392,-0.438 0.392,-1.256 0,-3.287 -1.262,-7.126 -3.127,-11.538 0.805,0.192 3.246,0.678 4.841,0.678 1.594,0 4.035,-0.486 4.84,-0.678 -1.866,4.412 -3.127,8.251 -3.127,11.538 0,0.818 0.125,1.256 0.392,1.256 0.195,0 0.306,-0.365 0.444,-0.631 1.407,-2.719 4.031,-4.541 7.025,-4.541 4.494,0 8.142,4.107 8.142,9.167 0,5.06 -3.648,9.167 -8.142,9.167 -1.461,0 -2.815,-0.463 -4.015,-1.193 -0.659,-0.401 -0.937,0.243 -0.289,0.836 1.918,1.756 3.17,4.417 3.17,7.416 0,5.246 -3.782,9.504 -8.44,9.504"
         style="fill:#050301;fill-opacity:1;fill-rule:nonzero;stroke:none;stroke-width:0.1"
         id="path43424"
         inkscape:connector-curvature="0" />
      <path
         d="m 946.564,438.925 c -4.66,0 -8.441,-4.258 -8.441,-9.503 0,-3 1.251,-5.66 3.17,-7.417 0.648,-0.592 0.37,-1.237 -0.29,-0.835 -1.199,0.729 -2.553,1.193 -4.015,1.193 -4.494,0 -8.141,-4.106 -8.141,-9.166 0,-5.06 3.647,-9.167 8.141,-9.167 2.996,0 5.617,1.822 7.026,4.541 0.138,0.265 0.249,0.631 0.444,0.631 0.267,0 0.392,-0.438 0.392,-1.256 0,-3.287 -1.262,-7.126 -3.127,-11.541 0.805,0.192 3.246,0.679 4.841,0.679 1.594,0 4.035,-0.487 4.84,-0.679 -1.866,4.415 -3.127,8.254 -3.127,11.541 0,0.818 0.125,1.256 0.392,1.256 0.195,0 0.306,-0.366 0.444,-0.631 1.407,-2.719 4.031,-4.541 7.025,-4.541 4.494,0 8.142,4.107 8.142,9.167 0,5.06 -3.648,9.166 -8.142,9.166 -1.461,0 -2.815,-0.464 -4.015,-1.193 -0.659,-0.402 -0.937,0.243 -0.289,0.835 1.918,1.757 3.17,4.417 3.17,7.417 0,5.245 -3.782,9.503 -8.44,9.503"
         style="fill:#050301;fill-opacity:1;fill-rule:nonzero;stroke:none;stroke-width:0.1"
         id="path43426"
         inkscape:connector-curvature="0" />
      <path
         d="m 946.564,292.469 c 4.659,0 8.44,4.257 8.44,9.503 0,3 -1.252,5.66 -3.17,7.417 -0.648,0.593 -0.37,1.238 0.289,0.837 1.2,-0.731 2.554,-1.194 4.016,-1.194 4.493,0 8.141,4.107 8.141,9.166 0,5.061 -3.648,9.168 -8.141,9.168 -2.995,0 -5.619,-1.822 -7.026,-4.541 -0.138,-0.265 -0.249,-0.63 -0.444,-0.63 -0.267,0 -0.392,0.437 -0.392,1.255 0,3.288 1.262,7.126 3.127,11.538 -0.805,-0.191 -3.246,-0.678 -4.84,-0.678 -1.595,0 -4.036,0.487 -4.842,0.678 1.866,-4.412 3.128,-8.25 3.128,-11.538 0,-0.818 -0.124,-1.255 -0.392,-1.255 -0.195,0 -0.306,0.365 -0.443,0.63 -1.408,2.719 -4.031,4.541 -7.026,4.541 -4.495,0 -8.142,-4.107 -8.142,-9.168 0,-5.059 3.647,-9.166 8.142,-9.166 1.461,0 2.815,0.463 4.014,1.194 0.66,0.401 0.938,-0.244 0.29,-0.837 -1.919,-1.757 -3.17,-4.417 -3.17,-7.417 0,-5.246 3.781,-9.503 8.441,-9.503"
         style="fill:#050301;fill-opacity:1;fill-rule:nonzero;stroke:none;stroke-width:0.1"
         id="path43428"
         inkscape:connector-curvature="0" />
      <path
         d="m 946.564,344.436 c 4.659,0 8.44,4.259 8.44,9.505 0,3 -1.252,5.66 -3.17,7.416 -0.648,0.593 -0.37,1.238 0.289,0.836 1.2,-0.729 2.554,-1.193 4.016,-1.193 4.493,0 8.141,4.107 8.141,9.167 0,5.061 -3.648,9.168 -8.141,9.168 -2.995,0 -5.619,-1.822 -7.026,-4.542 -0.138,-0.264 -0.249,-0.63 -0.444,-0.63 -0.267,0 -0.392,0.437 -0.392,1.256 0,3.286 1.262,7.125 3.127,11.537 -0.805,-0.191 -3.246,-0.678 -4.84,-0.678 -1.595,0 -4.036,0.487 -4.842,0.678 1.866,-4.412 3.128,-8.251 3.128,-11.537 0,-0.819 -0.124,-1.256 -0.392,-1.256 -0.195,0 -0.306,0.366 -0.443,0.63 -1.408,2.72 -4.031,4.542 -7.026,4.542 -4.495,0 -8.142,-4.107 -8.142,-9.168 0,-5.06 3.647,-9.167 8.142,-9.167 1.461,0 2.815,0.464 4.014,1.193 0.66,0.402 0.938,-0.243 0.29,-0.836 -1.919,-1.756 -3.17,-4.416 -3.17,-7.416 0,-5.246 3.781,-9.505 8.441,-9.505"
         style="fill:#050301;fill-opacity:1;fill-rule:nonzero;stroke:none;stroke-width:0.1"
         id="path43430"
         inkscape:connector-curvature="0" />
      <path
         d="m 903.335,462.547 c -4.659,0 -8.44,-4.257 -8.44,-9.503 0,-2.999 1.25,-5.66 3.169,-7.415 0.648,-0.594 0.371,-1.238 -0.289,-0.836 -1.199,0.728 -2.553,1.192 -4.014,1.192 -4.494,0 -8.142,-4.106 -8.142,-9.166 0,-5.06 3.648,-9.167 8.142,-9.167 2.995,0 5.617,1.822 7.025,4.541 0.138,0.266 0.248,0.631 0.444,0.631 0.267,0 0.392,-0.437 0.392,-1.256 0,-3.287 -1.261,-7.126 -3.128,-11.541 0.806,0.193 3.247,0.679 4.841,0.679 1.595,0 4.036,-0.486 4.841,-0.679 -1.866,4.415 -3.128,8.254 -3.128,11.541 0,0.819 0.125,1.256 0.393,1.256 0.195,0 0.305,-0.365 0.443,-0.631 1.408,-2.719 4.03,-4.541 7.025,-4.541 4.495,0 8.143,4.107 8.143,9.167 0,5.06 -3.648,9.166 -8.143,9.166 -1.461,0 -2.815,-0.464 -4.014,-1.192 -0.659,-0.402 -0.938,0.242 -0.29,0.836 1.919,1.755 3.17,4.416 3.17,7.415 0,5.246 -3.781,9.503 -8.44,9.503"
         style="fill:#050301;fill-opacity:1;fill-rule:nonzero;stroke:none;stroke-width:0.1"
         id="path43432"
         inkscape:connector-curvature="0" />
      <path
         d="m 903.335,320.816 c 4.66,0 8.442,4.257 8.442,9.504 0,2.998 -1.253,5.66 -3.17,7.416 -0.648,0.592 -0.371,1.238 0.288,0.835 1.2,-0.729 2.554,-1.193 4.015,-1.193 4.494,0 8.142,4.108 8.142,9.167 0,5.06 -3.648,9.168 -8.142,9.168 -2.995,0 -5.617,-1.822 -7.025,-4.542 -0.138,-0.265 -0.248,-0.631 -0.444,-0.631 -0.267,0 -0.392,0.438 -0.392,1.257 0,3.286 1.262,7.126 3.128,11.538 -0.806,-0.191 -3.247,-0.678 -4.842,-0.678 -1.595,0 -4.035,0.487 -4.842,0.678 1.868,-4.412 3.129,-8.252 3.129,-11.538 0,-0.819 -0.125,-1.257 -0.392,-1.257 -0.196,0 -0.306,0.366 -0.444,0.631 -1.408,2.72 -4.03,4.542 -7.025,4.542 -4.494,0 -8.143,-4.108 -8.143,-9.168 0,-5.059 3.649,-9.167 8.143,-9.167 1.461,0 2.815,0.464 4.013,1.193 0.661,0.403 0.939,-0.243 0.29,-0.835 -1.919,-1.756 -3.169,-4.418 -3.169,-7.416 0,-5.247 3.781,-9.504 8.44,-9.504"
         style="fill:#050301;fill-opacity:1;fill-rule:nonzero;stroke:none;stroke-width:0.1"
         id="path43434"
         inkscape:connector-curvature="0" />
      <path
         d="m 819.713,478.174 v 24.058 h 2.182 v -24.058 h -2.182 v 0"
         style="fill:#000000;fill-opacity:1;fill-rule:nonzero;stroke:none;stroke-width:0.1"
         id="path43436"
         inkscape:connector-curvature="0" />
      <path
         d="m 826.453,479.455 c -0.794,0.816 -1.303,1.98 -1.301,3.262 v 0 14.937 c -0.002,1.282 0.507,2.445 1.301,3.261 v 0 c 0.794,0.821 1.881,1.317 3.067,1.317 v 0 c 1.184,0 2.271,-0.496 3.065,-1.317 v 0 c 0.794,-0.816 1.303,-1.979 1.302,-3.261 v 0 -14.937 c 0.001,-1.282 -0.508,-2.446 -1.302,-3.262 v 0 c -0.794,-0.82 -1.881,-1.317 -3.065,-1.317 v 0 c -1.186,0 -2.273,0.497 -3.067,1.317 z m 1.497,19.724 c -0.393,-0.409 -0.617,-0.938 -0.618,-1.525 v 0 -14.937 c 10e-4,-0.588 0.225,-1.117 0.618,-1.526 v 0 c 0.393,-0.405 0.944,-0.666 1.57,-0.666 v 0 c 0.624,0 1.175,0.261 1.568,0.666 v 0 c 0.392,0.409 0.616,0.938 0.618,1.526 v 0 14.937 c -0.002,0.587 -0.226,1.116 -0.618,1.525 v 0 c -0.393,0.405 -0.944,0.666 -1.568,0.666 v 0 c -0.626,0 -1.177,-0.261 -1.57,-0.666 v 0"
         style="fill:#000000;fill-opacity:1;fill-rule:nonzero;stroke:none;stroke-width:0.1"
         id="path43438"
         inkscape:connector-curvature="0" />
      <path
         d="M 986.958,305.189 V 281.13 h -2.181 v 24.059 h 2.181 v 0"
         style="fill:#000000;fill-opacity:1;fill-rule:nonzero;stroke:none;stroke-width:0.1"
         id="path43440"
         inkscape:connector-curvature="0" />
      <path
         d="m 980.218,303.907 c 0.794,-0.816 1.302,-1.979 1.302,-3.261 v 0 -14.936 c 0,-1.283 -0.508,-2.445 -1.302,-3.262 v 0 c -0.794,-0.82 -1.881,-1.318 -3.066,-1.318 v 0 c -1.185,0 -2.272,0.498 -3.066,1.318 v 0 c -0.794,0.817 -1.303,1.979 -1.302,3.262 v 0 14.936 c -10e-4,1.282 0.508,2.445 1.302,3.261 v 0 c 0.794,0.821 1.881,1.319 3.066,1.319 v 0 c 1.185,0 2.272,-0.498 3.066,-1.319 z m -1.497,-19.722 c 0.392,0.408 0.617,0.937 0.618,1.525 v 0 14.936 c -0.001,0.588 -0.226,1.117 -0.618,1.525 v 0 c -0.393,0.406 -0.944,0.666 -1.569,0.666 v 0 c -0.625,0 -1.176,-0.26 -1.569,-0.666 v 0 c -0.392,-0.408 -0.616,-0.937 -0.618,-1.525 v 0 -14.936 c 0.002,-0.588 0.226,-1.117 0.618,-1.525 v 0 c 0.393,-0.406 0.944,-0.666 1.569,-0.666 v 0 c 0.625,0 1.176,0.26 1.569,0.666 v 0"
         style="fill:#000000;fill-opacity:1;fill-rule:nonzero;stroke:none;stroke-width:0.1"
         id="path43442"
         inkscape:connector-curvature="0" />
    </g>
  </g>
</svg>
