<?xml version="1.0" encoding="UTF-8" standalone="no"?>
<!-- Created with Inkscape (http://www.inkscape.org/) -->

<svg
   xmlns:dc="http://purl.org/dc/elements/1.1/"
   xmlns:cc="http://creativecommons.org/ns#"
   xmlns:rdf="http://www.w3.org/1999/02/22-rdf-syntax-ns#"
   xmlns:svg="http://www.w3.org/2000/svg"
   xmlns="http://www.w3.org/2000/svg"
   xmlns:sodipodi="http://sodipodi.sourceforge.net/DTD/sodipodi-0.dtd"
   xmlns:inkscape="http://www.inkscape.org/namespaces/inkscape"
   width="63.353001mm"
   height="88.352997mm"
   viewBox="0 0 63.353001 88.352997"
   version="1.1"
   id="svg22813"
   inkscape:version="0.92.2 2405546, 2018-03-11"
   sodipodi:docname="td.svg">
  <defs
     id="defs22807" />
  <sodipodi:namedview
     id="base"
     pagecolor="#ffffff"
     bordercolor="#666666"
     borderopacity="1.0"
     inkscape:pageopacity="0.0"
     inkscape:pageshadow="2"
     inkscape:zoom="1.4"
     inkscape:cx="81.334592"
     inkscape:cy="124.23278"
     inkscape:document-units="mm"
     inkscape:current-layer="layer1"
     showgrid="false"
     inkscape:window-width="960"
     inkscape:window-height="992"
     inkscape:window-x="960"
     inkscape:window-y="27"
     inkscape:window-maximized="0" />
  <metadata
     id="metadata22810">
    <rdf:RDF>
      <cc:Work
         rdf:about="">
        <dc:format>image/svg+xml</dc:format>
        <dc:type
           rdf:resource="http://purl.org/dc/dcmitype/StillImage" />
        <dc:title></dc:title>
      </cc:Work>
    </rdf:RDF>
  </metadata>
  <g
     inkscape:label="Layer 1"
     inkscape:groupmode="layer"
     id="layer1"
     transform="translate(0,-208.647)">
    <g
       transform="matrix(0.35277777,0,0,-0.35277777,-286.99989,391.53562)"
       id="g21861">
      <path
         d="m 992.627,282.648 c 0,-7.828 -6.345,-14.173 -14.173,-14.173 H 828.217 c -7.828,0 -14.174,6.345 -14.174,14.173 v 221.099 c 0,7.828 6.346,14.173 14.174,14.173 h 150.237 c 7.828,0 14.173,-6.345 14.173,-14.173 V 282.648"
         style="fill:#f7f7f5;fill-opacity:1;fill-rule:nonzero;stroke:none;stroke-width:0.1"
         id="path9194"
         inkscape:connector-curvature="0" />
      <path
         d="m 992.627,282.648 c 0,-7.828 -6.345,-14.173 -14.173,-14.173 H 828.217 c -7.828,0 -14.174,6.345 -14.174,14.173 v 221.099 c 0,7.828 6.346,14.173 14.174,14.173 h 150.237 c 7.828,0 14.173,-6.345 14.173,-14.173 z"
         style="fill:none;stroke:#231f20;stroke-width:1;stroke-linecap:butt;stroke-linejoin:miter;stroke-miterlimit:4;stroke-dasharray:none;stroke-opacity:1"
         id="path9196"
         inkscape:connector-curvature="0" />
      <path
         d="m 826.811,475.4 c 1.786,-3.47 4.144,-6.309 7.075,-8.512 -2.931,-2.207 -5.289,-5.039 -7.075,-8.496 -1.803,3.457 -4.168,6.289 -7.098,8.496 2.93,2.203 5.295,5.042 7.098,8.512 v 0"
         style="fill:#e52c3f;fill-opacity:1;fill-rule:nonzero;stroke:none;stroke-width:0.1"
         id="path9198"
         inkscape:connector-curvature="0" />
      <path
         d="m 979.882,328.003 c 1.786,-3.47 4.146,-6.308 7.076,-8.513 -2.93,-2.206 -5.29,-5.038 -7.076,-8.495 -1.802,3.457 -4.169,6.289 -7.097,8.495 2.928,2.205 5.295,5.043 7.097,8.513 v 0"
         style="fill:#e52c3f;fill-opacity:1;fill-rule:nonzero;stroke:none;stroke-width:0.1"
         id="path9200"
         inkscape:connector-curvature="0" />
      <path
         d="m 860.132,492.409 c 4.469,-8.675 10.366,-15.77 17.692,-21.284 -7.326,-5.516 -13.223,-12.595 -17.692,-21.236 -4.503,8.641 -10.416,15.72 -17.742,21.236 7.326,5.514 13.239,12.609 17.742,21.284 v 0"
         style="fill:#e52c3f;fill-opacity:1;fill-rule:nonzero;stroke:none;stroke-width:0.1"
         id="path9202"
         inkscape:connector-curvature="0" />
      <path
         d="m 860.131,440.439 c 4.469,-8.675 10.365,-15.769 17.693,-21.284 -7.328,-5.516 -13.224,-12.595 -17.693,-21.233 -4.502,8.638 -10.415,15.717 -17.741,21.233 7.326,5.515 13.239,12.609 17.741,21.284 v 0"
         style="fill:#e52c3f;fill-opacity:1;fill-rule:nonzero;stroke:none;stroke-width:0.1"
         id="path9204"
         inkscape:connector-curvature="0" />
      <path
         d="m 860.132,388.475 c 4.469,-8.674 10.364,-15.77 17.692,-21.284 -7.328,-5.516 -13.223,-12.595 -17.692,-21.236 -4.503,8.641 -10.416,15.72 -17.742,21.236 7.326,5.514 13.239,12.61 17.742,21.284 v 0"
         style="fill:#e52c3f;fill-opacity:1;fill-rule:nonzero;stroke:none;stroke-width:0.1"
         id="path9206"
         inkscape:connector-curvature="0" />
      <path
         d="m 860.132,336.508 c 4.469,-8.675 10.364,-15.77 17.692,-21.283 -7.328,-5.517 -13.223,-12.597 -17.692,-21.237 -4.503,8.64 -10.416,15.72 -17.742,21.237 7.326,5.513 13.239,12.608 17.742,21.283 v 0"
         style="fill:#e52c3f;fill-opacity:1;fill-rule:nonzero;stroke:none;stroke-width:0.1"
         id="path9208"
         inkscape:connector-curvature="0" />
      <path
         d="m 946.589,492.409 c 4.469,-8.675 10.365,-15.77 17.692,-21.284 -7.327,-5.516 -13.223,-12.594 -17.692,-21.236 -4.501,8.642 -10.417,15.72 -17.741,21.236 7.324,5.514 13.24,12.609 17.741,21.284 v 0"
         style="fill:#e52c3f;fill-opacity:1;fill-rule:nonzero;stroke:none;stroke-width:0.1"
         id="path9210"
         inkscape:connector-curvature="0" />
      <path
         d="m 946.588,440.438 c 4.469,-8.675 10.366,-15.77 17.692,-21.283 -7.326,-5.516 -13.223,-12.595 -17.692,-21.234 -4.501,8.639 -10.418,15.718 -17.742,21.234 7.324,5.513 13.241,12.608 17.742,21.283 v 0"
         style="fill:#e52c3f;fill-opacity:1;fill-rule:nonzero;stroke:none;stroke-width:0.1"
         id="path9212"
         inkscape:connector-curvature="0" />
      <path
         d="m 946.588,388.473 c 4.469,-8.673 10.366,-15.768 17.692,-21.282 -7.326,-5.517 -13.223,-12.595 -17.692,-21.237 -4.501,8.642 -10.417,15.72 -17.741,21.237 7.324,5.514 13.24,12.609 17.741,21.282 v 0"
         style="fill:#e52c3f;fill-opacity:1;fill-rule:nonzero;stroke:none;stroke-width:0.1"
         id="path9214"
         inkscape:connector-curvature="0" />
      <path
         d="m 946.589,336.508 c 4.468,-8.675 10.365,-15.77 17.692,-21.283 -7.327,-5.517 -13.224,-12.597 -17.692,-21.237 -4.502,8.64 -10.417,15.72 -17.741,21.237 7.324,5.513 13.239,12.608 17.741,21.283 v 0"
         style="fill:#e52c3f;fill-opacity:1;fill-rule:nonzero;stroke:none;stroke-width:0.1"
         id="path9216"
         inkscape:connector-curvature="0" />
      <path
         d="m 903.36,464.062 c 4.47,-8.675 10.365,-15.77 17.691,-21.284 -7.326,-5.516 -13.221,-12.594 -17.691,-21.236 -4.502,8.642 -10.417,15.72 -17.741,21.236 7.324,5.514 13.239,12.609 17.741,21.284 v 0"
         style="fill:#e52c3f;fill-opacity:1;fill-rule:nonzero;stroke:none;stroke-width:0.1"
         id="path9218"
         inkscape:connector-curvature="0" />
      <path
         d="m 903.36,364.854 c 4.47,-8.674 10.365,-15.77 17.691,-21.284 -7.326,-5.516 -13.221,-12.595 -17.691,-21.236 -4.502,8.641 -10.417,15.72 -17.741,21.236 7.324,5.514 13.239,12.61 17.741,21.284 v 0"
         style="fill:#e52c3f;fill-opacity:1;fill-rule:nonzero;stroke:none;stroke-width:0.1"
         id="path9220"
         inkscape:connector-curvature="0" />
      <path
         d="m 819.713,479.689 v 24.058 h 2.181 v -24.058 h -2.181 v 0"
         style="fill:#e52c3f;fill-opacity:1;fill-rule:nonzero;stroke:none;stroke-width:0.1"
         id="path9222"
         inkscape:connector-curvature="0" />
      <path
         d="m 826.454,480.97 c -0.794,0.816 -1.304,1.98 -1.302,3.261 v 0 14.937 c -0.002,1.282 0.508,2.445 1.302,3.262 v 0 c 0.792,0.82 1.88,1.317 3.065,1.317 v 0 c 1.185,0 2.272,-0.497 3.067,-1.317 v 0 c 0.793,-0.817 1.302,-1.98 1.3,-3.262 v 0 -14.937 c 0.002,-1.281 -0.507,-2.445 -1.3,-3.261 v 0 c -0.795,-0.82 -1.882,-1.317 -3.067,-1.317 v 0 c -1.185,0 -2.273,0.497 -3.065,1.317 z m 1.497,19.723 c -0.393,-0.408 -0.617,-0.937 -0.618,-1.525 v 0 -14.937 c 10e-4,-0.587 0.225,-1.116 0.618,-1.525 v 0 c 0.391,-0.405 0.943,-0.666 1.568,-0.666 v 0 c 0.625,0 1.176,0.261 1.569,0.666 v 0 c 0.392,0.409 0.617,0.938 0.617,1.525 v 0 14.937 c 0,0.588 -0.225,1.117 -0.617,1.525 v 0 c -0.393,0.405 -0.944,0.666 -1.569,0.666 v 0 c -0.625,0 -1.177,-0.261 -1.568,-0.666 v 0"
         style="fill:#e52c3f;fill-opacity:1;fill-rule:nonzero;stroke:none;stroke-width:0.1"
         id="path9224"
         inkscape:connector-curvature="0" />
      <path
         d="m 986.958,306.707 v -24.059 h -2.182 v 24.059 h 2.182 v 0"
         style="fill:#e52c3f;fill-opacity:1;fill-rule:nonzero;stroke:none;stroke-width:0.1"
         id="path9226"
         inkscape:connector-curvature="0" />
      <path
         d="m 980.217,305.426 c 0.795,-0.817 1.303,-1.981 1.303,-3.262 v 0 -14.937 c 0,-1.282 -0.508,-2.445 -1.303,-3.262 v 0 c -0.792,-0.819 -1.88,-1.317 -3.066,-1.317 v 0 c -1.184,0 -2.272,0.498 -3.064,1.317 v 0 c -0.796,0.817 -1.303,1.98 -1.303,3.262 v 0 14.937 c 0,1.281 0.507,2.445 1.303,3.262 v 0 c 0.792,0.82 1.88,1.316 3.064,1.316 v 0 c 1.186,0 2.274,-0.496 3.066,-1.316 z m -1.496,-19.724 c 0.393,0.409 0.617,0.937 0.617,1.525 v 0 14.937 c 0,0.588 -0.224,1.116 -0.617,1.525 v 0 c -0.392,0.406 -0.943,0.666 -1.57,0.666 v 0 c -0.623,0 -1.176,-0.26 -1.568,-0.666 v 0 c -0.393,-0.409 -0.616,-0.937 -0.617,-1.525 v 0 -14.937 c 10e-4,-0.588 0.224,-1.116 0.617,-1.525 v 0 c 0.392,-0.405 0.945,-0.666 1.568,-0.666 v 0 c 0.627,0 1.178,0.261 1.57,0.666 v 0"
         style="fill:#e52c3f;fill-opacity:1;fill-rule:nonzero;stroke:none;stroke-width:0.1"
         id="path9228"
         inkscape:connector-curvature="0" />
    </g>
  </g>
</svg>
