<?xml version="1.0" encoding="UTF-8" standalone="no"?>
<!-- Created with Inkscape (http://www.inkscape.org/) -->

<svg
   xmlns:dc="http://purl.org/dc/elements/1.1/"
   xmlns:cc="http://creativecommons.org/ns#"
   xmlns:rdf="http://www.w3.org/1999/02/22-rdf-syntax-ns#"
   xmlns:svg="http://www.w3.org/2000/svg"
   xmlns="http://www.w3.org/2000/svg"
   xmlns:sodipodi="http://sodipodi.sourceforge.net/DTD/sodipodi-0.dtd"
   xmlns:inkscape="http://www.inkscape.org/namespaces/inkscape"
   width="63.353001mm"
   height="88.352997mm"
   viewBox="0 0 63.353001 88.352997"
   version="1.1"
   id="svg22813"
   inkscape:version="0.92.2 2405546, 2018-03-11"
   sodipodi:docname="th.svg">
  <defs
     id="defs22807" />
  <sodipodi:namedview
     id="base"
     pagecolor="#ffffff"
     bordercolor="#666666"
     borderopacity="1.0"
     inkscape:pageopacity="0.0"
     inkscape:pageshadow="2"
     inkscape:zoom="1.4"
     inkscape:cx="79.906021"
     inkscape:cy="124.23278"
     inkscape:document-units="mm"
     inkscape:current-layer="layer1"
     showgrid="false"
     inkscape:window-width="1920"
     inkscape:window-height="992"
     inkscape:window-x="0"
     inkscape:window-y="27"
     inkscape:window-maximized="1" />
  <metadata
     id="metadata22810">
    <rdf:RDF>
      <cc:Work
         rdf:about="">
        <dc:format>image/svg+xml</dc:format>
        <dc:type
           rdf:resource="http://purl.org/dc/dcmitype/StillImage" />
        <dc:title></dc:title>
      </cc:Work>
    </rdf:RDF>
  </metadata>
  <g
     inkscape:label="Layer 1"
     inkscape:groupmode="layer"
     id="layer1"
     transform="translate(0,-208.647)">
    <g
       transform="matrix(0.35277777,0,0,-0.35277777,-286.99989,391.16626)"
       id="g43673">
      <path
         d="m 992.627,281.602 c 0,-7.829 -6.345,-14.174 -14.173,-14.174 H 828.217 c -7.828,0 -14.174,6.345 -14.174,14.174 v 221.101 c 0,7.828 6.346,14.174 14.174,14.174 h 150.237 c 7.828,0 14.173,-6.346 14.173,-14.174 V 281.602"
         style="fill:#f7f7f5;fill-opacity:1;fill-rule:nonzero;stroke:none;stroke-width:0.1"
         id="path31424"
         inkscape:connector-curvature="0" />
      <path
         d="m 992.627,281.602 c 0,-7.829 -6.345,-14.174 -14.173,-14.174 H 828.217 c -7.828,0 -14.174,6.345 -14.174,14.174 v 221.101 c 0,7.828 6.346,14.174 14.174,14.174 h 150.237 c 7.828,0 14.173,-6.346 14.173,-14.174 z"
         style="fill:none;stroke:#231f20;stroke-width:1;stroke-linecap:butt;stroke-linejoin:miter;stroke-miterlimit:4;stroke-dasharray:none;stroke-opacity:1"
         id="path31426"
         inkscape:connector-curvature="0" />
      <path
         d="m 826.798,457.349 c -0.007,0.01 -0.012,0.019 -0.019,0.03 -0.007,-0.011 -0.013,-0.02 -0.02,-0.03 h 0.039"
         style="fill:#e52c3f;fill-opacity:1;fill-rule:nonzero;stroke:none;stroke-width:0.1"
         id="path31428"
         inkscape:connector-curvature="0" />
      <path
         d="m 830.774,474.257 c -1.247,0.388 -3.187,-0.294 -3.899,-3.121 -0.06,-0.156 -0.123,-0.152 -0.178,0.005 -1.029,2.865 -2.723,3.491 -3.913,3.116 -1.763,-0.569 -3.196,-2.672 -3.062,-5.356 0.034,-4.684 4.226,-7.044 7.057,-11.522 2.831,4.478 7.067,6.831 7.082,11.536 0.244,2.712 -1.274,4.784 -3.087,5.342"
         style="fill:#e52c3f;fill-opacity:1;fill-rule:nonzero;stroke:none;stroke-width:0.1"
         id="path31430"
         inkscape:connector-curvature="0" />
      <path
         d="m 979.875,326.956 c 0.006,-0.011 0.013,-0.019 0.02,-0.03 0.006,0.011 0.013,0.019 0.019,0.03 h -0.039"
         style="fill:#e52c3f;fill-opacity:1;fill-rule:nonzero;stroke:none;stroke-width:0.1"
         id="path31432"
         inkscape:connector-curvature="0" />
      <path
         d="m 979.895,326.926 c -2.833,-4.478 -7.073,-6.831 -7.084,-11.535 -0.244,-2.711 1.272,-4.784 3.087,-5.344 1.247,-0.387 3.188,0.295 3.9,3.123 0.06,0.154 0.122,0.151 0.179,-0.004 1.025,-2.866 2.722,-3.492 3.912,-3.119 1.768,0.57 3.195,2.674 3.06,5.357 -0.031,4.684 -4.223,7.044 -7.054,11.522"
         style="fill:#e52c3f;fill-opacity:1;fill-rule:nonzero;stroke:none;stroke-width:0.1"
         id="path31434"
         inkscape:connector-curvature="0" />
      <path
         d="m 860.103,448.845 c -0.015,0.025 -0.031,0.048 -0.047,0.073 -0.015,-0.025 -0.031,-0.048 -0.047,-0.073 h 0.094"
         style="fill:#e52c3f;fill-opacity:1;fill-rule:nonzero;stroke:none;stroke-width:0.1"
         id="path31436"
         inkscape:connector-curvature="0" />
      <path
         d="m 870.041,491.116 c -3.118,0.968 -7.964,-0.736 -9.744,-7.805 -0.15,-0.387 -0.305,-0.378 -0.446,0.014 -2.57,7.163 -6.805,8.727 -9.782,7.791 -4.41,-1.423 -7.985,-6.682 -7.658,-13.391 0.091,-11.711 10.572,-17.608 17.645,-28.807 7.074,11.199 17.673,17.079 17.702,28.841 0.613,6.78 -3.181,11.961 -7.717,13.357"
         style="fill:#e52c3f;fill-opacity:1;fill-rule:nonzero;stroke:none;stroke-width:0.1"
         id="path31438"
         inkscape:connector-curvature="0" />
      <path
         d="m 870.041,440.092 c -3.118,0.969 -7.964,-0.735 -9.744,-7.805 -0.15,-0.387 -0.305,-0.378 -0.446,0.014 -2.57,7.162 -6.805,8.726 -9.782,7.791 -4.41,-1.422 -7.985,-6.682 -7.658,-13.391 0.091,-11.711 10.572,-17.608 17.645,-28.807 7.074,11.199 17.673,17.079 17.702,28.841 0.613,6.779 -3.181,11.961 -7.717,13.357"
         style="fill:#e52c3f;fill-opacity:1;fill-rule:nonzero;stroke:none;stroke-width:0.1"
         id="path31440"
         inkscape:connector-curvature="0" />
      <path
         d="m 860.103,397.822 c -0.015,0.024 -0.031,0.048 -0.047,0.072 -0.015,-0.024 -0.031,-0.048 -0.047,-0.072 h 0.094"
         style="fill:#e52c3f;fill-opacity:1;fill-rule:nonzero;stroke:none;stroke-width:0.1"
         id="path31442"
         inkscape:connector-curvature="0" />
      <path
         d="m 860.111,338.295 c 0.016,-0.024 0.031,-0.048 0.047,-0.072 0.015,0.024 0.031,0.048 0.047,0.072 h -0.094"
         style="fill:#e52c3f;fill-opacity:1;fill-rule:nonzero;stroke:none;stroke-width:0.1"
         id="path31444"
         inkscape:connector-curvature="0" />
      <path
         d="m 877.802,309.414 c -0.088,11.711 -10.568,17.609 -17.644,28.809 -7.074,-11.2 -17.673,-17.081 -17.703,-28.842 -0.612,-6.779 3.182,-11.961 7.718,-13.358 3.116,-0.967 7.964,0.737 9.743,7.805 0.151,0.387 0.306,0.379 0.447,-0.014 2.569,-7.162 6.805,-8.726 9.782,-7.791 4.41,1.423 7.984,6.682 7.657,13.391"
         style="fill:#e52c3f;fill-opacity:1;fill-rule:nonzero;stroke:none;stroke-width:0.1"
         id="path31446"
         inkscape:connector-curvature="0" />
      <path
         d="m 877.802,360.438 c -0.088,11.71 -10.568,17.608 -17.644,28.808 -7.074,-11.2 -17.673,-17.08 -17.703,-28.842 -0.612,-6.781 3.182,-11.961 7.718,-13.357 3.116,-0.969 7.964,0.736 9.743,7.807 0.151,0.385 0.306,0.378 0.447,-0.016 2.569,-7.162 6.805,-8.727 9.782,-7.791 4.41,1.423 7.984,6.682 7.657,13.391"
         style="fill:#e52c3f;fill-opacity:1;fill-rule:nonzero;stroke:none;stroke-width:0.1"
         id="path31448"
         inkscape:connector-curvature="0" />
      <path
         d="m 860.111,389.318 c 0.016,-0.024 0.031,-0.048 0.047,-0.072 0.015,0.024 0.031,0.048 0.047,0.072 h -0.094"
         style="fill:#e52c3f;fill-opacity:1;fill-rule:nonzero;stroke:none;stroke-width:0.1"
         id="path31450"
         inkscape:connector-curvature="0" />
      <path
         d="m 913.276,462.769 c -3.117,0.969 -7.971,-0.735 -9.754,-7.805 -0.149,-0.386 -0.306,-0.378 -0.445,0.015 -2.573,7.161 -6.803,8.726 -9.784,7.79 -4.41,-1.422 -7.98,-6.681 -7.654,-13.39 0.088,-11.712 10.568,-17.608 17.641,-28.808 7.081,11.2 17.679,17.079 17.707,28.842 0.615,6.779 -3.182,11.961 -7.711,13.356"
         style="fill:#e52c3f;fill-opacity:1;fill-rule:nonzero;stroke:none;stroke-width:0.1"
         id="path31452"
         inkscape:connector-curvature="0" />
      <path
         d="m 903.327,420.499 c -0.016,0.024 -0.032,0.047 -0.047,0.072 -0.016,-0.025 -0.032,-0.048 -0.047,-0.072 h 0.094"
         style="fill:#e52c3f;fill-opacity:1;fill-rule:nonzero;stroke:none;stroke-width:0.1"
         id="path31454"
         inkscape:connector-curvature="0" />
      <path
         d="m 921.031,334.929 c -0.085,11.715 -10.567,17.612 -17.646,28.805 -7.073,-11.193 -17.672,-17.074 -17.701,-28.839 -0.612,-6.782 3.184,-11.963 7.716,-13.36 3.116,-0.967 7.962,0.736 9.743,7.808 0.148,0.386 0.305,0.378 0.445,-0.015 2.576,-7.163 6.812,-8.727 9.787,-7.793 4.411,1.423 7.985,6.682 7.656,13.394"
         style="fill:#e52c3f;fill-opacity:1;fill-rule:nonzero;stroke:none;stroke-width:0.1"
         id="path31456"
         inkscape:connector-curvature="0" />
      <path
         d="m 903.338,363.807 c 0.016,-0.025 0.032,-0.048 0.047,-0.073 0.016,0.025 0.031,0.048 0.047,0.073 h -0.094"
         style="fill:#e52c3f;fill-opacity:1;fill-rule:nonzero;stroke:none;stroke-width:0.1"
         id="path31458"
         inkscape:connector-curvature="0" />
      <path
         d="m 946.559,448.845 c -0.016,0.026 -0.032,0.05 -0.049,0.075 -0.015,-0.025 -0.032,-0.049 -0.047,-0.075 h 0.096"
         style="fill:#e52c3f;fill-opacity:1;fill-rule:nonzero;stroke:none;stroke-width:0.1"
         id="path31460"
         inkscape:connector-curvature="0" />
      <path
         d="m 956.496,491.116 c -3.117,0.968 -7.964,-0.736 -9.746,-7.805 -0.144,-0.387 -0.302,-0.379 -0.444,0.014 -2.569,7.162 -6.801,8.726 -9.78,7.791 -4.413,-1.423 -7.987,-6.682 -7.658,-13.391 0.091,-11.71 10.566,-17.607 17.642,-28.805 7.078,11.198 17.671,17.077 17.704,28.838 0.615,6.781 -3.182,11.962 -7.718,13.358"
         style="fill:#e52c3f;fill-opacity:1;fill-rule:nonzero;stroke:none;stroke-width:0.1"
         id="path31462"
         inkscape:connector-curvature="0" />
      <path
         d="m 956.496,440.092 c -3.117,0.968 -7.964,-0.735 -9.746,-7.805 -0.144,-0.387 -0.302,-0.378 -0.444,0.013 -2.569,7.163 -6.801,8.728 -9.78,7.792 -4.413,-1.422 -7.987,-6.681 -7.658,-13.391 0.091,-11.711 10.566,-17.608 17.642,-28.805 7.078,11.197 17.671,17.078 17.704,28.839 0.615,6.78 -3.182,11.961 -7.718,13.357"
         style="fill:#e52c3f;fill-opacity:1;fill-rule:nonzero;stroke:none;stroke-width:0.1"
         id="path31464"
         inkscape:connector-curvature="0" />
      <path
         d="m 946.559,397.822 c -0.016,0.025 -0.032,0.049 -0.049,0.074 -0.015,-0.025 -0.032,-0.049 -0.047,-0.074 h 0.096"
         style="fill:#e52c3f;fill-opacity:1;fill-rule:nonzero;stroke:none;stroke-width:0.1"
         id="path31466"
         inkscape:connector-curvature="0" />
      <path
         d="m 964.26,309.414 c -0.092,11.71 -10.567,17.607 -17.644,28.807 -7.078,-11.2 -17.677,-17.081 -17.703,-28.84 -0.616,-6.78 3.182,-11.961 7.716,-13.358 3.117,-0.967 7.965,0.737 9.748,7.805 0.144,0.388 0.302,0.379 0.441,-0.014 2.572,-7.162 6.803,-8.726 9.784,-7.791 4.408,1.423 7.981,6.682 7.658,13.391"
         style="fill:#e52c3f;fill-opacity:1;fill-rule:nonzero;stroke:none;stroke-width:0.1"
         id="path31468"
         inkscape:connector-curvature="0" />
      <path
         d="m 946.568,338.295 c 0.016,-0.025 0.032,-0.05 0.048,-0.074 0.016,0.024 0.033,0.049 0.048,0.074 h -0.096"
         style="fill:#e52c3f;fill-opacity:1;fill-rule:nonzero;stroke:none;stroke-width:0.1"
         id="path31470"
         inkscape:connector-curvature="0" />
      <path
         d="m 946.567,389.318 c 0.016,-0.025 0.032,-0.049 0.049,-0.074 0.015,0.025 0.032,0.049 0.048,0.074 h -0.097"
         style="fill:#e52c3f;fill-opacity:1;fill-rule:nonzero;stroke:none;stroke-width:0.1"
         id="path31472"
         inkscape:connector-curvature="0" />
      <path
         d="m 964.259,360.438 c -0.091,11.71 -10.566,17.607 -17.643,28.806 -7.078,-11.199 -17.678,-17.08 -17.703,-28.84 -0.616,-6.781 3.181,-11.961 7.716,-13.357 3.117,-0.968 7.964,0.735 9.746,7.805 0.145,0.386 0.304,0.378 0.442,-0.014 2.572,-7.162 6.804,-8.727 9.784,-7.791 4.408,1.422 7.982,6.682 7.658,13.391"
         style="fill:#e52c3f;fill-opacity:1;fill-rule:nonzero;stroke:none;stroke-width:0.1"
         id="path31474"
         inkscape:connector-curvature="0" />
      <path
         d="m 819.713,478.645 v 24.058 h 2.181 v -24.058 h -2.181 v 0"
         style="fill:#e52c3f;fill-opacity:1;fill-rule:nonzero;stroke:none;stroke-width:0.1"
         id="path31476"
         inkscape:connector-curvature="0" />
      <path
         d="m 826.454,479.926 c -0.794,0.816 -1.304,1.98 -1.302,3.262 v 0 14.936 c -0.002,1.282 0.508,2.446 1.302,3.262 v 0 c 0.792,0.82 1.88,1.317 3.065,1.317 v 0 c 1.185,0 2.272,-0.497 3.067,-1.317 v 0 c 0.793,-0.816 1.302,-1.98 1.3,-3.262 v 0 -14.936 c 0.002,-1.282 -0.507,-2.446 -1.3,-3.262 v 0 c -0.795,-0.821 -1.882,-1.317 -3.067,-1.317 v 0 c -1.185,0 -2.273,0.496 -3.065,1.317 z m 1.497,19.724 c -0.393,-0.409 -0.617,-0.938 -0.618,-1.526 v 0 -14.936 c 10e-4,-0.588 0.225,-1.117 0.618,-1.526 v 0 c 0.391,-0.405 0.943,-0.666 1.568,-0.666 v 0 c 0.625,0 1.176,0.261 1.569,0.666 v 0 c 0.392,0.409 0.617,0.938 0.617,1.526 v 0 14.936 c 0,0.588 -0.225,1.117 -0.617,1.526 v 0 c -0.393,0.405 -0.944,0.666 -1.569,0.666 v 0 c -0.625,0 -1.177,-0.261 -1.568,-0.666 v 0"
         style="fill:#e52c3f;fill-opacity:1;fill-rule:nonzero;stroke:none;stroke-width:0.1"
         id="path31478"
         inkscape:connector-curvature="0" />
      <path
         d="m 986.958,305.66 v -24.058 h -2.182 v 24.058 h 2.182 v 0"
         style="fill:#e52c3f;fill-opacity:1;fill-rule:nonzero;stroke:none;stroke-width:0.1"
         id="path31480"
         inkscape:connector-curvature="0" />
      <path
         d="m 980.217,304.379 c 0.794,-0.816 1.303,-1.981 1.302,-3.262 v 0 -14.936 c 10e-4,-1.283 -0.508,-2.445 -1.302,-3.263 v 0 c -0.792,-0.819 -1.88,-1.316 -3.066,-1.316 v 0 c -1.184,0 -2.272,0.497 -3.065,1.316 v 0 c -0.795,0.818 -1.303,1.98 -1.302,3.263 v 0 14.936 c -10e-4,1.281 0.507,2.446 1.302,3.262 v 0 c 0.793,0.82 1.881,1.316 3.065,1.316 v 0 c 1.186,0 2.274,-0.496 3.066,-1.316 z m -1.497,-19.724 c 0.393,0.409 0.618,0.938 0.618,1.526 v 0 14.936 c 0,0.588 -0.225,1.117 -0.618,1.526 v 0 c -0.391,0.405 -0.943,0.666 -1.569,0.666 v 0 c -0.624,0 -1.176,-0.261 -1.568,-0.666 v 0 c -0.393,-0.409 -0.617,-0.938 -0.617,-1.526 v 0 -14.936 c 0,-0.588 0.224,-1.117 0.617,-1.526 v 0 c 0.392,-0.405 0.944,-0.666 1.568,-0.666 v 0 c 0.626,0 1.178,0.261 1.569,0.666 v 0"
         style="fill:#e52c3f;fill-opacity:1;fill-rule:nonzero;stroke:none;stroke-width:0.1"
         id="path31482"
         inkscape:connector-curvature="0" />
    </g>
  </g>
</svg>
