<?xml version="1.0" encoding="UTF-8" standalone="no"?>
<!-- Created with Inkscape (http://www.inkscape.org/) -->

<svg
   xmlns:dc="http://purl.org/dc/elements/1.1/"
   xmlns:cc="http://creativecommons.org/ns#"
   xmlns:rdf="http://www.w3.org/1999/02/22-rdf-syntax-ns#"
   xmlns:svg="http://www.w3.org/2000/svg"
   xmlns="http://www.w3.org/2000/svg"
   xmlns:sodipodi="http://sodipodi.sourceforge.net/DTD/sodipodi-0.dtd"
   xmlns:inkscape="http://www.inkscape.org/namespaces/inkscape"
   width="63.353001mm"
   height="88.352997mm"
   viewBox="0 0 63.353001 88.352997"
   version="1.1"
   id="svg22813"
   inkscape:version="0.92.2 2405546, 2018-03-11"
   sodipodi:docname="ts.svg">
  <defs
     id="defs22807" />
  <sodipodi:namedview
     id="base"
     pagecolor="#ffffff"
     bordercolor="#666666"
     borderopacity="1.0"
     inkscape:pageopacity="0.0"
     inkscape:pageshadow="2"
     inkscape:zoom="1.4"
     inkscape:cx="79.906021"
     inkscape:cy="67.089921"
     inkscape:document-units="mm"
     inkscape:current-layer="layer1"
     showgrid="false"
     inkscape:window-width="1920"
     inkscape:window-height="992"
     inkscape:window-x="0"
     inkscape:window-y="27"
     inkscape:window-maximized="1" />
  <metadata
     id="metadata22810">
    <rdf:RDF>
      <cc:Work
         rdf:about="">
        <dc:format>image/svg+xml</dc:format>
        <dc:type
           rdf:resource="http://purl.org/dc/dcmitype/StillImage" />
        <dc:title></dc:title>
      </cc:Work>
    </rdf:RDF>
  </metadata>
  <g
     inkscape:label="Layer 1"
     inkscape:groupmode="layer"
     id="layer1"
     transform="translate(0,-208.647)">
    <g
       transform="matrix(0.35277777,0,0,-0.35277777,-286.99989,391.00187)"
       id="g23077">
      <path
         inkscape:connector-curvature="0"
         id="path4305"
         style="fill:#f7f7f5;fill-opacity:1;fill-rule:nonzero;stroke:none;stroke-width:0.1"
         d="m 992.627,281.135 c 0,-7.827 -6.345,-14.173 -14.173,-14.173 H 828.217 c -7.828,0 -14.174,6.346 -14.174,14.173 v 221.093 c 0,7.828 6.346,14.174 14.174,14.174 h 150.237 c 7.828,0 14.173,-6.346 14.173,-14.174 V 281.135" />
      <path
         inkscape:connector-curvature="0"
         id="path4307"
         style="fill:none;stroke:#231f20;stroke-width:1;stroke-linecap:butt;stroke-linejoin:miter;stroke-miterlimit:4;stroke-dasharray:none;stroke-opacity:1"
         d="m 992.627,281.135 c 0,-7.827 -6.345,-14.173 -14.173,-14.173 H 828.217 c -7.828,0 -14.174,6.346 -14.174,14.173 v 221.093 c 0,7.828 6.346,14.174 14.174,14.174 h 150.237 c 7.828,0 14.173,-6.346 14.173,-14.174 z" />
      <path
         inkscape:connector-curvature="0"
         id="path4309"
         style="fill:#000000;fill-opacity:1;fill-rule:nonzero;stroke:none;stroke-width:0.1"
         d="m 819.713,478.17 v 24.059 h 2.181 V 478.17 h -2.181 v 0" />
      <path
         inkscape:connector-curvature="0"
         id="path4311"
         style="fill:#000000;fill-opacity:1;fill-rule:nonzero;stroke:none;stroke-width:0.1"
         d="m 826.454,479.452 c -0.794,0.816 -1.304,1.979 -1.302,3.261 v 0 14.937 c -0.002,1.282 0.508,2.445 1.302,3.262 v 0 c 0.792,0.82 1.88,1.317 3.065,1.317 v 0 c 1.185,0 2.272,-0.497 3.067,-1.317 v 0 c 0.793,-0.817 1.302,-1.98 1.3,-3.262 v 0 -14.937 c 0.002,-1.282 -0.507,-2.445 -1.3,-3.261 v 0 c -0.795,-0.821 -1.882,-1.318 -3.067,-1.318 v 0 c -1.185,0 -2.273,0.497 -3.065,1.318 z m 1.497,19.723 c -0.393,-0.409 -0.617,-0.937 -0.618,-1.525 v 0 -14.937 c 10e-4,-0.588 0.225,-1.117 0.618,-1.525 v 0 c 0.391,-0.405 0.943,-0.666 1.568,-0.666 v 0 c 0.625,0 1.176,0.261 1.569,0.666 v 0 c 0.392,0.408 0.617,0.937 0.617,1.525 v 0 14.937 c 0,0.588 -0.225,1.116 -0.617,1.525 v 0 c -0.393,0.405 -0.944,0.666 -1.569,0.666 v 0 c -0.625,0 -1.177,-0.261 -1.568,-0.666 v 0" />
      <path
         inkscape:connector-curvature="0"
         id="path4313"
         style="fill:#000000;fill-opacity:1;fill-rule:nonzero;stroke:none;stroke-width:0.1"
         d="m 986.958,305.193 v -24.058 h -2.182 v 24.058 h 2.182 v 0" />
      <path
         inkscape:connector-curvature="0"
         id="path4315"
         style="fill:#000000;fill-opacity:1;fill-rule:nonzero;stroke:none;stroke-width:0.1"
         d="m 980.217,303.912 c 0.793,-0.816 1.303,-1.979 1.301,-3.262 v 0 -14.935 c 0.002,-1.283 -0.508,-2.445 -1.301,-3.262 v 0 c -0.792,-0.82 -1.88,-1.318 -3.066,-1.318 v 0 c -1.184,0 -2.272,0.498 -3.067,1.318 v 0 c -0.793,0.817 -1.302,1.979 -1.3,3.262 v 0 14.935 c -0.002,1.283 0.507,2.446 1.3,3.262 v 0 c 0.795,0.82 1.883,1.318 3.067,1.318 v 0 c 1.186,0 2.274,-0.498 3.066,-1.318 z m -1.498,-19.723 c 0.393,0.409 0.618,0.938 0.619,1.526 v 0 14.935 c -10e-4,0.588 -0.226,1.118 -0.619,1.526 v 0 c -0.39,0.406 -0.943,0.666 -1.568,0.666 v 0 c -0.625,0 -1.176,-0.26 -1.568,-0.666 v 0 c -0.393,-0.408 -0.617,-0.938 -0.617,-1.526 v 0 -14.935 c 0,-0.588 0.224,-1.117 0.617,-1.526 v 0 c 0.392,-0.405 0.943,-0.666 1.568,-0.666 v 0 c 0.625,0 1.178,0.261 1.568,0.666 v 0" />
      <path
         inkscape:connector-curvature="0"
         id="path4317"
         style="fill:#231f20;fill-opacity:1;fill-rule:evenodd;stroke:none;stroke-width:0.1"
         d="m 826.791,473.882 c -0.041,-0.028 -0.071,-0.041 -0.118,-0.073 -3.038,-1.939 -6.582,-5.725 -6.946,-10.441 -0.173,-2.244 1.263,-3.798 3.118,-3.832 1.184,-0.022 2.137,0.399 2.653,1.203 0.428,0.668 0.538,1.699 0.607,1.223 0.25,-1.817 -0.511,-3.563 -0.922,-5.088 0.459,0.167 1.035,0.251 1.613,0.253 h 0.01 c 0.577,-0.002 1.153,-0.086 1.61,-0.253 -0.411,1.525 -1.17,3.271 -0.92,5.088 0.069,0.476 0.179,-0.555 0.606,-1.223 0.516,-0.804 1.469,-1.225 2.652,-1.203 1.856,0.034 3.291,1.588 3.119,3.832 -0.364,4.716 -3.909,8.502 -6.944,10.441 -0.033,0.025 -0.062,0.04 -0.11,0.073 h -0.028" />
      <path
         inkscape:connector-curvature="0"
         id="path4319"
         style="fill:none;stroke:#231f20;stroke-width:1;stroke-linecap:butt;stroke-linejoin:round;stroke-miterlimit:4;stroke-dasharray:none;stroke-opacity:1"
         d="m 826.791,473.882 c -0.041,-0.028 -0.071,-0.041 -0.118,-0.073 -3.038,-1.939 -6.582,-5.725 -6.946,-10.441 -0.173,-2.244 1.263,-3.798 3.118,-3.832 1.184,-0.022 2.137,0.399 2.653,1.203 0.428,0.668 0.538,1.699 0.607,1.223 0.25,-1.817 -0.511,-3.563 -0.922,-5.088 0.459,0.167 1.035,0.251 1.613,0.253 h 0.01 c 0.577,-0.002 1.153,-0.086 1.61,-0.253 -0.411,1.525 -1.17,3.271 -0.92,5.088 0.069,0.476 0.179,-0.555 0.606,-1.223 0.516,-0.804 1.469,-1.225 2.652,-1.203 1.856,0.034 3.291,1.588 3.119,3.832 -0.364,4.716 -3.909,8.502 -6.944,10.441 -0.033,0.025 -0.062,0.04 -0.11,0.073 z" />
      <path
         inkscape:connector-curvature="0"
         id="path4321"
         style="fill:#231f20;fill-opacity:1;fill-rule:evenodd;stroke:none;stroke-width:0.1"
         d="m 979.862,309.482 c -0.041,0.027 -0.071,0.041 -0.117,0.072 -3.04,1.94 -6.584,5.725 -6.948,10.441 -0.172,2.244 1.264,3.798 3.119,3.832 1.184,0.022 2.138,-0.399 2.653,-1.203 0.427,-0.668 0.537,-1.699 0.607,-1.222 0.25,1.816 -0.512,3.562 -0.922,5.087 0.459,-0.167 1.035,-0.251 1.614,-0.253 h 0.009 c 0.577,0.002 1.153,0.086 1.61,0.253 -0.41,-1.525 -1.17,-3.271 -0.92,-5.087 0.068,-0.477 0.178,0.554 0.605,1.222 0.516,0.804 1.469,1.225 2.653,1.203 1.855,-0.034 3.291,-1.588 3.119,-3.832 -0.364,-4.716 -3.908,-8.501 -6.944,-10.441 -0.033,-0.025 -0.062,-0.04 -0.111,-0.072 h -0.027" />
      <path
         inkscape:connector-curvature="0"
         id="path4323"
         style="fill:none;stroke:#231f20;stroke-width:1;stroke-linecap:butt;stroke-linejoin:round;stroke-miterlimit:4;stroke-dasharray:none;stroke-opacity:1"
         d="m 979.862,309.482 c -0.041,0.027 -0.071,0.041 -0.117,0.072 -3.04,1.94 -6.584,5.725 -6.948,10.441 -0.172,2.244 1.264,3.798 3.119,3.832 1.184,0.022 2.138,-0.399 2.653,-1.203 0.427,-0.668 0.537,-1.699 0.607,-1.222 0.25,1.816 -0.512,3.562 -0.922,5.087 0.459,-0.167 1.035,-0.251 1.614,-0.253 h 0.009 c 0.577,0.002 1.153,0.086 1.61,0.253 -0.41,-1.525 -1.17,-3.271 -0.92,-5.087 0.068,-0.477 0.178,0.554 0.605,1.222 0.516,0.804 1.469,1.225 2.653,1.203 1.855,-0.034 3.291,-1.588 3.119,-3.832 -0.364,-4.716 -3.908,-8.501 -6.944,-10.441 -0.033,-0.025 -0.062,-0.04 -0.111,-0.072 z" />
      <path
         inkscape:connector-curvature="0"
         id="path4325"
         style="fill:#231f20;fill-opacity:1;fill-rule:evenodd;stroke:none;stroke-width:0.1"
         d="m 860.083,490.89 c -0.102,-0.067 -0.174,-0.103 -0.294,-0.181 -7.594,-4.849 -16.455,-14.31 -17.364,-26.103 -0.431,-5.61 3.155,-9.495 7.794,-9.58 2.961,-0.054 5.342,0.998 6.632,3.008 1.072,1.671 1.346,4.248 1.52,3.057 0.625,-4.542 -1.278,-8.907 -2.307,-12.72 1.148,0.417 2.59,0.627 4.034,0.632 h 0.023 c 1.443,-0.005 2.883,-0.215 4.028,-0.632 -1.028,3.813 -2.926,8.178 -2.303,12.72 0.174,1.191 0.447,-1.386 1.517,-3.057 1.289,-2.01 3.671,-3.062 6.631,-3.008 4.638,0.085 8.226,3.97 7.794,9.58 -0.909,11.793 -9.77,21.254 -17.359,26.103 -0.082,0.062 -0.155,0.1 -0.274,0.181 h -0.072" />
      <path
         inkscape:connector-curvature="0"
         id="path4327"
         style="fill:none;stroke:#231f20;stroke-width:1;stroke-linecap:butt;stroke-linejoin:round;stroke-miterlimit:4;stroke-dasharray:none;stroke-opacity:1"
         d="m 860.083,490.89 c -0.102,-0.067 -0.174,-0.103 -0.294,-0.181 -7.594,-4.849 -16.455,-14.31 -17.364,-26.103 -0.431,-5.61 3.155,-9.495 7.794,-9.58 2.961,-0.054 5.342,0.998 6.632,3.008 1.072,1.671 1.346,4.248 1.52,3.057 0.625,-4.542 -1.278,-8.907 -2.307,-12.72 1.148,0.417 2.59,0.627 4.034,0.632 h 0.023 c 1.443,-0.005 2.883,-0.215 4.028,-0.632 -1.028,3.813 -2.926,8.178 -2.303,12.72 0.174,1.191 0.447,-1.386 1.517,-3.057 1.289,-2.01 3.671,-3.062 6.631,-3.008 4.638,0.085 8.226,3.97 7.794,9.58 -0.909,11.793 -9.77,21.254 -17.359,26.103 -0.082,0.062 -0.155,0.1 -0.274,0.181 z" />
      <path
         inkscape:connector-curvature="0"
         id="path4329"
         style="fill:#231f20;fill-opacity:1;fill-rule:evenodd;stroke:none;stroke-width:0.1"
         d="m 904.729,462.544 c -0.102,-0.068 -0.174,-0.104 -0.293,-0.181 -7.595,-4.85 -16.457,-14.311 -17.365,-26.104 -0.432,-5.61 3.155,-9.495 7.794,-9.58 2.961,-0.054 5.343,0.998 6.631,3.008 1.073,1.671 1.346,4.248 1.52,3.058 0.625,-4.542 -1.277,-8.907 -2.307,-12.721 1.149,0.417 2.591,0.627 4.036,0.632 h 0.023 c 1.441,-0.005 2.881,-0.215 4.027,-0.632 -1.027,3.814 -2.925,8.179 -2.302,12.721 0.173,1.19 0.445,-1.387 1.515,-3.058 1.289,-2.01 3.672,-3.062 6.631,-3.008 4.639,0.085 8.227,3.97 7.795,9.58 -0.908,11.793 -9.77,21.254 -17.359,26.104 -0.082,0.061 -0.155,0.1 -0.274,0.181 h -0.072" />
      <path
         inkscape:connector-curvature="0"
         id="path4331"
         style="fill:none;stroke:#231f20;stroke-width:1;stroke-linecap:butt;stroke-linejoin:round;stroke-miterlimit:4;stroke-dasharray:none;stroke-opacity:1"
         d="m 904.729,462.544 c -0.102,-0.068 -0.174,-0.104 -0.293,-0.181 -7.595,-4.85 -16.457,-14.311 -17.365,-26.104 -0.432,-5.61 3.155,-9.495 7.794,-9.58 2.961,-0.054 5.343,0.998 6.631,3.008 1.073,1.671 1.346,4.248 1.52,3.058 0.625,-4.542 -1.277,-8.907 -2.307,-12.721 1.149,0.417 2.591,0.627 4.036,0.632 h 0.023 c 1.441,-0.005 2.881,-0.215 4.027,-0.632 -1.027,3.814 -2.925,8.179 -2.302,12.721 0.173,1.19 0.445,-1.387 1.515,-3.058 1.289,-2.01 3.672,-3.062 6.631,-3.008 4.639,0.085 8.227,3.97 7.795,9.58 -0.908,11.793 -9.77,21.254 -17.359,26.104 -0.082,0.061 -0.155,0.1 -0.274,0.181 z" />
      <path
         inkscape:connector-curvature="0"
         id="path4333"
         style="fill:#231f20;fill-opacity:1;fill-rule:evenodd;stroke:none;stroke-width:0.1"
         d="m 947.958,490.89 c -0.102,-0.067 -0.174,-0.103 -0.294,-0.181 -7.595,-4.849 -16.456,-14.31 -17.364,-26.103 -0.432,-5.61 3.155,-9.495 7.794,-9.58 2.961,-0.054 5.342,0.998 6.631,3.008 1.072,1.671 1.346,4.248 1.52,3.057 0.625,-4.542 -1.278,-8.907 -2.307,-12.72 1.149,0.417 2.59,0.627 4.035,0.632 h 0.023 c 1.442,-0.005 2.881,-0.215 4.028,-0.632 -1.028,3.813 -2.926,8.178 -2.303,12.72 0.174,1.191 0.445,-1.386 1.516,-3.057 1.289,-2.01 3.672,-3.062 6.631,-3.008 4.638,0.085 8.226,3.97 7.795,9.58 -0.909,11.793 -9.77,21.254 -17.359,26.103 -0.083,0.062 -0.155,0.1 -0.274,0.181 h -0.072" />
      <path
         inkscape:connector-curvature="0"
         id="path4335"
         style="fill:none;stroke:#231f20;stroke-width:1;stroke-linecap:butt;stroke-linejoin:round;stroke-miterlimit:4;stroke-dasharray:none;stroke-opacity:1"
         d="m 947.958,490.89 c -0.102,-0.067 -0.174,-0.103 -0.294,-0.181 -7.595,-4.849 -16.456,-14.31 -17.364,-26.103 -0.432,-5.61 3.155,-9.495 7.794,-9.58 2.961,-0.054 5.342,0.998 6.631,3.008 1.072,1.671 1.346,4.248 1.52,3.057 0.625,-4.542 -1.278,-8.907 -2.307,-12.72 1.149,0.417 2.59,0.627 4.035,0.632 h 0.023 c 1.442,-0.005 2.881,-0.215 4.028,-0.632 -1.028,3.813 -2.926,8.178 -2.303,12.72 0.174,1.191 0.445,-1.386 1.516,-3.057 1.289,-2.01 3.672,-3.062 6.631,-3.008 4.638,0.085 8.226,3.97 7.795,9.58 -0.909,11.793 -9.77,21.254 -17.359,26.103 -0.083,0.062 -0.155,0.1 -0.274,0.181 z" />
      <path
         inkscape:connector-curvature="0"
         id="path4337"
         style="fill:#231f20;fill-opacity:1;fill-rule:evenodd;stroke:none;stroke-width:0.1"
         d="m 860.083,438.921 c -0.102,-0.067 -0.174,-0.103 -0.294,-0.18 -7.594,-4.85 -16.455,-14.311 -17.364,-26.102 -0.431,-5.61 3.155,-9.494 7.794,-9.578 2.961,-0.055 5.342,0.998 6.632,3.007 1.072,1.67 1.346,4.248 1.52,3.057 0.625,-4.541 -1.278,-8.904 -2.307,-12.718 1.148,0.419 2.59,0.628 4.034,0.634 h 0.023 c 1.443,-0.006 2.883,-0.215 4.028,-0.634 -1.028,3.814 -2.926,8.177 -2.303,12.718 0.174,1.191 0.447,-1.387 1.517,-3.057 1.289,-2.009 3.671,-3.062 6.631,-3.007 4.638,0.084 8.226,3.968 7.794,9.578 -0.909,11.791 -9.77,21.252 -17.359,26.102 -0.082,0.062 -0.155,0.1 -0.274,0.18 h -0.072" />
      <path
         inkscape:connector-curvature="0"
         id="path4339"
         style="fill:none;stroke:#231f20;stroke-width:1;stroke-linecap:butt;stroke-linejoin:round;stroke-miterlimit:4;stroke-dasharray:none;stroke-opacity:1"
         d="m 860.083,438.921 c -0.102,-0.067 -0.174,-0.103 -0.294,-0.18 -7.594,-4.85 -16.455,-14.311 -17.364,-26.102 -0.431,-5.61 3.155,-9.494 7.794,-9.578 2.961,-0.055 5.342,0.998 6.632,3.007 1.072,1.67 1.346,4.248 1.52,3.057 0.625,-4.541 -1.278,-8.904 -2.307,-12.718 1.148,0.419 2.59,0.628 4.034,0.634 h 0.023 c 1.443,-0.006 2.883,-0.215 4.028,-0.634 -1.028,3.814 -2.926,8.177 -2.303,12.718 0.174,1.191 0.447,-1.387 1.517,-3.057 1.289,-2.009 3.671,-3.062 6.631,-3.007 4.638,0.084 8.226,3.968 7.794,9.578 -0.909,11.791 -9.77,21.252 -17.359,26.102 -0.082,0.062 -0.155,0.1 -0.274,0.18 z" />
      <path
         inkscape:connector-curvature="0"
         id="path4341"
         style="fill:#231f20;fill-opacity:1;fill-rule:evenodd;stroke:none;stroke-width:0.1"
         d="m 946.539,438.921 c -0.101,-0.067 -0.173,-0.103 -0.293,-0.18 -7.595,-4.85 -16.457,-14.311 -17.365,-26.103 -0.431,-5.609 3.157,-9.493 7.795,-9.577 2.961,-0.055 5.342,0.998 6.631,3.007 1.072,1.67 1.346,4.248 1.52,3.057 0.625,-4.541 -1.277,-8.904 -2.307,-12.718 1.148,0.419 2.59,0.628 4.035,0.634 h 0.024 c 1.441,-0.006 2.88,-0.215 4.027,-0.634 -1.027,3.814 -2.926,8.177 -2.302,12.718 0.173,1.191 0.444,-1.387 1.515,-3.057 1.289,-2.009 3.672,-3.062 6.631,-3.007 4.638,0.084 8.226,3.968 7.795,9.577 -0.908,11.792 -9.77,21.253 -17.36,26.103 -0.081,0.061 -0.154,0.1 -0.273,0.18 h -0.073" />
      <path
         inkscape:connector-curvature="0"
         id="path4343"
         style="fill:none;stroke:#231f20;stroke-width:1;stroke-linecap:butt;stroke-linejoin:round;stroke-miterlimit:4;stroke-dasharray:none;stroke-opacity:1"
         d="m 946.539,438.921 c -0.101,-0.067 -0.173,-0.103 -0.293,-0.18 -7.595,-4.85 -16.457,-14.311 -17.365,-26.103 -0.431,-5.609 3.157,-9.493 7.795,-9.577 2.961,-0.055 5.342,0.998 6.631,3.007 1.072,1.67 1.346,4.248 1.52,3.057 0.625,-4.541 -1.277,-8.904 -2.307,-12.718 1.148,0.419 2.59,0.628 4.035,0.634 h 0.024 c 1.441,-0.006 2.88,-0.215 4.027,-0.634 -1.027,3.814 -2.926,8.177 -2.302,12.718 0.173,1.191 0.444,-1.387 1.515,-3.057 1.289,-2.009 3.672,-3.062 6.631,-3.007 4.638,0.084 8.226,3.968 7.795,9.577 -0.908,11.792 -9.77,21.253 -17.36,26.103 -0.081,0.061 -0.154,0.1 -0.273,0.18 z" />
      <path
         inkscape:connector-curvature="0"
         id="path4345"
         style="fill:#231f20;fill-opacity:1;fill-rule:evenodd;stroke:none;stroke-width:0.1"
         d="m 860.083,292.474 c -0.102,0.067 -0.174,0.103 -0.294,0.18 -7.594,4.85 -16.455,14.311 -17.364,26.104 -0.431,5.611 3.155,9.496 7.794,9.58 2.961,0.055 5.342,-0.998 6.632,-3.008 1.072,-1.671 1.346,-4.248 1.52,-3.057 0.625,4.541 -1.278,8.907 -2.307,12.721 1.148,-0.418 2.59,-0.627 4.034,-0.633 h 0.023 c 1.443,0.006 2.883,0.215 4.028,0.633 -1.028,-3.814 -2.926,-8.18 -2.303,-12.721 0.174,-1.191 0.447,1.386 1.517,3.057 1.289,2.01 3.671,3.063 6.631,3.008 4.638,-0.084 8.226,-3.969 7.794,-9.58 -0.909,-11.793 -9.77,-21.254 -17.359,-26.104 -0.082,-0.061 -0.155,-0.099 -0.274,-0.18 h -0.072" />
      <path
         inkscape:connector-curvature="0"
         id="path4347"
         style="fill:none;stroke:#231f20;stroke-width:1;stroke-linecap:butt;stroke-linejoin:round;stroke-miterlimit:4;stroke-dasharray:none;stroke-opacity:1"
         d="m 860.083,292.474 c -0.102,0.067 -0.174,0.103 -0.294,0.18 -7.594,4.85 -16.455,14.311 -17.364,26.104 -0.431,5.611 3.155,9.496 7.794,9.58 2.961,0.055 5.342,-0.998 6.632,-3.008 1.072,-1.671 1.346,-4.248 1.52,-3.057 0.625,4.541 -1.278,8.907 -2.307,12.721 1.148,-0.418 2.59,-0.627 4.034,-0.633 h 0.023 c 1.443,0.006 2.883,0.215 4.028,0.633 -1.028,-3.814 -2.926,-8.18 -2.303,-12.721 0.174,-1.191 0.447,1.386 1.517,3.057 1.289,2.01 3.671,3.063 6.631,3.008 4.638,-0.084 8.226,-3.969 7.794,-9.58 -0.909,-11.793 -9.77,-21.254 -17.359,-26.104 -0.082,-0.061 -0.155,-0.099 -0.274,-0.18 z" />
      <path
         inkscape:connector-curvature="0"
         id="path4349"
         style="fill:#231f20;fill-opacity:1;fill-rule:evenodd;stroke:none;stroke-width:0.1"
         d="m 946.539,292.474 c -0.101,0.067 -0.173,0.103 -0.293,0.18 -7.593,4.85 -16.455,14.311 -17.363,26.104 -0.431,5.611 3.155,9.496 7.793,9.58 2.961,0.055 5.342,-0.998 6.633,-3.008 1.072,-1.671 1.346,-4.248 1.52,-3.057 0.625,4.541 -1.278,8.907 -2.307,12.721 1.146,-0.418 2.59,-0.627 4.033,-0.633 h 0.024 c 1.443,0.006 2.883,0.215 4.027,0.633 -1.027,-3.814 -2.926,-8.18 -2.302,-12.721 0.173,-1.191 0.446,1.386 1.517,3.057 1.289,2.01 3.67,3.063 6.631,3.008 4.639,-0.084 8.227,-3.969 7.793,-9.58 -0.908,-11.793 -9.77,-21.254 -17.358,-26.104 -0.082,-0.061 -0.156,-0.099 -0.275,-0.18 h -0.073" />
      <path
         inkscape:connector-curvature="0"
         id="path4351"
         style="fill:none;stroke:#231f20;stroke-width:1;stroke-linecap:butt;stroke-linejoin:round;stroke-miterlimit:4;stroke-dasharray:none;stroke-opacity:1"
         d="m 946.539,292.474 c -0.101,0.067 -0.173,0.103 -0.293,0.18 -7.593,4.85 -16.455,14.311 -17.363,26.104 -0.431,5.611 3.155,9.496 7.793,9.58 2.961,0.055 5.342,-0.998 6.633,-3.008 1.072,-1.671 1.346,-4.248 1.52,-3.057 0.625,4.541 -1.278,8.907 -2.307,12.721 1.146,-0.418 2.59,-0.627 4.033,-0.633 h 0.024 c 1.443,0.006 2.883,0.215 4.027,0.633 -1.027,-3.814 -2.926,-8.18 -2.302,-12.721 0.173,-1.191 0.446,1.386 1.517,3.057 1.289,2.01 3.67,3.063 6.631,3.008 4.639,-0.084 8.227,-3.969 7.793,-9.58 -0.908,-11.793 -9.77,-21.254 -17.358,-26.104 -0.082,-0.061 -0.156,-0.099 -0.275,-0.18 z" />
      <path
         inkscape:connector-curvature="0"
         id="path4353"
         style="fill:#231f20;fill-opacity:1;fill-rule:evenodd;stroke:none;stroke-width:0.1"
         d="m 860.083,344.443 c -0.102,0.067 -0.174,0.103 -0.294,0.18 -7.594,4.85 -16.455,14.311 -17.364,26.104 -0.431,5.611 3.155,9.496 7.794,9.58 2.961,0.054 5.342,-0.998 6.632,-3.008 1.072,-1.671 1.346,-4.248 1.52,-3.057 0.625,4.541 -1.278,8.906 -2.307,12.721 1.148,-0.418 2.59,-0.627 4.034,-0.633 h 0.023 c 1.443,0.006 2.883,0.215 4.028,0.633 -1.028,-3.815 -2.926,-8.18 -2.303,-12.721 0.174,-1.191 0.447,1.386 1.517,3.057 1.289,2.01 3.671,3.062 6.631,3.008 4.638,-0.084 8.226,-3.969 7.794,-9.58 -0.909,-11.793 -9.77,-21.254 -17.359,-26.104 -0.082,-0.062 -0.155,-0.1 -0.274,-0.18 h -0.072" />
      <path
         inkscape:connector-curvature="0"
         id="path4355"
         style="fill:none;stroke:#231f20;stroke-width:1;stroke-linecap:butt;stroke-linejoin:round;stroke-miterlimit:4;stroke-dasharray:none;stroke-opacity:1"
         d="m 860.083,344.443 c -0.102,0.067 -0.174,0.103 -0.294,0.18 -7.594,4.85 -16.455,14.311 -17.364,26.104 -0.431,5.611 3.155,9.496 7.794,9.58 2.961,0.054 5.342,-0.998 6.632,-3.008 1.072,-1.671 1.346,-4.248 1.52,-3.057 0.625,4.541 -1.278,8.906 -2.307,12.721 1.148,-0.418 2.59,-0.627 4.034,-0.633 h 0.023 c 1.443,0.006 2.883,0.215 4.028,0.633 -1.028,-3.815 -2.926,-8.18 -2.303,-12.721 0.174,-1.191 0.447,1.386 1.517,3.057 1.289,2.01 3.671,3.062 6.631,3.008 4.638,-0.084 8.226,-3.969 7.794,-9.58 -0.909,-11.793 -9.77,-21.254 -17.359,-26.104 -0.082,-0.062 -0.155,-0.1 -0.274,-0.18 z" />
      <path
         inkscape:connector-curvature="0"
         id="path4357"
         style="fill:#231f20;fill-opacity:1;fill-rule:evenodd;stroke:none;stroke-width:0.1"
         d="m 903.311,320.82 c -0.102,0.069 -0.174,0.104 -0.293,0.182 -7.595,4.85 -16.456,14.311 -17.364,26.103 -0.432,5.611 3.155,9.496 7.794,9.581 2.961,0.053 5.341,-0.998 6.632,-3.008 1.073,-1.672 1.346,-4.248 1.52,-3.058 0.625,4.542 -1.277,8.907 -2.307,12.721 1.147,-0.417 2.59,-0.627 4.034,-0.632 h 0.023 c 1.443,0.005 2.883,0.215 4.027,0.632 -1.027,-3.814 -2.925,-8.179 -2.302,-12.721 0.173,-1.19 0.447,1.386 1.517,3.058 1.289,2.01 3.67,3.061 6.631,3.008 4.639,-0.085 8.227,-3.97 7.793,-9.581 -0.908,-11.792 -9.77,-21.253 -17.357,-26.103 -0.082,-0.063 -0.157,-0.1 -0.276,-0.182 h -0.072" />
      <path
         inkscape:connector-curvature="0"
         id="path4359"
         style="fill:none;stroke:#231f20;stroke-width:1;stroke-linecap:butt;stroke-linejoin:round;stroke-miterlimit:4;stroke-dasharray:none;stroke-opacity:1"
         d="m 903.311,320.82 c -0.102,0.069 -0.174,0.104 -0.293,0.182 -7.595,4.85 -16.456,14.311 -17.364,26.103 -0.432,5.611 3.155,9.496 7.794,9.581 2.961,0.053 5.341,-0.998 6.632,-3.008 1.073,-1.672 1.346,-4.248 1.52,-3.058 0.625,4.542 -1.277,8.907 -2.307,12.721 1.147,-0.417 2.59,-0.627 4.034,-0.632 h 0.023 c 1.443,0.005 2.883,0.215 4.027,0.632 -1.027,-3.814 -2.925,-8.179 -2.302,-12.721 0.173,-1.19 0.447,1.386 1.517,3.058 1.289,2.01 3.67,3.061 6.631,3.008 4.639,-0.085 8.227,-3.97 7.793,-9.581 -0.908,-11.792 -9.77,-21.253 -17.357,-26.103 -0.082,-0.063 -0.157,-0.1 -0.276,-0.182 z" />
      <path
         inkscape:connector-curvature="0"
         id="path4361"
         style="fill:#231f20;fill-opacity:1;fill-rule:evenodd;stroke:none;stroke-width:0.1"
         d="m 946.539,344.443 c -0.101,0.067 -0.173,0.103 -0.293,0.18 -7.593,4.85 -16.455,14.311 -17.363,26.104 -0.431,5.611 3.155,9.496 7.793,9.58 2.961,0.054 5.342,-0.998 6.633,-3.008 1.072,-1.671 1.346,-4.248 1.52,-3.057 0.625,4.541 -1.278,8.906 -2.307,12.721 1.146,-0.418 2.59,-0.627 4.033,-0.633 h 0.024 c 1.443,0.006 2.883,0.215 4.027,0.633 -1.027,-3.815 -2.926,-8.18 -2.302,-12.721 0.173,-1.191 0.446,1.386 1.517,3.057 1.289,2.01 3.67,3.062 6.631,3.008 4.639,-0.084 8.227,-3.969 7.793,-9.58 -0.908,-11.793 -9.77,-21.254 -17.358,-26.104 -0.082,-0.062 -0.156,-0.1 -0.275,-0.18 h -0.073" />
      <path
         inkscape:connector-curvature="0"
         id="path4363"
         style="fill:none;stroke:#231f20;stroke-width:1;stroke-linecap:butt;stroke-linejoin:round;stroke-miterlimit:4;stroke-dasharray:none;stroke-opacity:1"
         d="m 946.539,344.443 c -0.101,0.067 -0.173,0.103 -0.293,0.18 -7.593,4.85 -16.455,14.311 -17.363,26.104 -0.431,5.611 3.155,9.496 7.793,9.58 2.961,0.054 5.342,-0.998 6.633,-3.008 1.072,-1.671 1.346,-4.248 1.52,-3.057 0.625,4.541 -1.278,8.906 -2.307,12.721 1.146,-0.418 2.59,-0.627 4.033,-0.633 h 0.024 c 1.443,0.006 2.883,0.215 4.027,0.633 -1.027,-3.815 -2.926,-8.18 -2.302,-12.721 0.173,-1.191 0.446,1.386 1.517,3.057 1.289,2.01 3.67,3.062 6.631,3.008 4.639,-0.084 8.227,-3.969 7.793,-9.58 -0.908,-11.793 -9.77,-21.254 -17.358,-26.104 -0.082,-0.062 -0.156,-0.1 -0.275,-0.18 z" />
    </g>
  </g>
</svg>
